<svg width="2625" height="392" viewBox="0 0 2625 392" fill="none" xmlns="http://www.w3.org/2000/svg">
<rect width="2625" height="391.388" fill="#DC0D01"/>
<circle cx="1310.65" cy="140.879" r="76.7712" fill="#E7E7E7"/>
<circle cx="1310.4" cy="140.625" r="68.6955" fill="url(#paint0_linear_560_137)"/>
<path d="M1325.12 99.3391C1325.1 99.3176 1325.08 99.2985 1325.07 99.2746C1324.71 98.7906 1320.21 93.0117 1310.62 93.0117C1304.45 93.0117 1298.34 94.3563 1294.16 98.2592C1294.14 98.2782 1288.17 104.312 1288.14 104.333L1282.43 110.206L1272.47 121.019C1272 121.525 1272.61 122.291 1273.21 121.95L1285.68 114.843L1301.88 105.615C1302.16 105.452 1302.53 105.549 1302.69 105.833L1310.29 118.717C1310.47 119.014 1310.86 119.104 1311.14 118.914L1319.99 113.059C1320.13 112.965 1320.31 112.936 1320.47 112.978L1332.34 116.028L1341.95 118.495C1342.53 118.646 1342.95 117.933 1342.53 117.495L1325.12 99.3391Z" fill="white"/>
<path d="M1358.86 144.405H1358.93C1358.52 142.459 1357.53 140.932 1355.97 139.822C1353.86 138.321 1350.78 137.57 1346.72 137.57H1345.19C1344.75 137.554 1344.31 137.547 1343.88 137.547H1325.51C1324.29 137.547 1323.38 137.368 1322.78 137.012C1322.18 136.656 1321.89 136.036 1321.89 135.15C1321.89 134.264 1322.18 133.653 1322.78 133.313C1323.38 132.974 1324.29 132.803 1325.51 132.803H1354.61C1354.91 132.803 1355.06 132.439 1354.85 132.225L1354.28 131.636L1346.79 124.149C1346.65 124.009 1346.46 123.928 1346.26 123.928H1326.33C1323.74 123.928 1321.52 124.184 1319.67 124.693C1317.82 125.203 1316.3 125.918 1315.13 126.835C1313.96 127.755 1313.09 128.869 1312.53 130.178C1311.97 131.487 1311.69 132.943 1311.69 134.539C1311.69 136.002 1311.94 137.338 1312.45 138.544C1312.96 139.751 1313.75 140.782 1314.8 141.63C1315.85 142.481 1317.18 143.143 1318.78 143.618C1320.38 144.096 1322.28 144.333 1324.49 144.333H1345.3C1346.56 144.333 1347.48 144.521 1348.06 144.894C1348.63 145.269 1348.92 145.897 1348.92 146.78C1348.92 147.664 1348.63 148.303 1348.06 148.692C1347.48 149.084 1346.56 149.279 1345.3 149.279H1319.71C1319.51 149.279 1319.32 149.358 1319.18 149.5L1311.91 156.772C1311.43 157.244 1311.77 158.054 1312.44 158.054H1344.48C1347.07 158.054 1349.29 157.8 1351.14 157.289C1352.99 156.779 1354.52 156.049 1355.71 155.097C1356.9 154.144 1357.76 152.973 1358.31 151.576C1358.85 150.182 1359.12 148.619 1359.12 146.882C1359.12 145.992 1359.03 145.167 1358.86 144.405Z" fill="white"/>
<path d="M1306.28 132.831C1306.27 132.936 1282.89 132.691 1282.89 132.691C1281.44 132.691 1280.11 132.903 1278.88 133.311C1278.85 133.318 1278.83 133.328 1278.81 133.335C1277.6 133.734 1276.25 134.463 1275.37 135.195C1274.48 135.929 1273.79 136.794 1273.28 137.782C1272.78 138.775 1272.53 139.87 1272.53 141.077C1272.53 142.284 1272.78 143.379 1273.26 144.367C1273.29 144.419 1273.31 144.469 1273.34 144.517C1273.82 145.441 1274.48 146.246 1275.32 146.909C1275.58 147.108 1275.85 147.296 1276.13 147.469C1276.82 147.909 1277.61 148.263 1278.47 148.541C1279.67 148.928 1280.99 149.123 1282.44 149.123H1300.24C1300.34 149.123 1300.42 149.039 1300.42 148.935V144.498C1300.42 144.393 1300.34 144.31 1300.24 144.31H1283.61C1283.44 144.31 1283.35 144.103 1283.48 143.987L1290.38 137.34C1290.41 137.307 1290.46 137.288 1290.51 137.288H1303.44C1306.55 137.288 1309.06 139.269 1309.06 142.371V149.118V149.165L1299.75 157.705C1299.71 157.739 1299.67 157.758 1299.62 157.758H1282.44C1279.52 157.758 1276.82 157.325 1274.34 156.449C1271.86 155.577 1269.73 154.384 1267.93 152.857C1266.14 151.334 1264.73 149.522 1263.72 147.427C1262.69 145.338 1262.18 143.075 1262.18 140.623C1262.18 138.402 1262.6 136.361 1263.44 134.485H1263.39C1263.5 134.235 1263.61 133.988 1263.74 133.744C1264.78 131.672 1266.22 129.89 1268.05 128.399C1269.89 126.907 1272.07 125.759 1274.61 124.954C1277.14 124.142 1279.9 123.74 1282.89 123.74H1301.03L1306.28 132.827V132.831Z" fill="white"/>
<path d="M1317.22 170.67H1316.71L1315.09 172.229H1316.33L1317.94 170.67H1317.22Z" fill="white"/>
<path d="M1271.49 163.508H1270.99L1269.37 165.067H1270.6L1272.22 163.508H1271.49Z" fill="white"/>
<path d="M1327.01 163.508H1326.5L1324.88 165.067H1326.11L1327.73 163.508H1327.01Z" fill="white"/>
<path d="M1347.45 163.508H1346.95L1345.33 165.067H1346.56L1348.18 163.508H1347.45Z" fill="white"/>
<path d="M1359.06 172.183H1357.47V164.996L1359.06 163.449V172.183Z" fill="white"/>
<path d="M1359.06 162.702L1357.47 164.251V163.195L1359.06 161.648V162.702Z" fill="white"/>
<path d="M1355.82 172.183H1354.24V170.039H1348.67V172.183H1347.09V167.816C1347.09 167.179 1347.2 166.592 1347.42 166.056C1347.64 165.52 1347.94 165.059 1348.33 164.673C1348.72 164.288 1349.18 163.987 1349.71 163.772C1350.24 163.557 1350.83 163.449 1351.45 163.449H1355.02C1355.13 163.449 1355.24 163.47 1355.33 163.51C1355.43 163.551 1355.52 163.608 1355.59 163.681C1355.66 163.754 1355.72 163.839 1355.76 163.936C1355.8 164.034 1355.82 164.137 1355.82 164.247V172.183ZM1348.67 168.456H1354.24V165.033H1351.45C1351.41 165.033 1351.3 165.041 1351.14 165.057C1350.99 165.069 1350.81 165.104 1350.6 165.161C1350.4 165.218 1350.18 165.305 1349.96 165.423C1349.73 165.54 1349.52 165.703 1349.33 165.91C1349.14 166.117 1348.98 166.377 1348.85 166.69C1348.73 166.998 1348.67 167.374 1348.67 167.816V168.456Z" fill="white"/>
<path d="M1344.77 165.033H1342.9V172.183H1341.31V165.033H1337.82L1339.5 163.449H1346.39L1344.77 165.033Z" fill="white"/>
<path d="M1336.65 171.385C1336.65 171.499 1336.63 171.605 1336.59 171.702C1336.54 171.8 1336.49 171.885 1336.41 171.958C1336.34 172.027 1336.26 172.082 1336.16 172.122C1336.06 172.163 1335.96 172.183 1335.85 172.183H1332.28C1331.94 172.183 1331.6 172.147 1331.26 172.074C1330.91 172.001 1330.58 171.889 1330.25 171.739C1329.93 171.584 1329.63 171.39 1329.34 171.154C1329.06 170.919 1328.81 170.64 1328.59 170.32C1328.38 169.995 1328.22 169.625 1328.09 169.211C1327.97 168.793 1327.91 168.328 1327.91 167.816V164.996L1329.5 163.449V167.816C1329.5 168.263 1329.56 168.641 1329.68 168.949C1329.8 169.258 1329.96 169.516 1330.15 169.723C1330.34 169.93 1330.55 170.092 1330.78 170.21C1331.01 170.328 1331.22 170.415 1331.43 170.472C1331.63 170.529 1331.81 170.565 1331.97 170.582C1332.13 170.594 1332.23 170.6 1332.28 170.6H1335.06V164.996L1336.65 163.449V171.385Z" fill="white"/>
<path d="M1326.8 169.672C1326.8 169.984 1326.75 170.267 1326.67 170.518C1326.6 170.766 1326.49 170.985 1326.36 171.176C1326.23 171.367 1326.08 171.529 1325.91 171.663C1325.73 171.797 1325.55 171.907 1325.36 171.992C1325.18 172.078 1324.99 172.14 1324.79 172.181C1324.63 172.181 1324.44 172.181 1324.27 172.181H1316.83L1318.44 170.658H1324.25C1324.55 170.658 1324.79 170.569 1324.96 170.39C1325.13 170.212 1325.21 169.972 1325.21 169.672C1325.21 169.525 1325.19 169.391 1325.14 169.27C1325.1 169.148 1325.04 169.042 1324.95 168.953C1324.87 168.864 1324.77 168.795 1324.65 168.746C1324.53 168.697 1324.4 168.673 1324.25 168.673H1320.61C1320.35 168.673 1320.08 168.628 1319.78 168.539C1319.48 168.445 1319.21 168.297 1318.95 168.094C1318.7 167.891 1318.49 167.625 1318.32 167.296C1318.15 166.967 1318.07 166.565 1318.07 166.09C1318.07 165.615 1318.15 165.215 1318.32 164.89C1318.49 164.562 1318.7 164.296 1318.95 164.093C1319.21 163.885 1319.48 163.737 1319.78 163.648C1320.08 163.555 1320.35 163.508 1320.61 163.508H1325.94L1324.27 165.091H1320.61C1320.31 165.091 1320.07 165.183 1319.9 165.365C1319.73 165.548 1319.65 165.79 1319.65 166.09C1319.65 166.395 1319.73 166.636 1319.9 166.815C1320.07 166.99 1320.31 167.077 1320.61 167.077H1324.25H1324.26C1324.43 167.081 1324.61 167.105 1324.8 167.15C1324.99 167.191 1325.18 167.256 1325.37 167.345C1325.56 167.434 1325.74 167.548 1325.91 167.686C1326.08 167.82 1326.23 167.982 1326.36 168.173C1326.5 168.364 1326.6 168.583 1326.68 168.831C1326.76 169.079 1326.8 169.359 1326.8 169.672Z" fill="white"/>
<path d="M1312.77 168.529C1312.77 169.061 1312.68 169.55 1312.49 169.997C1312.31 170.443 1312.05 170.829 1311.73 171.154C1311.4 171.475 1311.02 171.727 1310.57 171.909C1310.13 172.092 1309.64 172.183 1309.12 172.183H1304.84C1304.73 172.183 1304.62 172.163 1304.52 172.122C1304.43 172.082 1304.34 172.027 1304.27 171.958C1304.2 171.885 1304.14 171.8 1304.1 171.702C1304.06 171.605 1304.04 171.499 1304.04 171.385V164.247C1304.04 164.137 1304.06 164.034 1304.1 163.936C1304.14 163.839 1304.2 163.754 1304.27 163.681C1304.34 163.608 1304.43 163.551 1304.52 163.51C1304.62 163.47 1304.73 163.449 1304.84 163.449H1309.12C1309.64 163.449 1310.13 163.541 1310.57 163.723C1311.02 163.906 1311.4 164.16 1311.73 164.485C1312.05 164.805 1312.31 165.191 1312.49 165.642C1312.68 166.089 1312.77 166.576 1312.77 167.104V168.529ZM1311.19 167.104C1311.19 166.795 1311.14 166.513 1311.04 166.257C1310.94 166.001 1310.8 165.784 1310.61 165.605C1310.43 165.423 1310.21 165.283 1309.96 165.185C1309.71 165.084 1309.43 165.033 1309.12 165.033H1305.63V170.6H1309.12C1309.43 170.6 1309.71 170.551 1309.96 170.454C1310.21 170.352 1310.43 170.212 1310.61 170.033C1310.8 169.851 1310.94 169.633 1311.04 169.382C1311.14 169.126 1311.19 168.842 1311.19 168.529V167.104Z" fill="white"/>
<path d="M1302.21 171.516C1302.21 171.629 1302.19 171.734 1302.14 171.83C1302.1 171.927 1302.05 172.012 1301.97 172.085C1301.9 172.153 1301.82 172.208 1301.73 172.248C1301.63 172.288 1301.53 172.309 1301.42 172.309C1301.32 172.309 1301.22 172.29 1301.12 172.254C1301.02 172.218 1300.94 172.159 1300.86 172.079L1295.11 166.073V172.188H1293.54V164.178C1293.54 164.017 1293.58 163.872 1293.67 163.743C1293.76 163.609 1293.88 163.511 1294.02 163.446C1294.17 163.385 1294.32 163.371 1294.48 163.404C1294.64 163.432 1294.77 163.504 1294.88 163.621L1300.64 169.621V164.998L1302.21 163.506V171.516Z" fill="white"/>
<path d="M1291.64 172.183H1290.05V170.039H1284.49V172.183H1282.9V167.816C1282.9 167.179 1283.01 166.592 1283.23 166.056C1283.45 165.52 1283.76 165.059 1284.15 164.673C1284.54 164.288 1285 163.987 1285.53 163.772C1286.06 163.557 1286.64 163.449 1287.27 163.449H1290.84C1290.95 163.449 1291.05 163.47 1291.15 163.51C1291.25 163.551 1291.33 163.608 1291.41 163.681C1291.48 163.754 1291.54 163.839 1291.58 163.936C1291.62 164.034 1291.64 164.137 1291.64 164.247V172.183ZM1284.49 168.456H1290.05V165.033H1287.27C1287.22 165.033 1287.12 165.041 1286.96 165.057C1286.81 165.069 1286.63 165.104 1286.42 165.161C1286.22 165.218 1286 165.305 1285.77 165.423C1285.55 165.54 1285.34 165.703 1285.15 165.91C1284.95 166.117 1284.8 166.377 1284.67 166.69C1284.55 166.998 1284.49 167.374 1284.49 167.816V168.456Z" fill="white"/>
<path d="M1281.48 166.385C1281.48 166.746 1281.43 167.069 1281.34 167.353C1281.25 167.638 1281.13 167.889 1280.98 168.109C1280.83 168.324 1280.65 168.509 1280.45 168.663C1280.26 168.817 1280.05 168.945 1279.83 169.047C1279.61 169.144 1279.39 169.215 1279.17 169.26C1278.95 169.304 1278.74 169.327 1278.55 169.327L1281.86 172.183H1279.41L1276.11 169.327H1274.97L1276.62 167.743H1278.55C1278.75 167.727 1278.93 167.686 1279.09 167.621C1279.26 167.552 1279.4 167.461 1279.52 167.347C1279.64 167.234 1279.73 167.098 1279.8 166.939C1279.86 166.777 1279.89 166.592 1279.89 166.385V165.386C1279.89 165.297 1279.88 165.23 1279.86 165.185C1279.84 165.136 1279.81 165.102 1279.77 165.082C1279.74 165.057 1279.7 165.043 1279.66 165.039C1279.63 165.035 1279.59 165.033 1279.56 165.033H1274.33V172.183H1272.75V164.247C1272.75 164.137 1272.77 164.034 1272.81 163.936C1272.85 163.839 1272.91 163.754 1272.98 163.681C1273.05 163.608 1273.13 163.551 1273.23 163.51C1273.33 163.47 1273.43 163.449 1273.55 163.449H1279.56C1279.91 163.449 1280.21 163.514 1280.45 163.644C1280.7 163.77 1280.9 163.93 1281.05 164.125C1281.2 164.316 1281.31 164.523 1281.37 164.747C1281.44 164.97 1281.48 165.179 1281.48 165.374V166.385Z" fill="white"/>
<path d="M1270.91 171.444C1270.91 171.558 1270.89 171.663 1270.85 171.761C1270.81 171.858 1270.76 171.944 1270.68 172.017C1270.61 172.086 1270.53 172.14 1270.43 172.181C1270.34 172.222 1270.23 172.242 1270.12 172.242H1264.4C1264.26 172.242 1264.1 172.226 1263.93 172.193C1263.76 172.157 1263.59 172.102 1263.43 172.029C1263.27 171.956 1263.11 171.862 1262.96 171.749C1262.81 171.631 1262.68 171.491 1262.56 171.328C1262.44 171.162 1262.35 170.971 1262.28 170.756C1262.21 170.537 1262.18 170.291 1262.18 170.019V165.731C1262.18 165.585 1262.2 165.428 1262.23 165.262C1262.26 165.091 1262.32 164.925 1262.39 164.763C1262.47 164.596 1262.56 164.438 1262.68 164.287C1262.8 164.137 1262.94 164.005 1263.1 163.892C1263.27 163.774 1263.46 163.68 1263.67 163.611C1263.89 163.542 1264.13 163.508 1264.4 163.508L1270.61 163.508L1268.93 165.091H1264.4C1264.2 165.091 1264.04 165.146 1263.93 165.256C1263.82 165.365 1263.76 165.528 1263.76 165.743V170.019C1263.76 170.222 1263.82 170.38 1263.93 170.494C1264.04 170.604 1264.2 170.658 1264.4 170.658H1269.33V168.673L1265.16 168.712L1266.89 167.077H1270.12C1270.23 167.077 1270.34 167.099 1270.43 167.144C1270.53 167.185 1270.61 167.241 1270.68 167.315C1270.76 167.388 1270.81 167.473 1270.85 167.57C1270.89 167.664 1270.91 167.765 1270.91 167.875V171.444Z" fill="white"/>
<path d="M1392.48 259.992C1395.06 257.505 1402.9 249.769 1407.68 245.054C1409.8 242.96 1413.2 242.974 1415.3 245.089L1429.97 259.832C1430.28 260.146 1430.82 259.923 1430.82 259.479V251.235C1430.82 251.103 1430.76 250.976 1430.67 250.883L1417.74 237.885C1416.74 236.881 1415.39 236.318 1413.97 236.318H1408.66C1407.22 236.318 1405.85 236.89 1404.84 237.909L1391.9 250.915C1391.8 251.007 1391.75 251.131 1391.75 251.261L1391.64 259.625C1391.64 260.067 1392.16 260.297 1392.48 259.992Z" fill="white"/>
<path d="M1225.18 272.693H1218.29V263.368H1194.08V272.693H1187.19V253.699C1187.19 250.926 1187.67 248.374 1188.62 246.043C1189.57 243.712 1190.9 241.707 1192.59 240.03C1194.29 238.352 1196.29 237.045 1198.61 236.109C1200.92 235.173 1203.45 234.705 1206.18 234.705H1221.71C1222.18 234.705 1222.63 234.793 1223.06 234.97C1223.48 235.146 1223.85 235.394 1224.17 235.712C1224.49 236.029 1224.74 236.4 1224.91 236.824C1225.09 237.248 1225.18 237.698 1225.18 238.175V272.693ZM1194.08 256.481H1218.29V241.593H1206.18C1205.97 241.593 1205.52 241.628 1204.83 241.699C1204.16 241.752 1203.38 241.902 1202.47 242.149C1201.59 242.396 1200.66 242.776 1199.67 243.288C1198.68 243.8 1197.77 244.507 1196.94 245.407C1196.11 246.308 1195.42 247.438 1194.87 248.798C1194.34 250.14 1194.08 251.774 1194.08 253.699V256.481ZM1270.42 269.223C1270.42 269.718 1270.34 270.177 1270.16 270.601C1269.98 271.024 1269.74 271.395 1269.42 271.713C1269.1 272.013 1268.73 272.252 1268.31 272.428C1267.88 272.605 1267.43 272.693 1266.95 272.693H1251.43C1249.96 272.693 1248.48 272.534 1246.98 272.217C1245.48 271.899 1244.02 271.413 1242.61 270.759C1241.21 270.088 1239.9 269.241 1238.66 268.216C1237.43 267.192 1236.34 265.982 1235.4 264.587C1234.49 263.174 1233.76 261.567 1233.23 259.766C1232.7 257.947 1232.44 255.924 1232.44 253.699V234.705H1239.32V253.699C1239.32 255.642 1239.59 257.284 1240.12 258.626C1240.67 259.969 1241.36 261.09 1242.19 261.991C1243.02 262.892 1243.92 263.598 1244.91 264.11C1245.9 264.622 1246.84 265.002 1247.72 265.249C1248.62 265.497 1249.41 265.656 1250.08 265.726C1250.77 265.779 1251.22 265.806 1251.43 265.806H1263.54V234.705H1270.42V269.223ZM1312.78 241.593H1297.6V272.693H1290.72V241.593H1275.51V234.705H1312.78V241.593ZM1357.21 257.328C1357.21 259.642 1356.81 261.77 1356.02 263.713C1355.22 265.656 1354.12 267.333 1352.71 268.746C1351.29 270.159 1349.62 271.263 1347.67 272.058C1345.75 272.835 1343.65 273.223 1341.37 273.223H1332.04C1329.77 273.223 1327.65 272.835 1325.71 272.058C1323.77 271.263 1322.09 270.159 1320.68 268.746C1319.27 267.333 1318.15 265.656 1317.34 263.713C1316.55 261.77 1316.15 259.642 1316.15 257.328V250.07C1316.15 247.774 1316.55 245.655 1317.34 243.712C1318.15 241.752 1319.27 240.074 1320.68 238.679C1322.09 237.266 1323.77 236.162 1325.71 235.367C1327.65 234.572 1329.77 234.175 1332.04 234.175H1341.37C1343.65 234.175 1345.75 234.572 1347.67 235.367C1349.62 236.162 1351.29 237.266 1352.71 238.679C1354.12 240.074 1355.22 241.752 1356.02 243.712C1356.81 245.655 1357.21 247.774 1357.21 250.07V257.328ZM1350.32 250.07C1350.32 248.71 1350.1 247.482 1349.66 246.387C1349.24 245.275 1348.63 244.33 1347.83 243.553C1347.06 242.758 1346.11 242.149 1345 241.725C1343.9 241.284 1342.69 241.063 1341.37 241.063H1332.04C1330.7 241.063 1329.47 241.284 1328.36 241.725C1327.27 242.149 1326.32 242.758 1325.53 243.553C1324.73 244.33 1324.11 245.275 1323.67 246.387C1323.25 247.482 1323.04 248.71 1323.04 250.07V257.328C1323.04 258.688 1323.25 259.925 1323.67 261.037C1324.11 262.132 1324.73 263.077 1325.53 263.872C1326.32 264.649 1327.27 265.258 1328.36 265.7C1329.47 266.124 1330.7 266.335 1332.04 266.335H1341.32C1342.66 266.335 1343.88 266.124 1344.97 265.7C1346.08 265.258 1347.04 264.649 1347.83 263.872C1348.63 263.077 1349.24 262.132 1349.66 261.037C1350.1 259.925 1350.32 258.688 1350.32 257.328V250.07ZM1221.92 321.693H1197.07C1196.43 321.693 1195.75 321.623 1195 321.481C1194.28 321.322 1193.56 321.084 1192.83 320.766C1192.13 320.448 1191.45 320.042 1190.79 319.548C1190.14 319.035 1189.56 318.426 1189.04 317.72C1188.55 316.996 1188.15 316.166 1187.85 315.229C1187.55 314.276 1187.4 313.207 1187.4 312.024V293.374C1187.4 292.738 1187.47 292.058 1187.61 291.334C1187.77 290.593 1188.01 289.868 1188.33 289.162C1188.65 288.438 1189.06 287.749 1189.57 287.096C1190.09 286.442 1190.69 285.868 1191.4 285.374C1192.13 284.862 1192.96 284.455 1193.89 284.155C1194.83 283.855 1195.89 283.705 1197.07 283.705H1221.92V290.593H1197.07C1196.17 290.593 1195.48 290.831 1195 291.308C1194.53 291.785 1194.29 292.491 1194.29 293.427V312.024C1194.29 312.907 1194.53 313.596 1195 314.09C1195.5 314.567 1196.19 314.806 1197.07 314.806H1221.92V321.693ZM1259.67 306.169H1237.92V299.229H1259.67V306.169ZM1262.77 321.693H1237.92C1236.97 321.693 1235.92 321.526 1234.79 321.19C1233.66 320.854 1232.61 320.307 1231.64 319.548C1230.69 318.77 1229.88 317.773 1229.23 316.554C1228.6 315.318 1228.28 313.808 1228.28 312.024V287.175C1228.28 286.698 1228.37 286.248 1228.54 285.824C1228.72 285.4 1228.96 285.029 1229.26 284.712C1229.58 284.394 1229.95 284.146 1230.37 283.97C1230.79 283.793 1231.25 283.705 1231.75 283.705H1262.77V290.593H1235.16V312.024C1235.16 312.925 1235.4 313.614 1235.88 314.09C1236.36 314.567 1237.05 314.806 1237.97 314.806H1262.77V321.693ZM1307.41 318.753C1307.41 319.247 1307.31 319.707 1307.12 320.13C1306.94 320.554 1306.69 320.925 1306.37 321.243C1306.07 321.543 1305.71 321.782 1305.29 321.958C1304.86 322.135 1304.41 322.223 1303.94 322.223C1303.51 322.223 1303.08 322.144 1302.64 321.985C1302.21 321.826 1301.83 321.57 1301.5 321.217L1276.33 294.937V321.693H1269.44V286.645C1269.44 285.939 1269.64 285.303 1270.03 284.738C1270.43 284.155 1270.95 283.722 1271.56 283.44C1272.22 283.175 1272.89 283.113 1273.58 283.254C1274.27 283.378 1274.86 283.696 1275.35 284.208L1300.52 310.461V283.705H1307.41V318.753ZM1349.77 290.593H1334.59V321.693H1327.7V290.593H1312.49V283.705H1349.77V290.593ZM1386.09 306.169H1364.34V299.229H1386.09V306.169ZM1389.19 321.693H1364.34C1363.38 321.693 1362.34 321.526 1361.21 321.19C1360.08 320.854 1359.03 320.307 1358.06 319.548C1357.1 318.77 1356.3 317.773 1355.65 316.554C1355.01 315.318 1354.69 313.808 1354.69 312.024V287.175C1354.69 286.698 1354.78 286.248 1354.96 285.824C1355.14 285.4 1355.37 285.029 1355.67 284.712C1355.99 284.394 1356.36 284.146 1356.79 283.97C1357.21 283.793 1357.67 283.705 1358.16 283.705H1389.19V290.593H1361.58V312.024C1361.58 312.925 1361.82 313.614 1362.3 314.09C1362.77 314.567 1363.47 314.806 1364.39 314.806H1389.19V321.693ZM1433.82 296.474C1433.82 298.045 1433.63 299.449 1433.24 300.686C1432.85 301.922 1432.32 303.017 1431.65 303.971C1431 304.907 1430.24 305.71 1429.37 306.381C1428.51 307.053 1427.6 307.609 1426.64 308.05C1425.71 308.474 1424.75 308.783 1423.78 308.978C1422.83 309.172 1421.93 309.269 1421.08 309.269L1435.47 321.693H1424.82L1410.46 309.269H1405.5V302.381H1421.08C1421.95 302.311 1422.73 302.134 1423.44 301.851C1424.16 301.551 1424.78 301.154 1425.29 300.659C1425.82 300.165 1426.23 299.573 1426.51 298.884C1426.79 298.178 1426.94 297.374 1426.94 296.474V292.129C1426.94 291.741 1426.88 291.449 1426.78 291.255C1426.69 291.043 1426.56 290.893 1426.41 290.805C1426.26 290.699 1426.11 290.637 1425.93 290.619C1425.77 290.601 1425.62 290.593 1425.48 290.593H1402.75V321.693H1395.86V287.175C1395.86 286.698 1395.95 286.248 1396.13 285.824C1396.3 285.4 1396.54 285.029 1396.84 284.712C1397.16 284.394 1397.53 284.146 1397.95 283.97C1398.38 283.793 1398.84 283.705 1399.33 283.705H1425.48C1427.01 283.705 1428.31 283.987 1429.37 284.553C1430.43 285.1 1431.29 285.798 1431.94 286.645C1432.61 287.475 1433.09 288.376 1433.37 289.347C1433.67 290.319 1433.82 291.228 1433.82 292.076V296.474Z" fill="white"/>
<defs>
<linearGradient id="paint0_linear_560_137" x1="1310.4" y1="71.9297" x2="1310.4" y2="209.321" gradientUnits="userSpaceOnUse">
<stop stop-color="#E20D01"/>
<stop offset="1" stop-color="#580702"/>
</linearGradient>
</defs>
</svg>
