<svg width="2625" height="1313" viewBox="0 0 2625 1313" fill="none" xmlns="http://www.w3.org/2000/svg">
<rect width="2625" height="1312.5" fill="#F5F5F5"/>
<rect x="1501.71" y="1037.13" width="434.747" height="99.4759" rx="25.7901" fill="#310402" fill-opacity="0.05"/>
<rect x="1965.93" y="1037.13" width="235.795" height="99.4759" rx="25.7901" fill="#310402" fill-opacity="0.05"/>
<path d="M1533.98 1095.61L1527.75 1079.09H1529.89L1535.56 1094.41H1534.58L1540.4 1079.09H1542.32L1548.08 1094.41H1547.11L1552.87 1079.09H1554.91L1548.65 1095.61H1546.54L1541 1081.19H1541.66L1536.09 1095.61H1533.98ZM1561.49 1095.61L1555.26 1079.09H1557.4L1563.07 1094.41H1562.09L1567.91 1079.09H1569.83L1575.59 1094.41H1574.62L1580.38 1079.09H1582.42L1576.16 1095.61H1574.05L1568.51 1081.19H1569.17L1563.6 1095.61H1561.49ZM1589 1095.61L1582.77 1079.09H1584.91L1590.57 1094.41H1589.6L1595.42 1079.09H1597.34L1603.1 1094.41H1602.12L1607.88 1079.09H1609.93L1603.67 1095.61H1601.56L1596.02 1081.19H1596.68L1591.11 1095.61H1589ZM1612.44 1095.77C1611.98 1095.77 1611.58 1095.6 1611.24 1095.26C1610.93 1094.93 1610.77 1094.52 1610.77 1094.04C1610.77 1093.53 1610.93 1093.12 1611.24 1092.81C1611.58 1092.49 1611.98 1092.34 1612.44 1092.34C1612.9 1092.34 1613.29 1092.49 1613.6 1092.81C1613.94 1093.12 1614.11 1093.53 1614.11 1094.04C1614.11 1094.52 1613.94 1094.93 1613.6 1095.26C1613.29 1095.6 1612.9 1095.77 1612.44 1095.77ZM1625.48 1101.87C1623.97 1101.87 1622.52 1101.65 1621.13 1101.21C1619.75 1100.77 1618.63 1100.14 1617.77 1099.32L1618.9 1097.62C1619.68 1098.32 1620.63 1098.86 1621.76 1099.26C1622.92 1099.68 1624.13 1099.89 1625.41 1099.89C1627.51 1099.89 1629.05 1099.4 1630.04 1098.41C1631.03 1097.45 1631.52 1095.93 1631.52 1093.88V1089.76L1631.83 1086.92L1631.61 1084.09V1079.09H1633.75V1093.6C1633.75 1096.45 1633.05 1098.54 1631.65 1099.86C1630.26 1101.2 1628.2 1101.87 1625.48 1101.87ZM1625.07 1094.98C1623.49 1094.98 1622.08 1094.64 1620.82 1093.97C1619.56 1093.28 1618.56 1092.33 1617.83 1091.11C1617.12 1089.89 1616.76 1088.5 1616.76 1086.92C1616.76 1085.35 1617.12 1083.96 1617.83 1082.77C1618.56 1081.55 1619.56 1080.61 1620.82 1079.94C1622.08 1079.26 1623.49 1078.93 1625.07 1078.93C1626.54 1078.93 1627.86 1079.23 1629.03 1079.84C1630.21 1080.45 1631.14 1081.35 1631.83 1082.55C1632.53 1083.74 1632.87 1085.2 1632.87 1086.92C1632.87 1088.64 1632.53 1090.1 1631.83 1091.3C1631.14 1092.49 1630.21 1093.41 1629.03 1094.04C1627.86 1094.67 1626.54 1094.98 1625.07 1094.98ZM1625.29 1093C1626.51 1093 1627.59 1092.75 1628.53 1092.24C1629.47 1091.72 1630.22 1091 1630.76 1090.1C1631.31 1089.18 1631.58 1088.12 1631.58 1086.92C1631.58 1085.73 1631.31 1084.68 1630.76 1083.78C1630.22 1082.87 1629.47 1082.17 1628.53 1081.67C1627.59 1081.14 1626.51 1080.88 1625.29 1080.88C1624.09 1080.88 1623.01 1081.14 1622.05 1081.67C1621.1 1082.17 1620.36 1082.87 1619.81 1083.78C1619.29 1084.68 1619.03 1085.73 1619.03 1086.92C1619.03 1088.12 1619.29 1089.18 1619.81 1090.1C1620.36 1091 1621.1 1091.72 1622.05 1092.24C1623.01 1092.75 1624.09 1093 1625.29 1093ZM1644.41 1095.77C1643.05 1095.77 1641.76 1095.58 1640.54 1095.2C1639.32 1094.8 1638.37 1094.31 1637.68 1093.72L1638.68 1091.96C1639.35 1092.46 1640.21 1092.9 1641.26 1093.28C1642.31 1093.64 1643.41 1093.82 1644.57 1093.82C1646.14 1093.82 1647.27 1093.57 1647.97 1093.09C1648.66 1092.59 1649.01 1091.93 1649.01 1091.11C1649.01 1090.5 1648.81 1090.03 1648.41 1089.69C1648.03 1089.34 1647.53 1089.07 1646.9 1088.91C1646.27 1088.72 1645.56 1088.56 1644.79 1088.43C1644.01 1088.31 1643.24 1088.16 1642.46 1087.99C1641.7 1087.83 1641.01 1087.58 1640.38 1087.27C1639.75 1086.93 1639.24 1086.48 1638.84 1085.92C1638.46 1085.35 1638.27 1084.59 1638.27 1083.65C1638.27 1082.75 1638.53 1081.94 1639.03 1081.23C1639.53 1080.51 1640.27 1079.96 1641.23 1079.56C1642.22 1079.14 1643.41 1078.93 1644.82 1078.93C1645.89 1078.93 1646.96 1079.08 1648.03 1079.37C1649.1 1079.64 1649.98 1080.01 1650.67 1080.47L1649.7 1082.26C1648.96 1081.76 1648.18 1081.4 1647.34 1081.19C1646.5 1080.96 1645.66 1080.85 1644.82 1080.85C1643.33 1080.85 1642.23 1081.11 1641.51 1081.64C1640.82 1082.14 1640.48 1082.79 1640.48 1083.59C1640.48 1084.22 1640.67 1084.71 1641.04 1085.07C1641.44 1085.42 1641.96 1085.71 1642.59 1085.92C1643.24 1086.1 1643.94 1086.26 1644.69 1086.39C1645.47 1086.51 1646.24 1086.67 1646.99 1086.86C1647.77 1087.03 1648.47 1087.27 1649.1 1087.58C1649.75 1087.88 1650.26 1088.31 1650.64 1088.87C1651.04 1089.42 1651.24 1090.14 1651.24 1091.05C1651.24 1092.01 1650.97 1092.85 1650.42 1093.56C1649.9 1094.26 1649.12 1094.8 1648.09 1095.2C1647.09 1095.58 1645.86 1095.77 1644.41 1095.77ZM1654.11 1088.06V1086.1H1662.36V1088.06H1654.11ZM1677.71 1095.61V1091.96L1677.62 1091.36V1085.25C1677.62 1083.85 1677.22 1082.77 1676.42 1082.01C1675.65 1081.26 1674.48 1080.88 1672.93 1080.88C1671.86 1080.88 1670.84 1081.06 1669.88 1081.41C1668.91 1081.77 1668.09 1082.24 1667.42 1082.83L1666.41 1081.16C1667.25 1080.45 1668.26 1079.9 1669.44 1079.53C1670.61 1079.13 1671.85 1078.93 1673.15 1078.93C1675.29 1078.93 1676.94 1079.46 1678.09 1080.53C1679.27 1081.58 1679.85 1083.19 1679.85 1085.35V1095.61H1677.71ZM1672.02 1095.77C1670.78 1095.77 1669.7 1095.57 1668.77 1095.17C1667.87 1094.75 1667.18 1094.18 1666.7 1093.47C1666.21 1092.73 1665.97 1091.9 1665.97 1090.95C1665.97 1090.09 1666.17 1089.31 1666.57 1088.62C1666.99 1087.91 1667.66 1087.34 1668.59 1086.92C1669.53 1086.48 1670.79 1086.26 1672.36 1086.26H1678.06V1087.93H1672.43C1670.83 1087.93 1669.72 1088.21 1669.09 1088.78C1668.48 1089.35 1668.18 1090.05 1668.18 1090.89C1668.18 1091.83 1668.54 1092.59 1669.28 1093.15C1670.01 1093.72 1671.04 1094 1672.36 1094C1673.62 1094 1674.7 1093.72 1675.6 1093.15C1676.53 1092.57 1677.2 1091.73 1677.62 1090.64L1678.12 1092.18C1677.7 1093.27 1676.97 1094.14 1675.92 1094.79C1674.89 1095.44 1673.59 1095.77 1672.02 1095.77ZM1692.75 1095.77C1691.35 1095.77 1690.12 1095.5 1689.07 1094.98C1688.02 1094.46 1687.2 1093.67 1686.61 1092.62C1686.05 1091.57 1685.77 1090.26 1685.77 1088.69V1079.09H1688V1088.43C1688 1090.2 1688.43 1091.53 1689.29 1092.43C1690.17 1093.31 1691.4 1093.75 1692.97 1093.75C1694.13 1093.75 1695.12 1093.52 1695.96 1093.06C1696.82 1092.58 1697.47 1091.89 1697.91 1090.98C1698.38 1090.08 1698.61 1089 1698.61 1087.74V1079.09H1700.84V1095.61H1698.7V1091.08L1699.05 1091.9C1698.52 1093.11 1697.7 1094.07 1696.59 1094.76C1695.5 1095.43 1694.22 1095.77 1692.75 1095.77ZM1712.29 1095.77C1710.74 1095.77 1709.54 1095.35 1708.71 1094.51C1707.87 1093.67 1707.45 1092.48 1707.45 1090.95V1075.44H1709.68V1090.83C1709.68 1091.79 1709.92 1092.54 1710.4 1093.06C1710.91 1093.58 1711.62 1093.85 1712.54 1093.85C1713.53 1093.85 1714.35 1093.56 1715 1093L1715.79 1094.6C1715.35 1095 1714.81 1095.29 1714.18 1095.48C1713.57 1095.67 1712.94 1095.77 1712.29 1095.77ZM1704.49 1080.94V1079.09H1714.72V1080.94H1704.49ZM1726.01 1095.77C1724.41 1095.77 1722.97 1095.41 1721.69 1094.7C1720.43 1093.96 1719.44 1092.97 1718.7 1091.71C1717.97 1090.43 1717.6 1088.97 1717.6 1087.33C1717.6 1085.67 1717.97 1084.22 1718.7 1082.96C1719.44 1081.7 1720.43 1080.71 1721.69 1080C1722.95 1079.29 1724.39 1078.93 1726.01 1078.93C1727.64 1078.93 1729.09 1079.29 1730.35 1080C1731.63 1080.71 1732.63 1081.7 1733.34 1082.96C1734.07 1084.22 1734.44 1085.67 1734.44 1087.33C1734.44 1088.97 1734.07 1090.43 1733.34 1091.71C1732.63 1092.97 1731.63 1093.96 1730.35 1094.7C1729.07 1095.41 1727.62 1095.77 1726.01 1095.77ZM1726.01 1093.78C1727.2 1093.78 1728.26 1093.52 1729.18 1093C1730.11 1092.45 1730.83 1091.7 1731.36 1090.73C1731.9 1089.74 1732.17 1088.61 1732.17 1087.33C1732.17 1086.03 1731.9 1084.9 1731.36 1083.93C1730.83 1082.97 1730.11 1082.22 1729.18 1081.7C1728.26 1081.15 1727.21 1080.88 1726.04 1080.88C1724.86 1080.88 1723.81 1081.15 1722.89 1081.7C1721.97 1082.22 1721.23 1082.97 1720.69 1083.93C1720.14 1084.9 1719.87 1086.03 1719.87 1087.33C1719.87 1088.61 1720.14 1089.74 1720.69 1090.73C1721.23 1091.7 1721.97 1092.45 1722.89 1093C1723.81 1093.52 1724.85 1093.78 1726.01 1093.78ZM1745.86 1095.77C1744.23 1095.77 1742.76 1095.41 1741.46 1094.7C1740.18 1093.96 1739.17 1092.97 1738.44 1091.71C1737.7 1090.43 1737.33 1088.97 1737.33 1087.33C1737.33 1085.67 1737.7 1084.22 1738.44 1082.96C1739.17 1081.7 1740.18 1080.71 1741.46 1080C1742.76 1079.29 1744.23 1078.93 1745.86 1078.93C1747.27 1078.93 1748.54 1079.2 1749.67 1079.75C1750.81 1080.29 1751.7 1081.11 1752.35 1082.2L1750.68 1083.33C1750.11 1082.5 1749.41 1081.88 1748.57 1081.48C1747.73 1081.08 1746.82 1080.88 1745.83 1080.88C1744.66 1080.88 1743.6 1081.15 1742.65 1081.7C1741.71 1082.22 1740.96 1082.97 1740.42 1083.93C1739.87 1084.9 1739.6 1086.03 1739.6 1087.33C1739.6 1088.63 1739.87 1089.77 1740.42 1090.73C1740.96 1091.7 1741.71 1092.45 1742.65 1093C1743.6 1093.52 1744.66 1093.78 1745.83 1093.78C1746.82 1093.78 1747.73 1093.58 1748.57 1093.19C1749.41 1092.79 1750.11 1092.18 1750.68 1091.36L1752.35 1092.49C1751.7 1093.56 1750.81 1094.38 1749.67 1094.95C1748.54 1095.49 1747.27 1095.77 1745.86 1095.77ZM1763.48 1095.77C1761.76 1095.77 1760.25 1095.41 1758.95 1094.7C1757.65 1093.96 1756.63 1092.97 1755.89 1091.71C1755.16 1090.43 1754.79 1088.97 1754.79 1087.33C1754.79 1085.7 1755.14 1084.25 1755.83 1082.99C1756.54 1081.73 1757.51 1080.74 1758.73 1080.03C1759.96 1079.3 1761.35 1078.93 1762.88 1078.93C1764.43 1078.93 1765.81 1079.29 1767 1080C1768.22 1080.69 1769.18 1081.68 1769.87 1082.96C1770.56 1084.22 1770.91 1085.67 1770.91 1087.33C1770.91 1087.44 1770.9 1087.55 1770.88 1087.68C1770.88 1087.78 1770.88 1087.9 1770.88 1088.02H1756.49V1086.36H1769.68L1768.8 1087.02C1768.8 1085.82 1768.54 1084.76 1768.01 1083.84C1767.51 1082.89 1766.82 1082.16 1765.93 1081.64C1765.05 1081.11 1764.03 1080.85 1762.88 1080.85C1761.75 1080.85 1760.73 1081.11 1759.83 1081.64C1758.93 1082.16 1758.22 1082.89 1757.72 1083.84C1757.22 1084.78 1756.96 1085.86 1756.96 1087.08V1087.43C1756.96 1088.69 1757.24 1089.8 1757.78 1090.76C1758.35 1091.71 1759.13 1092.45 1760.11 1093C1761.12 1093.52 1762.26 1093.78 1763.54 1093.78C1764.55 1093.78 1765.48 1093.61 1766.34 1093.25C1767.22 1092.89 1767.98 1092.35 1768.61 1091.61L1769.87 1093.06C1769.13 1093.94 1768.21 1094.61 1767.1 1095.07C1766.01 1095.54 1764.8 1095.77 1763.48 1095.77ZM1783.89 1078.93C1785.23 1078.93 1786.41 1079.19 1787.41 1079.72C1788.44 1080.22 1789.24 1081 1789.81 1082.04C1790.39 1083.09 1790.69 1084.42 1790.69 1086.01V1095.61H1788.45V1086.23C1788.45 1084.49 1788.01 1083.18 1787.13 1082.3C1786.27 1081.39 1785.05 1080.94 1783.48 1080.94C1782.31 1080.94 1781.28 1081.18 1780.4 1081.67C1779.54 1082.13 1778.86 1082.81 1778.38 1083.71C1777.92 1084.59 1777.69 1085.66 1777.69 1086.92V1095.61H1775.45V1079.09H1777.6V1083.62L1777.25 1082.77C1777.77 1081.57 1778.61 1080.64 1779.77 1079.97C1780.92 1079.27 1782.3 1078.93 1783.89 1078.93ZM1801.95 1095.77C1800.4 1095.77 1799.2 1095.35 1798.36 1094.51C1797.52 1093.67 1797.1 1092.48 1797.1 1090.95V1075.44H1799.34V1090.83C1799.34 1091.79 1799.58 1092.54 1800.06 1093.06C1800.56 1093.58 1801.28 1093.85 1802.2 1093.85C1803.19 1093.85 1804 1093.56 1804.66 1093L1805.44 1094.6C1805 1095 1804.47 1095.29 1803.84 1095.48C1803.23 1095.67 1802.6 1095.77 1801.95 1095.77ZM1794.14 1080.94V1079.09H1804.37V1080.94H1794.14ZM1815.94 1095.77C1814.22 1095.77 1812.71 1095.41 1811.41 1094.7C1810.11 1093.96 1809.09 1092.97 1808.36 1091.71C1807.62 1090.43 1807.26 1088.97 1807.26 1087.33C1807.26 1085.7 1807.6 1084.25 1808.3 1082.99C1809.01 1081.73 1809.97 1080.74 1811.19 1080.03C1812.43 1079.3 1813.81 1078.93 1815.35 1078.93C1816.9 1078.93 1818.27 1079.29 1819.47 1080C1820.69 1080.69 1821.64 1081.68 1822.33 1082.96C1823.03 1084.22 1823.37 1085.67 1823.37 1087.33C1823.37 1087.44 1823.36 1087.55 1823.34 1087.68C1823.34 1087.78 1823.34 1087.9 1823.34 1088.02H1808.96V1086.36H1822.14L1821.26 1087.02C1821.26 1085.82 1821 1084.76 1820.48 1083.84C1819.97 1082.89 1819.28 1082.16 1818.4 1081.64C1817.52 1081.11 1816.5 1080.85 1815.35 1080.85C1814.21 1080.85 1813.2 1081.11 1812.29 1081.64C1811.39 1082.16 1810.69 1082.89 1810.18 1083.84C1809.68 1084.78 1809.43 1085.86 1809.43 1087.08V1087.43C1809.43 1088.69 1809.7 1089.8 1810.25 1090.76C1810.81 1091.71 1811.59 1092.45 1812.58 1093C1813.58 1093.52 1814.73 1093.78 1816.01 1093.78C1817.01 1093.78 1817.95 1093.61 1818.81 1093.25C1819.69 1092.89 1820.45 1092.35 1821.07 1091.61L1822.33 1093.06C1821.6 1093.94 1820.68 1094.61 1819.56 1095.07C1818.47 1095.54 1817.27 1095.77 1815.94 1095.77ZM1827.92 1095.61V1079.09H1830.06V1083.59L1829.84 1082.8C1830.3 1081.54 1831.08 1080.59 1832.17 1079.94C1833.26 1079.26 1834.61 1078.93 1836.23 1078.93V1081.1C1836.15 1081.1 1836.06 1081.1 1835.98 1081.1C1835.89 1081.08 1835.81 1081.07 1835.73 1081.07C1833.98 1081.07 1832.62 1081.6 1831.63 1082.67C1830.65 1083.72 1830.16 1085.22 1830.16 1087.17V1095.61H1827.92ZM1840.47 1095.77C1840 1095.77 1839.61 1095.6 1839.27 1095.26C1838.95 1094.93 1838.8 1094.52 1838.8 1094.04C1838.8 1093.53 1838.95 1093.12 1839.27 1092.81C1839.61 1092.49 1840 1092.34 1840.47 1092.34C1840.93 1092.34 1841.32 1092.49 1841.63 1092.81C1841.97 1093.12 1842.13 1093.53 1842.13 1094.04C1842.13 1094.52 1841.97 1094.93 1841.63 1095.26C1841.32 1095.6 1840.93 1095.77 1840.47 1095.77ZM1867.56 1078.93C1868.9 1078.93 1870.07 1079.19 1871.05 1079.72C1872.06 1080.22 1872.84 1081 1873.38 1082.04C1873.95 1083.09 1874.23 1084.42 1874.23 1086.01V1095.61H1872V1086.23C1872 1084.49 1871.58 1083.18 1870.74 1082.3C1869.92 1081.39 1868.76 1080.94 1867.25 1080.94C1866.11 1080.94 1865.13 1081.18 1864.29 1081.67C1863.47 1082.13 1862.83 1082.81 1862.37 1083.71C1861.93 1084.59 1861.71 1085.66 1861.71 1086.92V1095.61H1859.47V1086.23C1859.47 1084.49 1859.05 1083.18 1858.21 1082.3C1857.37 1081.39 1856.2 1080.94 1854.69 1080.94C1853.58 1080.94 1852.6 1081.18 1851.76 1081.67C1850.92 1082.13 1850.27 1082.81 1849.81 1083.71C1849.37 1084.59 1849.15 1085.66 1849.15 1086.92V1095.61H1846.91V1079.09H1849.06V1083.56L1848.71 1082.77C1849.21 1081.57 1850.02 1080.64 1851.13 1079.97C1852.27 1079.27 1853.6 1078.93 1855.13 1078.93C1856.75 1078.93 1858.12 1079.34 1859.25 1080.16C1860.39 1080.95 1861.12 1082.16 1861.46 1083.78L1860.57 1083.43C1861.06 1082.09 1861.91 1081.01 1863.12 1080.19C1864.36 1079.35 1865.84 1078.93 1867.56 1078.93ZM1888.73 1078.93C1890.07 1078.93 1891.25 1079.19 1892.25 1079.72C1893.28 1080.22 1894.08 1081 1894.65 1082.04C1895.23 1083.09 1895.53 1084.42 1895.53 1086.01V1095.61H1893.29V1086.23C1893.29 1084.49 1892.85 1083.18 1891.97 1082.3C1891.11 1081.39 1889.89 1080.94 1888.32 1080.94C1887.14 1080.94 1886.12 1081.18 1885.24 1081.67C1884.37 1082.13 1883.7 1082.81 1883.22 1083.71C1882.76 1084.59 1882.53 1085.66 1882.53 1086.92V1095.61H1880.29V1079.09H1882.43V1083.62L1882.09 1082.77C1882.61 1081.57 1883.45 1080.64 1884.61 1079.97C1885.76 1079.27 1887.13 1078.93 1888.73 1078.93Z" fill="#310402"/>
<path d="M2022.52 1096.79C2021.42 1096.79 2020.4 1096.61 2019.46 1096.25C2018.54 1095.88 2017.74 1095.36 2017.05 1094.7C2016.37 1094.04 2015.84 1093.26 2015.46 1092.37C2015.09 1091.47 2014.9 1090.49 2014.9 1089.43C2014.9 1088.37 2015.09 1087.4 2015.46 1086.5C2015.84 1085.61 2016.38 1084.83 2017.07 1084.17C2017.76 1083.51 2018.56 1083 2019.49 1082.64C2020.42 1082.27 2021.44 1082.08 2022.54 1082.08C2023.64 1082.08 2024.65 1082.25 2025.56 1082.6C2026.48 1082.94 2027.27 1083.46 2027.91 1084.17L2026.96 1085.14C2026.36 1084.53 2025.69 1084.1 2024.96 1083.84C2024.23 1083.57 2023.44 1083.44 2022.6 1083.44C2021.71 1083.44 2020.88 1083.59 2020.13 1083.9C2019.38 1084.19 2018.73 1084.61 2018.16 1085.16C2017.61 1085.69 2017.18 1086.33 2016.86 1087.06C2016.56 1087.77 2016.41 1088.57 2016.41 1089.43C2016.41 1090.29 2016.56 1091.08 2016.86 1091.81C2017.18 1092.54 2017.61 1093.18 2018.16 1093.73C2018.73 1094.27 2019.38 1094.69 2020.13 1094.99C2020.88 1095.28 2021.7 1095.42 2022.58 1095.42C2023.41 1095.42 2024.19 1095.3 2024.92 1095.05C2025.66 1094.8 2026.34 1094.38 2026.96 1093.79L2027.83 1094.95C2027.14 1095.55 2026.34 1096.01 2025.41 1096.33C2024.49 1096.63 2023.53 1096.79 2022.52 1096.79ZM2026.36 1094.76V1089.43H2027.83V1094.95L2026.36 1094.76ZM2036.14 1096.79C2035.07 1096.79 2034.04 1096.61 2033.04 1096.27C2032.07 1095.91 2031.31 1095.46 2030.77 1094.91L2031.37 1093.73C2031.88 1094.22 2032.56 1094.64 2033.42 1094.99C2034.28 1095.32 2035.19 1095.48 2036.14 1095.48C2037.05 1095.48 2037.79 1095.37 2038.35 1095.15C2038.93 1094.92 2039.35 1094.61 2039.61 1094.22C2039.89 1093.84 2040.02 1093.41 2040.02 1092.94C2040.02 1092.38 2039.86 1091.93 2039.53 1091.58C2039.21 1091.24 2038.79 1090.97 2038.27 1090.78C2037.75 1090.57 2037.17 1090.39 2036.53 1090.24C2035.9 1090.09 2035.27 1089.93 2034.63 1089.76C2034 1089.58 2033.42 1089.35 2032.88 1089.06C2032.36 1088.77 2031.93 1088.39 2031.6 1087.93C2031.28 1087.44 2031.12 1086.82 2031.12 1086.05C2031.12 1085.33 2031.31 1084.68 2031.68 1084.08C2032.07 1083.48 2032.65 1083 2033.44 1082.64C2034.22 1082.27 2035.23 1082.08 2036.45 1082.08C2037.26 1082.08 2038.07 1082.2 2038.87 1082.43C2039.67 1082.65 2040.36 1082.96 2040.93 1083.36L2040.42 1084.58C2039.8 1084.17 2039.14 1083.86 2038.43 1083.67C2037.75 1083.48 2037.08 1083.38 2036.43 1083.38C2035.56 1083.38 2034.85 1083.5 2034.28 1083.73C2033.72 1083.97 2033.3 1084.28 2033.02 1084.68C2032.76 1085.07 2032.63 1085.51 2032.63 1086C2032.63 1086.57 2032.79 1087.02 2033.11 1087.37C2033.44 1087.71 2033.86 1087.98 2034.39 1088.17C2034.92 1088.37 2035.51 1088.54 2036.14 1088.69C2036.78 1088.84 2037.4 1089.01 2038.02 1089.19C2038.65 1089.36 2039.23 1089.6 2039.76 1089.89C2040.29 1090.16 2040.72 1090.53 2041.04 1091C2041.37 1091.47 2041.53 1092.08 2041.53 1092.84C2041.53 1093.54 2041.34 1094.2 2040.95 1094.8C2040.57 1095.4 2039.98 1095.88 2039.18 1096.25C2038.39 1096.61 2037.38 1096.79 2036.14 1096.79ZM2056.75 1096.66V1094.27L2056.69 1093.87V1089.87C2056.69 1088.94 2056.43 1088.24 2055.91 1087.74C2055.4 1087.24 2054.63 1087 2053.61 1087C2052.91 1087 2052.24 1087.11 2051.61 1087.35C2050.98 1087.58 2050.44 1087.89 2050 1088.28L2049.34 1087.18C2049.89 1086.71 2050.55 1086.36 2051.32 1086.11C2052.09 1085.85 2052.91 1085.72 2053.76 1085.72C2055.16 1085.72 2056.24 1086.07 2057 1086.77C2057.77 1087.46 2058.16 1088.51 2058.16 1089.93V1096.66H2056.75ZM2053.02 1096.77C2052.2 1096.77 2051.49 1096.63 2050.89 1096.37C2050.3 1096.1 2049.84 1095.73 2049.52 1095.26C2049.21 1094.78 2049.05 1094.22 2049.05 1093.61C2049.05 1093.04 2049.18 1092.53 2049.44 1092.08C2049.72 1091.61 2050.16 1091.24 2050.76 1090.96C2051.38 1090.67 2052.21 1090.53 2053.24 1090.53H2056.98V1091.62H2053.28C2052.24 1091.62 2051.51 1091.81 2051.09 1092.18C2050.7 1092.55 2050.5 1093.01 2050.5 1093.56C2050.5 1094.18 2050.74 1094.68 2051.22 1095.05C2051.7 1095.42 2052.38 1095.61 2053.24 1095.61C2054.07 1095.61 2054.78 1095.42 2055.37 1095.05C2055.98 1094.67 2056.42 1094.11 2056.69 1093.4L2057.02 1094.41C2056.75 1095.13 2056.26 1095.7 2055.58 1096.13C2054.9 1096.55 2054.05 1096.77 2053.02 1096.77ZM2066.62 1096.77C2065.7 1096.77 2064.9 1096.59 2064.21 1096.25C2063.52 1095.9 2062.98 1095.39 2062.6 1094.7C2062.22 1094.01 2062.04 1093.15 2062.04 1092.12V1085.82H2063.5V1091.95C2063.5 1093.11 2063.79 1093.98 2064.35 1094.58C2064.93 1095.15 2065.74 1095.44 2066.77 1095.44C2067.53 1095.44 2068.18 1095.29 2068.73 1094.99C2069.29 1094.67 2069.72 1094.22 2070.01 1093.63C2070.31 1093.03 2070.47 1092.32 2070.47 1091.5V1085.82H2071.93V1096.66H2070.53V1093.69L2070.75 1094.22C2070.41 1095.02 2069.87 1095.65 2069.14 1096.1C2068.43 1096.55 2067.59 1096.77 2066.62 1096.77ZM2079.45 1096.77C2078.43 1096.77 2077.64 1096.49 2077.09 1095.94C2076.54 1095.39 2076.27 1094.61 2076.27 1093.61V1083.42H2077.73V1093.52C2077.73 1094.16 2077.89 1094.64 2078.21 1094.99C2078.54 1095.33 2079.01 1095.51 2079.61 1095.51C2080.26 1095.51 2080.8 1095.32 2081.22 1094.95L2081.74 1096C2081.45 1096.26 2081.1 1096.46 2080.69 1096.58C2080.29 1096.7 2079.87 1096.77 2079.45 1096.77ZM2074.32 1087.04V1085.82H2081.04V1087.04H2074.32ZM2088.45 1096.77C2087.4 1096.77 2086.46 1096.53 2085.62 1096.06C2084.79 1095.58 2084.14 1094.93 2083.65 1094.1C2083.17 1093.26 2082.93 1092.3 2082.93 1091.23C2082.93 1090.14 2083.17 1089.19 2083.65 1088.36C2084.14 1087.53 2084.79 1086.89 2085.62 1086.42C2086.44 1085.95 2087.39 1085.72 2088.45 1085.72C2089.52 1085.72 2090.47 1085.95 2091.3 1086.42C2092.14 1086.89 2092.79 1087.53 2093.26 1088.36C2093.74 1089.19 2093.98 1090.14 2093.98 1091.23C2093.98 1092.3 2093.74 1093.26 2093.26 1094.1C2092.79 1094.93 2092.14 1095.58 2091.3 1096.06C2090.46 1096.53 2089.51 1096.77 2088.45 1096.77ZM2088.45 1095.46C2089.23 1095.46 2089.93 1095.29 2090.53 1094.95C2091.14 1094.59 2091.61 1094.09 2091.96 1093.46C2092.32 1092.81 2092.49 1092.07 2092.49 1091.23C2092.49 1090.38 2092.32 1089.63 2091.96 1089C2091.61 1088.37 2091.14 1087.88 2090.53 1087.53C2089.93 1087.17 2089.24 1087 2088.47 1087C2087.7 1087 2087.01 1087.17 2086.4 1087.53C2085.8 1087.88 2085.31 1088.37 2084.96 1089C2084.6 1089.63 2084.42 1090.38 2084.42 1091.23C2084.42 1092.07 2084.6 1092.81 2084.96 1093.46C2085.31 1094.09 2085.8 1094.59 2086.4 1094.95C2087.01 1095.29 2087.69 1095.46 2088.45 1095.46ZM2106.88 1096.77C2105.81 1096.77 2104.85 1096.53 2103.99 1096.06C2103.15 1095.58 2102.49 1094.93 2102.01 1094.1C2101.53 1093.26 2101.29 1092.3 2101.29 1091.23C2101.29 1090.14 2101.53 1089.19 2102.01 1088.36C2102.49 1087.53 2103.15 1086.89 2103.99 1086.42C2104.85 1085.95 2105.81 1085.72 2106.88 1085.72C2107.81 1085.72 2108.64 1085.89 2109.38 1086.25C2110.13 1086.61 2110.71 1087.15 2111.14 1087.86L2110.04 1088.61C2109.67 1088.06 2109.21 1087.65 2108.66 1087.39C2108.11 1087.13 2107.51 1087 2106.86 1087C2106.09 1087 2105.4 1087.17 2104.78 1087.53C2104.16 1087.88 2103.67 1088.37 2103.31 1089C2102.95 1089.63 2102.77 1090.38 2102.77 1091.23C2102.77 1092.08 2102.95 1092.83 2103.31 1093.46C2103.67 1094.09 2104.16 1094.59 2104.78 1094.95C2105.4 1095.29 2106.09 1095.46 2106.86 1095.46C2107.51 1095.46 2108.11 1095.33 2108.66 1095.07C2109.21 1094.81 2109.67 1094.41 2110.04 1093.87L2111.14 1094.62C2110.71 1095.32 2110.13 1095.86 2109.38 1096.23C2108.64 1096.59 2107.81 1096.77 2106.88 1096.77ZM2118.44 1096.77C2117.31 1096.77 2116.32 1096.53 2115.47 1096.06C2114.62 1095.58 2113.95 1094.93 2113.47 1094.1C2112.98 1093.26 2112.74 1092.3 2112.74 1091.23C2112.74 1090.16 2112.97 1089.21 2113.42 1088.38C2113.89 1087.55 2114.53 1086.91 2115.32 1086.44C2116.14 1085.96 2117.05 1085.72 2118.05 1085.72C2119.07 1085.72 2119.97 1085.95 2120.76 1086.42C2121.56 1086.87 2122.18 1087.52 2122.64 1088.36C2123.09 1089.19 2123.32 1090.14 2123.32 1091.23C2123.32 1091.3 2123.31 1091.37 2123.3 1091.46C2123.3 1091.53 2123.3 1091.6 2123.3 1091.68H2113.86V1090.59H2122.51L2121.93 1091.02C2121.93 1090.24 2121.76 1089.54 2121.42 1088.94C2121.09 1088.32 2120.63 1087.84 2120.05 1087.49C2119.48 1087.15 2118.81 1086.98 2118.05 1086.98C2117.31 1086.98 2116.64 1087.15 2116.05 1087.49C2115.46 1087.84 2114.99 1088.32 2114.66 1088.94C2114.33 1089.56 2114.17 1090.27 2114.17 1091.06V1091.29C2114.17 1092.12 2114.35 1092.85 2114.7 1093.48C2115.08 1094.1 2115.59 1094.59 2116.23 1094.95C2116.89 1095.29 2117.64 1095.46 2118.48 1095.46C2119.15 1095.46 2119.76 1095.35 2120.32 1095.11C2120.9 1094.88 2121.4 1094.52 2121.81 1094.04L2122.64 1094.99C2122.15 1095.57 2121.55 1096.01 2120.82 1096.31C2120.1 1096.61 2119.31 1096.77 2118.44 1096.77ZM2131.84 1085.72C2132.72 1085.72 2133.49 1085.89 2134.15 1086.23C2134.83 1086.56 2135.35 1087.07 2135.72 1087.76C2136.11 1088.45 2136.3 1089.32 2136.3 1090.36V1096.66H2134.83V1090.51C2134.83 1089.36 2134.54 1088.5 2133.97 1087.93C2133.4 1087.33 2132.6 1087.04 2131.57 1087.04C2130.8 1087.04 2130.12 1087.2 2129.55 1087.51C2128.98 1087.82 2128.54 1088.26 2128.22 1088.85C2127.92 1089.43 2127.77 1090.14 2127.77 1090.96V1096.66H2126.3V1085.82H2127.71V1088.79L2127.48 1088.24C2127.82 1087.45 2128.37 1086.84 2129.13 1086.4C2129.89 1085.94 2130.79 1085.72 2131.84 1085.72ZM2143.69 1096.77C2142.67 1096.77 2141.89 1096.49 2141.33 1095.94C2140.78 1095.39 2140.51 1094.61 2140.51 1093.61V1083.42H2141.97V1093.52C2141.97 1094.16 2142.13 1094.64 2142.45 1094.99C2142.78 1095.33 2143.25 1095.51 2143.85 1095.51C2144.5 1095.51 2145.04 1095.32 2145.47 1094.95L2145.98 1096C2145.69 1096.26 2145.34 1096.46 2144.93 1096.58C2144.53 1096.7 2144.12 1096.77 2143.69 1096.77ZM2138.57 1087.04V1085.82H2145.28V1087.04H2138.57ZM2152.87 1096.77C2151.74 1096.77 2150.75 1096.53 2149.9 1096.06C2149.05 1095.58 2148.38 1094.93 2147.9 1094.1C2147.41 1093.26 2147.17 1092.3 2147.17 1091.23C2147.17 1090.16 2147.4 1089.21 2147.85 1088.38C2148.32 1087.55 2148.96 1086.91 2149.76 1086.44C2150.57 1085.96 2151.48 1085.72 2152.48 1085.72C2153.5 1085.72 2154.4 1085.95 2155.19 1086.42C2155.99 1086.87 2156.61 1087.52 2157.07 1088.36C2157.52 1089.19 2157.75 1090.14 2157.75 1091.23C2157.75 1091.3 2157.74 1091.37 2157.73 1091.46C2157.73 1091.53 2157.73 1091.6 2157.73 1091.68H2148.29V1090.59H2156.94L2156.36 1091.02C2156.36 1090.24 2156.19 1089.54 2155.85 1088.94C2155.52 1088.32 2155.06 1087.84 2154.48 1087.49C2153.91 1087.15 2153.24 1086.98 2152.48 1086.98C2151.74 1086.98 2151.07 1087.15 2150.48 1087.49C2149.89 1087.84 2149.42 1088.32 2149.09 1088.94C2148.76 1089.56 2148.6 1090.27 2148.6 1091.06V1091.29C2148.6 1092.12 2148.78 1092.85 2149.14 1093.48C2149.51 1094.1 2150.02 1094.59 2150.66 1094.95C2151.32 1095.29 2152.08 1095.46 2152.92 1095.46C2153.58 1095.46 2154.19 1095.35 2154.75 1095.11C2155.33 1094.88 2155.83 1094.52 2156.24 1094.04L2157.07 1094.99C2156.58 1095.57 2155.98 1096.01 2155.25 1096.31C2154.53 1096.61 2153.74 1096.77 2152.87 1096.77ZM2160.73 1096.66V1085.82H2162.14V1088.77L2161.99 1088.26C2162.3 1087.43 2162.81 1086.8 2163.52 1086.38C2164.24 1085.94 2165.13 1085.72 2166.19 1085.72V1087.14C2166.13 1087.14 2166.08 1087.14 2166.02 1087.14C2165.97 1087.13 2165.91 1087.12 2165.86 1087.12C2164.71 1087.12 2163.82 1087.47 2163.17 1088.17C2162.52 1088.86 2162.2 1089.85 2162.2 1091.13V1096.66H2160.73Z" fill="#310402"/>
<path d="M2280.52 1039.27C2286.84 1045.84 2306.5 1065.78 2318.48 1077.92C2323.8 1083.32 2323.76 1091.98 2318.39 1097.33L2280.93 1134.64C2280.13 1135.44 2280.7 1136.79 2281.83 1136.79L2302.78 1136.79C2303.11 1136.79 2303.43 1136.66 2303.67 1136.42L2336.7 1103.52C2339.25 1100.98 2340.68 1097.54 2340.68 1093.95L2340.68 1080.42C2340.68 1076.77 2339.22 1073.28 2336.63 1070.7L2303.59 1037.78C2303.36 1037.55 2303.04 1037.42 2302.71 1037.41L2281.46 1037.13C2280.33 1037.12 2279.75 1038.46 2280.52 1039.27Z" fill="url(#paint0_linear_560_166)"/>
<path d="M2329.97 1039.27C2336.29 1045.84 2355.95 1065.78 2367.93 1077.92C2373.25 1083.32 2373.21 1091.98 2367.84 1097.33L2330.38 1134.64C2329.58 1135.44 2330.15 1136.79 2331.27 1136.79L2352.22 1136.79C2352.56 1136.79 2352.88 1136.66 2353.12 1136.42L2386.14 1103.52C2388.69 1100.98 2390.12 1097.54 2390.12 1093.95L2390.12 1080.42C2390.12 1076.77 2388.67 1073.28 2386.08 1070.7L2353.03 1037.78C2352.8 1037.55 2352.49 1037.42 2352.16 1037.41L2330.9 1037.13C2329.78 1037.12 2329.2 1038.46 2329.97 1039.27Z" fill="url(#paint1_linear_560_166)"/>
<path fill-rule="evenodd" clip-rule="evenodd" d="M349.899 887.79C328.899 893.246 315.256 900.835 301.099 914.935C287.793 928.19 278.901 943.072 275.667 957.504C272.036 973.703 279.809 986.668 293.139 986.654C299.657 986.647 311.016 981.071 311.016 977.875C311.016 976.903 308.431 977.684 305.272 979.611C291.594 987.951 279.915 980.846 281.412 965.095C282.538 953.263 291.437 939.382 310.133 920.303C327.582 902.494 343.815 892.837 361.944 889.476C372.354 887.548 382.576 890.349 384.628 895.693C387.896 904.212 377.498 921.041 343.709 961.918C330.45 977.957 316.159 996.249 311.949 1002.57C299.832 1020.76 297.775 1034.63 306.31 1040.61C319.173 1049.62 348.695 1035.45 385.181 1002.75L397.8 991.437L376.304 1024.84C364.48 1043.21 353.702 1059.5 352.354 1061.03C351.005 1062.56 345.88 1064.75 340.966 1065.88C305.802 1074 251.694 1114.6 237.132 1143.8C230.547 1157.01 230.087 1162.92 235.147 1169.35C247.574 1185.15 290.583 1161.16 326.599 1118.33C333.957 1109.58 346.382 1093.78 354.209 1083.22L368.442 1064.01L378.751 1064.95C384.421 1065.46 389.434 1066.26 389.89 1066.71C390.346 1067.17 380.54 1082.34 368.099 1100.44C330.942 1154.48 319.982 1174.3 322.257 1183.37C323.665 1188.98 328.9 1190.85 334.671 1187.8C340.054 1184.95 346.062 1177.12 369.639 1142.19C400.356 1096.69 410.787 1082.27 412.641 1082.77C416.015 1083.68 418.813 1095.25 417.821 1104.19C417.021 1111.42 417.259 1112.62 419.131 1110.76C422.533 1107.39 421.92 1089.46 418.159 1082.37L415.022 1076.45L435.911 1048.79C459.965 1016.93 481.014 995.035 494.54 987.789C509.858 979.584 509.277 983.888 492.296 1004.39C471.317 1029.73 469.74 1040 486.661 1041.11C497.35 1041.81 506.2 1037.41 523.838 1022.62C536.486 1012.02 537.081 1011.72 532.928 1018C522.599 1033.61 525.896 1042.39 541.592 1041.09C551.579 1040.26 563.81 1032.95 584.295 1015.57C596.277 1005.41 600.93 1003.04 593.341 1010.96C590.78 1013.64 586.994 1019.65 584.925 1024.33C581.425 1032.24 581.362 1033.13 583.988 1037.14C587.646 1042.73 598.014 1042.96 608.45 1037.7C621.48 1031.13 650.635 1005.79 648.095 1003.25C647.478 1002.64 641.969 1006.68 635.85 1012.25C621.497 1025.3 610.888 1032.61 606.294 1032.61C598.638 1032.61 602.272 1025.44 624.619 996.412C637.133 980.157 637.925 978.644 634.671 977.193C632.729 976.325 629.299 976.08 627.05 976.647C624.801 977.213 611.031 987.787 596.45 1000.14C560.232 1030.83 547.847 1038.28 547.847 1029.35C547.847 1025.2 558.617 1008.67 571.45 993.142C576.938 986.5 581.427 980.337 581.427 979.445C581.427 977.137 567.799 977.435 563.195 979.846C558.074 982.527 531.602 1003.13 528.541 1006.82C524.924 1011.18 527.833 1012.49 532.511 1008.61C534.761 1006.75 532.571 1009.14 527.644 1013.92C511.398 1029.7 494.825 1037.57 494.825 1029.5C494.825 1027.79 500.258 1019.64 506.898 1011.39C524.126 989.977 526.27 984.779 520.327 978.833C507.785 966.294 470.926 994.846 432.086 1047.19C415.257 1069.86 412.418 1072.92 410.204 1070.7C407.009 1067.51 408.523 1065.24 459.035 997.661C479.692 970.025 496.592 946.7 496.592 945.829C496.592 943.16 488.909 944.088 484 947.349C476.863 952.087 416.533 1011.47 417.684 1012.62C418.242 1013.18 426.48 1006.57 435.988 997.937C445.499 989.305 452.39 983.436 451.303 984.894C438.313 1002.33 402.779 1051.06 399.386 1056.09L394.967 1062.64L383.479 1061.52C377.161 1060.91 371.733 1060.19 371.417 1059.93C370.655 1059.29 409.773 1000.68 430.515 971.38C442.355 954.655 451.315 944.258 462.499 934.267C494.045 906.087 503.987 893.922 501.267 886.835C500.627 885.169 497.974 884.152 494.261 884.152C482.764 884.152 467.702 898.714 426.409 949.749C397.788 985.125 372.461 1010.37 352.301 1023.61C335.883 1034.39 326.589 1037.77 322.561 1034.43C315.885 1028.89 322.244 1016.12 346.679 986.005C389.016 933.83 396.911 922.066 398.606 908.641C400.038 897.298 395.197 890.448 383.241 886.897C371.482 883.405 366.242 883.544 349.899 887.79ZM484.661 896.082C475.016 907.719 457.369 931.872 458.512 931.872C461.237 931.872 488.04 906.195 492.769 899.055C501.939 885.215 495.597 882.889 484.661 896.082ZM721.586 977.559C719.451 978.19 706.58 988.586 692.981 1000.66C667.888 1022.93 655.198 1032.61 651.08 1032.61C649.723 1032.61 648.579 1029.93 648.252 1025.99C647.777 1020.24 647.059 1019.28 642.877 1018.8C632.552 1017.61 623.938 1035 632.565 1039.62C641.504 1044.41 652.278 1040.24 672.006 1024.38C678.566 1019.1 683.936 1015.05 683.936 1015.37C683.936 1015.7 682.345 1019.08 680.401 1022.89C676.088 1031.35 675.959 1034.99 679.837 1038.87C684.351 1043.38 695.668 1041.35 707.044 1033.98C717.7 1027.07 738.725 1008.48 738.725 1005.95C738.725 1002.69 735.734 1004.59 722.152 1016.52C706.366 1030.37 701.274 1033.54 697.256 1032C694.724 1031.03 694.786 1030.22 697.856 1024.21C699.738 1020.52 707.716 1009.28 715.583 999.245C732.654 977.462 733.614 973.998 721.586 977.559ZM758.617 981.232C743.126 989.773 721.791 1007.87 727.216 1007.87C727.689 1007.87 735.045 1002.69 743.564 996.352C758.166 985.489 765.939 981.472 768.124 983.658C768.65 984.185 763.428 992.034 756.519 1001.1C740.326 1022.36 735.819 1031.36 738.465 1037.17C740.116 1040.79 741.66 1041.45 748.495 1041.45C757.314 1041.45 763.445 1038.87 776.285 1029.74C780.905 1026.46 785.082 1023.78 785.564 1023.78C786.049 1023.78 786.444 1027 786.444 1030.94C786.444 1037.41 787.021 1038.34 792.464 1040.61C797.685 1042.79 799.633 1042.78 807.148 1040.55C811.912 1039.14 820.278 1034.85 825.737 1031.03L835.661 1024.08L834.684 1030.1C833.319 1038.5 836.354 1041.45 846.35 1041.45C852.775 1041.45 856.619 1040.1 863.948 1035.27C876.576 1026.96 897.79 1007.94 897.79 1004.93C897.79 1003.6 891.24 1008.17 883.236 1015.09C870.843 1025.79 858.082 1034.38 854.56 1034.38C854.035 1034.38 853.605 1032.48 853.605 1030.15C853.605 1025.8 867.456 1005.26 881.385 988.952C885.713 983.886 888.743 978.913 888.115 977.898C885.627 973.872 873.08 977.582 867.842 983.893C865.023 987.29 862.442 987.476 862.442 984.284C862.442 980.141 856.196 976.055 849.931 976.099C834.281 976.207 788.212 1003.42 788.212 1012.55C788.212 1015.47 780.469 1022.59 770.745 1028.63C763.951 1032.84 758.166 1033.82 758.166 1030.76C758.166 1027.53 763.73 1017.92 771.422 1007.87C784.794 990.394 787.756 981.364 781.259 977.886C775.518 974.814 768.33 975.876 758.617 981.232ZM842.117 985.231C832.377 992.14 809.221 1015.73 804.694 1023.36C791.547 1045.5 816.665 1037.91 840.878 1012.42C854.369 998.218 860.138 988.881 858.33 984.171C856.802 980.189 848.457 980.735 842.117 985.231ZM545.666 997.214C542.491 1000.1 540.738 1002.49 541.772 1002.52C542.806 1002.54 545.936 1000.18 548.73 997.265C555.282 990.427 553.165 990.392 545.666 997.214ZM333.003 1072.26C309.125 1081.46 287.489 1095.38 270.684 1112.35C242.908 1140.41 233.73 1166.89 251.275 1168.36C269.299 1169.87 297.33 1142.18 338.165 1082.54C343.656 1074.52 347.151 1068 345.931 1068.05C344.712 1068.1 338.893 1069.99 333.003 1072.26ZM382.573 1104.21C355.524 1143.75 337.527 1172.39 337.608 1175.77C337.7 1179.68 346.338 1168.97 361.475 1146.17C368.734 1135.24 382.253 1115.81 391.519 1103.01C407.187 1081.35 410.073 1075.35 405.549 1073.84C404.564 1073.52 394.225 1087.18 382.573 1104.21Z" fill="#DC0D01"/>
<ellipse cx="1312.83" cy="127.145" rx="68.2929" ry="68.2936" fill="white"/>
<ellipse cx="1312.61" cy="126.924" rx="61.1091" ry="61.1097" fill="url(#paint2_linear_560_166)"/>
<path d="M1325.7 90.1912C1325.68 90.1721 1325.67 90.1551 1325.65 90.1338C1325.33 89.7031 1321.33 84.5625 1312.8 84.5625C1307.31 84.5625 1301.87 85.7586 1298.16 89.2306C1298.14 89.2475 1292.82 94.615 1292.81 94.634L1287.72 99.8578L1278.86 109.476C1278.45 109.926 1278.99 110.607 1279.52 110.304L1290.62 103.983L1305.02 95.7745C1305.28 95.6295 1305.6 95.7156 1305.75 95.9679L1312.51 107.429C1312.66 107.694 1313.01 107.773 1313.26 107.604L1321.13 102.396C1321.26 102.313 1321.41 102.286 1321.56 102.324L1332.12 105.037L1340.67 107.232C1341.19 107.366 1341.56 106.731 1341.19 106.342L1325.7 90.1912Z" fill="white"/>
<path d="M1355.71 130.28H1355.77C1355.41 128.55 1354.53 127.191 1353.15 126.204C1351.27 124.868 1348.52 124.201 1344.91 124.201H1343.56C1343.16 124.186 1342.77 124.179 1342.39 124.179H1326.04C1324.96 124.179 1324.15 124.021 1323.62 123.704C1323.09 123.387 1322.82 122.835 1322.82 122.047C1322.82 121.259 1323.09 120.716 1323.62 120.414C1324.15 120.112 1324.96 119.959 1326.04 119.959H1351.93C1352.2 119.959 1352.33 119.636 1352.15 119.446L1351.64 118.922L1344.97 112.261C1344.85 112.136 1344.68 112.064 1344.5 112.064H1326.77C1324.47 112.064 1322.5 112.293 1320.85 112.745C1319.2 113.199 1317.86 113.835 1316.81 114.651C1315.77 115.469 1315 116.46 1314.5 117.624C1314 118.789 1313.75 120.084 1313.75 121.504C1313.75 122.806 1313.98 123.993 1314.43 125.067C1314.89 126.14 1315.58 127.058 1316.52 127.812C1317.46 128.569 1318.64 129.158 1320.06 129.581C1321.48 130.005 1323.17 130.217 1325.14 130.217H1343.65C1344.77 130.217 1345.59 130.384 1346.1 130.716C1346.62 131.049 1346.87 131.607 1346.87 132.393C1346.87 133.18 1346.62 133.748 1346.1 134.095C1345.59 134.443 1344.77 134.616 1343.65 134.616H1320.89C1320.71 134.616 1320.54 134.686 1320.41 134.813L1313.94 141.282C1313.52 141.702 1313.82 142.423 1314.42 142.423H1342.92C1345.22 142.423 1347.2 142.197 1348.85 141.742C1350.49 141.288 1351.85 140.639 1352.91 139.792C1353.97 138.944 1354.74 137.903 1355.22 136.66C1355.71 135.419 1355.95 134.029 1355.95 132.484C1355.95 131.692 1355.87 130.959 1355.71 130.28Z" fill="white"/>
<path d="M1308.94 119.988C1308.93 120.081 1288.13 119.863 1288.13 119.863C1286.85 119.863 1285.66 120.051 1284.56 120.414C1284.54 120.421 1284.52 120.429 1284.5 120.436C1283.43 120.791 1282.23 121.439 1281.45 122.09C1280.65 122.743 1280.04 123.512 1279.59 124.391C1279.14 125.275 1278.92 126.249 1278.92 127.322C1278.92 128.396 1279.14 129.37 1279.57 130.249C1279.59 130.296 1279.61 130.34 1279.64 130.382C1280.06 131.204 1280.65 131.921 1281.4 132.51C1281.63 132.688 1281.87 132.855 1282.12 133.009C1282.73 133.4 1283.43 133.715 1284.2 133.962C1285.27 134.307 1286.45 134.48 1287.73 134.48H1303.56C1303.66 134.48 1303.73 134.406 1303.73 134.313V130.366C1303.73 130.273 1303.66 130.199 1303.56 130.199H1288.77C1288.62 130.199 1288.55 130.015 1288.65 129.911L1294.79 123.998C1294.83 123.969 1294.87 123.952 1294.91 123.952H1306.42C1309.18 123.952 1311.42 125.714 1311.42 128.474V134.476V134.518L1303.13 142.115C1303.1 142.144 1303.06 142.161 1303.01 142.161H1287.73C1285.13 142.161 1282.73 141.777 1280.53 140.997C1278.32 140.221 1276.42 139.161 1274.83 137.802C1273.23 136.447 1271.98 134.835 1271.08 132.971C1270.17 131.114 1269.71 129.1 1269.71 126.919C1269.71 124.943 1270.09 123.128 1270.83 121.458H1270.79C1270.88 121.236 1270.99 121.017 1271.09 120.799C1272.02 118.956 1273.3 117.371 1274.93 116.044C1276.56 114.717 1278.51 113.697 1280.77 112.98C1283.02 112.258 1285.48 111.9 1288.13 111.9H1304.27L1308.94 119.983V119.988Z" fill="white"/>
<path d="M1318.67 153.645H1318.22L1316.78 155.031H1317.87L1319.31 153.645H1318.67Z" fill="white"/>
<path d="M1277.99 147.279H1277.55L1276.1 148.666H1277.2L1278.64 147.279H1277.99Z" fill="white"/>
<path d="M1327.38 147.279H1326.93L1325.49 148.666H1326.58L1328.02 147.279H1327.38Z" fill="white"/>
<path d="M1345.56 147.279H1345.12L1343.67 148.666H1344.77L1346.21 147.279H1345.56Z" fill="white"/>
<path d="M1355.89 154.994H1354.48V148.601L1355.89 147.225V154.994Z" fill="white"/>
<path d="M1355.89 146.562L1354.48 147.94V147.001L1355.89 145.625V146.562Z" fill="white"/>
<path d="M1353.01 154.994H1351.6V153.087H1346.65V154.994H1345.24V151.109C1345.24 150.542 1345.34 150.02 1345.53 149.544C1345.73 149.067 1346 148.657 1346.34 148.314C1346.69 147.971 1347.1 147.703 1347.57 147.512C1348.05 147.32 1348.56 147.225 1349.12 147.225H1352.3C1352.4 147.225 1352.49 147.243 1352.57 147.279C1352.66 147.315 1352.74 147.365 1352.8 147.431C1352.87 147.496 1352.92 147.571 1352.95 147.658C1352.99 147.745 1353.01 147.837 1353.01 147.934V154.994ZM1346.65 151.678H1351.6V148.633H1349.12C1349.08 148.633 1348.99 148.641 1348.85 148.655C1348.71 148.666 1348.55 148.697 1348.36 148.747C1348.18 148.798 1347.99 148.875 1347.79 148.98C1347.59 149.085 1347.4 149.229 1347.23 149.414C1347.06 149.598 1346.92 149.829 1346.81 150.107C1346.7 150.382 1346.65 150.716 1346.65 151.109V151.678Z" fill="white"/>
<path d="M1343.18 148.633H1341.51V154.994H1340.1V148.633H1336.99L1338.49 147.225H1344.62L1343.18 148.633Z" fill="white"/>
<path d="M1335.95 154.285C1335.95 154.386 1335.94 154.48 1335.9 154.566C1335.86 154.653 1335.81 154.729 1335.75 154.794C1335.68 154.855 1335.61 154.904 1335.52 154.94C1335.43 154.976 1335.34 154.994 1335.24 154.994H1332.07C1331.77 154.994 1331.47 154.962 1331.16 154.897C1330.85 154.832 1330.55 154.732 1330.26 154.599C1329.98 154.461 1329.71 154.288 1329.46 154.079C1329.2 153.869 1328.98 153.622 1328.79 153.336C1328.6 153.047 1328.45 152.719 1328.35 152.35C1328.24 151.978 1328.18 151.565 1328.18 151.109V148.601L1329.59 147.225V151.109C1329.59 151.507 1329.65 151.843 1329.75 152.117C1329.87 152.392 1330.01 152.621 1330.18 152.805C1330.35 152.99 1330.53 153.134 1330.74 153.239C1330.94 153.344 1331.13 153.421 1331.31 153.472C1331.49 153.522 1331.65 153.555 1331.79 153.569C1331.93 153.58 1332.03 153.586 1332.07 153.586H1334.54V148.601L1335.95 147.225V154.285Z" fill="white"/>
<path d="M1327.19 152.763C1327.19 153.041 1327.15 153.292 1327.08 153.516C1327.01 153.736 1326.92 153.931 1326.8 154.101C1326.69 154.271 1326.55 154.415 1326.4 154.534C1326.24 154.653 1326.08 154.751 1325.92 154.827C1325.75 154.903 1325.58 154.959 1325.41 154.995C1325.27 154.995 1325.09 154.995 1324.94 154.995H1318.32L1319.76 153.64H1324.92C1325.19 153.64 1325.4 153.561 1325.55 153.402C1325.7 153.243 1325.78 153.03 1325.78 152.763C1325.78 152.632 1325.76 152.513 1325.72 152.405C1325.68 152.297 1325.62 152.203 1325.55 152.123C1325.47 152.044 1325.38 151.982 1325.28 151.939C1325.17 151.896 1325.05 151.874 1324.92 151.874H1321.68C1321.46 151.874 1321.21 151.834 1320.95 151.755C1320.68 151.672 1320.44 151.54 1320.21 151.359C1319.99 151.179 1319.8 150.942 1319.65 150.649C1319.5 150.357 1319.42 149.999 1319.42 149.577C1319.42 149.154 1319.5 148.798 1319.65 148.509C1319.8 148.217 1319.99 147.98 1320.21 147.799C1320.44 147.615 1320.68 147.483 1320.95 147.404C1321.21 147.321 1321.46 147.279 1321.68 147.279H1326.42L1324.94 148.688H1321.68C1321.42 148.688 1321.21 148.769 1321.06 148.932C1320.91 149.094 1320.83 149.309 1320.83 149.577C1320.83 149.848 1320.91 150.062 1321.06 150.221C1321.21 150.377 1321.42 150.454 1321.68 150.454H1324.92H1324.93C1325.09 150.458 1325.25 150.48 1325.42 150.519C1325.59 150.555 1325.75 150.613 1325.92 150.693C1326.09 150.772 1326.25 150.873 1326.4 150.996C1326.55 151.115 1326.69 151.26 1326.8 151.43C1326.92 151.599 1327.02 151.794 1327.09 152.015C1327.15 152.235 1327.19 152.484 1327.19 152.763Z" fill="white"/>
<path d="M1314.71 151.743C1314.71 152.217 1314.63 152.652 1314.46 153.049C1314.3 153.446 1314.08 153.79 1313.79 154.079C1313.5 154.364 1313.15 154.588 1312.76 154.75C1312.36 154.913 1311.93 154.994 1311.46 154.994H1307.66C1307.56 154.994 1307.46 154.976 1307.38 154.94C1307.29 154.904 1307.21 154.855 1307.15 154.794C1307.09 154.729 1307.04 154.653 1307 154.566C1306.97 154.48 1306.95 154.386 1306.95 154.285V147.934C1306.95 147.837 1306.97 147.745 1307 147.658C1307.04 147.571 1307.09 147.496 1307.15 147.431C1307.21 147.365 1307.29 147.315 1307.38 147.279C1307.46 147.243 1307.56 147.225 1307.66 147.225H1311.46C1311.93 147.225 1312.36 147.306 1312.76 147.468C1313.15 147.631 1313.5 147.857 1313.79 148.146C1314.08 148.431 1314.3 148.774 1314.46 149.175C1314.63 149.572 1314.71 150.006 1314.71 150.476V151.743ZM1313.3 150.476C1313.3 150.201 1313.26 149.95 1313.17 149.722C1313.08 149.495 1312.96 149.302 1312.8 149.143C1312.63 148.98 1312.44 148.855 1312.21 148.769C1311.99 148.678 1311.74 148.633 1311.46 148.633H1308.36V153.586H1311.46C1311.74 153.586 1311.99 153.542 1312.21 153.456C1312.44 153.365 1312.63 153.241 1312.8 153.082C1312.96 152.919 1313.08 152.726 1313.17 152.502C1313.26 152.274 1313.3 152.022 1313.3 151.743V150.476Z" fill="white"/>
<path d="M1305.31 154.399C1305.31 154.5 1305.29 154.593 1305.25 154.679C1305.22 154.765 1305.17 154.841 1305.1 154.905C1305.04 154.966 1304.97 155.015 1304.88 155.051C1304.8 155.087 1304.71 155.105 1304.61 155.105C1304.52 155.105 1304.43 155.089 1304.34 155.056C1304.26 155.024 1304.18 154.972 1304.11 154.9L1299 149.558V154.997H1297.6V147.872C1297.6 147.729 1297.64 147.599 1297.72 147.485C1297.8 147.366 1297.9 147.278 1298.03 147.221C1298.16 147.167 1298.3 147.154 1298.44 147.183C1298.58 147.208 1298.7 147.273 1298.8 147.377L1303.91 152.714V148.601L1305.31 147.275V154.399Z" fill="white"/>
<path d="M1295.91 154.994H1294.51V153.087H1289.55V154.994H1288.14V151.109C1288.14 150.542 1288.24 150.02 1288.44 149.544C1288.63 149.067 1288.9 148.657 1289.25 148.314C1289.6 147.971 1290.01 147.703 1290.48 147.512C1290.95 147.32 1291.47 147.225 1292.03 147.225H1295.2C1295.3 147.225 1295.39 147.243 1295.48 147.279C1295.57 147.315 1295.64 147.365 1295.71 147.431C1295.77 147.496 1295.82 147.571 1295.86 147.658C1295.9 147.745 1295.91 147.837 1295.91 147.934V154.994ZM1289.55 151.678H1294.51V148.633H1292.03C1291.99 148.633 1291.89 148.641 1291.75 148.655C1291.62 148.666 1291.46 148.697 1291.27 148.747C1291.09 148.798 1290.9 148.875 1290.7 148.98C1290.49 149.085 1290.31 149.229 1290.14 149.414C1289.97 149.598 1289.83 149.829 1289.72 150.107C1289.61 150.382 1289.55 150.716 1289.55 151.109V151.678Z" fill="white"/>
<path d="M1286.88 149.836C1286.88 150.158 1286.84 150.445 1286.76 150.698C1286.68 150.951 1286.57 151.174 1286.43 151.37C1286.3 151.561 1286.14 151.725 1285.97 151.863C1285.79 152 1285.6 152.114 1285.41 152.204C1285.22 152.291 1285.02 152.354 1284.82 152.394C1284.63 152.433 1284.44 152.453 1284.27 152.453L1287.21 154.994H1285.03L1282.1 152.453H1281.08L1282.55 151.044H1284.27C1284.45 151.03 1284.61 150.994 1284.75 150.936C1284.9 150.875 1285.03 150.793 1285.13 150.692C1285.24 150.591 1285.32 150.47 1285.38 150.329C1285.44 150.185 1285.47 150.02 1285.47 149.836V148.948C1285.47 148.868 1285.46 148.809 1285.43 148.769C1285.42 148.725 1285.39 148.695 1285.36 148.677C1285.33 148.655 1285.3 148.642 1285.26 148.639C1285.23 148.635 1285.2 148.633 1285.17 148.633H1280.52V154.994H1279.11V147.934C1279.11 147.837 1279.13 147.745 1279.17 147.658C1279.2 147.571 1279.25 147.496 1279.31 147.431C1279.38 147.365 1279.45 147.315 1279.54 147.279C1279.63 147.243 1279.72 147.225 1279.82 147.225H1285.17C1285.48 147.225 1285.75 147.282 1285.97 147.398C1286.18 147.51 1286.36 147.653 1286.49 147.826C1286.63 147.996 1286.73 148.18 1286.78 148.379C1286.84 148.577 1286.88 148.763 1286.88 148.937V149.836Z" fill="white"/>
<path d="M1277.48 154.339C1277.48 154.44 1277.46 154.534 1277.42 154.621C1277.39 154.708 1277.34 154.783 1277.27 154.849C1277.21 154.91 1277.14 154.959 1277.05 154.995C1276.96 155.031 1276.87 155.049 1276.77 155.049H1271.69C1271.56 155.049 1271.42 155.035 1271.26 155.006C1271.12 154.973 1270.97 154.924 1270.82 154.859C1270.68 154.794 1270.54 154.711 1270.4 154.61C1270.27 154.505 1270.15 154.381 1270.04 154.236C1269.94 154.088 1269.86 153.918 1269.8 153.727C1269.74 153.532 1269.71 153.313 1269.71 153.071V149.257C1269.71 149.127 1269.72 148.988 1269.75 148.84C1269.78 148.688 1269.83 148.54 1269.9 148.395C1269.96 148.247 1270.05 148.106 1270.15 147.973C1270.26 147.839 1270.38 147.722 1270.53 147.621C1270.68 147.516 1270.84 147.433 1271.04 147.371C1271.23 147.31 1271.44 147.279 1271.69 147.279L1277.2 147.279L1275.72 148.688H1271.69C1271.5 148.688 1271.36 148.737 1271.26 148.834C1271.17 148.932 1271.12 149.076 1271.12 149.268V153.071C1271.12 153.252 1271.17 153.393 1271.26 153.494C1271.37 153.591 1271.51 153.64 1271.69 153.64H1276.07V151.874L1272.36 151.909L1273.9 150.454H1276.77C1276.87 150.454 1276.96 150.474 1277.05 150.514C1277.14 150.55 1277.21 150.601 1277.27 150.666C1277.34 150.731 1277.39 150.807 1277.42 150.893C1277.46 150.976 1277.48 151.067 1277.48 151.164V154.339Z" fill="white"/>
<path d="M1385.62 233.103C1387.91 230.89 1394.89 224.008 1399.14 219.814C1401.02 217.951 1404.05 217.964 1405.92 219.845L1418.97 232.96C1419.25 233.239 1419.72 233.041 1419.72 232.646V225.312C1419.72 225.195 1419.67 225.082 1419.59 224.999L1408.09 213.437C1407.2 212.543 1405.99 212.043 1404.74 212.043H1400.01C1398.73 212.043 1397.51 212.551 1396.61 213.458L1385.1 225.028C1385.02 225.109 1384.97 225.22 1384.97 225.335L1384.87 232.776C1384.87 233.169 1385.33 233.374 1385.62 233.103Z" fill="url(#paint3_linear_560_166)"/>
<path d="M1422.4 265.945C1422.4 267.343 1422.22 268.592 1421.88 269.692C1421.53 270.791 1421.06 271.766 1420.46 272.614C1419.88 273.447 1419.21 274.161 1418.44 274.758C1417.67 275.355 1416.86 275.85 1416.01 276.243C1415.18 276.62 1414.33 276.895 1413.47 277.068C1412.62 277.241 1411.82 277.327 1411.06 277.327L1423.86 288.38H1414.38L1401.61 277.327H1397.2V271.2H1411.06C1411.83 271.137 1412.53 270.98 1413.16 270.729C1413.8 270.462 1414.35 270.108 1414.81 269.668C1415.28 269.228 1415.64 268.702 1415.89 268.089C1416.14 267.461 1416.27 266.746 1416.27 265.945V262.08C1416.27 261.734 1416.22 261.475 1416.13 261.302C1416.05 261.114 1415.94 260.98 1415.8 260.902C1415.67 260.807 1415.53 260.752 1415.37 260.737C1415.23 260.721 1415.1 260.713 1414.97 260.713H1394.75V288.38H1388.63V257.673C1388.63 257.249 1388.71 256.848 1388.86 256.471C1389.02 256.094 1389.23 255.764 1389.5 255.481C1389.78 255.199 1390.11 254.979 1390.49 254.822C1390.87 254.664 1391.27 254.586 1391.71 254.586H1414.97C1416.34 254.586 1417.49 254.837 1418.44 255.34C1419.38 255.827 1420.14 256.448 1420.72 257.202C1421.32 257.94 1421.74 258.741 1422 259.605C1422.26 260.47 1422.4 261.279 1422.4 262.033V265.945Z" fill="#310402"/>
<path d="M1379.93 274.57H1360.58V268.396H1379.93V274.57ZM1382.69 288.38H1360.58C1359.74 288.38 1358.81 288.23 1357.8 287.932C1356.8 287.633 1355.86 287.146 1355 286.471C1354.15 285.779 1353.44 284.892 1352.85 283.808C1352.29 282.708 1352.01 281.365 1352.01 279.778V257.673C1352.01 257.249 1352.08 256.848 1352.24 256.471C1352.4 256.094 1352.61 255.764 1352.88 255.481C1353.16 255.199 1353.49 254.979 1353.87 254.822C1354.24 254.664 1354.65 254.586 1355.09 254.586H1382.69V260.713H1358.13V279.778C1358.13 280.579 1358.35 281.192 1358.77 281.616C1359.19 282.04 1359.81 282.252 1360.63 282.252H1382.69V288.38Z" fill="#310402"/>
<path d="M1347.62 260.713H1334.12V288.38H1327.99V260.713H1314.46V254.586H1347.62V260.713Z" fill="#310402"/>
<path d="M1309.94 285.765C1309.94 286.205 1309.86 286.613 1309.68 286.99C1309.53 287.368 1309.31 287.697 1309.02 287.98C1308.76 288.247 1308.43 288.459 1308.06 288.617C1307.68 288.774 1307.28 288.852 1306.85 288.852C1306.48 288.852 1306.09 288.781 1305.7 288.64C1305.32 288.499 1304.98 288.271 1304.69 287.957L1282.3 264.579V288.381H1276.17V257.203C1276.17 256.575 1276.34 256.009 1276.69 255.506C1277.05 254.988 1277.51 254.603 1278.06 254.352C1278.64 254.116 1279.24 254.061 1279.85 254.187C1280.46 254.297 1280.99 254.579 1281.43 255.035L1303.81 278.389V254.587H1309.94V285.765Z" fill="#310402"/>
<path d="M1267.48 274.57H1248.13V268.396H1267.48V274.57ZM1270.23 288.38H1248.13C1247.28 288.38 1246.35 288.23 1245.35 287.932C1244.34 287.633 1243.41 287.146 1242.54 286.471C1241.7 285.779 1240.98 284.892 1240.4 283.808C1239.83 282.708 1239.55 281.365 1239.55 279.778V257.673C1239.55 257.249 1239.63 256.848 1239.79 256.471C1239.94 256.094 1240.16 255.764 1240.42 255.481C1240.71 255.199 1241.04 254.979 1241.41 254.822C1241.79 254.664 1242.2 254.586 1242.64 254.586H1270.23V260.713H1245.68V279.778C1245.68 280.579 1245.89 281.192 1246.31 281.616C1246.74 282.04 1247.36 282.252 1248.18 282.252H1270.23V288.38Z" fill="#310402"/>
<path d="M1233.89 288.38H1211.79C1211.22 288.38 1210.61 288.317 1209.95 288.191C1209.31 288.05 1208.66 287.837 1208.02 287.555C1207.39 287.272 1206.79 286.911 1206.2 286.471C1205.62 286.015 1205.1 285.473 1204.65 284.845C1204.21 284.2 1203.86 283.462 1203.59 282.629C1203.32 281.781 1203.19 280.831 1203.19 279.778V263.188C1203.19 262.622 1203.25 262.017 1203.38 261.373C1203.52 260.713 1203.73 260.069 1204.01 259.441C1204.3 258.796 1204.66 258.184 1205.12 257.602C1205.58 257.021 1206.12 256.51 1206.75 256.071C1207.39 255.615 1208.13 255.254 1208.96 254.987C1209.79 254.719 1210.74 254.586 1211.79 254.586H1233.89V260.713H1211.79C1210.99 260.713 1210.38 260.925 1209.95 261.349C1209.53 261.774 1209.31 262.402 1209.31 263.235V279.778C1209.31 280.563 1209.53 281.176 1209.95 281.616C1210.39 282.04 1211 282.252 1211.79 282.252H1233.89V288.38Z" fill="#310402"/>
<path d="M1354.24 230.952C1354.24 233.01 1353.89 234.903 1353.18 236.632C1352.48 238.36 1351.49 239.852 1350.24 241.109C1348.98 242.366 1347.49 243.348 1345.76 244.055C1344.05 244.746 1342.18 245.092 1340.15 245.092H1331.86C1329.83 245.092 1327.95 244.746 1326.22 244.055C1324.5 243.348 1323 242.366 1321.75 241.109C1320.49 239.852 1319.5 238.36 1318.78 236.632C1318.07 234.903 1317.72 233.01 1317.72 230.952V224.495C1317.72 222.453 1318.07 220.567 1318.78 218.839C1319.5 217.095 1320.49 215.603 1321.75 214.362C1323 213.105 1324.5 212.123 1326.22 211.416C1327.95 210.709 1329.83 210.355 1331.86 210.355H1340.15C1342.18 210.355 1344.05 210.709 1345.76 211.416C1347.49 212.123 1348.98 213.105 1350.24 214.362C1351.49 215.603 1352.48 217.095 1353.18 218.839C1353.89 220.567 1354.24 222.453 1354.24 224.495V230.952ZM1348.12 224.495C1348.12 223.285 1347.92 222.193 1347.53 221.219C1347.15 220.23 1346.61 219.389 1345.9 218.698C1345.21 217.991 1344.37 217.449 1343.38 217.072C1342.41 216.679 1341.33 216.483 1340.15 216.483H1331.86C1330.66 216.483 1329.57 216.679 1328.58 217.072C1327.61 217.449 1326.77 217.991 1326.06 218.698C1325.35 219.389 1324.8 220.23 1324.41 221.219C1324.03 222.193 1323.84 223.285 1323.84 224.495V230.952C1323.84 232.162 1324.03 233.262 1324.41 234.251C1324.8 235.225 1325.35 236.066 1326.06 236.773C1326.77 237.464 1327.61 238.006 1328.58 238.399C1329.57 238.776 1330.66 238.965 1331.86 238.965H1340.1C1341.3 238.965 1342.38 238.776 1343.36 238.399C1344.35 238.006 1345.19 237.464 1345.9 236.773C1346.61 236.066 1347.15 235.225 1347.53 234.251C1347.92 233.262 1348.12 232.162 1348.12 230.952V224.495Z" fill="#310402"/>
<path d="M1314.73 216.953H1301.22V244.62H1295.1V216.953H1281.57V210.826H1314.73V216.953Z" fill="#310402"/>
<path d="M1277.04 241.533C1277.04 241.973 1276.96 242.381 1276.81 242.758C1276.65 243.135 1276.43 243.465 1276.15 243.748C1275.86 244.015 1275.54 244.227 1275.16 244.384C1274.78 244.541 1274.38 244.62 1273.96 244.62H1260.15C1258.84 244.62 1257.52 244.478 1256.19 244.196C1254.85 243.913 1253.56 243.481 1252.3 242.899C1251.06 242.302 1249.89 241.548 1248.79 240.637C1247.69 239.726 1246.72 238.65 1245.89 237.409C1245.07 236.152 1244.43 234.722 1243.96 233.12C1243.49 231.501 1243.25 229.702 1243.25 227.723V210.826H1249.38V227.723C1249.38 229.451 1249.61 230.912 1250.08 232.106C1250.57 233.3 1251.18 234.298 1251.92 235.099C1252.66 235.9 1253.47 236.529 1254.35 236.984C1255.23 237.44 1256.06 237.778 1256.85 237.998C1257.65 238.218 1258.35 238.359 1258.94 238.422C1259.56 238.469 1259.96 238.493 1260.15 238.493H1270.92V210.826H1277.04V241.533Z" fill="#310402"/>
<path d="M1236.79 244.62H1230.67V236.325H1209.13V244.62H1203V227.723C1203 225.256 1203.42 222.986 1204.27 220.912C1205.12 218.839 1206.3 217.055 1207.81 215.563C1209.32 214.07 1211.1 212.908 1213.16 212.075C1215.21 211.243 1217.46 210.826 1219.9 210.826H1233.71C1234.13 210.826 1234.53 210.905 1234.91 211.062C1235.29 211.219 1235.61 211.439 1235.9 211.722C1236.18 212.004 1236.4 212.334 1236.56 212.711C1236.71 213.089 1236.79 213.489 1236.79 213.913V244.62ZM1209.13 230.197H1230.67V216.953H1219.9C1219.71 216.953 1219.31 216.985 1218.69 217.048C1218.1 217.095 1217.4 217.228 1216.6 217.448C1215.81 217.668 1214.98 218.006 1214.1 218.462C1213.22 218.917 1212.41 219.546 1211.67 220.347C1210.93 221.148 1210.32 222.154 1209.83 223.363C1209.36 224.557 1209.13 226.01 1209.13 227.723V230.197Z" fill="#310402"/>
<defs>
<linearGradient id="paint0_linear_560_166" x1="2340.68" y1="1086.96" x2="2280.17" y2="1086.96" gradientUnits="userSpaceOnUse">
<stop stop-color="#DA0C01"/>
<stop offset="1" stop-color="#600703"/>
</linearGradient>
<linearGradient id="paint1_linear_560_166" x1="2390.12" y1="1086.96" x2="2329.62" y2="1086.96" gradientUnits="userSpaceOnUse">
<stop stop-color="#DA0C01"/>
<stop offset="1" stop-color="#600703"/>
</linearGradient>
<linearGradient id="paint2_linear_560_166" x1="1312.61" y1="65.8145" x2="1312.61" y2="188.034" gradientUnits="userSpaceOnUse">
<stop stop-color="#E20D01"/>
<stop offset="1" stop-color="#580702"/>
</linearGradient>
<linearGradient id="paint3_linear_560_166" x1="1402.3" y1="212.043" x2="1402.3" y2="233.226" gradientUnits="userSpaceOnUse">
<stop stop-color="#DA0C01"/>
<stop offset="1" stop-color="#600703"/>
</linearGradient>
</defs>
</svg>
