<svg width="2334" height="1167" viewBox="0 0 2334 1167" fill="none" xmlns="http://www.w3.org/2000/svg">
<rect width="2333.59" height="1166.8" fill="#970902"/>
<path d="M1093.62 933.237V901.809H1116.02V903.829H1095.91V915.143H1106.55C1110.23 915.143 1113.03 915.892 1114.94 917.388C1116.86 918.885 1117.82 921.085 1117.82 923.988C1117.82 927.011 1116.8 929.316 1114.76 930.903C1112.76 932.459 1109.81 933.237 1105.92 933.237H1093.62ZM1095.91 931.307H1105.96C1109.11 931.307 1111.49 930.708 1113.1 929.511C1114.72 928.284 1115.53 926.473 1115.53 924.078C1115.53 919.379 1112.34 917.029 1105.96 917.029H1095.91V931.307ZM1126.06 933.237V901.809H1128.35V929.376L1149.77 901.809H1151.79V933.237H1149.5V905.715L1128.08 933.237H1126.06ZM1161.15 931.756L1158.5 931.172C1159.76 931.262 1160.78 930.828 1161.55 929.87C1162.36 928.912 1162.99 927.55 1163.44 925.784C1163.92 924.018 1164.26 921.968 1164.47 919.633C1164.68 917.298 1164.83 914.799 1164.92 912.135L1165.24 901.809H1185.66V932.115H1183.37V903.874H1167.3L1167.03 912.315C1166.94 914.799 1166.79 917.179 1166.58 919.454C1166.37 921.728 1166.06 923.779 1165.64 925.605C1165.22 927.401 1164.64 928.852 1163.89 929.96C1163.17 931.067 1162.26 931.666 1161.15 931.756ZM1157.33 940.421L1157.38 931.172H1190.51V940.421H1188.31V933.237H1159.58L1159.53 940.421H1157.33ZM1215.47 933.237V903.156L1216.15 903.874H1204.16V901.809H1229.08V903.874H1217.09L1217.76 903.156V933.237H1215.47ZM1228.81 933.237L1243.27 901.809H1245.56L1260.02 933.237H1257.55L1243.9 903.245H1244.88L1231.28 933.237H1228.81ZM1234.11 924.392L1234.87 922.462H1253.68L1254.45 924.392H1234.11ZM1289.85 933.237V901.809H1292.14V933.237H1289.85ZM1266.54 933.237V901.809H1268.83V933.237H1266.54ZM1268.56 918.286V916.266H1290.12V918.286H1268.56ZM1303.46 933.237V901.809H1305.75V913.303H1316.08C1319.76 913.303 1322.57 914.126 1324.52 915.772C1326.46 917.418 1327.44 919.858 1327.44 923.09C1327.44 926.413 1326.4 928.942 1324.34 930.678C1322.3 932.384 1319.36 933.237 1315.49 933.237H1303.46ZM1305.75 931.307H1315.54C1318.68 931.307 1321.06 930.618 1322.68 929.241C1324.29 927.864 1325.1 925.829 1325.1 923.135C1325.1 920.471 1324.29 918.496 1322.68 917.209C1321.09 915.892 1318.71 915.233 1315.54 915.233H1305.75V931.307ZM1333.23 933.237V901.809H1335.52V933.237H1333.23ZM1346.83 933.237V901.809H1366.27V903.874H1348.44L1349.12 903.156V933.237H1346.83ZM1088.81 991.237L1103.27 959.809H1105.56L1120.02 991.237H1117.55L1103.9 961.245H1104.89L1091.28 991.237H1088.81ZM1094.11 982.392L1094.87 980.462H1113.69L1114.45 982.392H1094.11ZM1151.33 991.462C1149.11 991.462 1147.06 991.073 1145.18 990.294C1143.29 989.486 1141.64 988.364 1140.24 986.927C1138.86 985.49 1137.78 983.814 1137.01 981.898C1136.23 979.953 1135.84 977.828 1135.84 975.523C1135.84 973.218 1136.23 971.108 1137.01 969.192C1137.78 967.247 1138.86 965.556 1140.24 964.119C1141.64 962.682 1143.29 961.575 1145.18 960.796C1147.06 959.988 1149.11 959.584 1151.33 959.584C1153.51 959.584 1155.55 959.988 1157.43 960.796C1159.35 961.575 1161 962.682 1162.37 964.119C1163.78 965.556 1164.87 967.247 1165.65 969.192C1166.43 971.108 1166.82 973.218 1166.82 975.523C1166.82 977.828 1166.43 979.953 1165.65 981.898C1164.87 983.814 1163.78 985.49 1162.37 986.927C1161 988.364 1159.35 989.486 1157.43 990.294C1155.55 991.073 1153.51 991.462 1151.33 991.462ZM1126.54 991.237V959.809H1128.83V974.221H1136.92V976.331H1128.83V991.237H1126.54ZM1151.33 989.352C1153.18 989.352 1154.9 989.007 1156.49 988.319C1158.11 987.63 1159.51 986.673 1160.71 985.445C1161.91 984.188 1162.84 982.722 1163.5 981.045C1164.15 979.369 1164.48 977.528 1164.48 975.523C1164.48 973.518 1164.15 971.677 1163.5 970C1162.84 968.324 1161.91 966.873 1160.71 965.645C1159.51 964.388 1158.11 963.415 1156.49 962.727C1154.9 962.039 1153.18 961.694 1151.33 961.694C1149.47 961.694 1147.74 962.039 1146.12 962.727C1144.53 963.415 1143.14 964.388 1141.94 965.645C1140.78 966.873 1139.85 968.324 1139.16 970C1138.5 971.677 1138.17 973.518 1138.17 975.523C1138.17 977.528 1138.5 979.369 1139.16 981.045C1139.85 982.722 1140.78 984.188 1141.94 985.445C1143.14 986.673 1144.53 987.63 1146.12 988.319C1147.74 989.007 1149.47 989.352 1151.33 989.352ZM1172.54 990.788L1173.26 988.903C1174.73 989.471 1176.15 989.606 1177.53 989.307C1178.9 988.977 1180.21 987.855 1181.43 985.939L1182.96 983.56L1183.23 983.201L1195.62 959.809H1198L1183.5 986.478C1182.6 988.184 1181.54 989.441 1180.31 990.25C1179.11 991.058 1177.84 991.477 1176.49 991.507C1175.18 991.567 1173.86 991.327 1172.54 990.788ZM1183.09 985.401L1169.62 959.809H1172.14L1184.4 983.38L1183.09 985.401ZM1200.35 991.462C1199.99 991.462 1199.64 991.432 1199.28 991.372C1198.95 991.342 1198.56 991.282 1198.11 991.192L1198.38 989.082C1198.89 989.202 1199.38 989.262 1199.86 989.262C1201.24 989.262 1202.34 988.723 1203.18 987.645C1204.05 986.568 1204.71 984.877 1205.16 982.572C1205.61 980.237 1205.91 977.199 1206.06 973.458L1206.5 959.809H1227.11V991.237H1224.82V961.156L1225.5 961.874H1207.94L1208.61 961.156L1208.17 973.413C1208.05 976.586 1207.82 979.309 1207.49 981.584C1207.16 983.829 1206.68 985.685 1206.06 987.152C1205.46 988.618 1204.68 989.711 1203.72 990.429C1202.79 991.118 1201.67 991.462 1200.35 991.462ZM1238.44 991.237V959.809H1257.88V961.874H1240.05L1240.73 961.156V991.237H1238.44ZM1271.37 991.237V979.833L1271.91 981.315L1258.71 959.809H1261.22L1273.21 979.339H1271.95L1283.94 959.809H1286.32L1273.12 981.315L1273.66 979.833V991.237H1271.37ZM1291.84 991.237V959.809H1294.13V987.376L1315.55 959.809H1317.57V991.237H1315.28V963.715L1293.86 991.237H1291.84ZM1304.59 957.429C1302.53 957.429 1300.85 956.95 1299.57 955.992C1298.31 955.005 1297.65 953.658 1297.59 951.951H1299.43C1299.49 953.179 1299.98 954.166 1300.91 954.915C1301.87 955.633 1303.1 955.992 1304.59 955.992C1306.06 955.992 1307.27 955.633 1308.23 954.915C1309.19 954.166 1309.68 953.179 1309.71 951.951H1311.55C1311.52 953.658 1310.86 955.005 1309.58 955.992C1308.29 956.95 1306.63 957.429 1304.59 957.429ZM1347.16 991.462C1344.55 991.462 1342.2 991.118 1340.11 990.429C1338.01 989.711 1336.32 988.708 1335.04 987.421L1336.07 985.715C1337.27 986.882 1338.82 987.795 1340.74 988.454C1342.65 989.112 1344.81 989.441 1347.2 989.441C1350.59 989.441 1353.1 988.813 1354.75 987.556C1356.39 986.299 1357.22 984.607 1357.22 982.482C1357.22 980.986 1356.83 979.758 1356.05 978.801C1355.3 977.813 1354.25 977.079 1352.91 976.601C1351.56 976.122 1349.99 975.882 1348.19 975.882H1341.28V973.907H1348.15C1350.54 973.907 1352.43 973.413 1353.8 972.425C1355.18 971.407 1355.87 969.956 1355.87 968.07C1355.87 966.603 1355.45 965.391 1354.61 964.433C1353.8 963.475 1352.73 962.787 1351.38 962.368C1350.06 961.919 1348.61 961.694 1347.02 961.694C1345.92 961.694 1344.78 961.799 1343.61 962.009C1342.44 962.218 1341.34 962.532 1340.29 962.951C1339.24 963.341 1338.27 963.834 1337.37 964.433L1336.56 962.547C1338.09 961.59 1339.77 960.871 1341.59 960.392C1343.42 959.883 1345.23 959.629 1347.02 959.629C1348.49 959.629 1349.9 959.794 1351.24 960.123C1352.59 960.452 1353.77 960.961 1354.79 961.649C1355.84 962.338 1356.66 963.206 1357.26 964.254C1357.86 965.271 1358.16 966.469 1358.16 967.845C1358.16 969.312 1357.81 970.614 1357.13 971.752C1356.44 972.859 1355.43 973.742 1354.12 974.401C1352.83 975.029 1351.29 975.343 1349.49 975.343L1349.67 974.49C1351.5 974.49 1353.16 974.805 1354.66 975.433C1356.15 976.062 1357.34 976.975 1358.2 978.172C1359.07 979.369 1359.51 980.851 1359.51 982.617C1359.51 984.353 1359.04 985.894 1358.11 987.241C1357.19 988.558 1355.81 989.591 1353.98 990.339C1352.16 991.088 1349.88 991.462 1347.16 991.462ZM1381.38 991.462C1379.05 991.462 1376.88 991.073 1374.87 990.294C1372.9 989.486 1371.16 988.364 1369.67 986.927C1368.2 985.46 1367.06 983.769 1366.25 981.854C1365.45 979.908 1365.04 977.798 1365.04 975.523C1365.04 973.248 1365.45 971.153 1366.25 969.237C1367.06 967.292 1368.2 965.6 1369.67 964.164C1371.16 962.697 1372.9 961.575 1374.87 960.796C1376.88 959.988 1379.05 959.584 1381.38 959.584C1383.72 959.584 1385.87 959.988 1387.85 960.796C1389.86 961.575 1391.59 962.682 1393.06 964.119C1394.52 965.556 1395.66 967.247 1396.47 969.192C1397.31 971.108 1397.73 973.218 1397.73 975.523C1397.73 977.828 1397.31 979.953 1396.47 981.898C1395.66 983.814 1394.52 985.49 1393.06 986.927C1391.59 988.364 1389.86 989.486 1387.85 990.294C1385.87 991.073 1383.72 991.462 1381.38 991.462ZM1381.38 989.352C1383.39 989.352 1385.25 989.007 1386.95 988.319C1388.66 987.63 1390.14 986.658 1391.4 985.401C1392.65 984.143 1393.63 982.677 1394.32 981.001C1395.03 979.324 1395.39 977.498 1395.39 975.523C1395.39 973.518 1395.03 971.692 1394.32 970.045C1393.63 968.369 1392.65 966.903 1391.4 965.645C1390.14 964.388 1388.66 963.415 1386.95 962.727C1385.25 962.039 1383.39 961.694 1381.38 961.694C1379.38 961.694 1377.52 962.039 1375.82 962.727C1374.11 963.415 1372.61 964.388 1371.33 965.645C1370.07 966.903 1369.08 968.369 1368.36 970.045C1367.68 971.692 1367.33 973.518 1367.33 975.523C1367.33 977.498 1367.68 979.324 1368.36 981.001C1369.08 982.677 1370.07 984.143 1371.33 985.401C1372.61 986.658 1374.11 987.63 1375.82 988.319C1377.52 989.007 1379.38 989.352 1381.38 989.352ZM1406.19 991.237V959.809H1417.46C1420.1 959.809 1422.36 960.228 1424.24 961.066C1426.13 961.904 1427.58 963.116 1428.6 964.703C1429.61 966.259 1430.12 968.16 1430.12 970.405C1430.12 972.59 1429.61 974.475 1428.6 976.062C1427.58 977.648 1426.13 978.86 1424.24 979.698C1422.36 980.537 1420.1 980.956 1417.46 980.956H1407.45L1408.48 979.878V991.237H1406.19ZM1408.48 980.013L1407.45 978.89H1417.46C1420.84 978.89 1423.4 978.157 1425.14 976.69C1426.91 975.194 1427.79 973.098 1427.79 970.405C1427.79 967.681 1426.91 965.586 1425.14 964.119C1423.4 962.622 1420.84 961.874 1417.46 961.874H1407.45L1408.48 960.751V980.013ZM1445.01 980.147C1441.45 980.147 1438.66 979.294 1436.66 977.588C1434.65 975.852 1433.65 973.428 1433.65 970.315V959.809H1435.94V970.09C1435.94 972.605 1436.75 974.565 1438.36 975.972C1440.01 977.379 1442.28 978.082 1445.19 978.082C1446.86 978.082 1448.61 977.858 1450.44 977.409C1452.27 976.93 1454.12 976.256 1456.01 975.388L1455.96 977.543C1454.08 978.381 1452.21 979.025 1450.35 979.474C1448.49 979.923 1446.71 980.147 1445.01 980.147ZM1455.47 991.237V959.809H1457.76V991.237H1455.47ZM1469.07 991.237V959.809H1471.36V987.376L1492.77 959.809H1494.79V991.237H1492.5V963.715L1471.09 991.237H1469.07ZM1500.8 991.237L1512.38 974.984L1501.6 959.809H1504.3L1513.77 973.054L1523.29 959.809H1526.03L1515.21 974.939L1526.88 991.237H1524.14L1513.77 976.87L1503.49 991.237H1500.8ZM1546.07 991.462C1543.73 991.462 1541.56 991.073 1539.56 990.294C1537.58 989.486 1535.85 988.364 1534.35 986.927C1532.88 985.46 1531.75 983.769 1530.94 981.854C1530.13 979.908 1529.73 977.798 1529.73 975.523C1529.73 973.248 1530.13 971.153 1530.94 969.237C1531.75 967.292 1532.88 965.6 1534.35 964.164C1535.85 962.697 1537.58 961.575 1539.56 960.796C1541.56 959.988 1543.73 959.584 1546.07 959.584C1548.4 959.584 1550.56 959.988 1552.53 960.796C1554.54 961.575 1556.28 962.682 1557.74 964.119C1559.21 965.556 1560.35 967.247 1561.16 969.192C1561.99 971.108 1562.41 973.218 1562.41 975.523C1562.41 977.828 1561.99 979.953 1561.16 981.898C1560.35 983.814 1559.21 985.49 1557.74 986.927C1556.28 988.364 1554.54 989.486 1552.53 990.294C1550.56 991.073 1548.4 991.462 1546.07 991.462ZM1546.07 989.352C1548.07 989.352 1549.93 989.007 1551.64 988.319C1553.34 987.63 1554.82 986.658 1556.08 985.401C1557.34 984.143 1558.31 982.677 1559 981.001C1559.72 979.324 1560.08 977.498 1560.08 975.523C1560.08 973.518 1559.72 971.692 1559 970.045C1558.31 968.369 1557.34 966.903 1556.08 965.645C1554.82 964.388 1553.34 963.415 1551.64 962.727C1549.93 962.039 1548.07 961.694 1546.07 961.694C1544.06 961.694 1542.21 962.039 1540.5 962.727C1538.8 963.415 1537.3 964.388 1536.01 965.645C1534.76 966.903 1533.77 968.369 1533.05 970.045C1532.36 971.692 1532.02 973.518 1532.02 975.523C1532.02 977.498 1532.36 979.324 1533.05 981.001C1533.77 982.677 1534.76 984.143 1536.01 985.401C1537.3 986.658 1538.8 987.63 1540.5 988.319C1542.21 989.007 1544.06 989.352 1546.07 989.352ZM1568.61 989.756L1565.96 989.172C1567.22 989.262 1568.23 988.828 1569.01 987.87C1569.82 986.912 1570.45 985.55 1570.9 983.784C1571.38 982.018 1571.72 979.968 1571.93 977.633C1572.14 975.298 1572.29 972.799 1572.38 970.135L1572.69 959.809H1593.12V990.115H1590.83V961.874H1574.76L1574.49 970.315C1574.4 972.799 1574.25 975.179 1574.04 977.454C1573.83 979.728 1573.52 981.779 1573.1 983.605C1572.68 985.401 1572.1 986.852 1571.35 987.96C1570.63 989.067 1569.72 989.666 1568.61 989.756ZM1564.79 998.421L1564.84 989.172H1597.97V998.421H1595.77V991.237H1567.04L1566.99 998.421H1564.79ZM1622.93 991.237V961.156L1623.61 961.874H1611.62V959.809H1636.54V961.874H1624.55L1625.22 961.156V991.237H1622.93ZM1639.63 990.788L1640.35 988.903C1641.82 989.471 1643.24 989.606 1644.62 989.307C1645.99 988.977 1647.3 987.855 1648.52 985.939L1650.05 983.56L1650.32 983.201L1662.71 959.809H1665.09L1650.59 986.478C1649.69 988.184 1648.63 989.441 1647.4 990.25C1646.2 991.058 1644.93 991.477 1643.58 991.507C1642.27 991.567 1640.95 991.327 1639.63 990.788ZM1650.18 985.401L1636.71 959.809H1639.23L1651.49 983.38L1650.18 985.401ZM1683.92 991.462C1681.59 991.462 1679.42 991.073 1677.41 990.294C1675.44 989.486 1673.71 988.364 1672.25 986.927C1670.78 985.49 1669.64 983.814 1668.84 981.898C1668.03 979.953 1667.62 977.828 1667.62 975.523C1667.62 973.218 1668.03 971.108 1668.84 969.192C1669.64 967.247 1670.78 965.556 1672.25 964.119C1673.74 962.682 1675.48 961.575 1677.46 960.796C1679.43 959.988 1681.59 959.584 1683.92 959.584C1686.14 959.584 1688.2 959.943 1690.12 960.662C1692.06 961.38 1693.72 962.473 1695.1 963.939L1693.66 965.421C1692.32 964.104 1690.82 963.161 1689.17 962.592C1687.56 961.994 1685.84 961.694 1684.01 961.694C1682.01 961.694 1680.13 962.039 1678.4 962.727C1676.69 963.415 1675.2 964.388 1673.91 965.645C1672.65 966.903 1671.66 968.369 1670.95 970.045C1670.26 971.722 1669.91 973.547 1669.91 975.523C1669.91 977.498 1670.26 979.324 1670.95 981.001C1671.66 982.677 1672.65 984.143 1673.91 985.401C1675.2 986.658 1676.69 987.63 1678.4 988.319C1680.13 989.007 1682.01 989.352 1684.01 989.352C1685.84 989.352 1687.56 989.067 1689.17 988.499C1690.82 987.9 1692.32 986.927 1693.66 985.58L1695.1 987.062C1693.72 988.528 1692.06 989.636 1690.12 990.384C1688.2 991.103 1686.14 991.462 1683.92 991.462ZM1696.87 991.237L1711.32 959.809H1713.61L1728.07 991.237H1725.6L1711.95 961.245H1712.94L1699.33 991.237H1696.87ZM1702.16 982.392L1702.93 980.462H1721.74L1722.5 982.392H1702.16ZM1731.59 991.462C1731.23 991.462 1730.87 991.432 1730.51 991.372C1730.18 991.342 1729.79 991.282 1729.34 991.192L1729.61 989.082C1730.12 989.202 1730.62 989.262 1731.1 989.262C1732.47 989.262 1733.58 988.723 1734.42 987.645C1735.29 986.568 1735.94 984.877 1736.39 982.572C1736.84 980.237 1737.14 977.199 1737.29 973.458L1737.74 959.809H1758.35V991.237H1756.06V961.156L1756.73 961.874H1739.18L1739.85 961.156L1739.4 973.413C1739.28 976.586 1739.06 979.309 1738.73 981.584C1738.4 983.829 1737.92 985.685 1737.29 987.152C1736.69 988.618 1735.91 989.711 1734.96 990.429C1734.03 991.118 1732.91 991.462 1731.59 991.462ZM1792.98 991.237V959.809H1795.27V991.237H1792.98ZM1769.67 991.237V959.809H1771.96V991.237H1769.67ZM1771.69 976.286V974.266H1793.25V976.286H1771.69ZM1801.79 991.237L1816.25 959.809H1818.54L1832.99 991.237H1830.52L1816.87 961.245H1817.86L1804.26 991.237H1801.79ZM1807.09 982.392L1807.85 980.462H1826.66L1827.43 982.392H1807.09Z" fill="white"/>
<circle cx="294.327" cy="940.796" r="84.0934" fill="#E7E7E7"/>
<circle cx="294.052" cy="940.521" r="75.2475" fill="url(#paint0_linear_507_2057)"/>
<path d="M310.175 895.291C310.152 895.268 310.134 895.247 310.115 895.221C309.721 894.69 304.797 888.36 294.286 888.36C287.531 888.36 280.836 889.833 276.264 894.108C276.241 894.129 269.694 900.738 269.671 900.762L263.41 907.194L252.5 919.039C251.99 919.593 252.657 920.432 253.312 920.059L266.975 912.274L284.713 902.166C285.026 901.988 285.425 902.094 285.608 902.404L293.931 916.518C294.123 916.843 294.548 916.941 294.863 916.733L304.552 910.32C304.707 910.217 304.899 910.185 305.08 910.231L318.082 913.572L328.605 916.275C329.248 916.44 329.705 915.658 329.246 915.179L310.175 895.291Z" fill="white"/>
<path d="M347.131 944.656H347.204C346.757 942.524 345.679 940.851 343.972 939.636C341.659 937.992 338.279 937.169 333.832 937.169H332.164C331.672 937.151 331.191 937.143 330.725 937.143H310.601C309.261 937.143 308.264 936.948 307.611 936.558C306.958 936.168 306.632 935.488 306.632 934.518C306.632 933.547 306.958 932.879 307.611 932.506C308.264 932.134 309.261 931.947 310.601 931.947H342.474C342.804 931.947 342.971 931.549 342.742 931.315L342.112 930.669L333.91 922.468C333.757 922.314 333.546 922.226 333.327 922.226H311.496C308.665 922.226 306.234 922.507 304.205 923.063C302.175 923.623 300.518 924.406 299.232 925.411C297.947 926.418 296.997 927.638 296.383 929.072C295.769 930.505 295.462 932.101 295.462 933.849C295.462 935.452 295.743 936.914 296.3 938.236C296.859 939.558 297.715 940.687 298.87 941.616C300.026 942.548 301.478 943.274 303.229 943.794C304.98 944.317 307.064 944.578 309.487 944.578H332.281C333.66 944.578 334.665 944.783 335.3 945.192C335.932 945.603 336.249 946.29 336.249 947.258C336.249 948.226 335.932 948.926 335.3 949.352C334.667 949.782 333.66 949.995 332.281 949.995H304.249C304.03 949.995 303.822 950.081 303.666 950.237L295.701 958.202C295.183 958.72 295.55 959.607 296.284 959.607H331.386C334.217 959.607 336.647 959.329 338.677 958.769C340.707 958.21 342.375 957.411 343.678 956.368C344.982 955.324 345.932 954.041 346.528 952.511C347.123 950.984 347.42 949.272 347.42 947.37C347.42 946.394 347.324 945.491 347.131 944.656Z" fill="white"/>
<path d="M289.532 931.979C289.524 932.093 263.914 931.825 263.914 931.825C262.332 931.825 260.873 932.057 259.519 932.504C259.493 932.512 259.467 932.523 259.441 932.53C258.125 932.967 256.647 933.766 255.681 934.568C254.706 935.372 253.946 936.319 253.394 937.401C252.845 938.489 252.569 939.689 252.569 941.011C252.569 942.332 252.837 943.532 253.368 944.614C253.397 944.672 253.425 944.726 253.454 944.778C253.977 945.791 254.706 946.673 255.629 947.399C255.905 947.617 256.202 947.823 256.506 948.013C257.269 948.494 258.13 948.882 259.069 949.186C260.389 949.61 261.838 949.824 263.42 949.824H282.917C283.032 949.824 283.123 949.733 283.123 949.618V944.758C283.123 944.643 283.032 944.552 282.917 944.552H264.7C264.515 944.552 264.424 944.326 264.557 944.198L272.119 936.917C272.158 936.881 272.207 936.86 272.262 936.86H286.43C289.831 936.86 292.587 939.03 292.587 942.429V949.819V949.871L282.384 959.225C282.345 959.262 282.293 959.282 282.241 959.282H263.42C260.219 959.282 257.266 958.809 254.555 957.849C251.836 956.894 249.496 955.587 247.534 953.914C245.57 952.246 244.029 950.261 242.916 947.966C241.794 945.679 241.235 943.199 241.235 940.514C241.235 938.081 241.695 935.845 242.616 933.79H242.556C242.676 933.517 242.801 933.246 242.936 932.978C244.079 930.709 245.653 928.757 247.662 927.123C249.671 925.489 252.062 924.232 254.846 923.35C257.623 922.46 260.644 922.021 263.917 922.021H283.784L289.532 931.973V931.979Z" fill="white"/>
<path d="M301.516 973.424H300.965L299.19 975.132H300.539L302.312 973.424H301.516Z" fill="white"/>
<path d="M251.429 965.581H250.878L249.103 967.289H250.452L252.225 965.581H251.429Z" fill="white"/>
<path d="M312.241 965.581H311.69L309.915 967.289H311.264L313.037 965.581H312.241Z" fill="white"/>
<path d="M334.635 965.581H334.084L332.309 967.289H333.658L335.43 965.581H334.635Z" fill="white"/>
<path d="M347.347 975.087H345.612V967.214L347.347 965.52V975.087Z" fill="white"/>
<path d="M347.347 964.703L345.612 966.399V965.243L347.347 963.549V964.703Z" fill="white"/>
<path d="M343.803 975.087H342.068V972.738H335.97V975.087H334.236V970.303C334.236 969.605 334.356 968.962 334.596 968.375C334.836 967.788 335.17 967.283 335.597 966.861C336.024 966.438 336.529 966.109 337.111 965.873C337.694 965.637 338.33 965.52 339.019 965.52H342.929C343.049 965.52 343.163 965.542 343.269 965.586C343.376 965.631 343.469 965.693 343.55 965.773C343.63 965.853 343.692 965.947 343.736 966.053C343.781 966.16 343.803 966.273 343.803 966.394V975.087ZM335.97 971.004H342.068V967.254H339.019C338.966 967.254 338.853 967.263 338.679 967.281C338.51 967.294 338.312 967.332 338.085 967.394C337.863 967.457 337.627 967.552 337.378 967.681C337.129 967.81 336.9 967.988 336.691 968.215C336.482 968.442 336.309 968.726 336.171 969.069C336.037 969.407 335.97 969.818 335.97 970.303V971.004Z" fill="white"/>
<path d="M331.697 967.254H329.645V975.087H327.91V967.254H324.081L325.928 965.52H333.468L331.697 967.254Z" fill="white"/>
<path d="M322.803 974.213C322.803 974.337 322.781 974.453 322.736 974.56C322.692 974.666 322.629 974.76 322.549 974.84C322.469 974.915 322.376 974.976 322.269 975.02C322.162 975.064 322.049 975.087 321.929 975.087H318.019C317.65 975.087 317.276 975.047 316.898 974.967C316.52 974.887 316.153 974.764 315.798 974.6C315.446 974.431 315.115 974.217 314.803 973.959C314.492 973.701 314.219 973.397 313.983 973.045C313.752 972.689 313.569 972.285 313.436 971.831C313.302 971.373 313.236 970.864 313.236 970.303V967.214L314.97 965.52V970.303C314.97 970.792 315.037 971.206 315.17 971.544C315.308 971.882 315.482 972.165 315.691 972.391C315.9 972.618 316.129 972.796 316.378 972.925C316.627 973.054 316.863 973.15 317.085 973.212C317.312 973.274 317.51 973.314 317.679 973.332C317.852 973.345 317.966 973.352 318.019 973.352H321.068V967.214L322.803 965.52V974.213Z" fill="white"/>
<path d="M312.01 972.333C312.01 972.675 311.965 972.984 311.876 973.26C311.792 973.531 311.678 973.772 311.536 973.981C311.394 974.19 311.227 974.368 311.036 974.514C310.844 974.661 310.646 974.781 310.442 974.875C310.237 974.968 310.028 975.037 309.815 975.082C309.643 975.082 309.426 975.082 309.239 975.082H301.092L302.856 973.414H309.221C309.554 973.414 309.812 973.316 309.995 973.12C310.182 972.924 310.275 972.662 310.275 972.333C310.275 972.173 310.251 972.026 310.202 971.892C310.153 971.759 310.082 971.643 309.988 971.546C309.899 971.448 309.788 971.372 309.655 971.319C309.526 971.265 309.381 971.239 309.221 971.239H305.231C304.951 971.239 304.649 971.19 304.324 971.092C303.999 970.99 303.697 970.827 303.417 970.605C303.141 970.382 302.909 970.091 302.723 969.731C302.54 969.371 302.449 968.93 302.449 968.41C302.449 967.889 302.54 967.451 302.723 967.096C302.909 966.735 303.141 966.444 303.417 966.222C303.697 965.995 303.999 965.832 304.324 965.735C304.649 965.632 304.951 965.581 305.231 965.581H311.068L309.239 967.316H305.231C304.902 967.316 304.644 967.416 304.457 967.616C304.275 967.816 304.184 968.081 304.184 968.41C304.184 968.743 304.275 969.008 304.457 969.204C304.644 969.395 304.902 969.491 305.231 969.491H309.221H309.234C309.421 969.495 309.619 969.522 309.828 969.571C310.037 969.615 310.244 969.686 310.448 969.784C310.658 969.882 310.855 970.007 311.042 970.158C311.229 970.305 311.394 970.483 311.536 970.692C311.683 970.901 311.798 971.141 311.883 971.412C311.967 971.683 312.01 971.99 312.01 972.333Z" fill="white"/>
<path d="M296.65 971.084C296.65 971.666 296.548 972.202 296.343 972.692C296.143 973.181 295.865 973.603 295.51 973.959C295.154 974.311 294.731 974.586 294.242 974.787C293.753 974.987 293.221 975.087 292.647 975.087H287.964C287.839 975.087 287.724 975.064 287.617 975.02C287.51 974.976 287.417 974.915 287.337 974.84C287.261 974.76 287.201 974.666 287.157 974.56C287.112 974.453 287.09 974.337 287.09 974.213V966.394C287.09 966.273 287.112 966.16 287.157 966.053C287.201 965.947 287.261 965.853 287.337 965.773C287.417 965.693 287.51 965.631 287.617 965.586C287.724 965.542 287.839 965.52 287.964 965.52H292.647C293.221 965.52 293.753 965.62 294.242 965.82C294.731 966.02 295.154 966.298 295.51 966.654C295.865 967.005 296.143 967.428 296.343 967.921C296.548 968.411 296.65 968.944 296.65 969.523V971.084ZM294.916 969.523C294.916 969.185 294.86 968.875 294.749 968.595C294.642 968.315 294.489 968.077 294.289 967.881C294.088 967.681 293.848 967.528 293.568 967.421C293.292 967.31 292.985 967.254 292.647 967.254H288.824V973.352H292.647C292.985 973.352 293.292 973.299 293.568 973.192C293.848 973.081 294.088 972.927 294.289 972.732C294.489 972.531 294.642 972.294 294.749 972.018C294.86 971.738 294.916 971.426 294.916 971.084V969.523Z" fill="white"/>
<path d="M285.076 974.351C285.076 974.475 285.052 974.59 285.003 974.696C284.959 974.802 284.897 974.895 284.818 974.975C284.742 975.05 284.652 975.11 284.546 975.154C284.44 975.198 284.327 975.22 284.208 975.22C284.101 975.22 283.993 975.2 283.883 975.16C283.777 975.121 283.682 975.057 283.598 974.968L277.299 968.39V975.088H275.575V966.315C275.575 966.138 275.623 965.979 275.721 965.837C275.822 965.691 275.95 965.583 276.105 965.512C276.269 965.446 276.437 965.43 276.609 965.466C276.781 965.497 276.93 965.576 277.053 965.704L283.352 972.276V967.212L285.076 965.578V974.351Z" fill="white"/>
<path d="M273.499 975.087H271.764V972.738H265.666V975.087H263.931V970.303C263.931 969.605 264.051 968.962 264.292 968.375C264.532 967.788 264.865 967.283 265.292 966.861C265.719 966.438 266.224 966.109 266.807 965.873C267.39 965.637 268.026 965.52 268.715 965.52H272.625C272.745 965.52 272.858 965.542 272.965 965.586C273.072 965.631 273.165 965.693 273.245 965.773C273.325 965.853 273.387 965.947 273.432 966.053C273.476 966.16 273.499 966.273 273.499 966.394V975.087ZM265.666 971.004H271.764V967.254H268.715C268.662 967.254 268.548 967.263 268.375 967.281C268.206 967.294 268.008 967.332 267.781 967.394C267.559 967.457 267.323 967.552 267.074 967.681C266.825 967.81 266.596 967.988 266.387 968.215C266.178 968.442 266.004 968.726 265.866 969.069C265.733 969.407 265.666 969.818 265.666 970.303V971.004Z" fill="white"/>
<path d="M262.369 968.735C262.369 969.131 262.32 969.485 262.223 969.796C262.125 970.107 261.991 970.383 261.822 970.623C261.658 970.859 261.466 971.061 261.249 971.23C261.031 971.4 260.802 971.54 260.561 971.651C260.326 971.758 260.085 971.835 259.841 971.884C259.601 971.933 259.374 971.958 259.16 971.958L262.783 975.087H260.101L256.485 971.958H255.237L257.045 970.223H259.16C259.378 970.205 259.576 970.161 259.754 970.09C259.936 970.014 260.092 969.914 260.221 969.789C260.355 969.665 260.457 969.516 260.528 969.342C260.599 969.164 260.635 968.962 260.635 968.735V967.641C260.635 967.543 260.621 967.47 260.595 967.421C260.572 967.368 260.541 967.33 260.501 967.308C260.466 967.281 260.426 967.265 260.381 967.261C260.341 967.256 260.303 967.254 260.268 967.254H254.543V975.087H252.809V966.394C252.809 966.273 252.831 966.16 252.876 966.053C252.92 965.947 252.98 965.853 253.056 965.773C253.136 965.693 253.229 965.631 253.336 965.586C253.443 965.542 253.558 965.52 253.683 965.52H260.268C260.655 965.52 260.982 965.591 261.249 965.733C261.515 965.871 261.731 966.047 261.896 966.26C262.065 966.469 262.185 966.696 262.256 966.941C262.332 967.185 262.369 967.414 262.369 967.628V968.735Z" fill="white"/>
<path d="M250.799 974.274C250.799 974.399 250.777 974.514 250.733 974.621C250.688 974.728 250.626 974.821 250.546 974.901C250.47 974.977 250.379 975.037 250.272 975.082C250.166 975.126 250.05 975.148 249.925 975.148H243.667C243.507 975.148 243.334 975.13 243.147 975.095C242.965 975.055 242.782 974.995 242.6 974.915C242.422 974.835 242.251 974.732 242.086 974.608C241.922 974.479 241.775 974.325 241.646 974.148C241.521 973.965 241.421 973.756 241.346 973.52C241.27 973.28 241.232 973.011 241.232 972.713V968.016C241.232 967.856 241.25 967.685 241.286 967.503C241.326 967.316 241.386 967.133 241.466 966.955C241.546 966.773 241.65 966.6 241.779 966.435C241.908 966.27 242.062 966.126 242.24 966.001C242.422 965.872 242.631 965.77 242.867 965.694C243.102 965.619 243.369 965.581 243.667 965.581L250.462 965.581L248.63 967.316H243.667C243.441 967.316 243.267 967.376 243.147 967.496C243.027 967.616 242.967 967.794 242.967 968.03V972.713C242.967 972.935 243.027 973.109 243.147 973.233C243.271 973.354 243.445 973.414 243.667 973.414H249.065V971.239L244.497 971.282L246.39 969.491H249.925C250.05 969.491 250.166 969.515 250.272 969.564C250.379 969.609 250.47 969.671 250.546 969.751C250.626 969.831 250.688 969.924 250.733 970.031C250.777 970.133 250.799 970.245 250.799 970.365V974.274Z" fill="white"/>
<path d="M583.675 888.36C586.123 886.004 593.55 878.676 598.071 874.21C600.08 872.226 603.305 872.24 605.296 874.243L619.191 888.208C619.487 888.505 619.991 888.294 619.991 887.874V880.065C619.991 879.94 619.941 879.819 619.853 879.731L607.603 867.42C606.657 866.468 605.375 865.936 604.038 865.936H598.999C597.643 865.936 596.342 866.477 595.381 867.442L583.123 879.762C583.037 879.849 582.987 879.966 582.985 880.089L582.882 888.013C582.877 888.431 583.374 888.649 583.675 888.36Z" fill="white"/>
<path d="M426.72 926.278H419.76V916.856H395.295V926.278H388.335V907.086C388.335 904.284 388.817 901.706 389.781 899.35C390.744 896.994 392.083 894.969 393.796 893.274C395.509 891.578 397.534 890.258 399.872 889.312C402.21 888.366 404.762 887.893 407.528 887.893H423.213C423.695 887.893 424.15 887.983 424.579 888.161C425.007 888.34 425.382 888.589 425.703 888.911C426.024 889.232 426.274 889.607 426.452 890.035C426.631 890.463 426.72 890.918 426.72 891.4V926.278ZM395.295 909.896H419.76V894.853H407.528C407.313 894.853 406.858 894.889 406.162 894.96C405.484 895.014 404.69 895.165 403.78 895.415C402.888 895.665 401.942 896.049 400.943 896.566C399.943 897.084 399.024 897.797 398.186 898.708C397.347 899.618 396.651 900.76 396.098 902.134C395.562 903.49 395.295 905.141 395.295 907.086V909.896ZM472.439 922.772C472.439 923.271 472.35 923.735 472.172 924.164C471.993 924.592 471.743 924.967 471.422 925.288C471.101 925.591 470.726 925.832 470.298 926.011C469.87 926.189 469.414 926.278 468.933 926.278H453.247C451.766 926.278 450.267 926.118 448.75 925.797C447.233 925.475 445.761 924.985 444.333 924.324C442.923 923.646 441.594 922.79 440.345 921.755C439.096 920.72 437.998 919.497 437.052 918.087C436.124 916.66 435.393 915.036 434.857 913.216C434.322 911.378 434.054 909.334 434.054 907.086V887.893H441.014V907.086C441.014 909.049 441.282 910.708 441.817 912.065C442.37 913.421 443.066 914.554 443.905 915.464C444.744 916.374 445.663 917.088 446.662 917.606C447.661 918.123 448.607 918.507 449.499 918.757C450.409 919.006 451.203 919.167 451.882 919.238C452.578 919.292 453.033 919.319 453.247 919.319H465.48V887.893H472.439V922.772ZM515.241 894.853H499.903V926.278H492.943V894.853H477.579V887.893H515.241V894.853ZM560.13 910.753C560.13 913.091 559.729 915.241 558.926 917.204C558.123 919.167 557.007 920.862 555.58 922.29C554.152 923.718 552.457 924.833 550.494 925.636C548.549 926.421 546.425 926.814 544.123 926.814H534.701C532.399 926.814 530.266 926.421 528.303 925.636C526.34 924.833 524.645 923.718 523.218 922.29C521.79 920.862 520.666 919.167 519.845 917.204C519.042 915.241 518.64 913.091 518.64 910.753V903.419C518.64 901.099 519.042 898.957 519.845 896.994C520.666 895.014 521.79 893.318 523.218 891.909C524.645 890.481 526.34 889.366 528.303 888.563C530.266 887.76 532.399 887.358 534.701 887.358H544.123C546.425 887.358 548.549 887.76 550.494 888.563C552.457 889.366 554.152 890.481 555.58 891.909C557.007 893.318 558.123 895.014 558.926 896.994C559.729 898.957 560.13 901.099 560.13 903.419V910.753ZM553.171 903.419C553.171 902.045 552.948 900.804 552.501 899.698C552.073 898.574 551.458 897.619 550.654 896.834C549.869 896.031 548.915 895.415 547.79 894.987C546.684 894.541 545.462 894.318 544.123 894.318H534.701C533.345 894.318 532.104 894.541 530.98 894.987C529.874 895.415 528.919 896.031 528.116 896.834C527.313 897.619 526.688 898.574 526.242 899.698C525.814 900.804 525.6 902.045 525.6 903.419V910.753C525.6 912.127 525.814 913.376 526.242 914.501C526.688 915.607 527.313 916.562 528.116 917.365C528.919 918.15 529.874 918.766 530.98 919.212C532.104 919.64 533.345 919.854 534.701 919.854H544.07C545.426 919.854 546.657 919.64 547.764 919.212C548.888 918.766 549.851 918.15 550.654 917.365C551.458 916.562 552.073 915.607 552.501 914.501C552.948 913.376 553.171 912.127 553.171 910.753V903.419ZM423.428 975.278H398.319C397.677 975.278 396.981 975.207 396.232 975.064C395.5 974.904 394.768 974.663 394.037 974.341C393.323 974.02 392.636 973.61 391.975 973.11C391.315 972.593 390.726 971.977 390.209 971.263C389.709 970.532 389.308 969.693 389.004 968.747C388.701 967.783 388.549 966.704 388.549 965.508V946.664C388.549 946.021 388.621 945.334 388.763 944.603C388.924 943.853 389.165 943.121 389.486 942.408C389.807 941.676 390.227 940.98 390.744 940.32C391.262 939.659 391.877 939.079 392.591 938.58C393.323 938.062 394.162 937.652 395.107 937.348C396.053 937.045 397.124 936.893 398.319 936.893H423.428V943.853H398.319C397.409 943.853 396.713 944.094 396.232 944.576C395.75 945.058 395.509 945.771 395.509 946.717V965.508C395.509 966.4 395.75 967.096 396.232 967.596C396.731 968.078 397.427 968.319 398.319 968.319H423.428V975.278ZM461.572 959.592H439.595V952.579H461.572V959.592ZM464.703 975.278H439.595C438.632 975.278 437.579 975.109 436.437 974.77C435.295 974.431 434.233 973.877 433.251 973.11C432.288 972.325 431.476 971.317 430.815 970.085C430.173 968.836 429.852 967.31 429.852 965.508V940.4C429.852 939.918 429.941 939.463 430.119 939.035C430.298 938.607 430.539 938.232 430.842 937.911C431.163 937.589 431.538 937.34 431.966 937.161C432.395 936.983 432.859 936.893 433.358 936.893H464.703V943.853H436.811V965.508C436.811 966.418 437.052 967.114 437.534 967.596C438.016 968.078 438.721 968.319 439.649 968.319H464.703V975.278ZM509.807 972.307C509.807 972.807 509.709 973.271 509.513 973.699C509.334 974.127 509.084 974.502 508.763 974.823C508.46 975.127 508.094 975.368 507.666 975.546C507.237 975.724 506.782 975.814 506.3 975.814C505.872 975.814 505.435 975.733 504.989 975.573C504.56 975.412 504.177 975.153 503.838 974.797L478.408 948.243V975.278H471.449V939.865C471.449 939.151 471.645 938.508 472.038 937.937C472.448 937.348 472.966 936.911 473.59 936.626C474.251 936.358 474.929 936.296 475.625 936.438C476.321 936.563 476.918 936.884 477.418 937.402L502.847 963.929V936.893H509.807V972.307ZM552.609 943.853H537.271V975.278H530.311V943.853H514.946V936.893H552.609V943.853ZM589.307 959.592H567.331V952.579H589.307V959.592ZM592.439 975.278H567.331C566.367 975.278 565.314 975.109 564.172 974.77C563.03 974.431 561.968 973.877 560.987 973.11C560.023 972.325 559.211 971.317 558.551 970.085C557.909 968.836 557.587 967.31 557.587 965.508V940.4C557.587 939.918 557.677 939.463 557.855 939.035C558.033 938.607 558.274 938.232 558.578 937.911C558.899 937.589 559.274 937.34 559.702 937.161C560.13 936.983 560.594 936.893 561.094 936.893H592.439V943.853H564.547V965.508C564.547 966.418 564.788 967.114 565.27 967.596C565.751 968.078 566.456 968.319 567.384 968.319H592.439V975.278ZM637.542 949.795C637.542 951.384 637.346 952.802 636.954 954.052C636.561 955.301 636.026 956.407 635.348 957.371C634.687 958.317 633.92 959.128 633.045 959.807C632.171 960.485 631.252 961.047 630.288 961.493C629.343 961.921 628.379 962.234 627.398 962.43C626.434 962.626 625.524 962.724 624.667 962.724L639.202 975.278H628.441L613.933 962.724H608.928V955.765H624.667C625.542 955.693 626.336 955.515 627.05 955.229C627.781 954.926 628.406 954.524 628.923 954.025C629.459 953.525 629.869 952.927 630.155 952.231C630.44 951.518 630.583 950.706 630.583 949.795V945.406C630.583 945.013 630.529 944.719 630.422 944.522C630.333 944.308 630.208 944.156 630.048 944.067C629.905 943.96 629.744 943.898 629.566 943.88C629.405 943.862 629.253 943.853 629.111 943.853H606.144V975.278H599.184V940.4C599.184 939.918 599.274 939.463 599.452 939.035C599.63 938.607 599.871 938.232 600.175 937.911C600.496 937.589 600.871 937.34 601.299 937.161C601.727 936.983 602.191 936.893 602.691 936.893H629.111C630.663 936.893 631.975 937.179 633.045 937.75C634.116 938.303 634.982 939.008 635.642 939.865C636.32 940.703 636.802 941.613 637.087 942.595C637.391 943.576 637.542 944.495 637.542 945.352V949.795Z" fill="white"/>
<path d="M390.412 989.102H395.191C395.786 989.102 396.265 989.284 396.629 989.648C396.993 990.011 397.175 990.491 397.175 991.086V993.6L394.926 992.839V991.946C394.926 991.781 394.865 991.637 394.744 991.516C394.634 991.395 394.496 991.334 394.331 991.334H392.661V995.104H395.025C395.676 995.104 396.194 995.303 396.579 995.7C396.976 996.085 397.175 996.604 397.175 997.254V1001.22C397.175 1001.87 396.976 1002.4 396.579 1002.79C396.194 1003.18 395.676 1003.37 395.025 1003.37H390.412V989.102ZM392.661 997.353V1001.12H394.298C394.474 1001.12 394.623 1001.06 394.744 1000.94C394.865 1000.82 394.926 1000.67 394.926 1000.49V997.981C394.926 997.805 394.865 997.656 394.744 997.535C394.623 997.414 394.474 997.353 394.298 997.353H392.661ZM398.337 1003.37V989.085H400.586L400.503 997.304L402.636 990.342C402.758 989.956 402.973 989.653 403.281 989.433C403.601 989.201 403.959 989.085 404.356 989.085H405.365V1003.37H403.116L403.199 995.154L401.066 1002.12C400.944 1002.5 400.724 1002.81 400.404 1003.04C400.095 1003.26 399.743 1003.37 399.346 1003.37H398.337ZM406.646 1001.12H407.655V991.235C407.655 990.585 407.848 990.067 408.234 989.681C408.631 989.284 409.154 989.085 409.805 989.085H414.401V1003.37H405.902L406.646 1001.12ZM412.153 1001.12V991.334H410.532C410.367 991.334 410.218 991.4 410.086 991.533C409.964 991.654 409.904 991.797 409.904 991.963V1001.12H412.153ZM417.879 989.102H424.923V991.334H422.525V1003.37H420.276V991.334H417.879V989.102ZM425.967 990.871C426.056 990.331 426.287 989.896 426.662 989.565C427.048 989.234 427.516 989.069 428.067 989.069H429.688L431.937 1003.37H429.605L429.225 1000.63H426.728L426.348 1003.36H424.016L425.967 990.871ZM427.042 998.395H428.911L427.985 991.797L427.042 998.395ZM432.616 989.085H434.865V995.104H437.13V989.085H439.379V1003.37H437.13V997.353H434.865V1003.37H432.616V989.085ZM442.693 989.085V995.104H445.058C445.708 995.104 446.226 995.303 446.612 995.7C447.009 996.085 447.208 996.604 447.208 997.254V1001.22C447.208 1001.87 447.009 1002.4 446.612 1002.79C446.226 1003.18 445.708 1003.37 445.058 1003.37H440.445V989.085H442.693ZM448.117 1003.37V989.085H450.366V1003.37H448.117ZM442.693 997.353V1001.12H444.33C444.507 1001.12 444.656 1001.06 444.777 1000.94C444.898 1000.82 444.959 1000.67 444.959 1000.49V997.981C444.959 997.805 444.898 997.656 444.777 997.535C444.656 997.414 444.507 997.353 444.33 997.353H442.693ZM457.699 989.085L457.037 991.334H453.68V1003.37H451.432V989.085H457.699ZM462.882 990.871C462.97 990.331 463.201 989.896 463.576 989.565C463.962 989.234 464.431 989.069 464.982 989.069H466.602L468.851 1003.37H466.519L466.139 1000.63H463.642L463.262 1003.36H460.93L462.882 990.871ZM463.956 998.395H465.825L464.899 991.797L463.956 998.395ZM469.53 1003.37V989.102H471.779V995.104H472.523V991.252C472.523 990.601 472.716 990.083 473.102 989.697C473.499 989.3 474.022 989.102 474.673 989.102H477.153C477.804 989.102 478.322 989.3 478.707 989.697C479.104 990.083 479.303 990.601 479.303 991.252V1001.22C479.303 1001.87 479.104 1002.4 478.707 1002.79C478.322 1003.18 477.804 1003.37 477.153 1003.37H474.673C474.022 1003.37 473.499 1003.18 473.102 1002.79C472.716 1002.4 472.523 1001.87 472.523 1001.22V997.353H471.779V1003.37H469.53ZM475.4 1001.12H476.426C476.602 1001.12 476.751 1001.06 476.872 1000.94C476.993 1000.82 477.054 1000.67 477.054 1000.49V991.963C477.054 991.786 476.993 991.637 476.872 991.516C476.751 991.395 476.602 991.334 476.426 991.334H475.4C475.224 991.334 475.075 991.395 474.954 991.516C474.833 991.637 474.772 991.786 474.772 991.963V1000.49C474.772 1000.67 474.833 1000.82 474.954 1000.94C475.075 1001.06 475.224 1001.12 475.4 1001.12ZM480.304 989.085H482.553V994.476C482.553 994.652 482.614 994.801 482.735 994.922C482.856 995.044 483.005 995.104 483.181 995.104H484.818V989.085H487.067V1001.22C487.067 1001.87 486.869 1002.4 486.472 1002.79C486.086 1003.18 485.568 1003.37 484.918 1003.37H482.454C481.803 1003.37 481.28 1003.18 480.883 1002.79C480.497 1002.4 480.304 1001.87 480.304 1001.22V999.205L482.553 999.966V1000.49C482.553 1000.67 482.614 1000.82 482.735 1000.94C482.856 1001.06 483.005 1001.12 483.181 1001.12H484.19C484.366 1001.12 484.515 1001.06 484.636 1000.94C484.758 1000.82 484.818 1000.67 484.818 1000.49V997.353H482.454C481.803 997.353 481.28 997.16 480.883 996.774C480.497 996.378 480.304 995.854 480.304 995.204V989.085ZM487.355 1003.37L488.099 1001.12H488.231C488.408 1001.12 488.557 1001.06 488.678 1000.94C488.799 1000.82 488.86 1000.67 488.86 1000.49V991.235C488.86 990.585 489.053 990.067 489.438 989.681C489.835 989.284 490.359 989.085 491.009 989.085H495.457V1003.37H493.209V991.334H491.737C491.561 991.334 491.412 991.395 491.29 991.516C491.169 991.637 491.109 991.786 491.109 991.963V1001.39C491.109 1001.98 490.927 1002.46 490.563 1002.83C490.199 1003.19 489.72 1003.37 489.124 1003.37H487.355ZM502.79 989.085L502.129 991.334H498.772V1003.37H496.523V989.085H502.79ZM503.081 989.085H505.577L506.867 995.435L508.157 989.085H510.654L507.992 998.742V1003.37H505.743V998.742L503.081 989.085ZM513.499 989.085L513.416 997.304L515.549 990.342C515.671 989.956 515.886 989.653 516.194 989.433C516.514 989.201 516.872 989.085 517.269 989.085H518.278V1003.37H516.029L516.112 995.154L513.978 1002.12C513.857 1002.5 513.637 1002.81 513.317 1003.04C513.008 1003.26 512.656 1003.37 512.259 1003.37H511.25V989.085H513.499ZM516.823 986.175L516.442 986.936C516.321 987.156 516.15 987.338 515.93 987.481C515.72 987.614 515.489 987.68 515.235 987.68H513.052V986.175H516.823ZM524.176 999.536V1000.49C524.176 1000.67 524.237 1000.82 524.358 1000.94C524.49 1001.06 524.639 1001.12 524.804 1001.12H525.813C525.989 1001.12 526.138 1001.06 526.259 1000.94C526.381 1000.82 526.441 1000.67 526.441 1000.49V997.981C526.441 997.805 526.381 997.656 526.259 997.535C526.138 997.414 525.989 997.353 525.813 997.353H524.176V995.104H525.813C525.989 995.104 526.138 995.044 526.259 994.922C526.381 994.801 526.441 994.652 526.441 994.476V991.963C526.441 991.786 526.381 991.637 526.259 991.516C526.138 991.395 525.989 991.334 525.813 991.334H524.804C524.639 991.334 524.49 991.395 524.358 991.516C524.237 991.637 524.176 991.786 524.176 991.963V992.922L521.927 993.666V991.252C521.927 990.601 522.12 990.083 522.506 989.697C522.903 989.3 523.426 989.102 524.077 989.102H526.541C527.191 989.102 527.709 989.3 528.095 989.697C528.492 990.083 528.69 990.601 528.69 991.252V994.807C528.69 994.972 528.646 995.143 528.558 995.319C528.481 995.485 528.376 995.633 528.244 995.766C528.111 995.898 527.957 996.008 527.781 996.096C527.615 996.174 527.444 996.212 527.268 996.212C527.444 996.212 527.615 996.256 527.781 996.344C527.957 996.422 528.111 996.532 528.244 996.675C528.376 996.807 528.481 996.962 528.558 997.138C528.646 997.304 528.69 997.469 528.69 997.634V1001.22C528.69 1001.87 528.492 1002.4 528.095 1002.79C527.709 1003.18 527.191 1003.37 526.541 1003.37H524.077C523.426 1003.37 522.903 1003.18 522.506 1002.79C522.12 1002.4 521.927 1001.87 521.927 1001.22V1000.28L524.176 999.536ZM529.659 991.483C529.659 990.733 529.885 990.133 530.337 989.681C530.789 989.229 531.389 989.003 532.139 989.003H534.173C534.923 989.003 535.523 989.229 535.975 989.681C536.427 990.133 536.653 990.733 536.653 991.483V1000.97C536.653 1001.72 536.427 1002.32 535.975 1002.78C535.523 1003.23 534.923 1003.45 534.173 1003.45H532.139C531.389 1003.45 530.789 1003.23 530.337 1002.78C529.885 1002.32 529.659 1001.72 529.659 1000.97V991.483ZM532.536 1001.21H533.776C533.952 1001.21 534.101 1001.15 534.223 1001.02C534.344 1000.9 534.404 1000.75 534.404 1000.58V991.963C534.404 991.731 534.344 991.555 534.223 991.433C534.101 991.312 533.952 991.252 533.776 991.252H532.536C532.36 991.252 532.211 991.312 532.089 991.433C531.968 991.555 531.908 991.731 531.908 991.963V1000.58C531.908 1000.75 531.968 1000.9 532.089 1001.02C532.211 1001.15 532.36 1001.21 532.536 1001.21ZM537.817 989.102H542.43C543.081 989.102 543.599 989.3 543.984 989.697C544.381 990.083 544.58 990.601 544.58 991.252V995.7C544.58 996.35 544.381 996.874 543.984 997.27C543.599 997.656 543.081 997.849 542.43 997.849H540.066V1003.37H537.817V989.102ZM540.066 991.334V995.6H541.703C541.879 995.6 542.028 995.54 542.149 995.418C542.27 995.297 542.331 995.148 542.331 994.972V991.963C542.331 991.786 542.27 991.637 542.149 991.516C542.028 991.395 541.879 991.334 541.703 991.334H540.066ZM547.482 989.085V994.972C547.482 995.148 547.543 995.297 547.664 995.418C547.785 995.54 547.934 995.6 548.11 995.6H549.747V989.085H551.996V1003.37H549.747V997.849H547.713C546.964 997.849 546.363 997.623 545.911 997.171C545.459 996.719 545.233 996.118 545.233 995.369V989.085H547.482ZM553.067 1003.37V989.085H555.316L555.233 997.304L557.366 990.342C557.487 989.956 557.702 989.653 558.011 989.433C558.331 989.201 558.689 989.085 559.086 989.085H560.094V1003.37H557.846L557.928 995.154L555.795 1002.12C555.674 1002.5 555.453 1002.81 555.134 1003.04C554.825 1003.26 554.472 1003.37 554.076 1003.37H553.067ZM560.841 1003.37L562.908 996.229L560.841 989.085H563.338L564.644 994.195L565.934 989.085H568.431L566.331 996.229L568.431 1003.37H565.934L564.644 998.263L563.338 1003.37H560.841ZM568.918 991.483C568.918 990.733 569.144 990.133 569.596 989.681C570.048 989.229 570.648 989.003 571.398 989.003H573.432C574.181 989.003 574.782 989.229 575.234 989.681C575.686 990.133 575.912 990.733 575.912 991.483V1000.97C575.912 1001.72 575.686 1002.32 575.234 1002.78C574.782 1003.23 574.181 1003.45 573.432 1003.45H571.398C570.648 1003.45 570.048 1003.23 569.596 1002.78C569.144 1002.32 568.918 1001.72 568.918 1000.97V991.483ZM571.795 1001.21H573.035C573.211 1001.21 573.36 1001.15 573.481 1001.02C573.603 1000.9 573.663 1000.75 573.663 1000.58V991.963C573.663 991.731 573.603 991.555 573.481 991.433C573.36 991.312 573.211 991.252 573.035 991.252H571.795C571.618 991.252 571.47 991.312 571.348 991.433C571.227 991.555 571.166 991.731 571.166 991.963V1000.58C571.166 1000.75 571.227 1000.9 571.348 1001.02C571.47 1001.15 571.618 1001.21 571.795 1001.21ZM576.839 1001.12H577.848V991.235C577.848 990.585 578.041 990.067 578.427 989.681C578.823 989.284 579.347 989.085 579.998 989.085H584.594V1003.37H576.095L576.839 1001.12ZM582.346 1001.12V991.334H580.725C580.56 991.334 580.411 991.4 580.279 991.533C580.157 991.654 580.097 991.797 580.097 991.963V1001.12H582.346ZM588.072 989.102H595.116V991.334H592.718V1003.37H590.469V991.334H588.072V989.102ZM595.949 989.085H598.198V994.476C598.198 994.652 598.259 994.801 598.38 994.922C598.501 995.044 598.65 995.104 598.827 995.104H600.464V989.085H602.712V1001.22C602.712 1001.87 602.514 1002.4 602.117 1002.79C601.731 1003.18 601.213 1003.37 600.563 1003.37H598.099C597.449 1003.37 596.925 1003.18 596.528 1002.79C596.142 1002.4 595.949 1001.87 595.949 1001.22V999.205L598.198 999.966V1000.49C598.198 1000.67 598.259 1000.82 598.38 1000.94C598.501 1001.06 598.65 1001.12 598.827 1001.12H599.835C600.012 1001.12 600.16 1001.06 600.282 1000.94C600.403 1000.82 600.464 1000.67 600.464 1000.49V997.353H598.099C597.449 997.353 596.925 997.16 596.528 996.774C596.142 996.378 595.949 995.854 595.949 995.204V989.085ZM603.7 1001.22V991.252C603.7 990.601 603.893 990.083 604.279 989.697C604.676 989.3 605.2 989.102 605.85 989.102H608.314C608.964 989.102 609.482 989.3 609.868 989.697C610.265 990.083 610.463 990.601 610.463 991.252V993.98L608.215 993.236V991.979C608.215 991.803 608.154 991.654 608.033 991.533C607.911 991.411 607.763 991.351 607.586 991.351H606.578C606.401 991.351 606.252 991.411 606.131 991.533C606.01 991.654 605.949 991.803 605.949 991.979V1000.49C605.949 1000.67 606.01 1000.82 606.131 1000.94C606.252 1001.06 606.401 1001.12 606.578 1001.12H607.586C607.763 1001.12 607.911 1001.06 608.033 1000.94C608.154 1000.82 608.215 1000.67 608.215 1000.49V999.238L610.463 999.982V1001.22C610.463 1001.87 610.265 1002.4 609.868 1002.79C609.482 1003.18 608.964 1003.37 608.314 1003.37H605.85C605.2 1003.37 604.676 1003.18 604.279 1002.79C603.893 1002.4 603.7 1001.87 603.7 1001.22ZM613.038 990.871C613.126 990.331 613.358 989.896 613.733 989.565C614.119 989.234 614.587 989.069 615.138 989.069H616.759L619.008 1003.37H616.676L616.296 1000.63H613.799L613.419 1003.36H611.087L613.038 990.871ZM614.113 998.395H615.982L615.056 991.797L614.113 998.395ZM619.084 1003.37L619.828 1001.12H619.96C620.136 1001.12 620.285 1001.06 620.406 1000.94C620.528 1000.82 620.588 1000.67 620.588 1000.49V991.235C620.588 990.585 620.781 990.067 621.167 989.681C621.564 989.284 622.087 989.085 622.738 989.085H627.186V1003.37H624.937V991.334H623.465C623.289 991.334 623.14 991.395 623.019 991.516C622.898 991.637 622.837 991.786 622.837 991.963V1001.39C622.837 1001.98 622.655 1002.46 622.291 1002.83C621.928 1003.19 621.448 1003.37 620.853 1003.37H619.084ZM628.252 989.085H630.501V995.104H632.766V989.085H635.015V1003.37H632.766V997.353H630.501V1003.37H628.252V989.085ZM637.667 990.871C637.755 990.331 637.987 989.896 638.362 989.565C638.747 989.234 639.216 989.069 639.767 989.069H641.388L643.636 1003.37H641.305L640.925 1000.63H638.428L638.047 1003.36H635.716L637.667 990.871ZM638.742 998.395H640.61L639.684 991.797L638.742 998.395Z" fill="white"/>
<g opacity="0.1">
<path d="M1892.62 880.872C1901.95 890.577 1930.98 920.033 1948.67 937.961C1956.53 945.926 1956.48 958.716 1948.54 966.612L1893.23 1021.72C1892.05 1022.89 1892.88 1024.89 1894.55 1024.89L1925.48 1024.89C1925.98 1024.89 1926.46 1024.69 1926.8 1024.34L1975.57 975.764C1979.34 972.01 1981.45 966.926 1981.45 961.623L1981.45 941.64C1981.45 936.262 1979.31 931.103 1975.48 927.294L1926.68 878.681C1926.34 878.34 1925.87 878.142 1925.39 878.135L1894 877.726C1892.34 877.705 1891.48 879.678 1892.62 880.872Z" fill="white"/>
<path d="M1976.69 880.872C1985.47 890.577 2012.79 920.033 2029.44 937.961C2036.84 945.926 2036.78 958.716 2029.32 966.612L1977.25 1021.72C1976.14 1022.89 1976.93 1024.89 1978.5 1024.89L2007.61 1024.89C2008.08 1024.89 2008.53 1024.69 2008.86 1024.34L2054.76 975.764C2058.3 972.01 2060.29 966.926 2060.29 961.623L2060.29 941.64C2060.29 936.262 2058.27 931.103 2054.67 927.294L2008.74 878.681C2008.42 878.34 2007.98 878.142 2007.52 878.135L1977.98 877.726C1976.42 877.705 1975.61 879.678 1976.69 880.872Z" fill="white"/>
<path d="M2055.55 880.872C2064.89 890.577 2093.92 920.033 2111.61 937.961C2119.46 945.926 2119.41 958.716 2111.48 966.612L2056.16 1021.72C2054.98 1022.89 2055.81 1024.89 2057.48 1024.89L2088.41 1024.89C2088.91 1024.89 2089.39 1024.69 2089.74 1024.34L2138.5 975.764C2142.27 972.01 2144.38 966.926 2144.38 961.623L2144.38 941.64C2144.38 936.262 2142.24 931.103 2138.41 927.294L2089.61 878.681C2089.27 878.34 2088.8 878.142 2088.32 878.135L2056.93 877.726C2055.27 877.705 2054.41 879.678 2055.55 880.872Z" fill="white"/>
</g>
<defs>
<linearGradient id="paint0_linear_507_2057" x1="294.052" y1="865.273" x2="294.052" y2="1015.77" gradientUnits="userSpaceOnUse">
<stop stop-color="#E20D01"/>
<stop offset="1" stop-color="#580702"/>
</linearGradient>
</defs>
</svg>
