<svg width="2275" height="3317" viewBox="0 0 2275 3317" fill="none" xmlns="http://www.w3.org/2000/svg">
<g clip-path="url(#clip0_498_7029)">
<rect width="2275" height="3317" fill="url(#paint0_linear_498_7029)"/>
<circle cx="1138.46" cy="1269.09" r="320.09" fill="#E7E7E7"/>
<circle cx="1137.43" cy="1268.06" r="286.42" fill="url(#paint1_linear_498_7029)"/>
<path d="M1198.79 1095.89C1198.7 1095.8 1198.63 1095.72 1198.56 1095.62C1197.06 1093.6 1178.32 1069.51 1138.31 1069.51C1112.6 1069.51 1087.11 1075.11 1069.71 1091.38C1069.62 1091.46 1044.7 1116.62 1044.61 1116.71L1020.78 1141.19L979.255 1186.28C977.313 1188.39 979.853 1191.58 982.344 1190.16L1034.35 1160.53L1101.87 1122.06C1103.06 1121.38 1104.58 1121.78 1105.28 1122.96L1136.96 1176.68C1137.69 1177.92 1139.3 1178.29 1140.5 1177.5L1177.38 1153.09C1177.97 1152.7 1178.7 1152.58 1179.39 1152.75L1228.88 1165.47L1268.94 1175.76C1271.39 1176.39 1273.12 1173.41 1271.38 1171.59L1198.79 1095.89Z" fill="white"/>
<path d="M1339.45 1283.79H1339.73C1338.02 1275.68 1333.92 1269.31 1327.42 1264.68C1318.62 1258.42 1305.75 1255.29 1288.83 1255.29H1282.48C1280.61 1255.22 1278.77 1255.19 1277 1255.19H1200.4C1195.3 1255.19 1191.51 1254.45 1189.02 1252.97C1186.53 1251.48 1185.3 1248.9 1185.3 1245.2C1185.3 1241.51 1186.53 1238.96 1189.02 1237.54C1191.51 1236.13 1195.3 1235.42 1200.4 1235.42H1321.72C1322.98 1235.42 1323.61 1233.9 1322.74 1233.01L1320.34 1230.55L1289.12 1199.33C1288.54 1198.75 1287.74 1198.41 1286.91 1198.41H1203.81C1193.03 1198.41 1183.78 1199.48 1176.05 1201.6C1168.33 1203.73 1162.02 1206.71 1157.13 1210.54C1152.23 1214.37 1148.62 1219.01 1146.28 1224.47C1143.94 1229.93 1142.78 1236 1142.78 1242.66C1142.78 1248.76 1143.84 1254.32 1145.96 1259.35C1148.09 1264.39 1151.35 1268.68 1155.75 1272.22C1160.15 1275.77 1165.67 1278.53 1172.34 1280.51C1179.01 1282.5 1186.94 1283.49 1196.16 1283.49H1282.92C1288.17 1283.49 1292 1284.27 1294.41 1285.83C1296.82 1287.39 1298.03 1290.01 1298.03 1293.69C1298.03 1297.38 1296.82 1300.04 1294.41 1301.67C1292.01 1303.3 1288.17 1304.11 1282.92 1304.11H1176.22C1175.39 1304.11 1174.6 1304.44 1174 1305.03L1143.69 1335.35C1141.72 1337.32 1143.11 1340.7 1145.91 1340.7H1279.52C1290.29 1340.7 1299.54 1339.64 1307.27 1337.51C1314.99 1335.38 1321.34 1332.34 1326.31 1328.37C1331.27 1324.4 1334.88 1319.51 1337.15 1313.69C1339.42 1307.88 1340.55 1301.36 1340.55 1294.12C1340.55 1290.41 1340.18 1286.97 1339.45 1283.79Z" fill="white"/>
<path d="M1120.21 1235.54C1120.18 1235.97 1022.7 1234.95 1022.7 1234.95C1016.68 1234.95 1011.12 1235.83 1005.97 1237.54C1005.88 1237.57 1005.78 1237.61 1005.68 1237.64C1000.67 1239.3 995.04 1242.34 991.365 1245.39C987.651 1248.45 984.759 1252.06 982.659 1256.18C980.57 1260.32 979.52 1264.88 979.52 1269.91C979.52 1274.95 980.54 1279.51 982.56 1283.63C982.669 1283.85 982.778 1284.06 982.887 1284.26C984.878 1288.11 987.651 1291.47 991.167 1294.23C992.217 1295.06 993.346 1295.84 994.505 1296.57C997.407 1298.4 1000.69 1299.87 1004.26 1301.03C1009.28 1302.65 1014.8 1303.46 1020.82 1303.46H1095.04C1095.47 1303.46 1095.82 1303.11 1095.82 1302.68V1284.18C1095.82 1283.74 1095.47 1283.39 1095.04 1283.39H1025.69C1024.99 1283.39 1024.64 1282.53 1025.15 1282.05L1053.93 1254.33C1054.08 1254.2 1054.27 1254.12 1054.48 1254.12H1108.41C1121.35 1254.12 1131.84 1262.38 1131.84 1275.31V1303.44V1303.64L1093.01 1339.25C1092.86 1339.38 1092.66 1339.46 1092.46 1339.46H1020.82C1008.64 1339.46 997.397 1337.66 987.077 1334.01C976.727 1330.37 967.822 1325.4 960.355 1319.03C952.877 1312.68 947.013 1305.12 942.774 1296.39C938.505 1287.68 936.376 1278.24 936.376 1268.02C936.376 1258.76 938.129 1250.25 941.635 1242.43H941.407C941.863 1241.39 942.338 1240.36 942.853 1239.34C947.201 1230.7 953.194 1223.27 960.84 1217.05C968.486 1210.83 977.588 1206.05 988.186 1202.69C998.754 1199.3 1010.25 1197.63 1022.71 1197.63H1098.33L1120.21 1235.52V1235.54Z" fill="white"/>
<path d="M1165.83 1393.29H1163.73L1156.98 1399.79H1162.11L1168.86 1393.29H1165.83Z" fill="white"/>
<path d="M975.186 1363.45H973.089L966.332 1369.95H971.468L978.215 1363.45H975.186Z" fill="white"/>
<path d="M1206.65 1363.45H1204.55L1197.79 1369.95H1202.93L1209.68 1363.45H1206.65Z" fill="white"/>
<path d="M1291.9 1363.45H1289.8L1283.04 1369.95H1288.18L1294.92 1363.45H1291.9Z" fill="white"/>
<path d="M1340.28 1399.62H1333.67V1369.65L1340.28 1363.2V1399.62Z" fill="white"/>
<path d="M1340.28 1360.09L1333.67 1366.55V1362.15L1340.28 1355.7V1360.09Z" fill="white"/>
<path d="M1326.79 1399.62H1320.19V1390.68H1296.98V1399.62H1290.38V1381.41C1290.38 1378.75 1290.83 1376.31 1291.75 1374.07C1292.66 1371.84 1293.93 1369.92 1295.56 1368.31C1297.18 1366.7 1299.11 1365.45 1301.32 1364.55C1303.54 1363.65 1305.96 1363.2 1308.59 1363.2H1323.47C1323.92 1363.2 1324.36 1363.29 1324.76 1363.46C1325.17 1363.63 1325.52 1363.86 1325.83 1364.17C1326.13 1364.47 1326.37 1364.83 1326.54 1365.23C1326.71 1365.64 1326.79 1366.07 1326.79 1366.53V1399.62ZM1296.98 1384.08H1320.19V1369.81H1308.59C1308.38 1369.81 1307.95 1369.84 1307.29 1369.91C1306.65 1369.96 1305.89 1370.1 1305.03 1370.34C1304.18 1370.58 1303.29 1370.94 1302.34 1371.43C1301.39 1371.92 1300.52 1372.6 1299.72 1373.46C1298.93 1374.33 1298.27 1375.41 1297.74 1376.71C1297.23 1378 1296.98 1379.57 1296.98 1381.41V1384.08Z" fill="white"/>
<path d="M1280.72 1369.81H1272.91V1399.62H1266.3V1369.81H1251.73L1258.76 1363.2H1287.46L1280.72 1369.81Z" fill="white"/>
<path d="M1246.85 1396.29C1246.85 1396.77 1246.77 1397.21 1246.6 1397.61C1246.43 1398.02 1246.19 1398.38 1245.89 1398.68C1245.58 1398.97 1245.23 1399.2 1244.82 1399.37C1244.41 1399.53 1243.98 1399.62 1243.52 1399.62H1228.64C1227.24 1399.62 1225.82 1399.47 1224.38 1399.16C1222.94 1398.86 1221.54 1398.39 1220.19 1397.77C1218.85 1397.12 1217.59 1396.31 1216.4 1395.33C1215.22 1394.35 1214.18 1393.19 1213.28 1391.85C1212.4 1390.49 1211.7 1388.95 1211.2 1387.23C1210.69 1385.48 1210.43 1383.54 1210.43 1381.41V1369.65L1217.04 1363.2V1381.41C1217.04 1383.27 1217.29 1384.85 1217.8 1386.13C1218.32 1387.42 1218.98 1388.5 1219.78 1389.36C1220.58 1390.22 1221.45 1390.9 1222.4 1391.39C1223.34 1391.88 1224.24 1392.25 1225.09 1392.48C1225.95 1392.72 1226.7 1392.87 1227.35 1392.94C1228.01 1392.99 1228.44 1393.02 1228.64 1393.02H1240.25V1369.65L1246.85 1363.2V1396.29Z" fill="white"/>
<path d="M1205.77 1389.15C1205.77 1390.45 1205.6 1391.63 1205.26 1392.68C1204.94 1393.71 1204.51 1394.63 1203.97 1395.42C1203.42 1396.22 1202.79 1396.9 1202.06 1397.45C1201.33 1398.01 1200.58 1398.47 1199.8 1398.83C1199.02 1399.18 1198.23 1399.44 1197.41 1399.61C1196.76 1399.61 1195.93 1399.61 1195.22 1399.61H1164.21L1170.93 1393.26H1195.15C1196.42 1393.26 1197.4 1392.89 1198.1 1392.15C1198.81 1391.4 1199.17 1390.4 1199.17 1389.15C1199.17 1388.54 1199.07 1387.98 1198.89 1387.47C1198.7 1386.97 1198.43 1386.53 1198.07 1386.15C1197.74 1385.78 1197.31 1385.49 1196.8 1385.29C1196.31 1385.09 1195.76 1384.99 1195.15 1384.99H1179.97C1178.9 1384.99 1177.75 1384.8 1176.51 1384.43C1175.28 1384.04 1174.13 1383.42 1173.06 1382.57C1172.01 1381.73 1171.13 1380.62 1170.42 1379.25C1169.72 1377.88 1169.38 1376.2 1169.38 1374.22C1169.38 1372.24 1169.72 1370.57 1170.42 1369.22C1171.13 1367.84 1172.01 1366.74 1173.06 1365.89C1174.13 1365.03 1175.28 1364.41 1176.51 1364.04C1177.75 1363.65 1178.9 1363.45 1179.97 1363.45H1202.19L1195.22 1370.05H1179.97C1178.71 1370.05 1177.73 1370.43 1177.02 1371.2C1176.33 1371.96 1175.98 1372.97 1175.98 1374.22C1175.98 1375.49 1176.33 1376.5 1177.02 1377.24C1177.73 1377.97 1178.71 1378.33 1179.97 1378.33H1195.15H1195.2C1195.92 1378.35 1196.67 1378.45 1197.46 1378.64C1198.26 1378.81 1199.05 1379.08 1199.83 1379.45C1200.62 1379.82 1201.38 1380.3 1202.09 1380.87C1202.8 1381.43 1203.42 1382.11 1203.97 1382.9C1204.52 1383.7 1204.96 1384.61 1205.29 1385.65C1205.61 1386.68 1205.77 1387.85 1205.77 1389.15Z" fill="white"/>
<path d="M1147.3 1384.38C1147.3 1386.6 1146.91 1388.64 1146.13 1390.5C1145.37 1392.36 1144.31 1393.97 1142.96 1395.33C1141.61 1396.67 1140 1397.71 1138.14 1398.48C1136.27 1399.24 1134.25 1399.62 1132.07 1399.62H1114.24C1113.76 1399.62 1113.32 1399.53 1112.92 1399.37C1112.51 1399.2 1112.16 1398.97 1111.85 1398.68C1111.56 1398.38 1111.34 1398.02 1111.17 1397.61C1111 1397.21 1110.91 1396.77 1110.91 1396.29V1366.53C1110.91 1366.07 1111 1365.64 1111.17 1365.23C1111.34 1364.83 1111.56 1364.47 1111.85 1364.17C1112.16 1363.86 1112.51 1363.63 1112.92 1363.46C1113.32 1363.29 1113.76 1363.2 1114.24 1363.2H1132.07C1134.25 1363.2 1136.27 1363.58 1138.14 1364.35C1140 1365.11 1141.61 1366.17 1142.96 1367.52C1144.31 1368.86 1145.37 1370.47 1146.13 1372.35C1146.91 1374.21 1147.3 1376.24 1147.3 1378.44V1384.38ZM1140.7 1378.44C1140.7 1377.15 1140.49 1375.98 1140.07 1374.91C1139.66 1373.84 1139.08 1372.94 1138.31 1372.19C1137.55 1371.43 1136.64 1370.85 1135.57 1370.44C1134.52 1370.02 1133.35 1369.81 1132.07 1369.81H1117.51V1393.02H1132.07C1133.35 1393.02 1134.52 1392.81 1135.57 1392.41C1136.64 1391.98 1137.55 1391.4 1138.31 1390.65C1139.08 1389.89 1139.66 1388.99 1140.07 1387.94C1140.49 1386.87 1140.7 1385.69 1140.7 1384.38V1378.44Z" fill="white"/>
<path d="M1103.25 1396.83C1103.25 1397.3 1103.15 1397.74 1102.97 1398.14C1102.8 1398.54 1102.56 1398.9 1102.26 1399.2C1101.98 1399.49 1101.63 1399.71 1101.23 1399.88C1100.82 1400.05 1100.39 1400.13 1099.94 1400.13C1099.54 1400.13 1099.12 1400.06 1098.7 1399.91C1098.3 1399.76 1097.94 1399.51 1097.62 1399.18L1073.64 1374.14V1399.63H1067.08V1366.24C1067.08 1365.56 1067.26 1364.96 1067.64 1364.42C1068.02 1363.86 1068.51 1363.45 1069.1 1363.18C1069.72 1362.93 1070.36 1362.87 1071.02 1363.01C1071.67 1363.12 1072.24 1363.43 1072.71 1363.91L1096.68 1388.93V1369.65L1103.25 1363.43V1396.83Z" fill="white"/>
<path d="M1059.18 1399.62H1052.58V1390.68H1029.37V1399.62H1022.77V1381.41C1022.77 1378.75 1023.22 1376.31 1024.14 1374.07C1025.05 1371.84 1026.32 1369.92 1027.95 1368.31C1029.57 1366.7 1031.49 1365.45 1033.71 1364.55C1035.93 1363.65 1038.35 1363.2 1040.97 1363.2H1055.86C1056.31 1363.2 1056.74 1363.29 1057.15 1363.46C1057.56 1363.63 1057.91 1363.86 1058.22 1364.17C1058.52 1364.47 1058.76 1364.83 1058.93 1365.23C1059.1 1365.64 1059.18 1366.07 1059.18 1366.53V1399.62ZM1029.37 1384.08H1052.58V1369.81H1040.97C1040.77 1369.81 1040.34 1369.84 1039.68 1369.91C1039.04 1369.96 1038.28 1370.1 1037.42 1370.34C1036.57 1370.58 1035.68 1370.94 1034.73 1371.43C1033.78 1371.92 1032.91 1372.6 1032.11 1373.46C1031.32 1374.33 1030.66 1375.41 1030.13 1376.71C1029.62 1378 1029.37 1379.57 1029.37 1381.41V1384.08Z" fill="white"/>
<path d="M1016.82 1375.44C1016.82 1376.95 1016.64 1378.3 1016.27 1379.48C1015.89 1380.67 1015.38 1381.72 1014.74 1382.63C1014.11 1383.53 1013.39 1384.3 1012.56 1384.94C1011.73 1385.58 1010.86 1386.12 1009.94 1386.54C1009.04 1386.95 1008.13 1387.24 1007.2 1387.43C1006.28 1387.62 1005.42 1387.71 1004.61 1387.71L1018.4 1399.62H1008.19L994.425 1387.71H989.677L996.556 1381.11H1004.61C1005.44 1381.04 1006.19 1380.87 1006.87 1380.6C1007.56 1380.31 1008.16 1379.93 1008.65 1379.46C1009.15 1378.98 1009.54 1378.41 1009.81 1377.75C1010.09 1377.08 1010.22 1376.31 1010.22 1375.44V1371.28C1010.22 1370.91 1010.17 1370.63 1010.07 1370.44C1009.98 1370.24 1009.87 1370.09 1009.71 1370.01C1009.58 1369.91 1009.43 1369.85 1009.26 1369.83C1009.1 1369.81 1008.96 1369.81 1008.82 1369.81H987.036V1399.62H980.433V1366.53C980.433 1366.07 980.518 1365.64 980.687 1365.23C980.856 1364.83 981.085 1364.47 981.372 1364.17C981.677 1363.86 982.033 1363.63 982.439 1363.46C982.845 1363.29 983.286 1363.2 983.76 1363.2H1008.82C1010.3 1363.2 1011.54 1363.47 1012.56 1364.02C1013.57 1364.54 1014.39 1365.21 1015.02 1366.02C1015.66 1366.82 1016.12 1367.68 1016.39 1368.61C1016.68 1369.54 1016.82 1370.42 1016.82 1371.23V1375.44Z" fill="white"/>
<path d="M972.782 1396.54C972.782 1397.01 972.698 1397.45 972.528 1397.86C972.359 1398.27 972.122 1398.62 971.817 1398.93C971.529 1399.22 971.182 1399.44 970.776 1399.61C970.37 1399.78 969.93 1399.87 969.455 1399.87H945.635C945.026 1399.87 944.365 1399.8 943.654 1399.66C942.96 1399.51 942.266 1399.28 941.572 1398.98C940.895 1398.67 940.243 1398.28 939.617 1397.81C938.99 1397.32 938.431 1396.74 937.94 1396.06C937.466 1395.36 937.085 1394.57 936.798 1393.67C936.51 1392.76 936.366 1391.73 936.366 1390.6V1372.72C936.366 1372.11 936.434 1371.46 936.569 1370.76C936.721 1370.05 936.95 1369.36 937.255 1368.68C937.56 1367.99 937.957 1367.33 938.448 1366.7C938.939 1366.08 939.523 1365.53 940.201 1365.05C940.895 1364.56 941.69 1364.17 942.588 1363.88C943.485 1363.6 944.501 1363.45 945.635 1363.45L971.499 1363.45L964.524 1370.05H945.635C944.772 1370.05 944.111 1370.28 943.654 1370.74C943.197 1371.2 942.969 1371.87 942.969 1372.77V1390.6C942.969 1391.44 943.197 1392.11 943.654 1392.58C944.128 1393.04 944.789 1393.26 945.635 1393.26H966.18V1384.99L948.793 1385.15L955.999 1378.33H969.455C969.93 1378.33 970.37 1378.43 970.776 1378.61C971.182 1378.78 971.529 1379.02 971.817 1379.32C972.122 1379.63 972.359 1379.98 972.528 1380.39C972.698 1380.78 972.782 1381.2 972.782 1381.66V1396.54Z" fill="white"/>
<path d="M1479.62 1765.71C1490.39 1755.34 1523.09 1723.09 1542.99 1703.43C1551.83 1694.7 1566.02 1694.76 1574.79 1703.57L1635.95 1765.04C1637.25 1766.35 1639.47 1765.42 1639.47 1763.57V1729.2C1639.47 1728.65 1639.25 1728.12 1638.86 1727.73L1584.94 1673.54C1580.78 1669.35 1575.13 1667.01 1569.25 1667.01H1547.07C1541.1 1667.01 1535.37 1669.39 1531.15 1673.64L1477.19 1727.87C1476.81 1728.25 1476.59 1728.77 1476.58 1729.31L1476.13 1764.18C1476.1 1766.02 1478.29 1766.98 1479.62 1765.71Z" fill="white"/>
<path d="M782.086 1820.39H753.368V1781.51H652.414V1820.39H623.696V1741.2C623.696 1729.64 625.684 1718.99 629.661 1709.27C633.637 1699.56 639.16 1691.2 646.229 1684.2C653.298 1677.21 661.655 1671.76 671.301 1667.86C680.948 1663.95 691.477 1662 702.891 1662H767.616C769.605 1662 771.482 1662.37 773.249 1663.11C775.017 1663.84 776.563 1664.87 777.888 1666.2C779.214 1667.52 780.245 1669.07 780.981 1670.84C781.718 1672.6 782.086 1674.48 782.086 1676.47V1820.39ZM652.414 1752.79H753.368V1690.72H702.891C702.007 1690.72 700.13 1690.87 697.258 1691.16C694.46 1691.38 691.183 1692.01 687.428 1693.04C683.746 1694.07 679.843 1695.65 675.72 1697.79C671.596 1699.92 667.804 1702.87 664.343 1706.62C660.882 1710.38 658.01 1715.09 655.728 1720.76C653.518 1726.36 652.414 1733.17 652.414 1741.2V1752.79ZM970.739 1805.92C970.739 1807.98 970.371 1809.9 969.635 1811.66C968.898 1813.43 967.868 1814.98 966.542 1816.3C965.217 1817.56 963.67 1818.55 961.903 1819.29C960.136 1820.02 958.258 1820.39 956.27 1820.39H891.545C885.433 1820.39 879.247 1819.73 872.988 1818.4C866.729 1817.08 860.655 1815.05 854.764 1812.33C848.947 1809.53 843.461 1805.99 838.306 1801.72C833.152 1797.45 828.623 1792.41 824.721 1786.59C820.891 1780.7 817.872 1774 815.663 1766.49C813.454 1758.91 812.35 1750.47 812.35 1741.2V1662H841.068V1741.2C841.068 1749.3 842.172 1756.14 844.381 1761.74C846.664 1767.34 849.536 1772.01 852.996 1775.77C856.457 1779.52 860.25 1782.47 864.373 1784.6C868.497 1786.74 872.399 1788.32 876.081 1789.35C879.837 1790.38 883.113 1791.05 885.911 1791.34C888.783 1791.56 890.661 1791.67 891.545 1791.67H942.022V1662H970.739V1805.92ZM1147.35 1690.72H1084.06V1820.39H1055.35V1690.72H991.946V1662H1147.35V1690.72ZM1332.58 1756.33C1332.58 1765.97 1330.93 1774.85 1327.61 1782.95C1324.3 1791.05 1319.7 1798.04 1313.81 1803.93C1307.92 1809.82 1300.92 1814.43 1292.82 1817.74C1284.79 1820.98 1276.03 1822.6 1266.53 1822.6H1227.65C1218.15 1822.6 1209.35 1820.98 1201.25 1817.74C1193.15 1814.43 1186.16 1809.82 1180.27 1803.93C1174.38 1798.04 1169.74 1791.05 1166.35 1782.95C1163.04 1774.85 1161.38 1765.97 1161.38 1756.33V1726.06C1161.38 1716.49 1163.04 1707.65 1166.35 1699.56C1169.74 1691.38 1174.38 1684.39 1180.27 1678.57C1186.16 1672.68 1193.15 1668.08 1201.25 1664.76C1209.35 1661.45 1218.15 1659.79 1227.65 1659.79H1266.53C1276.03 1659.79 1284.79 1661.45 1292.82 1664.76C1300.92 1668.08 1307.92 1672.68 1313.81 1678.57C1319.7 1684.39 1324.3 1691.38 1327.61 1699.56C1330.93 1707.65 1332.58 1716.49 1332.58 1726.06V1756.33ZM1303.87 1726.06C1303.87 1720.39 1302.94 1715.28 1301.1 1710.71C1299.34 1706.07 1296.8 1702.13 1293.48 1698.89C1290.24 1695.58 1286.3 1693.04 1281.66 1691.27C1277.1 1689.43 1272.05 1688.51 1266.53 1688.51H1227.65C1222.06 1688.51 1216.94 1689.43 1212.3 1691.27C1207.73 1693.04 1203.8 1695.58 1200.48 1698.89C1197.17 1702.13 1194.59 1706.07 1192.75 1710.71C1190.98 1715.28 1190.1 1720.39 1190.1 1726.06V1756.33C1190.1 1762 1190.98 1767.15 1192.75 1771.79C1194.59 1776.36 1197.17 1780.3 1200.48 1783.61C1203.8 1786.85 1207.73 1789.39 1212.3 1791.23C1216.94 1793 1222.06 1793.88 1227.65 1793.88H1266.31C1271.91 1793.88 1276.99 1793 1281.55 1791.23C1286.19 1789.39 1290.17 1786.85 1293.48 1783.61C1296.8 1780.3 1299.34 1776.36 1301.1 1771.79C1302.94 1767.15 1303.87 1762 1303.87 1756.33V1726.06ZM768.5 2024.39H664.895C662.244 2024.39 659.372 2024.1 656.28 2023.51C653.261 2022.84 650.242 2021.85 647.223 2020.52C644.277 2019.2 641.442 2017.51 638.718 2015.44C635.993 2013.31 633.563 2010.77 631.428 2007.82C629.366 2004.8 627.709 2001.34 626.457 1997.44C625.206 1993.46 624.58 1989.01 624.58 1984.08V1906.32C624.58 1903.67 624.874 1900.83 625.463 1897.81C626.126 1894.72 627.12 1891.7 628.446 1888.75C629.771 1885.74 631.502 1882.86 633.637 1880.14C635.772 1877.41 638.313 1875.02 641.258 1872.96C644.277 1870.82 647.738 1869.13 651.641 1867.88C655.543 1866.63 659.962 1866 664.895 1866H768.5V1894.72H664.895C661.14 1894.72 658.268 1895.71 656.28 1897.7C654.292 1899.69 653.298 1902.63 653.298 1906.54V1984.08C653.298 1987.76 654.292 1990.63 656.28 1992.69C658.342 1994.68 661.213 1995.67 664.895 1995.67H768.5V2024.39ZM925.895 1959.67H835.214V1930.73H925.895V1959.67ZM938.818 2024.39H835.214C831.237 2024.39 826.893 2023.69 822.18 2022.29C817.467 2020.89 813.086 2018.61 809.036 2015.44C805.06 2012.2 801.71 2008.04 798.985 2002.96C796.334 1997.81 795.009 1991.51 795.009 1984.08V1880.47C795.009 1878.48 795.377 1876.6 796.113 1874.84C796.85 1873.07 797.844 1871.52 799.095 1870.2C800.421 1868.87 801.967 1867.84 803.734 1867.11C805.502 1866.37 807.416 1866 809.478 1866H938.818V1894.72H823.726V1984.08C823.726 1987.83 824.721 1990.7 826.709 1992.69C828.697 1994.68 831.605 1995.67 835.434 1995.67H938.818V2024.39ZM1124.93 2012.13C1124.93 2014.19 1124.53 2016.11 1123.72 2017.87C1122.98 2019.64 1121.95 2021.19 1120.62 2022.51C1119.37 2023.76 1117.86 2024.76 1116.1 2025.5C1114.33 2026.23 1112.45 2026.6 1110.46 2026.6C1108.7 2026.6 1106.89 2026.27 1105.05 2025.61C1103.28 2024.94 1101.7 2023.88 1100.3 2022.4L995.37 1912.83V2024.39H966.653V1878.26C966.653 1875.32 967.463 1872.67 969.083 1870.31C970.776 1867.88 972.912 1866.07 975.489 1864.9C978.213 1863.79 981.011 1863.53 983.883 1864.12C986.755 1864.64 989.222 1865.96 991.284 1868.1L1096.21 1977.56V1866H1124.93V2012.13ZM1301.55 1894.72H1238.26V2024.39H1209.54V1894.72H1146.14V1866H1301.55V1894.72ZM1452.98 1959.67H1362.3V1930.73H1452.98V1959.67ZM1465.9 2024.39H1362.3C1358.32 2024.39 1353.97 2023.69 1349.26 2022.29C1344.55 2020.89 1340.17 2018.61 1336.12 2015.44C1332.14 2012.2 1328.79 2008.04 1326.07 2002.96C1323.42 1997.81 1322.09 1991.51 1322.09 1984.08V1880.47C1322.09 1878.48 1322.46 1876.6 1323.19 1874.84C1323.93 1873.07 1324.93 1871.52 1326.18 1870.2C1327.5 1868.87 1329.05 1867.84 1330.82 1867.11C1332.58 1866.37 1334.5 1866 1336.56 1866H1465.9V1894.72H1350.81V1984.08C1350.81 1987.83 1351.8 1990.7 1353.79 1992.69C1355.78 1994.68 1358.69 1995.67 1362.52 1995.67H1465.9V2024.39ZM1652.01 1919.24C1652.01 1925.79 1651.2 1931.65 1649.58 1936.8C1647.96 1941.96 1645.75 1946.52 1642.96 1950.5C1640.23 1954.4 1637.07 1957.75 1633.46 1960.55C1629.85 1963.35 1626.06 1965.67 1622.08 1967.51C1618.18 1969.27 1614.2 1970.56 1610.15 1971.37C1606.18 1972.18 1602.42 1972.59 1598.89 1972.59L1658.86 2024.39H1614.46L1554.59 1972.59H1533.94V1943.87H1598.89C1602.49 1943.58 1605.77 1942.84 1608.72 1941.66C1611.73 1940.41 1614.31 1938.75 1616.45 1936.69C1618.66 1934.63 1620.35 1932.16 1621.53 1929.29C1622.71 1926.35 1623.3 1922.99 1623.3 1919.24V1901.13C1623.3 1899.51 1623.07 1898.29 1622.63 1897.48C1622.26 1896.6 1621.75 1895.97 1621.09 1895.6C1620.5 1895.16 1619.83 1894.9 1619.1 1894.83C1618.44 1894.76 1617.81 1894.72 1617.22 1894.72H1522.45V2024.39H1493.73V1880.47C1493.73 1878.48 1494.1 1876.6 1494.84 1874.84C1495.57 1873.07 1496.57 1871.52 1497.82 1870.2C1499.15 1868.87 1500.69 1867.84 1502.46 1867.11C1504.23 1866.37 1506.14 1866 1508.2 1866H1617.22C1623.63 1866 1629.04 1867.18 1633.46 1869.54C1637.88 1871.82 1641.45 1874.73 1644.17 1878.26C1646.97 1881.72 1648.96 1885.48 1650.14 1889.53C1651.39 1893.58 1652.01 1897.37 1652.01 1900.9V1919.24Z" fill="white"/>
<g opacity="0.5">
<path d="M615.761 2910.37H605.304V2896.22H568.544V2910.37H558.087V2881.54C558.087 2877.33 558.811 2873.45 560.259 2869.91C561.706 2866.37 563.717 2863.33 566.291 2860.78C568.865 2858.24 571.909 2856.25 575.421 2854.83C578.934 2853.41 582.768 2852.7 586.924 2852.7H610.492C611.216 2852.7 611.9 2852.83 612.543 2853.1C613.187 2853.37 613.75 2853.74 614.232 2854.23C614.715 2854.71 615.09 2855.27 615.358 2855.92C615.626 2856.56 615.761 2857.24 615.761 2857.97V2910.37ZM568.544 2885.76H605.304V2863.16H586.924C586.602 2863.16 585.918 2863.21 584.872 2863.32C583.854 2863.4 582.66 2863.63 581.293 2864C579.952 2864.38 578.531 2864.95 577.03 2865.73C575.528 2866.51 574.147 2867.58 572.887 2868.95C571.627 2870.32 570.581 2872.03 569.75 2874.1C568.946 2876.13 568.544 2878.61 568.544 2881.54V2885.76ZM684.454 2905.1C684.454 2905.86 684.32 2906.55 684.052 2907.2C683.784 2907.84 683.409 2908.4 682.926 2908.88C682.443 2909.34 681.88 2909.7 681.237 2909.97C680.593 2910.24 679.91 2910.37 679.186 2910.37H655.617C653.392 2910.37 651.14 2910.13 648.861 2909.65C646.582 2909.17 644.37 2908.43 642.225 2907.44C640.106 2906.42 638.109 2905.13 636.232 2903.58C634.355 2902.02 632.706 2900.18 631.285 2898.07C629.891 2895.92 628.791 2893.48 627.987 2890.75C627.183 2887.98 626.781 2884.91 626.781 2881.54V2852.7H637.237V2881.54C637.237 2884.49 637.64 2886.98 638.444 2889.02C639.275 2891.05 640.321 2892.76 641.581 2894.12C642.841 2895.49 644.222 2896.56 645.724 2897.34C647.225 2898.12 648.646 2898.7 649.987 2899.07C651.354 2899.45 652.547 2899.69 653.566 2899.8C654.612 2899.88 655.296 2899.92 655.617 2899.92H673.997V2852.7H684.454V2905.1ZM748.764 2863.16H725.719V2910.37H715.262V2863.16H692.176V2852.7H748.764V2863.16ZM816.211 2887.05C816.211 2890.56 815.608 2893.79 814.401 2896.74C813.195 2899.69 811.519 2902.24 809.374 2904.38C807.229 2906.53 804.682 2908.2 801.732 2909.41C798.81 2910.59 795.619 2911.18 792.16 2911.18H778.003C774.545 2911.18 771.34 2910.59 768.391 2909.41C765.442 2908.2 762.894 2906.53 760.749 2904.38C758.604 2902.24 756.915 2899.69 755.682 2896.74C754.475 2893.79 753.872 2890.56 753.872 2887.05V2876.03C753.872 2872.54 754.475 2869.32 755.682 2866.37C756.915 2863.4 758.604 2860.85 760.749 2858.73C762.894 2856.59 765.442 2854.91 768.391 2853.7C771.34 2852.5 774.545 2851.89 778.003 2851.89H792.16C795.619 2851.89 798.81 2852.5 801.732 2853.7C804.682 2854.91 807.229 2856.59 809.374 2858.73C811.519 2860.85 813.195 2863.4 814.401 2866.37C815.608 2869.32 816.211 2872.54 816.211 2876.03V2887.05ZM805.754 2876.03C805.754 2873.96 805.419 2872.1 804.749 2870.44C804.105 2868.75 803.18 2867.31 801.974 2866.13C800.794 2864.93 799.36 2864 797.67 2863.36C796.008 2862.69 794.171 2862.35 792.16 2862.35H778.003C775.966 2862.35 774.102 2862.69 772.413 2863.36C770.751 2864 769.316 2864.93 768.11 2866.13C766.903 2867.31 765.965 2868.75 765.294 2870.44C764.651 2872.1 764.329 2873.96 764.329 2876.03V2887.05C764.329 2889.11 764.651 2890.99 765.294 2892.68C765.965 2894.34 766.903 2895.77 768.11 2896.98C769.316 2898.16 770.751 2899.08 772.413 2899.76C774.102 2900.4 775.966 2900.72 778.003 2900.72H792.08C794.118 2900.72 795.968 2900.4 797.63 2899.76C799.319 2899.08 800.767 2898.16 801.974 2896.98C803.18 2895.77 804.105 2894.34 804.749 2892.68C805.419 2890.99 805.754 2889.11 805.754 2887.05V2876.03ZM610.814 2984.37H573.088C572.123 2984.37 571.077 2984.27 569.951 2984.05C568.852 2983.81 567.753 2983.45 566.653 2982.97C565.581 2982.48 564.549 2981.87 563.557 2981.12C562.564 2980.34 561.68 2979.41 560.902 2978.34C560.151 2977.24 559.548 2975.98 559.092 2974.56C558.636 2973.11 558.408 2971.49 558.408 2969.69V2941.38C558.408 2940.41 558.516 2939.38 558.73 2938.28C558.972 2937.16 559.334 2936.06 559.816 2934.98C560.299 2933.89 560.929 2932.84 561.706 2931.85C562.484 2930.86 563.409 2929.98 564.482 2929.23C565.581 2928.46 566.841 2927.84 568.262 2927.38C569.683 2926.93 571.292 2926.7 573.088 2926.7H610.814V2937.16H573.088C571.721 2937.16 570.675 2937.52 569.951 2938.24C569.227 2938.97 568.865 2940.04 568.865 2941.46V2969.69C568.865 2971.03 569.227 2972.08 569.951 2972.83C570.702 2973.55 571.748 2973.92 573.088 2973.92H610.814V2984.37ZM668.125 2960.8H635.106V2950.27H668.125V2960.8ZM672.831 2984.37H635.106C633.658 2984.37 632.076 2984.12 630.36 2983.61C628.644 2983.1 627.049 2982.27 625.574 2981.12C624.126 2979.94 622.906 2978.42 621.914 2976.57C620.949 2974.69 620.466 2972.4 620.466 2969.69V2931.97C620.466 2931.24 620.6 2930.56 620.868 2929.92C621.136 2929.27 621.498 2928.71 621.954 2928.23C622.437 2927.74 623 2927.37 623.643 2927.1C624.287 2926.83 624.984 2926.7 625.735 2926.7H672.831V2937.16H630.923V2969.69C630.923 2971.06 631.285 2972.11 632.009 2972.83C632.733 2973.55 633.792 2973.92 635.186 2973.92H672.831V2984.37ZM740.6 2979.91C740.6 2980.66 740.452 2981.36 740.157 2982C739.889 2982.64 739.514 2983.21 739.031 2983.69C738.575 2984.15 738.026 2984.51 737.382 2984.78C736.739 2985.04 736.055 2985.18 735.331 2985.18C734.688 2985.18 734.031 2985.06 733.36 2984.82C732.717 2984.57 732.14 2984.19 731.631 2983.65L693.423 2943.75V2984.37H682.966V2931.16C682.966 2930.09 683.261 2929.13 683.851 2928.27C684.468 2927.38 685.245 2926.73 686.184 2926.3C687.176 2925.89 688.195 2925.8 689.24 2926.02C690.286 2926.2 691.184 2926.69 691.935 2927.46L730.143 2967.32V2926.7H740.6V2979.91ZM804.91 2937.16H781.864V2984.37H771.407V2937.16H748.322V2926.7H804.91V2937.16ZM860.05 2960.8H827.03V2950.27H860.05V2960.8ZM864.755 2984.37H827.03C825.582 2984.37 824 2984.12 822.284 2983.61C820.568 2983.1 818.973 2982.27 817.498 2981.12C816.05 2979.94 814.83 2978.42 813.838 2976.57C812.873 2974.69 812.39 2972.4 812.39 2969.69V2931.97C812.39 2931.24 812.524 2930.56 812.793 2929.92C813.061 2929.27 813.423 2928.71 813.879 2928.23C814.361 2927.74 814.924 2927.37 815.568 2927.1C816.211 2926.83 816.908 2926.7 817.659 2926.7H864.755V2937.16H822.847V2969.69C822.847 2971.06 823.209 2972.11 823.933 2972.83C824.657 2973.55 825.716 2973.92 827.111 2973.92H864.755V2984.37ZM932.524 2946.08C932.524 2948.47 932.229 2950.6 931.639 2952.48C931.049 2954.36 930.245 2956.02 929.226 2957.47C928.234 2958.89 927.081 2960.11 925.767 2961.13C924.453 2962.15 923.073 2962.99 921.625 2963.66C920.204 2964.3 918.756 2964.77 917.281 2965.07C915.833 2965.36 914.466 2965.51 913.179 2965.51L935.018 2984.37H918.85L897.051 2965.51H889.53V2955.05H913.179C914.493 2954.95 915.686 2954.68 916.758 2954.25C917.858 2953.79 918.796 2953.19 919.574 2952.44C920.378 2951.69 920.995 2950.79 921.424 2949.74C921.853 2948.67 922.067 2947.45 922.067 2946.08V2939.49C922.067 2938.9 921.987 2938.46 921.826 2938.16C921.692 2937.84 921.504 2937.61 921.263 2937.48C921.048 2937.32 920.807 2937.22 920.539 2937.2C920.298 2937.17 920.07 2937.16 919.855 2937.16H885.347V2984.37H874.89V2931.97C874.89 2931.24 875.025 2930.56 875.293 2929.92C875.561 2929.27 875.923 2928.71 876.379 2928.23C876.861 2927.74 877.424 2927.37 878.068 2927.1C878.711 2926.83 879.408 2926.7 880.159 2926.7H919.855C922.188 2926.7 924.159 2927.13 925.767 2927.99C927.376 2928.82 928.676 2929.88 929.669 2931.16C930.687 2932.42 931.411 2933.79 931.84 2935.27C932.296 2936.74 932.524 2938.12 932.524 2939.41V2946.08Z" fill="white"/>
<mask id="mask0_498_7029" style="mask-type:alpha" maskUnits="userSpaceOnUse" x="836" y="2854" width="123" height="57">
<rect x="0.0964044" y="-0.0964044" width="121.374" height="55.6474" transform="matrix(1 0 0 -1 836.469 2909.91)" fill="#D9D9D9" stroke="white" stroke-width="0.192809"/>
</mask>
<g mask="url(#mask0_498_7029)">
<path d="M957.849 2877.3L957.849 2886.42C957.849 2888.82 956.898 2891.12 955.2 2892.82L932.99 2915C932.849 2915.14 932.655 2915.22 932.456 2915.22L918.368 2915.22C917.695 2915.22 917.358 2914.41 917.834 2913.94L943.026 2888.77C946.677 2885.13 946.703 2879.22 943.087 2875.55C936.037 2868.38 925.034 2857.19 919.547 2851.53L917.561 2849.47C917.099 2848.99 917.447 2848.19 918.117 2848.2L932.411 2848.39C932.607 2848.39 932.795 2848.47 932.934 2848.61L955.159 2870.81C956.882 2872.53 957.849 2874.87 957.849 2877.3Z" fill="white" stroke="white" stroke-width="0.192809"/>
<path d="M860.198 2877.3L860.198 2886.42C860.198 2888.82 859.248 2891.12 857.55 2892.82L835.34 2915C835.199 2915.14 835.005 2915.22 834.806 2915.22L820.718 2915.22C820.045 2915.22 819.708 2914.41 820.184 2913.94L845.376 2888.77C849.027 2885.13 849.053 2879.22 845.437 2875.55C838.387 2868.38 827.384 2857.19 821.897 2851.53L819.91 2849.47C819.449 2848.99 819.797 2848.19 820.467 2848.2L834.761 2848.39C834.957 2848.39 835.145 2848.47 835.283 2848.61L857.509 2870.81C859.232 2872.53 860.198 2874.87 860.198 2877.3Z" fill="white" stroke="white" stroke-width="0.192809"/>
<path d="M850.685 2877.3L850.685 2886.42C850.685 2888.82 849.734 2891.12 848.036 2892.82L825.826 2915C825.685 2915.14 825.491 2915.22 825.292 2915.22L811.204 2915.22C810.531 2915.22 810.194 2914.41 810.67 2913.94L835.862 2888.77C839.513 2885.13 839.539 2879.22 835.923 2875.55C828.873 2868.38 817.87 2857.19 812.383 2851.53L810.396 2849.47C809.935 2848.99 810.283 2848.19 810.953 2848.2L825.247 2848.39C825.443 2848.39 825.631 2848.47 825.77 2848.61L847.995 2870.81C849.718 2872.53 850.685 2874.87 850.685 2877.3Z" fill="white" stroke="white" stroke-width="0.192809"/>
<path d="M845.212 2877.3L845.212 2886.42C845.212 2888.82 844.261 2891.12 842.563 2892.82L820.353 2915C820.212 2915.14 820.018 2915.22 819.819 2915.22L805.731 2915.22C805.058 2915.22 804.722 2914.41 805.197 2913.94L830.389 2888.77C834.04 2885.13 834.066 2879.22 830.45 2875.55C823.4 2868.38 812.397 2857.19 806.91 2851.53L804.924 2849.47C804.462 2848.99 804.81 2848.19 805.48 2848.2L819.774 2848.39C819.97 2848.39 820.158 2848.47 820.297 2848.61L842.522 2870.81C844.245 2872.53 845.212 2874.87 845.212 2877.3Z" fill="white" stroke="white" stroke-width="0.192809"/>
<path d="M891.913 2877.3L891.913 2886.42C891.913 2888.82 890.963 2891.12 889.265 2892.82L867.055 2915C866.914 2915.14 866.72 2915.22 866.521 2915.22L852.433 2915.22C851.76 2915.22 851.423 2914.41 851.899 2913.94L877.091 2888.77C880.742 2885.13 880.768 2879.22 877.152 2875.55C870.102 2868.38 859.099 2857.19 853.612 2851.53L851.625 2849.47C851.164 2848.99 851.512 2848.19 852.182 2848.2L866.476 2848.39C866.672 2848.39 866.86 2848.47 866.998 2848.61L889.224 2870.81C890.947 2872.53 891.913 2874.87 891.913 2877.3Z" fill="white" stroke="white" stroke-width="0.192809"/>
<path d="M889.218 2877.3L889.218 2886.42C889.218 2888.82 888.268 2891.12 886.57 2892.82L864.36 2915C864.219 2915.14 864.025 2915.22 863.826 2915.22L849.738 2915.22C849.065 2915.22 848.728 2914.41 849.204 2913.94L874.396 2888.77C878.047 2885.13 878.073 2879.22 874.457 2875.55C867.407 2868.38 856.404 2857.19 850.917 2851.53L848.93 2849.47C848.469 2848.99 848.817 2848.19 849.487 2848.2L863.781 2848.39C863.977 2848.39 864.165 2848.47 864.303 2848.61L886.529 2870.81C888.252 2872.53 889.218 2874.87 889.218 2877.3Z" fill="white" stroke="white" stroke-width="0.192809"/>
<path d="M924.365 2877.3L924.365 2886.42C924.365 2888.82 923.415 2891.12 921.717 2892.82L899.507 2915C899.366 2915.14 899.171 2915.22 898.972 2915.22L884.885 2915.22C884.212 2915.22 883.875 2914.41 884.35 2913.94L909.543 2888.77C913.193 2885.13 913.219 2879.22 909.603 2875.55C902.554 2868.38 891.55 2857.19 886.063 2851.53L884.077 2849.47C883.615 2848.99 883.964 2848.19 884.634 2848.2L898.927 2848.39C899.124 2848.39 899.312 2848.47 899.45 2848.61L921.676 2870.81C923.399 2872.53 924.365 2874.87 924.365 2877.3Z" fill="white" stroke="white" stroke-width="0.192809"/>
<path d="M920.983 2877.3L920.983 2886.42C920.983 2888.82 920.032 2891.12 918.334 2892.82L896.124 2915C895.983 2915.14 895.789 2915.22 895.59 2915.22L881.502 2915.22C880.829 2915.22 880.493 2914.41 880.968 2913.94L906.16 2888.77C909.811 2885.13 909.837 2879.22 906.221 2875.55C899.171 2868.38 888.168 2857.19 882.681 2851.53L880.695 2849.47C880.233 2848.99 880.581 2848.19 881.251 2848.2L895.545 2848.39C895.741 2848.39 895.929 2848.47 896.068 2848.61L918.293 2870.81C920.016 2872.53 920.983 2874.87 920.983 2877.3Z" fill="white" stroke="white" stroke-width="0.192809"/>
</g>
<path d="M-211.326 2910.37H-221.783V2896.22H-258.543V2910.37H-269V2881.54C-269 2877.33 -268.276 2873.45 -266.828 2869.91C-265.38 2866.37 -263.369 2863.33 -260.795 2860.78C-258.221 2858.24 -255.178 2856.25 -251.665 2854.83C-248.153 2853.41 -244.319 2852.7 -240.163 2852.7H-216.595C-215.871 2852.7 -215.187 2852.83 -214.543 2853.1C-213.9 2853.37 -213.337 2853.74 -212.854 2854.23C-212.372 2854.71 -211.996 2855.27 -211.728 2855.92C-211.46 2856.56 -211.326 2857.24 -211.326 2857.97V2910.37ZM-258.543 2885.76H-221.783V2863.16H-240.163C-240.485 2863.16 -241.168 2863.21 -242.214 2863.32C-243.233 2863.4 -244.426 2863.63 -245.793 2864C-247.134 2864.38 -248.555 2864.95 -250.057 2865.73C-251.558 2866.51 -252.939 2867.58 -254.199 2868.95C-255.459 2870.32 -256.505 2872.03 -257.336 2874.1C-258.141 2876.13 -258.543 2878.61 -258.543 2881.54V2885.76ZM-142.632 2905.1C-142.632 2905.86 -142.766 2906.55 -143.034 2907.2C-143.302 2907.84 -143.678 2908.4 -144.16 2908.88C-144.643 2909.34 -145.206 2909.7 -145.85 2909.97C-146.493 2910.24 -147.177 2910.37 -147.901 2910.37H-171.469C-173.694 2910.37 -175.947 2910.13 -178.226 2909.65C-180.505 2909.17 -182.717 2908.43 -184.862 2907.44C-186.98 2906.42 -188.978 2905.13 -190.854 2903.58C-192.731 2902.02 -194.38 2900.18 -195.801 2898.07C-197.196 2895.92 -198.295 2893.48 -199.099 2890.75C-199.904 2887.98 -200.306 2884.91 -200.306 2881.54V2852.7H-189.849V2881.54C-189.849 2884.49 -189.447 2886.98 -188.642 2889.02C-187.811 2891.05 -186.766 2892.76 -185.505 2894.12C-184.245 2895.49 -182.864 2896.56 -181.363 2897.34C-179.861 2898.12 -178.44 2898.7 -177.1 2899.07C-175.732 2899.45 -174.539 2899.69 -173.52 2899.8C-172.474 2899.88 -171.791 2899.92 -171.469 2899.92H-153.089V2852.7H-142.632V2905.1ZM-78.3222 2863.16H-101.368V2910.37H-111.824V2863.16H-134.91V2852.7H-78.3222V2863.16ZM-10.8752 2887.05C-10.8752 2890.56 -11.4785 2893.79 -12.685 2896.74C-13.8916 2899.69 -15.5674 2902.24 -17.7124 2904.38C-19.8574 2906.53 -22.4046 2908.2 -25.354 2909.41C-28.2765 2910.59 -31.4672 2911.18 -34.9261 2911.18H-49.0831C-52.5419 2911.18 -55.746 2910.59 -58.6954 2909.41C-61.6448 2908.2 -64.192 2906.53 -66.337 2904.38C-68.482 2902.24 -70.1712 2899.69 -71.4045 2896.74C-72.6111 2893.79 -73.2144 2890.56 -73.2144 2887.05V2876.03C-73.2144 2872.54 -72.6111 2869.32 -71.4045 2866.37C-70.1712 2863.4 -68.482 2860.85 -66.337 2858.73C-64.192 2856.59 -61.6448 2854.91 -58.6954 2853.7C-55.746 2852.5 -52.5419 2851.89 -49.0831 2851.89H-34.9261C-31.4672 2851.89 -28.2765 2852.5 -25.354 2853.7C-22.4046 2854.91 -19.8574 2856.59 -17.7124 2858.73C-15.5674 2860.85 -13.8916 2863.4 -12.685 2866.37C-11.4785 2869.32 -10.8752 2872.54 -10.8752 2876.03V2887.05ZM-21.3321 2876.03C-21.3321 2873.96 -21.6672 2872.1 -22.3376 2870.44C-22.9811 2868.75 -23.9061 2867.31 -25.1127 2866.13C-26.2924 2864.93 -27.7269 2864 -29.4161 2863.36C-31.0785 2862.69 -32.9151 2862.35 -34.9261 2862.35H-49.0831C-51.1208 2862.35 -52.9843 2862.69 -54.6735 2863.36C-56.3359 2864 -57.7704 2864.93 -58.9769 2866.13C-60.1835 2867.31 -61.1219 2868.75 -61.7922 2870.44C-62.4357 2872.1 -62.7575 2873.96 -62.7575 2876.03V2887.05C-62.7575 2889.11 -62.4357 2890.99 -61.7922 2892.68C-61.1219 2894.34 -60.1835 2895.77 -58.9769 2896.98C-57.7704 2898.16 -56.3359 2899.08 -54.6735 2899.76C-52.9843 2900.4 -51.1208 2900.72 -49.0831 2900.72H-35.0065C-32.9687 2900.72 -31.1187 2900.4 -29.4563 2899.76C-27.7671 2899.08 -26.3192 2898.16 -25.1127 2896.98C-23.9061 2895.77 -22.9811 2894.34 -22.3376 2892.68C-21.6672 2890.99 -21.3321 2889.11 -21.3321 2887.05V2876.03ZM-216.273 2984.37H-253.998C-254.963 2984.37 -256.009 2984.27 -257.135 2984.05C-258.234 2983.81 -259.334 2983.45 -260.433 2982.97C-261.506 2982.48 -262.538 2981.87 -263.53 2981.12C-264.522 2980.34 -265.407 2979.41 -266.184 2978.34C-266.935 2977.24 -267.538 2975.98 -267.994 2974.56C-268.45 2973.11 -268.678 2971.49 -268.678 2969.69V2941.38C-268.678 2940.41 -268.571 2939.38 -268.356 2938.28C-268.115 2937.16 -267.753 2936.06 -267.27 2934.98C-266.788 2933.89 -266.158 2932.84 -265.38 2931.85C-264.602 2930.86 -263.677 2929.98 -262.605 2929.23C-261.506 2928.46 -260.245 2927.84 -258.824 2927.38C-257.403 2926.93 -255.794 2926.7 -253.998 2926.7H-216.273V2937.16H-253.998C-255.365 2937.16 -256.411 2937.52 -257.135 2938.24C-257.859 2938.97 -258.221 2940.04 -258.221 2941.46V2969.69C-258.221 2971.03 -257.859 2972.08 -257.135 2972.83C-256.384 2973.55 -255.339 2973.92 -253.998 2973.92H-216.273V2984.37ZM-158.961 2960.8H-191.981V2950.27H-158.961V2960.8ZM-154.255 2984.37H-191.981C-193.428 2984.37 -195.01 2984.12 -196.726 2983.61C-198.442 2983.1 -200.038 2982.27 -201.512 2981.12C-202.96 2979.94 -204.18 2978.42 -205.172 2976.57C-206.138 2974.69 -206.62 2972.4 -206.62 2969.69V2931.97C-206.62 2931.24 -206.486 2930.56 -206.218 2929.92C-205.95 2929.27 -205.588 2928.71 -205.132 2928.23C-204.65 2927.74 -204.086 2927.37 -203.443 2927.1C-202.799 2926.83 -202.102 2926.7 -201.352 2926.7H-154.255V2937.16H-196.163V2969.69C-196.163 2971.06 -195.801 2972.11 -195.077 2972.83C-194.354 2973.55 -193.294 2973.92 -191.9 2973.92H-154.255V2984.37ZM-86.4866 2979.91C-86.4866 2980.66 -86.6341 2981.36 -86.929 2982C-87.1971 2982.64 -87.5725 2983.21 -88.0551 2983.69C-88.511 2984.15 -89.0606 2984.51 -89.7041 2984.78C-90.3476 2985.04 -91.0313 2985.18 -91.7553 2985.18C-92.3988 2985.18 -93.0557 2985.06 -93.726 2984.82C-94.3695 2984.57 -94.946 2984.19 -95.4554 2983.65L-133.663 2943.75V2984.37H-144.12V2931.16C-144.12 2930.09 -143.825 2929.13 -143.235 2928.27C-142.619 2927.38 -141.841 2926.73 -140.903 2926.3C-139.911 2925.89 -138.892 2925.8 -137.846 2926.02C-136.8 2926.2 -135.902 2926.69 -135.151 2927.46L-96.9435 2967.32V2926.7H-86.4866V2979.91ZM-22.1767 2937.16H-45.2221V2984.37H-55.679V2937.16H-78.7646V2926.7H-22.1767V2937.16ZM32.9633 2960.8H-0.0563388V2950.27H32.9633V2960.8ZM37.6689 2984.37H-0.0563388C-1.50422 2984.37 -3.08616 2984.12 -4.80216 2983.61C-6.51816 2983.1 -8.11351 2982.27 -9.5882 2981.12C-11.0361 2979.94 -12.2561 2978.42 -13.2481 2976.57C-14.2134 2974.69 -14.696 2972.4 -14.696 2969.69V2931.97C-14.696 2931.24 -14.5619 2930.56 -14.2938 2929.92C-14.0257 2929.27 -13.6637 2928.71 -13.2079 2928.23C-12.7253 2927.74 -12.1622 2927.37 -11.5187 2927.1C-10.8752 2926.83 -10.1781 2926.7 -9.42733 2926.7H37.6689V2937.16H-4.2391V2969.69C-4.2391 2971.06 -3.87713 2972.11 -3.15319 2972.83C-2.42925 2973.55 -1.37015 2973.92 0.0240989 2973.92H37.6689V2984.37ZM105.438 2946.08C105.438 2948.47 105.143 2950.6 104.553 2952.48C103.963 2954.36 103.159 2956.02 102.14 2957.47C101.148 2958.89 99.9947 2960.11 98.6809 2961.13C97.3671 2962.15 95.9862 2962.99 94.5383 2963.66C93.1173 2964.3 91.6694 2964.77 90.1947 2965.07C88.7468 2965.36 87.3794 2965.51 86.0924 2965.51L107.931 2984.37H91.7632L69.9646 2965.51H62.4437V2955.05H86.0924C87.4062 2954.95 88.5994 2954.68 89.6719 2954.25C90.7712 2953.79 91.7096 2953.19 92.4872 2952.44C93.2916 2951.69 93.9083 2950.79 94.3373 2949.74C94.7663 2948.67 94.9808 2947.45 94.9808 2946.08V2939.49C94.9808 2938.9 94.9003 2938.46 94.7394 2938.16C94.6054 2937.84 94.4177 2937.61 94.1764 2937.48C93.9619 2937.32 93.7206 2937.22 93.4524 2937.2C93.2111 2937.17 92.9832 2937.16 92.7687 2937.16H58.261V2984.37H47.8041V2931.97C47.8041 2931.24 47.9381 2930.56 48.2063 2929.92C48.4744 2929.27 48.8363 2928.71 49.2922 2928.23C49.7748 2927.74 50.3378 2927.37 50.9813 2927.1C51.6249 2926.83 52.322 2926.7 53.0727 2926.7H92.7687C95.1014 2926.7 97.0721 2927.13 98.6809 2927.99C100.29 2928.82 101.59 2929.88 102.582 2931.16C103.601 2932.42 104.325 2933.79 104.754 2935.27C105.21 2936.74 105.438 2938.12 105.438 2939.41V2946.08Z" fill="white"/>
<mask id="mask1_498_7029" style="mask-type:alpha" maskUnits="userSpaceOnUse" x="9" y="2854" width="122" height="57">
<rect x="0.0964044" y="-0.0964044" width="121.374" height="55.6474" transform="matrix(1 0 0 -1 9.38184 2909.91)" fill="#D9D9D9" stroke="white" stroke-width="0.192809"/>
</mask>
<g mask="url(#mask1_498_7029)">
<path d="M130.762 2877.3L130.762 2886.42C130.762 2888.82 129.812 2891.12 128.114 2892.82L105.904 2915C105.763 2915.14 105.569 2915.22 105.37 2915.22L91.2817 2915.22C90.6088 2915.22 90.2721 2914.41 90.7476 2913.94L115.94 2888.77C119.591 2885.13 119.617 2879.22 116 2875.55C108.951 2868.38 97.9477 2857.19 92.4604 2851.53L90.4741 2849.47C90.0127 2848.99 90.3608 2848.19 91.0308 2848.2L105.325 2848.39C105.521 2848.39 105.709 2848.47 105.847 2848.61L128.073 2870.81C129.796 2872.53 130.762 2874.87 130.762 2877.3Z" fill="white" stroke="white" stroke-width="0.192809"/>
<path d="M33.1121 2877.3L33.1121 2886.42C33.1121 2888.82 32.1617 2891.12 30.4636 2892.82L8.25366 2915C8.11266 2915.14 7.91847 2915.22 7.71948 2915.22L-6.36841 2915.22C-7.04131 2915.22 -7.37809 2914.41 -6.90259 2913.94L18.2898 2888.77C21.9406 2885.13 21.9664 2879.22 18.3503 2875.55C11.3007 2868.38 0.297568 2857.19 -5.1897 2851.53L-7.17603 2849.47C-7.63747 2848.99 -7.28936 2848.19 -6.61938 2848.2L7.67456 2848.39C7.8707 2848.39 8.05872 2848.47 8.19702 2848.61L30.4226 2870.81C32.1456 2872.53 33.1121 2874.87 33.1121 2877.3Z" fill="white" stroke="white" stroke-width="0.192809"/>
<path d="M23.5981 2877.3L23.5981 2886.42C23.5981 2888.82 22.6477 2891.12 20.9497 2892.82L-1.26026 2915C-1.40126 2915.14 -1.59544 2915.22 -1.79444 2915.22L-15.8823 2915.22C-16.5552 2915.22 -16.892 2914.41 -16.4165 2913.94L8.77588 2888.77C12.4266 2885.13 12.4525 2879.22 8.83642 2875.55C1.78676 2868.38 -9.21635 2857.19 -14.7036 2851.53L-16.6899 2849.47C-17.1514 2848.99 -16.8033 2848.19 -16.1333 2848.2L-1.83936 2848.39C-1.64322 2848.39 -1.4552 2848.47 -1.31689 2848.61L20.9087 2870.81C22.6317 2872.53 23.5981 2874.87 23.5981 2877.3Z" fill="white" stroke="white" stroke-width="0.192809"/>
<path d="M18.1252 2877.3L18.1252 2886.42C18.1252 2888.82 17.1748 2891.12 15.4768 2892.82L-6.73316 2915C-6.87416 2915.14 -7.06834 2915.22 -7.26734 2915.22L-21.3552 2915.22C-22.0281 2915.22 -22.3649 2914.41 -21.8894 2913.94L3.30298 2888.77C6.95374 2885.13 6.97956 2879.22 3.36352 2875.55C-3.68614 2868.38 -14.6892 2857.19 -20.1765 2851.53L-22.1628 2849.47C-22.6243 2848.99 -22.2762 2848.19 -21.6062 2848.2L-7.31226 2848.39C-7.11612 2848.39 -6.9281 2848.47 -6.78979 2848.61L15.4358 2870.81C17.1588 2872.53 18.1252 2874.87 18.1252 2877.3Z" fill="white" stroke="white" stroke-width="0.192809"/>
<path d="M64.8269 2877.3L64.8269 2886.42C64.8269 2888.82 63.8765 2891.12 62.1785 2892.82L39.9685 2915C39.8275 2915.14 39.6333 2915.22 39.4343 2915.22L25.3464 2915.22C24.6735 2915.22 24.3368 2914.41 24.8123 2913.94L50.0046 2888.77C53.6554 2885.13 53.6812 2879.22 50.0652 2875.55C43.0155 2868.38 32.0124 2857.19 26.5251 2851.53L24.5388 2849.47C24.0774 2848.99 24.4255 2848.19 25.0955 2848.2L39.3894 2848.39C39.5855 2848.39 39.7736 2848.47 39.9119 2848.61L62.1375 2870.81C63.8605 2872.53 64.8269 2874.87 64.8269 2877.3Z" fill="white" stroke="white" stroke-width="0.192809"/>
<path d="M62.1316 2877.3L62.1316 2886.42C62.1316 2888.82 61.1812 2891.12 59.4832 2892.82L37.2732 2915C37.1322 2915.14 36.938 2915.22 36.739 2915.22L22.6511 2915.22C21.9782 2915.22 21.6414 2914.41 22.1169 2913.94L47.3093 2888.77C50.9601 2885.13 50.9859 2879.22 47.3699 2875.55C40.3202 2868.38 29.3171 2857.19 23.8298 2851.53L21.8435 2849.47C21.3821 2848.99 21.7302 2848.19 22.4001 2848.2L36.6941 2848.39C36.8902 2848.39 37.0782 2848.47 37.2166 2848.61L59.4421 2870.81C61.1652 2872.53 62.1316 2874.87 62.1316 2877.3Z" fill="white" stroke="white" stroke-width="0.192809"/>
<path d="M97.2786 2877.3L97.2786 2886.42C97.2786 2888.82 96.3282 2891.12 94.6301 2892.82L72.4202 2915C72.2792 2915.14 72.085 2915.22 71.886 2915.22L57.7981 2915.22C57.1252 2915.22 56.7884 2914.41 57.2639 2913.94L82.4563 2888.77C86.1071 2885.13 86.1329 2879.22 82.5168 2875.55C75.4672 2868.38 64.4641 2857.19 58.9768 2851.53L56.9905 2849.47C56.529 2848.99 56.8771 2848.19 57.5471 2848.2L71.8411 2848.39C72.0372 2848.39 72.2252 2848.47 72.3635 2848.61L94.5891 2870.81C96.3121 2872.53 97.2786 2874.87 97.2786 2877.3Z" fill="white" stroke="white" stroke-width="0.192809"/>
<path d="M93.8962 2877.3L93.8962 2886.42C93.8962 2888.82 92.9458 2891.12 91.2478 2892.82L69.0378 2915C68.8968 2915.14 68.7027 2915.22 68.5037 2915.22L54.4158 2915.22C53.7429 2915.22 53.4061 2914.41 53.8816 2913.94L79.074 2888.77C82.7247 2885.13 82.7506 2879.22 79.1345 2875.55C72.0849 2868.38 61.0817 2857.19 55.5945 2851.53L53.6082 2849.47C53.1467 2848.99 53.4948 2848.19 54.1648 2848.2L68.4587 2848.39C68.6549 2848.39 68.8429 2848.47 68.9812 2848.61L91.2068 2870.81C92.9298 2872.53 93.8962 2874.87 93.8962 2877.3Z" fill="white" stroke="white" stroke-width="0.192809"/>
</g>
<path d="M445.21 2895.52L445.21 2918.82C445.21 2924.88 442.804 2930.69 438.508 2934.99L381.815 2991.62C381.493 2991.95 381.049 2992.13 380.595 2992.13L344.634 2992.13C343.097 2992.13 342.331 2990.28 343.416 2989.2L407.722 2924.95C417.12 2915.57 417.185 2900.38 407.876 2890.91C388.596 2871.32 357.733 2839.91 345.014 2826.74L342.721 2824.36C341.701 2823.29 342.413 2821.54 343.85 2821.45L343.992 2821.45L380.478 2821.93C380.925 2821.93 381.355 2822.12 381.671 2822.43L438.405 2879.11C442.765 2883.47 445.21 2889.37 445.21 2895.52Z" stroke="white" stroke-width="0.898812"/>
<rect width="5.87958" height="13.5358" rx="2.93979" transform="matrix(-1 0 0 1 438.097 2900.02)" fill="white"/>
<path d="M495.371 2895.52L495.371 2918.82C495.371 2924.88 492.965 2930.69 488.669 2934.99L431.976 2991.62C431.654 2991.95 431.21 2992.13 430.756 2992.13L394.795 2992.13C393.257 2992.13 392.492 2990.28 393.576 2989.2L457.883 2924.95C467.281 2915.57 467.346 2900.38 458.037 2890.91C438.756 2871.32 407.894 2839.91 395.175 2826.74L392.882 2824.36C391.862 2823.29 392.574 2821.54 394.011 2821.45L394.152 2821.45L430.639 2821.93C431.086 2821.93 431.516 2822.12 431.832 2822.43L488.565 2879.11C492.925 2883.47 495.371 2889.37 495.371 2895.52Z" stroke="white" stroke-width="0.898812"/>
<rect width="5.87958" height="13.5358" rx="2.93979" transform="matrix(-1 0 0 1 488.019 2900.02)" fill="white"/>
<path d="M325.442 2895.52L325.442 2918.82C325.442 2924.88 323.036 2930.69 318.74 2934.99L262.047 2991.62C261.725 2991.95 261.281 2992.13 260.827 2992.13L224.866 2992.13C223.329 2992.13 222.563 2990.28 223.647 2989.2L287.954 2924.95C297.352 2915.57 297.417 2900.38 288.108 2890.91C268.827 2871.32 237.965 2839.91 225.246 2826.74L222.953 2824.36C221.933 2823.29 222.645 2821.54 224.082 2821.45L224.223 2821.45L260.71 2821.93C261.157 2821.93 261.587 2822.12 261.903 2822.43L318.636 2879.11C322.997 2883.47 325.442 2889.37 325.442 2895.52Z" fill="white" stroke="white" stroke-width="0.898812"/>
<rect width="5.87958" height="13.5358" rx="2.93979" transform="matrix(-1 0 0 1 318.329 2900.02)" fill="white"/>
<path d="M375.602 2895.52L375.602 2918.82C375.602 2924.88 373.196 2930.69 368.9 2934.99L312.207 2991.62C311.885 2991.95 311.441 2992.13 310.987 2992.13L275.026 2992.13C273.488 2992.13 272.723 2990.28 273.807 2989.2L338.114 2924.95C347.512 2915.57 347.577 2900.38 338.268 2890.91C318.987 2871.32 288.125 2839.91 275.406 2826.74L273.113 2824.36C272.093 2823.29 272.805 2821.54 274.242 2821.45L274.383 2821.45L310.87 2821.93C311.317 2821.93 311.747 2822.12 312.063 2822.43L368.796 2879.11C373.156 2883.47 375.602 2889.37 375.602 2895.52Z" fill="white" stroke="white" stroke-width="0.898812"/>
<rect width="5.87958" height="13.5358" rx="2.93979" transform="matrix(-1 0 0 1 368.249 2900.02)" fill="white"/>
<path d="M2266.45 2910.37H2255.99V2896.22H2219.23V2910.37H2208.77V2881.54C2208.77 2877.33 2209.5 2873.45 2210.94 2869.91C2212.39 2866.37 2214.4 2863.33 2216.98 2860.78C2219.55 2858.24 2222.59 2856.25 2226.11 2854.83C2229.62 2853.41 2233.45 2852.7 2237.61 2852.7H2261.18C2261.9 2852.7 2262.58 2852.83 2263.23 2853.1C2263.87 2853.37 2264.43 2853.74 2264.92 2854.23C2265.4 2854.71 2265.78 2855.27 2266.04 2855.92C2266.31 2856.56 2266.45 2857.24 2266.45 2857.97V2910.37ZM2219.23 2885.76H2255.99V2863.16H2237.61C2237.29 2863.16 2236.6 2863.21 2235.56 2863.32C2234.54 2863.4 2233.35 2863.63 2231.98 2864C2230.64 2864.38 2229.22 2864.95 2227.71 2865.73C2226.21 2866.51 2224.83 2867.58 2223.57 2868.95C2222.31 2870.32 2221.27 2872.03 2220.44 2874.1C2219.63 2876.13 2219.23 2878.61 2219.23 2881.54V2885.76ZM2335.14 2905.1C2335.14 2905.86 2335.01 2906.55 2334.74 2907.2C2334.47 2907.84 2334.09 2908.4 2333.61 2908.88C2333.13 2909.34 2332.57 2909.7 2331.92 2909.97C2331.28 2910.24 2330.59 2910.37 2329.87 2910.37H2306.3C2304.08 2910.37 2301.82 2910.13 2299.55 2909.65C2297.27 2909.17 2295.05 2908.43 2292.91 2907.44C2290.79 2906.42 2288.79 2905.13 2286.92 2903.58C2285.04 2902.02 2283.39 2900.18 2281.97 2898.07C2280.58 2895.92 2279.48 2893.48 2278.67 2890.75C2277.87 2887.98 2277.47 2884.91 2277.47 2881.54V2852.7H2287.92V2881.54C2287.92 2884.49 2288.32 2886.98 2289.13 2889.02C2289.96 2891.05 2291.01 2892.76 2292.27 2894.12C2293.53 2895.49 2294.91 2896.56 2296.41 2897.34C2297.91 2898.12 2299.33 2898.7 2300.67 2899.07C2302.04 2899.45 2303.23 2899.69 2304.25 2899.8C2305.3 2899.88 2305.98 2899.92 2306.3 2899.92H2324.68V2852.7H2335.14V2905.1ZM2399.45 2863.16H2376.4V2910.37H2365.95V2863.16H2342.86V2852.7H2399.45V2863.16ZM2466.9 2887.05C2466.9 2890.56 2466.29 2893.79 2465.09 2896.74C2463.88 2899.69 2462.2 2902.24 2460.06 2904.38C2457.91 2906.53 2455.37 2908.2 2452.42 2909.41C2449.49 2910.59 2446.3 2911.18 2442.85 2911.18H2428.69C2425.23 2911.18 2422.03 2910.59 2419.08 2909.41C2416.13 2908.2 2413.58 2906.53 2411.43 2904.38C2409.29 2902.24 2407.6 2899.69 2406.37 2896.74C2405.16 2893.79 2404.56 2890.56 2404.56 2887.05V2876.03C2404.56 2872.54 2405.16 2869.32 2406.37 2866.37C2407.6 2863.4 2409.29 2860.85 2411.43 2858.73C2413.58 2856.59 2416.13 2854.91 2419.08 2853.7C2422.03 2852.5 2425.23 2851.89 2428.69 2851.89H2442.85C2446.3 2851.89 2449.49 2852.5 2452.42 2853.7C2455.37 2854.91 2457.91 2856.59 2460.06 2858.73C2462.2 2860.85 2463.88 2863.4 2465.09 2866.37C2466.29 2869.32 2466.9 2872.54 2466.9 2876.03V2887.05ZM2456.44 2876.03C2456.44 2873.96 2456.1 2872.1 2455.43 2870.44C2454.79 2868.75 2453.87 2867.31 2452.66 2866.13C2451.48 2864.93 2450.04 2864 2448.36 2863.36C2446.69 2862.69 2444.86 2862.35 2442.85 2862.35H2428.69C2426.65 2862.35 2424.79 2862.69 2423.1 2863.36C2421.44 2864 2420 2864.93 2418.79 2866.13C2417.59 2867.31 2416.65 2868.75 2415.98 2870.44C2415.34 2872.1 2415.01 2873.96 2415.01 2876.03V2887.05C2415.01 2889.11 2415.34 2890.99 2415.98 2892.68C2416.65 2894.34 2417.59 2895.77 2418.79 2896.98C2420 2898.16 2421.44 2899.08 2423.1 2899.76C2424.79 2900.4 2426.65 2900.72 2428.69 2900.72H2442.76C2444.8 2900.72 2446.65 2900.4 2448.32 2899.76C2450 2899.08 2451.45 2898.16 2452.66 2896.98C2453.87 2895.77 2454.79 2894.34 2455.43 2892.68C2456.1 2890.99 2456.44 2889.11 2456.44 2887.05V2876.03ZM2261.5 2984.37H2223.77C2222.81 2984.37 2221.76 2984.27 2220.64 2984.05C2219.54 2983.81 2218.44 2983.45 2217.34 2982.97C2216.27 2982.48 2215.23 2981.87 2214.24 2981.12C2213.25 2980.34 2212.36 2979.41 2211.59 2978.34C2210.84 2977.24 2210.23 2975.98 2209.78 2974.56C2209.32 2973.11 2209.09 2971.49 2209.09 2969.69V2941.38C2209.09 2940.41 2209.2 2939.38 2209.42 2938.28C2209.66 2937.16 2210.02 2936.06 2210.5 2934.98C2210.98 2933.89 2211.61 2932.84 2212.39 2931.85C2213.17 2930.86 2214.09 2929.98 2215.17 2929.23C2216.27 2928.46 2217.53 2927.84 2218.95 2927.38C2220.37 2926.93 2221.98 2926.7 2223.77 2926.7H2261.5V2937.16H2223.77C2222.41 2937.16 2221.36 2937.52 2220.64 2938.24C2219.91 2938.97 2219.55 2940.04 2219.55 2941.46V2969.69C2219.55 2971.03 2219.91 2972.08 2220.64 2972.83C2221.39 2973.55 2222.43 2973.92 2223.77 2973.92H2261.5V2984.37ZM2318.81 2960.8H2285.79V2950.27H2318.81V2960.8ZM2323.52 2984.37H2285.79C2284.34 2984.37 2282.76 2984.12 2281.05 2983.61C2279.33 2983.1 2277.73 2982.27 2276.26 2981.12C2274.81 2979.94 2273.59 2978.42 2272.6 2976.57C2271.63 2974.69 2271.15 2972.4 2271.15 2969.69V2931.97C2271.15 2931.24 2271.29 2930.56 2271.55 2929.92C2271.82 2929.27 2272.18 2928.71 2272.64 2928.23C2273.12 2927.74 2273.69 2927.37 2274.33 2927.1C2274.97 2926.83 2275.67 2926.7 2276.42 2926.7H2323.52V2937.16H2281.61V2969.69C2281.61 2971.06 2281.97 2972.11 2282.69 2972.83C2283.42 2973.55 2284.48 2973.92 2285.87 2973.92H2323.52V2984.37ZM2391.28 2979.91C2391.28 2980.66 2391.14 2981.36 2390.84 2982C2390.57 2982.64 2390.2 2983.21 2389.72 2983.69C2389.26 2984.15 2388.71 2984.51 2388.07 2984.78C2387.42 2985.04 2386.74 2985.18 2386.02 2985.18C2385.37 2985.18 2384.72 2985.06 2384.05 2984.82C2383.4 2984.57 2382.83 2984.19 2382.32 2983.65L2344.11 2943.75V2984.37H2333.65V2931.16C2333.65 2930.09 2333.95 2929.13 2334.54 2928.27C2335.15 2927.38 2335.93 2926.73 2336.87 2926.3C2337.86 2925.89 2338.88 2925.8 2339.93 2926.02C2340.97 2926.2 2341.87 2926.69 2342.62 2927.46L2380.83 2967.32V2926.7H2391.28V2979.91ZM2455.59 2937.16H2432.55V2984.37H2422.09V2937.16H2399.01V2926.7H2455.59V2937.16ZM2510.73 2960.8H2477.72V2950.27H2510.73V2960.8ZM2515.44 2984.37H2477.72C2476.27 2984.37 2474.69 2984.12 2472.97 2983.61C2471.25 2983.1 2469.66 2982.27 2468.18 2981.12C2466.74 2979.94 2465.52 2978.42 2464.52 2976.57C2463.56 2974.69 2463.08 2972.4 2463.08 2969.69V2931.97C2463.08 2931.24 2463.21 2930.56 2463.48 2929.92C2463.75 2929.27 2464.11 2928.71 2464.56 2928.23C2465.05 2927.74 2465.61 2927.37 2466.25 2927.1C2466.9 2926.83 2467.59 2926.7 2468.34 2926.7H2515.44V2937.16H2473.53V2969.69C2473.53 2971.06 2473.89 2972.11 2474.62 2972.83C2475.34 2973.55 2476.4 2973.92 2477.8 2973.92H2515.44V2984.37ZM2583.21 2946.08C2583.21 2948.47 2582.91 2950.6 2582.32 2952.48C2581.73 2954.36 2580.93 2956.02 2579.91 2957.47C2578.92 2958.89 2577.77 2960.11 2576.45 2961.13C2575.14 2962.15 2573.76 2962.99 2572.31 2963.66C2570.89 2964.3 2569.44 2964.77 2567.97 2965.07C2566.52 2965.36 2565.15 2965.51 2563.86 2965.51L2585.7 2984.37H2569.53L2547.74 2965.51H2540.22V2955.05H2563.86C2565.18 2954.95 2566.37 2954.68 2567.44 2954.25C2568.54 2953.79 2569.48 2953.19 2570.26 2952.44C2571.06 2951.69 2571.68 2950.79 2572.11 2949.74C2572.54 2948.67 2572.75 2947.45 2572.75 2946.08V2939.49C2572.75 2938.9 2572.67 2938.46 2572.51 2938.16C2572.38 2937.84 2572.19 2937.61 2571.95 2937.48C2571.73 2937.32 2571.49 2937.22 2571.22 2937.2C2570.98 2937.17 2570.75 2937.16 2570.54 2937.16H2536.03V2984.37H2525.58V2931.97C2525.58 2931.24 2525.71 2930.56 2525.98 2929.92C2526.25 2929.27 2526.61 2928.71 2527.06 2928.23C2527.55 2927.74 2528.11 2927.37 2528.75 2927.1C2529.4 2926.83 2530.09 2926.7 2530.84 2926.7H2570.54C2572.87 2926.7 2574.84 2927.13 2576.45 2927.99C2578.06 2928.82 2579.36 2929.88 2580.35 2931.16C2581.37 2932.42 2582.1 2933.79 2582.53 2935.27C2582.98 2936.74 2583.21 2938.12 2583.21 2939.41V2946.08Z" fill="white"/>
<path d="M1439.37 2910.37H1428.91V2896.22H1392.15V2910.37H1381.69V2881.54C1381.69 2877.33 1382.42 2873.45 1383.87 2869.91C1385.31 2866.37 1387.32 2863.33 1389.9 2860.78C1392.47 2858.24 1395.52 2856.25 1399.03 2854.83C1402.54 2853.41 1406.37 2852.7 1410.53 2852.7H1434.1C1434.82 2852.7 1435.51 2852.83 1436.15 2853.1C1436.79 2853.37 1437.36 2853.74 1437.84 2854.23C1438.32 2854.71 1438.7 2855.27 1438.97 2855.92C1439.23 2856.56 1439.37 2857.24 1439.37 2857.97V2910.37ZM1392.15 2885.76H1428.91V2863.16H1410.53C1410.21 2863.16 1409.52 2863.21 1408.48 2863.32C1407.46 2863.4 1406.27 2863.63 1404.9 2864C1403.56 2864.38 1402.14 2864.95 1400.64 2865.73C1399.14 2866.51 1397.75 2867.58 1396.49 2868.95C1395.23 2870.32 1394.19 2872.03 1393.36 2874.1C1392.55 2876.13 1392.15 2878.61 1392.15 2881.54V2885.76ZM1508.06 2905.1C1508.06 2905.86 1507.93 2906.55 1507.66 2907.2C1507.39 2907.84 1507.02 2908.4 1506.53 2908.88C1506.05 2909.34 1505.49 2909.7 1504.84 2909.97C1504.2 2910.24 1503.52 2910.37 1502.79 2910.37H1479.22C1477 2910.37 1474.75 2910.13 1472.47 2909.65C1470.19 2909.17 1467.98 2908.43 1465.83 2907.44C1463.71 2906.42 1461.72 2905.13 1459.84 2903.58C1457.96 2902.02 1456.31 2900.18 1454.89 2898.07C1453.5 2895.92 1452.4 2893.48 1451.59 2890.75C1450.79 2887.98 1450.39 2884.91 1450.39 2881.54V2852.7H1460.84V2881.54C1460.84 2884.49 1461.25 2886.98 1462.05 2889.02C1462.88 2891.05 1463.93 2892.76 1465.19 2894.12C1466.45 2895.49 1467.83 2896.56 1469.33 2897.34C1470.83 2898.12 1472.25 2898.7 1473.59 2899.07C1474.96 2899.45 1476.15 2899.69 1477.17 2899.8C1478.22 2899.88 1478.9 2899.92 1479.22 2899.92H1497.6V2852.7H1508.06V2905.1ZM1572.37 2863.16H1549.33V2910.37H1538.87V2863.16H1515.78V2852.7H1572.37V2863.16ZM1639.82 2887.05C1639.82 2890.56 1639.21 2893.79 1638.01 2896.74C1636.8 2899.69 1635.13 2902.24 1632.98 2904.38C1630.84 2906.53 1628.29 2908.2 1625.34 2909.41C1622.42 2910.59 1619.23 2911.18 1615.77 2911.18H1601.61C1598.15 2911.18 1594.95 2910.59 1592 2909.41C1589.05 2908.2 1586.5 2906.53 1584.36 2904.38C1582.21 2902.24 1580.52 2899.69 1579.29 2896.74C1578.08 2893.79 1577.48 2890.56 1577.48 2887.05V2876.03C1577.48 2872.54 1578.08 2869.32 1579.29 2866.37C1580.52 2863.4 1582.21 2860.85 1584.36 2858.73C1586.5 2856.59 1589.05 2854.91 1592 2853.7C1594.95 2852.5 1598.15 2851.89 1601.61 2851.89H1615.77C1619.23 2851.89 1622.42 2852.5 1625.34 2853.7C1628.29 2854.91 1630.84 2856.59 1632.98 2858.73C1635.13 2860.85 1636.8 2863.4 1638.01 2866.37C1639.21 2869.32 1639.82 2872.54 1639.82 2876.03V2887.05ZM1629.36 2876.03C1629.36 2873.96 1629.03 2872.1 1628.36 2870.44C1627.71 2868.75 1626.79 2867.31 1625.58 2866.13C1624.4 2864.93 1622.97 2864 1621.28 2863.36C1619.61 2862.69 1617.78 2862.35 1615.77 2862.35H1601.61C1599.57 2862.35 1597.71 2862.69 1596.02 2863.36C1594.36 2864 1592.92 2864.93 1591.72 2866.13C1590.51 2867.31 1589.57 2868.75 1588.9 2870.44C1588.26 2872.1 1587.94 2873.96 1587.94 2876.03V2887.05C1587.94 2889.11 1588.26 2890.99 1588.9 2892.68C1589.57 2894.34 1590.51 2895.77 1591.72 2896.98C1592.92 2898.16 1594.36 2899.08 1596.02 2899.76C1597.71 2900.4 1599.57 2900.72 1601.61 2900.72H1615.69C1617.72 2900.72 1619.57 2900.4 1621.24 2899.76C1622.93 2899.08 1624.37 2898.16 1625.58 2896.98C1626.79 2895.77 1627.71 2894.34 1628.36 2892.68C1629.03 2890.99 1629.36 2889.11 1629.36 2887.05V2876.03ZM1434.42 2984.37H1396.7C1395.73 2984.37 1394.68 2984.27 1393.56 2984.05C1392.46 2983.81 1391.36 2983.45 1390.26 2982.97C1389.19 2982.48 1388.16 2981.87 1387.16 2981.12C1386.17 2980.34 1385.29 2979.41 1384.51 2978.34C1383.76 2977.24 1383.15 2975.98 1382.7 2974.56C1382.24 2973.11 1382.02 2971.49 1382.02 2969.69V2941.38C1382.02 2940.41 1382.12 2939.38 1382.34 2938.28C1382.58 2937.16 1382.94 2936.06 1383.42 2934.98C1383.91 2933.89 1384.54 2932.84 1385.31 2931.85C1386.09 2930.86 1387.02 2929.98 1388.09 2929.23C1389.19 2928.46 1390.45 2927.84 1391.87 2927.38C1393.29 2926.93 1394.9 2926.7 1396.7 2926.7H1434.42V2937.16H1396.7C1395.33 2937.16 1394.28 2937.52 1393.56 2938.24C1392.83 2938.97 1392.47 2940.04 1392.47 2941.46V2969.69C1392.47 2971.03 1392.83 2972.08 1393.56 2972.83C1394.31 2973.55 1395.35 2973.92 1396.7 2973.92H1434.42V2984.37ZM1491.73 2960.8H1458.71V2950.27H1491.73V2960.8ZM1496.44 2984.37H1458.71C1457.26 2984.37 1455.68 2984.12 1453.97 2983.61C1452.25 2983.1 1450.66 2982.27 1449.18 2981.12C1447.73 2979.94 1446.51 2978.42 1445.52 2976.57C1444.56 2974.69 1444.07 2972.4 1444.07 2969.69V2931.97C1444.07 2931.24 1444.21 2930.56 1444.48 2929.92C1444.74 2929.27 1445.11 2928.71 1445.56 2928.23C1446.04 2927.74 1446.61 2927.37 1447.25 2927.1C1447.89 2926.83 1448.59 2926.7 1449.34 2926.7H1496.44V2937.16H1454.53V2969.69C1454.53 2971.06 1454.89 2972.11 1455.62 2972.83C1456.34 2973.55 1457.4 2973.92 1458.79 2973.92H1496.44V2984.37ZM1564.21 2979.91C1564.21 2980.66 1564.06 2981.36 1563.76 2982C1563.5 2982.64 1563.12 2983.21 1562.64 2983.69C1562.18 2984.15 1561.63 2984.51 1560.99 2984.78C1560.35 2985.04 1559.66 2985.18 1558.94 2985.18C1558.29 2985.18 1557.64 2985.06 1556.97 2984.82C1556.32 2984.57 1555.75 2984.19 1555.24 2983.65L1517.03 2943.75V2984.37H1506.57V2931.16C1506.57 2930.09 1506.87 2929.13 1507.46 2928.27C1508.07 2927.38 1508.85 2926.73 1509.79 2926.3C1510.78 2925.89 1511.8 2925.8 1512.85 2926.02C1513.89 2926.2 1514.79 2926.69 1515.54 2927.46L1553.75 2967.32V2926.7H1564.21V2979.91ZM1628.52 2937.16H1605.47V2984.37H1595.01V2937.16H1571.93V2926.7H1628.52V2937.16ZM1683.66 2960.8H1650.64V2950.27H1683.66V2960.8ZM1688.36 2984.37H1650.64C1649.19 2984.37 1647.61 2984.12 1645.89 2983.61C1644.17 2983.1 1642.58 2982.27 1641.1 2981.12C1639.66 2979.94 1638.44 2978.42 1637.44 2976.57C1636.48 2974.69 1636 2972.4 1636 2969.69V2931.97C1636 2931.24 1636.13 2930.56 1636.4 2929.92C1636.67 2929.27 1637.03 2928.71 1637.49 2928.23C1637.97 2927.74 1638.53 2927.37 1639.17 2927.1C1639.82 2926.83 1640.52 2926.7 1641.27 2926.7H1688.36V2937.16H1646.45V2969.69C1646.45 2971.06 1646.82 2972.11 1647.54 2972.83C1648.26 2973.55 1649.32 2973.92 1650.72 2973.92H1688.36V2984.37ZM1756.13 2946.08C1756.13 2948.47 1755.84 2950.6 1755.25 2952.48C1754.66 2954.36 1753.85 2956.02 1752.83 2957.47C1751.84 2958.89 1750.69 2960.11 1749.37 2961.13C1748.06 2962.15 1746.68 2962.99 1745.23 2963.66C1743.81 2964.3 1742.36 2964.77 1740.89 2965.07C1739.44 2965.36 1738.07 2965.51 1736.79 2965.51L1758.62 2984.37H1742.46L1720.66 2965.51H1713.14V2955.05H1736.79C1738.1 2954.95 1739.29 2954.68 1740.36 2954.25C1741.46 2953.79 1742.4 2953.19 1743.18 2952.44C1743.98 2951.69 1744.6 2950.79 1745.03 2949.74C1745.46 2948.67 1745.67 2947.45 1745.67 2946.08V2939.49C1745.67 2938.9 1745.59 2938.46 1745.43 2938.16C1745.3 2937.84 1745.11 2937.61 1744.87 2937.48C1744.65 2937.32 1744.41 2937.22 1744.15 2937.2C1743.9 2937.17 1743.68 2937.16 1743.46 2937.16H1708.95V2984.37H1698.5V2931.97C1698.5 2931.24 1698.63 2930.56 1698.9 2929.92C1699.17 2929.27 1699.53 2928.71 1699.99 2928.23C1700.47 2927.74 1701.03 2927.37 1701.67 2927.1C1702.32 2926.83 1703.02 2926.7 1703.77 2926.7H1743.46C1745.79 2926.7 1747.77 2927.13 1749.37 2927.99C1750.98 2928.82 1752.28 2929.88 1753.28 2931.16C1754.29 2932.42 1755.02 2933.79 1755.45 2935.27C1755.9 2936.74 1756.13 2938.12 1756.13 2939.41V2946.08Z" fill="white"/>
<mask id="mask2_498_7029" style="mask-type:alpha" maskUnits="userSpaceOnUse" x="1660" y="2854" width="122" height="57">
<rect x="0.0964044" y="-0.0964044" width="121.374" height="55.6474" transform="matrix(1 0 0 -1 1660.07 2909.91)" fill="#D9D9D9" stroke="white" stroke-width="0.192809"/>
</mask>
<g mask="url(#mask2_498_7029)">
<path d="M1781.46 2877.3L1781.46 2886.42C1781.46 2888.82 1780.5 2891.12 1778.81 2892.82L1756.6 2915C1756.46 2915.14 1756.26 2915.22 1756.06 2915.22L1741.97 2915.22C1741.3 2915.22 1740.97 2914.41 1741.44 2913.94L1766.63 2888.77C1770.28 2885.13 1770.31 2879.22 1766.69 2875.55C1759.64 2868.38 1748.64 2857.19 1743.15 2851.53L1741.17 2849.47C1740.71 2848.99 1741.05 2848.19 1741.72 2848.2L1756.02 2848.39C1756.21 2848.39 1756.4 2848.47 1756.54 2848.61L1778.77 2870.81C1780.49 2872.53 1781.46 2874.87 1781.46 2877.3Z" fill="white" stroke="white" stroke-width="0.192809"/>
<path d="M1683.81 2877.3L1683.81 2886.42C1683.81 2888.82 1682.85 2891.12 1681.16 2892.82L1658.95 2915C1658.81 2915.14 1658.61 2915.22 1658.41 2915.22L1644.32 2915.22C1643.65 2915.22 1643.31 2914.41 1643.79 2913.94L1668.98 2888.77C1672.63 2885.13 1672.66 2879.22 1669.04 2875.55C1661.99 2868.38 1650.99 2857.19 1645.5 2851.53L1643.52 2849.47C1643.06 2848.99 1643.4 2848.19 1644.07 2848.2L1658.37 2848.39C1658.56 2848.39 1658.75 2848.47 1658.89 2848.61L1681.12 2870.81C1682.84 2872.53 1683.81 2874.87 1683.81 2877.3Z" fill="white" stroke="white" stroke-width="0.192809"/>
<path d="M1674.29 2877.3L1674.29 2886.42C1674.29 2888.82 1673.34 2891.12 1671.64 2892.82L1649.43 2915C1649.29 2915.14 1649.1 2915.22 1648.9 2915.22L1634.81 2915.22C1634.14 2915.22 1633.8 2914.41 1634.28 2913.94L1659.47 2888.77C1663.12 2885.13 1663.15 2879.22 1659.53 2875.55C1652.48 2868.38 1641.48 2857.19 1635.99 2851.53L1634 2849.47C1633.54 2848.99 1633.89 2848.19 1634.56 2848.2L1648.85 2848.39C1649.05 2848.39 1649.24 2848.47 1649.38 2848.61L1671.6 2870.81C1673.32 2872.53 1674.29 2874.87 1674.29 2877.3Z" fill="white" stroke="white" stroke-width="0.192809"/>
<path d="M1668.82 2877.3L1668.82 2886.42C1668.82 2888.82 1667.87 2891.12 1666.17 2892.82L1643.96 2915C1643.82 2915.14 1643.62 2915.22 1643.43 2915.22L1629.34 2915.22C1628.66 2915.22 1628.33 2914.41 1628.8 2913.94L1654 2888.77C1657.65 2885.13 1657.67 2879.22 1654.06 2875.55C1647.01 2868.38 1636 2857.19 1630.52 2851.53L1628.53 2849.47C1628.07 2848.99 1628.42 2848.19 1629.09 2848.2L1643.38 2848.39C1643.58 2848.39 1643.77 2848.47 1643.9 2848.61L1666.13 2870.81C1667.85 2872.53 1668.82 2874.87 1668.82 2877.3Z" fill="white" stroke="white" stroke-width="0.192809"/>
<path d="M1715.52 2877.3L1715.52 2886.42C1715.52 2888.82 1714.57 2891.12 1712.87 2892.82L1690.66 2915C1690.52 2915.14 1690.33 2915.22 1690.13 2915.22L1676.04 2915.22C1675.37 2915.22 1675.03 2914.41 1675.51 2913.94L1700.7 2888.77C1704.35 2885.13 1704.37 2879.22 1700.76 2875.55C1693.71 2868.38 1682.71 2857.19 1677.22 2851.53L1675.23 2849.47C1674.77 2848.99 1675.12 2848.19 1675.79 2848.2L1690.08 2848.39C1690.28 2848.39 1690.47 2848.47 1690.6 2848.61L1712.83 2870.81C1714.55 2872.53 1715.52 2874.87 1715.52 2877.3Z" fill="white" stroke="white" stroke-width="0.192809"/>
<path d="M1712.82 2877.3L1712.82 2886.42C1712.82 2888.82 1711.87 2891.12 1710.18 2892.82L1687.97 2915C1687.83 2915.14 1687.63 2915.22 1687.43 2915.22L1673.34 2915.22C1672.67 2915.22 1672.33 2914.41 1672.81 2913.94L1698 2888.77C1701.65 2885.13 1701.68 2879.22 1698.06 2875.55C1691.01 2868.38 1680.01 2857.19 1674.52 2851.53L1672.54 2849.47C1672.08 2848.99 1672.42 2848.19 1673.09 2848.2L1687.39 2848.39C1687.58 2848.39 1687.77 2848.47 1687.91 2848.61L1710.14 2870.81C1711.86 2872.53 1712.82 2874.87 1712.82 2877.3Z" fill="white" stroke="white" stroke-width="0.192809"/>
<path d="M1747.97 2877.3L1747.97 2886.42C1747.97 2888.82 1747.02 2891.12 1745.32 2892.82L1723.11 2915C1722.97 2915.14 1722.78 2915.22 1722.58 2915.22L1708.49 2915.22C1707.82 2915.22 1707.48 2914.41 1707.96 2913.94L1733.15 2888.77C1736.8 2885.13 1736.83 2879.22 1733.21 2875.55C1726.16 2868.38 1715.16 2857.19 1709.67 2851.53L1707.68 2849.47C1707.22 2848.99 1707.57 2848.19 1708.24 2848.2L1722.53 2848.39C1722.73 2848.39 1722.92 2848.47 1723.06 2848.61L1745.28 2870.81C1747.01 2872.53 1747.97 2874.87 1747.97 2877.3Z" fill="white" stroke="white" stroke-width="0.192809"/>
<path d="M1744.59 2877.3L1744.59 2886.42C1744.59 2888.82 1743.64 2891.12 1741.94 2892.82L1719.73 2915C1719.59 2915.14 1719.4 2915.22 1719.2 2915.22L1705.11 2915.22C1704.44 2915.22 1704.1 2914.41 1704.57 2913.94L1729.77 2888.77C1733.42 2885.13 1733.44 2879.22 1729.83 2875.55C1722.78 2868.38 1711.77 2857.19 1706.29 2851.53L1704.3 2849.47C1703.84 2848.99 1704.19 2848.19 1704.86 2848.2L1719.15 2848.39C1719.35 2848.39 1719.54 2848.47 1719.67 2848.61L1741.9 2870.81C1743.62 2872.53 1744.59 2874.87 1744.59 2877.3Z" fill="white" stroke="white" stroke-width="0.192809"/>
</g>
<path d="M2095.9 2895.52L2095.9 2918.82C2095.9 2924.88 2093.49 2930.69 2089.19 2934.99L2032.5 2991.62C2032.18 2991.95 2031.73 2992.13 2031.28 2992.13L1995.32 2992.13C1993.78 2992.13 1993.02 2990.28 1994.1 2989.2L2058.41 2924.95C2067.81 2915.57 2067.87 2900.38 2058.56 2890.91C2039.28 2871.32 2008.42 2839.91 1995.7 2826.74L1993.41 2824.36C1992.39 2823.29 1993.1 2821.54 1994.54 2821.45L1994.68 2821.45L2031.16 2821.93C2031.61 2821.93 2032.04 2822.12 2032.36 2822.43L2089.09 2879.11C2093.45 2883.47 2095.9 2889.37 2095.9 2895.52Z" stroke="white" stroke-width="0.898812"/>
<rect width="5.87958" height="13.5358" rx="2.93979" transform="matrix(-1 0 0 1 2088.78 2900.02)" fill="white"/>
<path d="M2146.06 2895.52L2146.06 2918.82C2146.06 2924.88 2143.65 2930.69 2139.35 2934.99L2082.66 2991.62C2082.34 2991.95 2081.9 2992.13 2081.44 2992.13L2045.48 2992.13C2043.94 2992.13 2043.18 2990.28 2044.26 2989.2L2108.57 2924.95C2117.97 2915.57 2118.03 2900.38 2108.72 2890.91C2089.44 2871.32 2058.58 2839.91 2045.86 2826.74L2043.57 2824.36C2042.55 2823.29 2043.26 2821.54 2044.7 2821.45L2044.84 2821.45L2081.32 2821.93C2081.77 2821.93 2082.2 2822.12 2082.52 2822.43L2139.25 2879.11C2143.61 2883.47 2146.06 2889.37 2146.06 2895.52Z" stroke="white" stroke-width="0.898812"/>
<rect width="5.87958" height="13.5358" rx="2.93979" transform="matrix(-1 0 0 1 2138.7 2900.02)" fill="white"/>
<path d="M1976.14 2895.52L1976.14 2918.82C1976.14 2924.88 1973.73 2930.69 1969.43 2934.99L1912.74 2991.62C1912.42 2991.95 1911.97 2992.13 1911.52 2992.13L1875.56 2992.13C1874.02 2992.13 1873.26 2990.28 1874.34 2989.2L1938.65 2924.95C1948.04 2915.57 1948.11 2900.38 1938.8 2890.91C1919.52 2871.32 1888.66 2839.91 1875.94 2826.74L1873.65 2824.36C1872.63 2823.29 1873.34 2821.54 1874.77 2821.45L1874.92 2821.45L1911.4 2821.93C1911.85 2821.93 1912.28 2822.12 1912.6 2822.43L1969.33 2879.11C1973.69 2883.47 1976.14 2889.37 1976.14 2895.52Z" fill="white" stroke="white" stroke-width="0.898812"/>
<rect width="5.87958" height="13.5358" rx="2.93979" transform="matrix(-1 0 0 1 1969.02 2900.02)" fill="white"/>
<path d="M2026.29 2895.52L2026.29 2918.82C2026.29 2924.88 2023.89 2930.69 2019.59 2934.99L1962.9 2991.62C1962.58 2991.95 1962.13 2992.13 1961.68 2992.13L1925.72 2992.13C1924.18 2992.13 1923.42 2990.28 1924.5 2989.2L1988.81 2924.95C1998.2 2915.57 1998.27 2900.38 1988.96 2890.91C1969.68 2871.32 1938.82 2839.91 1926.1 2826.74L1923.81 2824.36C1922.79 2823.29 1923.5 2821.54 1924.93 2821.45L1925.08 2821.45L1961.56 2821.93C1962.01 2821.93 1962.44 2822.12 1962.76 2822.43L2019.49 2879.11C2023.85 2883.47 2026.29 2889.37 2026.29 2895.52Z" fill="white" stroke="white" stroke-width="0.898812"/>
<rect width="5.87958" height="13.5358" rx="2.93979" transform="matrix(-1 0 0 1 2018.94 2900.02)" fill="white"/>
<path d="M1268.82 2895.52L1268.82 2918.82C1268.82 2924.88 1266.41 2930.69 1262.12 2934.99L1205.42 2991.62C1205.1 2991.95 1204.66 2992.13 1204.2 2992.13L1168.24 2992.13C1166.7 2992.13 1165.94 2990.28 1167.02 2989.2L1231.33 2924.95C1240.73 2915.57 1240.79 2900.38 1231.48 2890.91C1212.2 2871.32 1181.34 2839.91 1168.62 2826.74L1166.33 2824.36C1165.31 2823.29 1166.02 2821.54 1167.46 2821.45L1167.6 2821.45L1204.09 2821.93C1204.53 2821.93 1204.96 2822.12 1205.28 2822.43L1262.01 2879.11C1266.37 2883.47 1268.82 2889.37 1268.82 2895.52Z" stroke="white" stroke-width="0.898812"/>
<rect width="5.87958" height="13.5358" rx="2.93979" transform="matrix(-1 0 0 1 1261.7 2900.02)" fill="white"/>
<path d="M1318.98 2895.52L1318.98 2918.82C1318.98 2924.88 1316.57 2930.69 1312.28 2934.99L1255.58 2991.62C1255.26 2991.95 1254.82 2992.13 1254.36 2992.13L1218.4 2992.13C1216.86 2992.13 1216.1 2990.28 1217.18 2989.2L1281.49 2924.95C1290.89 2915.57 1290.95 2900.38 1281.64 2890.91C1262.36 2871.32 1231.5 2839.91 1218.78 2826.74L1216.49 2824.36C1215.47 2823.29 1216.18 2821.54 1217.62 2821.45L1217.76 2821.45L1254.25 2821.93C1254.69 2821.93 1255.12 2822.12 1255.44 2822.43L1312.17 2879.11C1316.53 2883.47 1318.98 2889.37 1318.98 2895.52Z" stroke="white" stroke-width="0.898812"/>
<rect width="5.87958" height="13.5358" rx="2.93979" transform="matrix(-1 0 0 1 1311.63 2900.02)" fill="white"/>
<path d="M1149.05 2895.52L1149.05 2918.82C1149.05 2924.88 1146.64 2930.69 1142.35 2934.99L1085.65 2991.62C1085.33 2991.95 1084.89 2992.13 1084.43 2992.13L1048.47 2992.13C1046.94 2992.13 1046.17 2990.28 1047.25 2989.2L1111.56 2924.95C1120.96 2915.57 1121.02 2900.38 1111.71 2890.91C1092.43 2871.32 1061.57 2839.91 1048.85 2826.74L1046.56 2824.36C1045.54 2823.29 1046.25 2821.54 1047.69 2821.45L1047.83 2821.45L1084.32 2821.93C1084.76 2821.93 1085.19 2822.12 1085.51 2822.43L1142.24 2879.11C1146.6 2883.47 1149.05 2889.37 1149.05 2895.52Z" fill="white" stroke="white" stroke-width="0.898812"/>
<rect width="5.87958" height="13.5358" rx="2.93979" transform="matrix(-1 0 0 1 1141.94 2900.02)" fill="white"/>
<path d="M1199.21 2895.52L1199.21 2918.82C1199.21 2924.88 1196.8 2930.69 1192.51 2934.99L1135.81 2991.62C1135.49 2991.95 1135.05 2992.13 1134.59 2992.13L1098.63 2992.13C1097.1 2992.13 1096.33 2990.28 1097.41 2989.2L1161.72 2924.95C1171.12 2915.57 1171.18 2900.38 1161.87 2890.91C1142.59 2871.32 1111.73 2839.91 1099.01 2826.74L1096.72 2824.36C1095.7 2823.29 1096.41 2821.54 1097.85 2821.45L1097.99 2821.45L1134.48 2821.93C1134.92 2821.93 1135.35 2822.12 1135.67 2822.43L1192.4 2879.11C1196.76 2883.47 1199.21 2889.37 1199.21 2895.52Z" fill="white" stroke="white" stroke-width="0.898812"/>
<rect width="5.87958" height="13.5358" rx="2.93979" transform="matrix(-1 0 0 1 1191.86 2900.02)" fill="white"/>
</g>
</g>
<defs>
<linearGradient id="paint0_linear_498_7029" x1="0" y1="0" x2="2092.78" y2="3428.24" gradientUnits="userSpaceOnUse">
<stop stop-color="#DC0D01"/>
<stop offset="1" stop-color="#310402"/>
</linearGradient>
<linearGradient id="paint1_linear_498_7029" x1="1137.43" y1="981.637" x2="1137.43" y2="1554.48" gradientUnits="userSpaceOnUse">
<stop stop-color="#E20D01"/>
<stop offset="1" stop-color="#580702"/>
</linearGradient>
<clipPath id="clip0_498_7029">
<rect width="2275" height="3317" fill="white"/>
</clipPath>
</defs>
</svg>
