<svg width="2275" height="3317" viewBox="0 0 2275 3317" fill="none" xmlns="http://www.w3.org/2000/svg">
<g clip-path="url(#clip0_505_1735)">
<rect width="2275" height="3317" fill="#1A1A1A"/>
<mask id="mask0_505_1735" style="mask-type:alpha" maskUnits="userSpaceOnUse" x="0" y="-34" width="2276" height="4953">
<rect x="0.778561" y="0.778561" width="4951.24" height="2273.44" transform="matrix(-4.37114e-08 1 1 4.37114e-08 -3.4032e-08 -34)" fill="#D9D9D9" stroke="white" stroke-width="1.55712"/>
</mask>
<g mask="url(#mask0_505_1735)">
<path d="M2467.25 2714.79C2286.65 2887.93 1738.51 3426.55 1404.88 3754.79C1256.67 3900.6 1018.67 3899.58 871.73 3752.37L-153.679 2725.97C-175.524 2704.11 -212.735 2719.62 -212.735 2750.51L-212.735 3324.47C-212.735 3333.63 -209.052 3342.53 -202.575 3349.01L701.421 4253.88C771.272 4323.79 865.888 4362.95 964.568 4362.95L1336.43 4362.95C1436.51 4362.95 1532.52 4323.16 1603.38 4252.22L2508.02 3346.72C2514.37 3340.36 2518.05 3331.72 2518.18 3322.69L2525.8 2740.34C2526.18 2709.58 2489.47 2693.56 2467.25 2714.79Z" fill="white" fill-opacity="0.03"/>
<path d="M2467.25 -711.445C2286.65 -538.302 1738.51 0.321929 1404.88 328.556C1256.67 474.367 1018.67 473.35 871.73 326.14L-153.68 -700.258C-175.524 -722.123 -212.735 -706.614 -212.735 -675.723L-212.735 -101.759C-212.735 -92.6059 -209.052 -83.7072 -202.575 -77.2239L701.421 827.644C771.272 897.562 865.888 936.717 964.568 936.717L1336.43 936.717C1436.5 936.717 1532.52 896.927 1603.38 825.992L2508.02 -79.5119C2514.37 -85.8681 2518.05 -94.5125 2518.18 -103.538L2525.8 -685.893C2526.18 -716.657 2489.47 -732.675 2467.25 -711.445Z" fill="white" fill-opacity="0.03"/>
<path d="M2467.25 398.594C2286.65 571.737 1738.51 1110.36 1404.88 1438.59C1256.67 1584.41 1018.67 1583.39 871.73 1436.18L-153.68 409.781C-175.524 387.916 -212.735 403.425 -212.735 434.316L-212.735 1008.28C-212.735 1017.43 -209.052 1026.33 -202.575 1032.82L701.421 1937.68C771.272 2007.6 865.888 2046.76 964.568 2046.76L1336.43 2046.76C1436.5 2046.76 1532.52 2006.97 1603.38 1936.03L2508.02 1030.53C2514.37 1024.17 2518.05 1015.53 2518.18 1006.5L2525.8 424.146C2526.18 393.382 2489.47 377.365 2467.25 398.594Z" fill="white" fill-opacity="0.03"/>
<path d="M2467.25 1536.52C2286.65 1709.66 1738.51 2248.28 1404.88 2576.52C1256.67 2722.33 1018.67 2721.31 871.729 2574.1L-153.68 1547.7C-175.524 1525.84 -212.736 1541.35 -212.736 1572.24L-212.736 2146.2C-212.736 2155.36 -209.052 2164.26 -202.575 2170.74L701.421 3075.61C771.271 3145.53 865.887 3184.68 964.567 3184.68L1336.43 3184.68C1436.5 3184.68 1532.52 3144.89 1603.38 3073.95L2508.02 2168.45C2514.37 2162.09 2518.05 2153.45 2518.18 2144.42L2525.8 1562.07C2526.18 1531.31 2489.47 1515.29 2467.25 1536.52Z" fill="white" fill-opacity="0.03"/>
</g>
<circle cx="1138.46" cy="1429.09" r="320.09" fill="#E7E7E7"/>
<circle cx="1137.43" cy="1428.06" r="286.42" fill="url(#paint0_linear_505_1735)"/>
<path d="M1198.79 1255.89C1198.7 1255.8 1198.63 1255.72 1198.56 1255.62C1197.06 1253.6 1178.32 1229.51 1138.31 1229.51C1112.6 1229.51 1087.11 1235.11 1069.71 1251.38C1069.62 1251.46 1044.7 1276.62 1044.61 1276.71L1020.78 1301.19L979.255 1346.28C977.313 1348.39 979.853 1351.58 982.344 1350.16L1034.35 1320.53L1101.87 1282.06C1103.06 1281.38 1104.58 1281.78 1105.28 1282.96L1136.96 1336.68C1137.69 1337.92 1139.3 1338.29 1140.5 1337.5L1177.38 1313.09C1177.97 1312.7 1178.7 1312.58 1179.39 1312.75L1228.88 1325.47L1268.94 1335.76C1271.39 1336.39 1273.12 1333.41 1271.38 1331.59L1198.79 1255.89Z" fill="white"/>
<path d="M1339.45 1443.79H1339.73C1338.02 1435.68 1333.92 1429.31 1327.43 1424.68C1318.62 1418.42 1305.75 1415.29 1288.83 1415.29H1282.48C1280.61 1415.22 1278.77 1415.19 1277 1415.19H1200.4C1195.3 1415.19 1191.51 1414.45 1189.02 1412.97C1186.53 1411.48 1185.3 1408.9 1185.3 1405.2C1185.3 1401.51 1186.53 1398.96 1189.02 1397.54C1191.51 1396.13 1195.3 1395.42 1200.4 1395.42H1321.72C1322.98 1395.42 1323.61 1393.9 1322.74 1393.01L1320.34 1390.55L1289.12 1359.33C1288.54 1358.75 1287.74 1358.41 1286.91 1358.41H1203.81C1193.03 1358.41 1183.78 1359.48 1176.05 1361.6C1168.33 1363.73 1162.02 1366.71 1157.13 1370.54C1152.23 1374.37 1148.62 1379.01 1146.28 1384.47C1143.94 1389.93 1142.78 1396 1142.78 1402.66C1142.78 1408.76 1143.85 1414.32 1145.96 1419.35C1148.09 1424.39 1151.35 1428.68 1155.75 1432.22C1160.15 1435.77 1165.67 1438.53 1172.34 1440.51C1179.01 1442.5 1186.94 1443.49 1196.16 1443.49H1282.92C1288.17 1443.49 1292 1444.27 1294.41 1445.83C1296.82 1447.39 1298.03 1450.01 1298.03 1453.69C1298.03 1457.38 1296.82 1460.04 1294.41 1461.67C1292.01 1463.3 1288.17 1464.11 1282.92 1464.11H1176.22C1175.39 1464.11 1174.6 1464.44 1174 1465.03L1143.69 1495.35C1141.72 1497.32 1143.11 1500.7 1145.91 1500.7H1279.52C1290.29 1500.7 1299.54 1499.64 1307.27 1497.51C1315 1495.38 1321.34 1492.34 1326.31 1488.37C1331.27 1484.4 1334.88 1479.51 1337.15 1473.69C1339.42 1467.88 1340.55 1461.36 1340.55 1454.12C1340.55 1450.41 1340.18 1446.97 1339.45 1443.79Z" fill="white"/>
<path d="M1120.21 1395.54C1120.18 1395.97 1022.7 1394.95 1022.7 1394.95C1016.68 1394.95 1011.13 1395.83 1005.97 1397.54C1005.88 1397.57 1005.78 1397.61 1005.68 1397.64C1000.67 1399.3 995.04 1402.34 991.366 1405.39C987.652 1408.45 984.759 1412.06 982.66 1416.18C980.57 1420.32 979.52 1424.88 979.52 1429.91C979.52 1434.95 980.54 1439.51 982.561 1443.63C982.67 1443.85 982.779 1444.06 982.887 1444.26C984.878 1448.11 987.652 1451.47 991.168 1454.23C992.218 1455.06 993.347 1455.84 994.505 1456.57C997.407 1458.4 1000.69 1459.87 1004.26 1461.03C1009.28 1462.65 1014.8 1463.46 1020.82 1463.46H1095.04C1095.47 1463.46 1095.82 1463.11 1095.82 1462.68V1444.18C1095.82 1443.74 1095.47 1443.39 1095.04 1443.39H1025.69C1024.99 1443.39 1024.64 1442.53 1025.15 1442.05L1053.93 1414.33C1054.08 1414.2 1054.27 1414.12 1054.48 1414.12H1108.41C1121.35 1414.12 1131.84 1422.38 1131.84 1435.31V1463.44V1463.64L1093.01 1499.25C1092.86 1499.38 1092.66 1499.46 1092.46 1499.46H1020.82C1008.64 1499.46 997.398 1497.66 987.077 1494.01C976.727 1490.37 967.823 1485.4 960.355 1479.03C952.877 1472.68 947.013 1465.12 942.774 1456.39C938.505 1447.68 936.376 1438.24 936.376 1428.02C936.376 1418.76 938.129 1410.25 941.635 1402.43H941.407C941.863 1401.39 942.338 1400.36 942.854 1399.34C947.202 1390.7 953.194 1383.27 960.84 1377.05C968.486 1370.83 977.589 1366.05 988.186 1362.69C998.754 1359.3 1010.25 1357.63 1022.71 1357.63H1098.33L1120.21 1395.52V1395.54Z" fill="white"/>
<path d="M1165.83 1553.29H1163.73L1156.98 1559.79H1162.11L1168.86 1553.29H1165.83Z" fill="white"/>
<path d="M975.186 1523.45H973.089L966.332 1529.95H971.468L978.215 1523.45H975.186Z" fill="white"/>
<path d="M1206.65 1523.45H1204.55L1197.79 1529.95H1202.93L1209.68 1523.45H1206.65Z" fill="white"/>
<path d="M1291.9 1523.45H1289.8L1283.04 1529.95H1288.18L1294.92 1523.45H1291.9Z" fill="white"/>
<path d="M1340.28 1559.62H1333.67V1529.65L1340.28 1523.2V1559.62Z" fill="white"/>
<path d="M1340.28 1520.09L1333.67 1526.55V1522.15L1340.28 1515.7V1520.09Z" fill="white"/>
<path d="M1326.79 1559.62H1320.19V1550.68H1296.98V1559.62H1290.38V1541.41C1290.38 1538.75 1290.83 1536.31 1291.75 1534.07C1292.66 1531.84 1293.93 1529.92 1295.56 1528.31C1297.18 1526.7 1299.1 1525.45 1301.32 1524.55C1303.54 1523.65 1305.96 1523.2 1308.59 1523.2H1323.47C1323.92 1523.2 1324.36 1523.29 1324.76 1523.46C1325.17 1523.63 1325.52 1523.86 1325.83 1524.17C1326.13 1524.47 1326.37 1524.83 1326.54 1525.23C1326.71 1525.64 1326.79 1526.07 1326.79 1526.53V1559.62ZM1296.98 1544.08H1320.19V1529.81H1308.59C1308.38 1529.81 1307.95 1529.84 1307.29 1529.91C1306.65 1529.96 1305.89 1530.1 1305.03 1530.34C1304.18 1530.58 1303.29 1530.94 1302.34 1531.43C1301.39 1531.92 1300.52 1532.6 1299.72 1533.46C1298.93 1534.33 1298.27 1535.41 1297.74 1536.71C1297.23 1538 1296.98 1539.57 1296.98 1541.41V1544.08Z" fill="white"/>
<path d="M1280.72 1529.81H1272.91V1559.62H1266.3V1529.81H1251.73L1258.76 1523.2H1287.46L1280.72 1529.81Z" fill="white"/>
<path d="M1246.85 1556.29C1246.85 1556.77 1246.77 1557.21 1246.6 1557.61C1246.43 1558.02 1246.19 1558.38 1245.89 1558.68C1245.58 1558.97 1245.23 1559.2 1244.82 1559.37C1244.41 1559.53 1243.98 1559.62 1243.52 1559.62H1228.64C1227.24 1559.62 1225.82 1559.47 1224.38 1559.16C1222.94 1558.86 1221.54 1558.39 1220.19 1557.77C1218.85 1557.12 1217.59 1556.31 1216.4 1555.33C1215.22 1554.35 1214.18 1553.19 1213.28 1551.85C1212.4 1550.49 1211.7 1548.95 1211.2 1547.23C1210.69 1545.48 1210.43 1543.54 1210.43 1541.41V1529.65L1217.04 1523.2V1541.41C1217.04 1543.27 1217.29 1544.85 1217.8 1546.13C1218.32 1547.42 1218.98 1548.5 1219.78 1549.36C1220.58 1550.22 1221.45 1550.9 1222.4 1551.39C1223.34 1551.88 1224.24 1552.25 1225.09 1552.48C1225.95 1552.72 1226.7 1552.87 1227.35 1552.94C1228.01 1552.99 1228.44 1553.02 1228.64 1553.02H1240.25V1529.65L1246.85 1523.2V1556.29Z" fill="white"/>
<path d="M1205.77 1549.15C1205.77 1550.45 1205.6 1551.63 1205.26 1552.68C1204.94 1553.71 1204.51 1554.63 1203.96 1555.42C1203.42 1556.22 1202.79 1556.9 1202.06 1557.45C1201.33 1558.01 1200.58 1558.47 1199.8 1558.83C1199.02 1559.18 1198.23 1559.44 1197.41 1559.61C1196.76 1559.61 1195.93 1559.61 1195.22 1559.61H1164.21L1170.93 1553.26H1195.15C1196.42 1553.26 1197.4 1552.89 1198.1 1552.15C1198.81 1551.4 1199.17 1550.4 1199.17 1549.15C1199.17 1548.54 1199.07 1547.98 1198.89 1547.47C1198.7 1546.97 1198.43 1546.53 1198.07 1546.15C1197.73 1545.78 1197.31 1545.49 1196.8 1545.29C1196.31 1545.09 1195.76 1544.99 1195.15 1544.99H1179.97C1178.9 1544.99 1177.75 1544.8 1176.51 1544.43C1175.28 1544.04 1174.13 1543.42 1173.06 1542.57C1172.01 1541.73 1171.13 1540.62 1170.42 1539.25C1169.72 1537.88 1169.38 1536.2 1169.38 1534.22C1169.38 1532.24 1169.72 1530.57 1170.42 1529.22C1171.13 1527.84 1172.01 1526.74 1173.06 1525.89C1174.13 1525.03 1175.28 1524.41 1176.51 1524.04C1177.75 1523.65 1178.9 1523.45 1179.97 1523.45H1202.18L1195.22 1530.05H1179.97C1178.71 1530.05 1177.73 1530.43 1177.02 1531.2C1176.33 1531.96 1175.98 1532.97 1175.98 1534.22C1175.98 1535.49 1176.33 1536.5 1177.02 1537.24C1177.73 1537.97 1178.71 1538.33 1179.97 1538.33H1195.15H1195.2C1195.91 1538.35 1196.67 1538.45 1197.46 1538.64C1198.26 1538.81 1199.05 1539.08 1199.83 1539.45C1200.62 1539.82 1201.37 1540.3 1202.09 1540.87C1202.8 1541.43 1203.42 1542.11 1203.96 1542.9C1204.52 1543.7 1204.96 1544.61 1205.29 1545.65C1205.61 1546.68 1205.77 1547.85 1205.77 1549.15Z" fill="white"/>
<path d="M1147.3 1544.38C1147.3 1546.6 1146.91 1548.64 1146.13 1550.5C1145.37 1552.36 1144.31 1553.97 1142.96 1555.33C1141.61 1556.67 1140 1557.71 1138.14 1558.48C1136.27 1559.24 1134.25 1559.62 1132.07 1559.62H1114.24C1113.76 1559.62 1113.32 1559.53 1112.92 1559.37C1112.51 1559.2 1112.16 1558.97 1111.85 1558.68C1111.56 1558.38 1111.34 1558.02 1111.17 1557.61C1111 1557.21 1110.91 1556.77 1110.91 1556.29V1526.53C1110.91 1526.07 1111 1525.64 1111.17 1525.23C1111.34 1524.83 1111.56 1524.47 1111.85 1524.17C1112.16 1523.86 1112.51 1523.63 1112.92 1523.46C1113.32 1523.29 1113.76 1523.2 1114.24 1523.2H1132.07C1134.25 1523.2 1136.27 1523.58 1138.14 1524.35C1140 1525.11 1141.61 1526.17 1142.96 1527.52C1144.31 1528.86 1145.37 1530.47 1146.13 1532.35C1146.91 1534.21 1147.3 1536.24 1147.3 1538.44V1544.38ZM1140.7 1538.44C1140.7 1537.15 1140.49 1535.98 1140.07 1534.91C1139.66 1533.84 1139.08 1532.94 1138.31 1532.19C1137.55 1531.43 1136.64 1530.85 1135.57 1530.44C1134.52 1530.02 1133.35 1529.81 1132.07 1529.81H1117.51V1553.02H1132.07C1133.35 1553.02 1134.52 1552.81 1135.57 1552.41C1136.64 1551.98 1137.55 1551.4 1138.31 1550.65C1139.08 1549.89 1139.66 1548.99 1140.07 1547.94C1140.49 1546.87 1140.7 1545.69 1140.7 1544.38V1538.44Z" fill="white"/>
<path d="M1103.25 1556.83C1103.25 1557.3 1103.15 1557.74 1102.97 1558.14C1102.8 1558.54 1102.56 1558.9 1102.26 1559.2C1101.98 1559.49 1101.63 1559.71 1101.23 1559.88C1100.82 1560.05 1100.39 1560.13 1099.94 1560.13C1099.54 1560.13 1099.12 1560.06 1098.7 1559.91C1098.3 1559.76 1097.94 1559.51 1097.62 1559.18L1073.64 1534.14V1559.63H1067.08V1526.24C1067.08 1525.56 1067.26 1524.96 1067.63 1524.42C1068.02 1523.86 1068.51 1523.45 1069.1 1523.18C1069.72 1522.93 1070.36 1522.87 1071.02 1523.01C1071.67 1523.12 1072.24 1523.43 1072.71 1523.91L1096.68 1548.93V1529.65L1103.25 1523.43V1556.83Z" fill="white"/>
<path d="M1059.18 1559.62H1052.58V1550.68H1029.37V1559.62H1022.77V1541.41C1022.77 1538.75 1023.22 1536.31 1024.14 1534.07C1025.05 1531.84 1026.32 1529.92 1027.95 1528.31C1029.57 1526.7 1031.49 1525.45 1033.71 1524.55C1035.93 1523.65 1038.35 1523.2 1040.97 1523.2H1055.86C1056.31 1523.2 1056.74 1523.29 1057.15 1523.46C1057.56 1523.63 1057.91 1523.86 1058.22 1524.17C1058.52 1524.47 1058.76 1524.83 1058.93 1525.23C1059.1 1525.64 1059.18 1526.07 1059.18 1526.53V1559.62ZM1029.37 1544.08H1052.58V1529.81H1040.97C1040.77 1529.81 1040.34 1529.84 1039.68 1529.91C1039.04 1529.96 1038.28 1530.1 1037.42 1530.34C1036.57 1530.58 1035.68 1530.94 1034.73 1531.43C1033.78 1531.92 1032.91 1532.6 1032.11 1533.46C1031.32 1534.33 1030.66 1535.41 1030.13 1536.71C1029.62 1538 1029.37 1539.57 1029.37 1541.41V1544.08Z" fill="white"/>
<path d="M1016.82 1535.44C1016.82 1536.95 1016.64 1538.3 1016.26 1539.48C1015.89 1540.67 1015.38 1541.72 1014.74 1542.63C1014.11 1543.53 1013.39 1544.3 1012.56 1544.94C1011.73 1545.58 1010.86 1546.12 1009.94 1546.54C1009.04 1546.95 1008.13 1547.24 1007.2 1547.43C1006.28 1547.62 1005.42 1547.71 1004.61 1547.71L1018.4 1559.62H1008.19L994.425 1547.71H989.676L996.556 1541.11H1004.61C1005.44 1541.04 1006.19 1540.87 1006.87 1540.6C1007.56 1540.31 1008.16 1539.93 1008.65 1539.46C1009.15 1538.98 1009.54 1538.41 1009.81 1537.75C1010.09 1537.08 1010.22 1536.31 1010.22 1535.44V1531.28C1010.22 1530.91 1010.17 1530.63 1010.07 1530.44C1009.98 1530.24 1009.87 1530.09 1009.71 1530.01C1009.58 1529.91 1009.43 1529.85 1009.26 1529.83C1009.1 1529.81 1008.96 1529.81 1008.82 1529.81H987.035V1559.62H980.433V1526.53C980.433 1526.07 980.517 1525.64 980.687 1525.23C980.856 1524.83 981.084 1524.47 981.372 1524.17C981.677 1523.86 982.032 1523.63 982.439 1523.46C982.845 1523.29 983.285 1523.2 983.759 1523.2H1008.82C1010.3 1523.2 1011.54 1523.47 1012.56 1524.02C1013.57 1524.54 1014.39 1525.21 1015.02 1526.02C1015.66 1526.82 1016.12 1527.68 1016.39 1528.61C1016.68 1529.54 1016.82 1530.42 1016.82 1531.23V1535.44Z" fill="white"/>
<path d="M972.782 1556.54C972.782 1557.01 972.697 1557.45 972.528 1557.86C972.359 1558.27 972.122 1558.62 971.817 1558.93C971.529 1559.22 971.182 1559.44 970.776 1559.61C970.369 1559.78 969.929 1559.87 969.455 1559.87H945.635C945.025 1559.87 944.365 1559.8 943.654 1559.66C942.96 1559.51 942.266 1559.28 941.572 1558.98C940.894 1558.67 940.243 1558.28 939.616 1557.81C938.99 1557.32 938.431 1556.74 937.94 1556.06C937.466 1555.36 937.085 1554.57 936.797 1553.67C936.51 1552.76 936.366 1551.73 936.366 1550.6V1532.72C936.366 1532.11 936.433 1531.46 936.569 1530.76C936.721 1530.05 936.95 1529.36 937.255 1528.68C937.559 1527.99 937.957 1527.33 938.448 1526.7C938.939 1526.08 939.523 1525.53 940.2 1525.05C940.894 1524.56 941.69 1524.17 942.587 1523.88C943.485 1523.6 944.501 1523.45 945.635 1523.45L971.498 1523.45L964.523 1530.05H945.635C944.771 1530.05 944.111 1530.28 943.654 1530.74C943.197 1531.2 942.968 1531.87 942.968 1532.77V1550.6C942.968 1551.44 943.197 1552.11 943.654 1552.58C944.128 1553.04 944.788 1553.26 945.635 1553.26H966.179V1544.99L948.792 1545.15L955.999 1538.33H969.455C969.929 1538.33 970.369 1538.43 970.776 1538.61C971.182 1538.78 971.529 1539.02 971.817 1539.32C972.122 1539.63 972.359 1539.98 972.528 1540.39C972.697 1540.78 972.782 1541.2 972.782 1541.66V1556.54Z" fill="white"/>
<path d="M1479.62 1925.71C1490.39 1915.34 1523.09 1883.09 1542.99 1863.43C1551.83 1854.7 1566.02 1854.76 1574.79 1863.57L1635.95 1925.04C1637.25 1926.35 1639.47 1925.42 1639.47 1923.57V1889.2C1639.47 1888.65 1639.25 1888.12 1638.86 1887.73L1584.94 1833.54C1580.78 1829.35 1575.13 1827.01 1569.25 1827.01H1547.07C1541.1 1827.01 1535.37 1829.39 1531.15 1833.64L1477.19 1887.87C1476.81 1888.25 1476.59 1888.77 1476.58 1889.31L1476.13 1924.18C1476.1 1926.02 1478.29 1926.98 1479.62 1925.71Z" fill="white"/>
<path d="M782.086 1980.39H753.368V1941.51H652.414V1980.39H623.696V1901.2C623.696 1889.64 625.684 1878.99 629.661 1869.27C633.637 1859.56 639.16 1851.2 646.229 1844.2C653.298 1837.21 661.655 1831.76 671.301 1827.86C680.948 1823.95 691.477 1822 702.891 1822H767.616C769.605 1822 771.482 1822.37 773.249 1823.11C775.017 1823.84 776.563 1824.87 777.888 1826.2C779.214 1827.52 780.245 1829.07 780.981 1830.84C781.718 1832.6 782.086 1834.48 782.086 1836.47V1980.39ZM652.414 1912.79H753.368V1850.72H702.891C702.007 1850.72 700.13 1850.87 697.258 1851.16C694.46 1851.38 691.183 1852.01 687.428 1853.04C683.746 1854.07 679.843 1855.65 675.72 1857.79C671.596 1859.92 667.804 1862.87 664.343 1866.62C660.882 1870.38 658.01 1875.09 655.728 1880.76C653.518 1886.36 652.414 1893.17 652.414 1901.2V1912.79ZM970.739 1965.92C970.739 1967.98 970.371 1969.9 969.635 1971.66C968.898 1973.43 967.868 1974.98 966.542 1976.3C965.217 1977.56 963.67 1978.55 961.903 1979.29C960.136 1980.02 958.258 1980.39 956.27 1980.39H891.545C885.433 1980.39 879.247 1979.73 872.988 1978.4C866.729 1977.08 860.655 1975.05 854.764 1972.33C848.947 1969.53 843.461 1965.99 838.306 1961.72C833.152 1957.45 828.623 1952.41 824.721 1946.59C820.891 1940.7 817.872 1934 815.663 1926.49C813.454 1918.91 812.35 1910.47 812.35 1901.2V1822H841.068V1901.2C841.068 1909.3 842.172 1916.14 844.381 1921.74C846.664 1927.34 849.536 1932.01 852.996 1935.77C856.457 1939.52 860.25 1942.47 864.373 1944.6C868.497 1946.74 872.399 1948.32 876.081 1949.35C879.837 1950.38 883.113 1951.05 885.911 1951.34C888.783 1951.56 890.661 1951.67 891.545 1951.67H942.022V1822H970.739V1965.92ZM1147.35 1850.72H1084.06V1980.39H1055.35V1850.72H991.946V1822H1147.35V1850.72ZM1332.58 1916.33C1332.58 1925.97 1330.93 1934.85 1327.61 1942.95C1324.3 1951.05 1319.7 1958.04 1313.81 1963.93C1307.92 1969.82 1300.92 1974.43 1292.82 1977.74C1284.79 1980.98 1276.03 1982.6 1266.53 1982.6H1227.65C1218.15 1982.6 1209.35 1980.98 1201.25 1977.74C1193.15 1974.43 1186.16 1969.82 1180.27 1963.93C1174.38 1958.04 1169.74 1951.05 1166.35 1942.95C1163.04 1934.85 1161.38 1925.97 1161.38 1916.33V1886.06C1161.38 1876.49 1163.04 1867.65 1166.35 1859.56C1169.74 1851.38 1174.38 1844.39 1180.27 1838.57C1186.16 1832.68 1193.15 1828.08 1201.25 1824.76C1209.35 1821.45 1218.15 1819.79 1227.65 1819.79H1266.53C1276.03 1819.79 1284.79 1821.45 1292.82 1824.76C1300.92 1828.08 1307.92 1832.68 1313.81 1838.57C1319.7 1844.39 1324.3 1851.38 1327.61 1859.56C1330.93 1867.65 1332.58 1876.49 1332.58 1886.06V1916.33ZM1303.87 1886.06C1303.87 1880.39 1302.94 1875.28 1301.1 1870.71C1299.34 1866.07 1296.8 1862.13 1293.48 1858.89C1290.24 1855.58 1286.3 1853.04 1281.66 1851.27C1277.1 1849.43 1272.05 1848.51 1266.53 1848.51H1227.65C1222.06 1848.51 1216.94 1849.43 1212.3 1851.27C1207.73 1853.04 1203.8 1855.58 1200.48 1858.89C1197.17 1862.13 1194.59 1866.07 1192.75 1870.71C1190.98 1875.28 1190.1 1880.39 1190.1 1886.06V1916.33C1190.1 1922 1190.98 1927.15 1192.75 1931.79C1194.59 1936.36 1197.17 1940.3 1200.48 1943.61C1203.8 1946.85 1207.73 1949.39 1212.3 1951.23C1216.94 1953 1222.06 1953.88 1227.65 1953.88H1266.31C1271.91 1953.88 1276.99 1953 1281.55 1951.23C1286.19 1949.39 1290.17 1946.85 1293.48 1943.61C1296.8 1940.3 1299.34 1936.36 1301.1 1931.79C1302.94 1927.15 1303.87 1922 1303.87 1916.33V1886.06ZM768.5 2184.39H664.895C662.244 2184.39 659.372 2184.1 656.28 2183.51C653.261 2182.84 650.242 2181.85 647.223 2180.52C644.277 2179.2 641.442 2177.51 638.718 2175.44C635.993 2173.31 633.563 2170.77 631.428 2167.82C629.366 2164.8 627.709 2161.34 626.457 2157.44C625.206 2153.46 624.58 2149.01 624.58 2144.08V2066.32C624.58 2063.67 624.874 2060.83 625.463 2057.81C626.126 2054.72 627.12 2051.7 628.446 2048.75C629.771 2045.74 631.502 2042.86 633.637 2040.14C635.772 2037.41 638.313 2035.02 641.258 2032.96C644.277 2030.82 647.738 2029.13 651.641 2027.88C655.543 2026.63 659.962 2026 664.895 2026H768.5V2054.72H664.895C661.14 2054.72 658.268 2055.71 656.28 2057.7C654.292 2059.69 653.298 2062.63 653.298 2066.54V2144.08C653.298 2147.76 654.292 2150.63 656.28 2152.69C658.342 2154.68 661.213 2155.67 664.895 2155.67H768.5V2184.39ZM925.895 2119.67H835.214V2090.73H925.895V2119.67ZM938.818 2184.39H835.214C831.237 2184.39 826.893 2183.69 822.18 2182.29C817.467 2180.89 813.086 2178.61 809.036 2175.44C805.06 2172.2 801.71 2168.04 798.985 2162.96C796.334 2157.81 795.009 2151.51 795.009 2144.08V2040.47C795.009 2038.48 795.377 2036.6 796.113 2034.84C796.85 2033.07 797.844 2031.52 799.095 2030.2C800.421 2028.87 801.967 2027.84 803.734 2027.11C805.502 2026.37 807.416 2026 809.478 2026H938.818V2054.72H823.726V2144.08C823.726 2147.83 824.721 2150.7 826.709 2152.69C828.697 2154.68 831.605 2155.67 835.434 2155.67H938.818V2184.39ZM1124.93 2172.13C1124.93 2174.19 1124.53 2176.11 1123.72 2177.87C1122.98 2179.64 1121.95 2181.19 1120.62 2182.51C1119.37 2183.76 1117.86 2184.76 1116.1 2185.5C1114.33 2186.23 1112.45 2186.6 1110.46 2186.6C1108.7 2186.6 1106.89 2186.27 1105.05 2185.61C1103.28 2184.94 1101.7 2183.88 1100.3 2182.4L995.37 2072.83V2184.39H966.653V2038.26C966.653 2035.32 967.463 2032.67 969.083 2030.31C970.776 2027.88 972.912 2026.07 975.489 2024.9C978.213 2023.79 981.011 2023.53 983.883 2024.12C986.755 2024.64 989.222 2025.96 991.284 2028.1L1096.21 2137.56V2026H1124.93V2172.13ZM1301.55 2054.72H1238.26V2184.39H1209.54V2054.72H1146.14V2026H1301.55V2054.72ZM1452.98 2119.67H1362.3V2090.73H1452.98V2119.67ZM1465.9 2184.39H1362.3C1358.32 2184.39 1353.97 2183.69 1349.26 2182.29C1344.55 2180.89 1340.17 2178.61 1336.12 2175.44C1332.14 2172.2 1328.79 2168.04 1326.07 2162.96C1323.42 2157.81 1322.09 2151.51 1322.09 2144.08V2040.47C1322.09 2038.48 1322.46 2036.6 1323.19 2034.84C1323.93 2033.07 1324.93 2031.52 1326.18 2030.2C1327.5 2028.87 1329.05 2027.84 1330.82 2027.11C1332.58 2026.37 1334.5 2026 1336.56 2026H1465.9V2054.72H1350.81V2144.08C1350.81 2147.83 1351.8 2150.7 1353.79 2152.69C1355.78 2154.68 1358.69 2155.67 1362.52 2155.67H1465.9V2184.39ZM1652.01 2079.24C1652.01 2085.79 1651.2 2091.65 1649.58 2096.8C1647.96 2101.96 1645.75 2106.52 1642.96 2110.5C1640.23 2114.4 1637.07 2117.75 1633.46 2120.55C1629.85 2123.35 1626.06 2125.67 1622.08 2127.51C1618.18 2129.27 1614.2 2130.56 1610.15 2131.37C1606.18 2132.18 1602.42 2132.59 1598.89 2132.59L1658.86 2184.39H1614.46L1554.59 2132.59H1533.94V2103.87H1598.89C1602.49 2103.58 1605.77 2102.84 1608.72 2101.66C1611.73 2100.41 1614.31 2098.75 1616.45 2096.69C1618.66 2094.63 1620.35 2092.16 1621.53 2089.29C1622.71 2086.35 1623.3 2082.99 1623.3 2079.24V2061.13C1623.3 2059.51 1623.07 2058.29 1622.63 2057.48C1622.26 2056.6 1621.75 2055.97 1621.09 2055.6C1620.5 2055.16 1619.83 2054.9 1619.1 2054.83C1618.44 2054.76 1617.81 2054.72 1617.22 2054.72H1522.45V2184.39H1493.73V2040.47C1493.73 2038.48 1494.1 2036.6 1494.84 2034.84C1495.57 2033.07 1496.57 2031.52 1497.82 2030.2C1499.15 2028.87 1500.69 2027.84 1502.46 2027.11C1504.23 2026.37 1506.14 2026 1508.2 2026H1617.22C1623.63 2026 1629.04 2027.18 1633.46 2029.54C1637.88 2031.82 1641.45 2034.73 1644.17 2038.26C1646.97 2041.72 1648.96 2045.48 1650.14 2049.53C1651.39 2053.58 1652.01 2057.37 1652.01 2060.9V2079.24Z" fill="white"/>
</g>
<defs>
<linearGradient id="paint0_linear_505_1735" x1="1137.43" y1="1141.64" x2="1137.43" y2="1714.48" gradientUnits="userSpaceOnUse">
<stop stop-color="#E20D01"/>
<stop offset="1" stop-color="#580702"/>
</linearGradient>
<clipPath id="clip0_505_1735">
<rect width="2275" height="3317" fill="white"/>
</clipPath>
</defs>
</svg>
