<svg width="1004" height="650" viewBox="0 0 1004 650" fill="none" xmlns="http://www.w3.org/2000/svg">
<g clip-path="url(#clip0_571_29425)">
<rect width="1004" height="650" fill="#B00B01"/>
<path opacity="0.05" d="M775.848 331.199C775.833 331.183 775.831 331.185 775.818 331.167C775.315 330.46 697.141 221 522.254 221C414.219 221 307.142 244.531 234.022 312.836C233.648 313.169 128.942 418.766 128.568 419.14L28.4397 521.91L-189.631 758.431C-190.052 758.887 -189.502 759.578 -188.963 759.271L85.4535 603.062L377.715 436.699C377.973 436.552 378.301 436.64 378.452 436.895L521.922 679.938C522.08 680.206 522.43 680.286 522.69 680.115L690.14 569.395C690.268 569.311 690.426 569.284 690.575 569.322L902.832 623.807L1105.15 675.715C1105.68 675.851 1106.06 675.208 1105.68 674.813L775.848 331.199Z" fill="white"/>
<rect x="302" y="514.268" width="399.333" height="91.3729" rx="23.6893" fill="white" fill-opacity="0.1"/>
<circle cx="501.365" cy="238.271" r="69.2712" fill="#E7E7E7"/>
<circle cx="501.141" cy="238.047" r="61.9845" fill="url(#paint0_linear_571_29425)"/>
<path d="M514.419 200.787C514.4 200.768 514.386 200.751 514.37 200.729C514.045 200.292 509.989 195.078 501.331 195.078C495.767 195.078 490.251 196.291 486.485 199.813C486.466 199.83 481.073 205.274 481.054 205.294L475.897 210.592L466.91 220.349C466.49 220.806 467.039 221.497 467.579 221.19L478.833 214.776L493.445 206.45C493.703 206.303 494.031 206.391 494.182 206.647L501.038 218.272C501.196 218.54 501.547 218.621 501.806 218.45L509.787 213.167C509.915 213.082 510.073 213.056 510.222 213.094L520.933 215.846L529.601 218.072C530.131 218.208 530.507 217.565 530.128 217.17L514.419 200.787Z" fill="white"/>
<path d="M544.862 241.451H544.922C544.553 239.696 543.666 238.317 542.26 237.316C540.354 235.962 537.57 235.284 533.907 235.284H532.533C532.127 235.269 531.731 235.263 531.347 235.263H514.77C513.666 235.263 512.845 235.102 512.307 234.781C511.769 234.459 511.501 233.9 511.501 233.1C511.501 232.301 511.769 231.75 512.307 231.443C512.845 231.137 513.666 230.983 514.77 230.983H541.025C541.297 230.983 541.434 230.655 541.246 230.462L540.727 229.93L533.971 223.174C533.844 223.047 533.671 222.975 533.491 222.975H515.507C513.175 222.975 511.173 223.206 509.501 223.665C507.829 224.126 506.464 224.771 505.405 225.598C504.346 226.428 503.564 227.433 503.058 228.614C502.552 229.795 502.299 231.109 502.299 232.549C502.299 233.87 502.531 235.074 502.989 236.163C503.45 237.252 504.156 238.182 505.107 238.948C506.059 239.715 507.255 240.313 508.697 240.742C510.14 241.172 511.857 241.387 513.852 241.387H532.629C533.765 241.387 534.592 241.556 535.115 241.893C535.636 242.231 535.898 242.797 535.898 243.595C535.898 244.392 535.636 244.969 535.115 245.32C534.595 245.674 533.765 245.849 532.629 245.849H509.538C509.358 245.849 509.186 245.92 509.058 246.049L502.496 252.61C502.07 253.036 502.372 253.767 502.977 253.767H531.892C534.224 253.767 536.226 253.538 537.898 253.077C539.57 252.616 540.943 251.958 542.017 251.099C543.091 250.239 543.874 249.183 544.364 247.922C544.855 246.664 545.1 245.254 545.1 243.687C545.1 242.883 545.02 242.139 544.862 241.451Z" fill="white"/>
<path d="M497.417 231.01C497.411 231.104 476.315 230.883 476.315 230.883C475.012 230.883 473.809 231.074 472.695 231.443C472.673 231.449 472.652 231.458 472.631 231.464C471.546 231.824 470.328 232.482 469.533 233.142C468.729 233.805 468.104 234.585 467.649 235.477C467.197 236.373 466.97 237.361 466.97 238.45C466.97 239.538 467.19 240.527 467.628 241.418C467.651 241.465 467.675 241.51 467.698 241.553C468.129 242.387 468.729 243.114 469.49 243.712C469.718 243.892 469.962 244.061 470.213 244.218C470.841 244.614 471.55 244.933 472.324 245.184C473.411 245.534 474.605 245.709 475.908 245.709H491.969C492.063 245.709 492.138 245.634 492.138 245.54V241.536C492.138 241.442 492.063 241.367 491.969 241.367H476.962C476.81 241.367 476.735 241.18 476.845 241.075L483.073 235.078C483.106 235.048 483.146 235.031 483.191 235.031H494.862C497.664 235.031 499.934 236.818 499.934 239.618V245.705V245.748L491.529 253.454C491.497 253.484 491.454 253.501 491.411 253.501H475.908C473.271 253.501 470.839 253.111 468.605 252.32C466.365 251.533 464.438 250.457 462.822 249.079C461.204 247.705 459.935 246.069 459.017 244.179C458.094 242.295 457.633 240.252 457.633 238.04C457.633 236.036 458.012 234.195 458.771 232.501H458.722C458.82 232.276 458.923 232.053 459.035 231.833C459.976 229.964 461.272 228.356 462.927 227.01C464.582 225.664 466.552 224.629 468.845 223.902C471.132 223.169 473.621 222.807 476.317 222.807H492.682L497.417 231.005V231.01Z" fill="white"/>
<path d="M507.287 265.15H506.833L505.371 266.557H506.482L507.943 265.15H507.287Z" fill="white"/>
<path d="M466.029 258.693H465.576L464.113 260.1H465.225L466.685 258.693H466.029Z" fill="white"/>
<path d="M516.119 258.693H515.665L514.203 260.1H515.315L516.775 258.693H516.119Z" fill="white"/>
<path d="M534.568 258.693H534.115L532.652 260.1H533.764L535.224 258.693H534.568Z" fill="white"/>
<path d="M545.038 266.52H543.609V260.035L545.038 258.639V266.52Z" fill="white"/>
<path d="M545.038 257.966L543.609 259.364V258.412L545.038 257.016V257.966Z" fill="white"/>
<path d="M542.123 266.52H540.694V264.585H535.671V266.52H534.242V262.579C534.242 262.004 534.341 261.474 534.539 260.991C534.737 260.507 535.012 260.091 535.363 259.743C535.715 259.395 536.131 259.124 536.611 258.93C537.091 258.736 537.615 258.639 538.183 258.639H541.403C541.502 258.639 541.595 258.657 541.683 258.694C541.771 258.73 541.848 258.782 541.914 258.848C541.98 258.913 542.031 258.99 542.068 259.078C542.105 259.166 542.123 259.26 542.123 259.359V266.52ZM535.671 263.156H540.694V260.068H538.183C538.139 260.068 538.045 260.075 537.902 260.09C537.763 260.101 537.6 260.132 537.413 260.183C537.23 260.234 537.036 260.313 536.831 260.419C536.626 260.526 536.437 260.672 536.265 260.859C536.092 261.046 535.95 261.28 535.836 261.562C535.726 261.841 535.671 262.18 535.671 262.579V263.156Z" fill="white"/>
<path d="M532.149 260.068H530.458V266.52H529.03V260.068H525.875L527.397 258.639H533.608L532.149 260.068Z" fill="white"/>
<path d="M524.822 265.8C524.822 265.902 524.804 265.997 524.767 266.085C524.731 266.173 524.679 266.25 524.613 266.316C524.548 266.379 524.471 266.428 524.383 266.465C524.295 266.501 524.201 266.52 524.102 266.52H520.882C520.578 266.52 520.27 266.487 519.959 266.421C519.647 266.355 519.345 266.254 519.052 266.118C518.762 265.979 518.489 265.803 518.233 265.591C517.976 265.378 517.751 265.127 517.557 264.838C517.366 264.545 517.216 264.211 517.106 263.838C516.996 263.46 516.941 263.041 516.941 262.579V260.035L518.37 258.639V262.579C518.37 262.982 518.425 263.323 518.535 263.601C518.649 263.88 518.792 264.112 518.964 264.299C519.136 264.486 519.325 264.633 519.53 264.739C519.735 264.845 519.929 264.924 520.112 264.975C520.299 265.027 520.462 265.06 520.602 265.074C520.744 265.085 520.838 265.091 520.882 265.091H523.393V260.035L524.822 258.639V265.8Z" fill="white"/>
<path d="M515.931 264.255C515.931 264.537 515.894 264.792 515.821 265.019C515.751 265.242 515.658 265.44 515.541 265.613C515.424 265.785 515.286 265.931 515.129 266.052C514.971 266.173 514.808 266.272 514.64 266.349C514.471 266.426 514.299 266.483 514.123 266.519C513.982 266.519 513.803 266.519 513.649 266.519H506.938L508.391 265.145H513.634C513.909 265.145 514.121 265.065 514.271 264.904C514.425 264.742 514.502 264.526 514.502 264.255C514.502 264.123 514.482 264.002 514.442 263.892C514.401 263.782 514.343 263.687 514.266 263.607C514.193 263.526 514.101 263.464 513.991 263.42C513.885 263.376 513.766 263.354 513.634 263.354H510.347C510.117 263.354 509.867 263.313 509.6 263.233C509.332 263.149 509.083 263.015 508.852 262.832C508.625 262.648 508.435 262.408 508.281 262.112C508.131 261.815 508.056 261.452 508.056 261.024C508.056 260.595 508.131 260.234 508.281 259.941C508.435 259.644 508.625 259.404 508.852 259.221C509.083 259.034 509.332 258.9 509.6 258.82C509.867 258.735 510.117 258.693 510.347 258.693H515.156L513.649 260.122H510.347C510.076 260.122 509.864 260.205 509.71 260.37C509.56 260.534 509.484 260.752 509.484 261.024C509.484 261.298 509.56 261.516 509.71 261.678C509.864 261.835 510.076 261.914 510.347 261.914H513.634H513.645C513.799 261.918 513.962 261.94 514.134 261.98C514.306 262.016 514.476 262.075 514.645 262.156C514.817 262.236 514.98 262.339 515.134 262.463C515.288 262.584 515.424 262.731 515.541 262.903C515.662 263.075 515.757 263.273 515.827 263.497C515.896 263.72 515.931 263.973 515.931 264.255Z" fill="white"/>
<path d="M503.278 263.222C503.278 263.702 503.193 264.144 503.025 264.547C502.86 264.95 502.631 265.298 502.338 265.591C502.045 265.88 501.697 266.107 501.294 266.272C500.891 266.437 500.453 266.52 499.98 266.52H496.122C496.02 266.52 495.924 266.501 495.837 266.465C495.749 266.428 495.672 266.379 495.606 266.316C495.543 266.25 495.494 266.173 495.457 266.085C495.421 265.997 495.402 265.902 495.402 265.8V259.359C495.402 259.26 495.421 259.166 495.457 259.078C495.494 258.99 495.543 258.913 495.606 258.848C495.672 258.782 495.749 258.73 495.837 258.694C495.924 258.657 496.02 258.639 496.122 258.639H499.98C500.453 258.639 500.891 258.721 501.294 258.886C501.697 259.051 502.045 259.28 502.338 259.573C502.631 259.862 502.86 260.21 503.025 260.617C503.193 261.02 503.278 261.46 503.278 261.936V263.222ZM501.849 261.936C501.849 261.658 501.803 261.403 501.711 261.172C501.624 260.941 501.497 260.745 501.332 260.584C501.167 260.419 500.97 260.293 500.739 260.205C500.512 260.113 500.259 260.068 499.98 260.068H496.831V265.091H499.98C500.259 265.091 500.512 265.047 500.739 264.959C500.97 264.867 501.167 264.741 501.332 264.58C501.497 264.415 501.624 264.219 501.711 263.992C501.803 263.761 501.849 263.504 501.849 263.222V261.936Z" fill="white"/>
<path d="M493.745 265.915C493.745 266.017 493.725 266.111 493.685 266.199C493.648 266.286 493.597 266.363 493.532 266.428C493.47 266.49 493.395 266.539 493.308 266.576C493.22 266.612 493.127 266.63 493.029 266.63C492.942 266.63 492.853 266.614 492.762 266.581C492.674 266.548 492.596 266.496 492.527 266.423L487.338 261.004V266.521H485.918V259.294C485.918 259.149 485.958 259.018 486.038 258.901C486.122 258.781 486.227 258.692 486.355 258.634C486.49 258.579 486.628 258.566 486.77 258.595C486.912 258.621 487.034 258.686 487.136 258.792L492.325 264.205V260.034L493.745 258.688V265.915Z" fill="white"/>
<path d="M484.209 266.52H482.78V264.585H477.757V266.52H476.328V262.579C476.328 262.004 476.427 261.474 476.625 260.991C476.823 260.507 477.098 260.091 477.449 259.743C477.801 259.395 478.217 259.124 478.697 258.93C479.177 258.736 479.701 258.639 480.269 258.639H483.489C483.588 258.639 483.681 258.657 483.769 258.694C483.857 258.73 483.934 258.782 484 258.848C484.066 258.913 484.117 258.99 484.154 259.078C484.191 259.166 484.209 259.26 484.209 259.359V266.52ZM477.757 263.156H482.78V260.068H480.269C480.225 260.068 480.131 260.075 479.988 260.09C479.849 260.101 479.686 260.132 479.499 260.183C479.316 260.234 479.122 260.313 478.917 260.419C478.711 260.526 478.523 260.672 478.351 260.859C478.178 261.046 478.035 261.28 477.922 261.562C477.812 261.841 477.757 262.18 477.757 262.579V263.156Z" fill="white"/>
<path d="M475.039 261.288C475.039 261.614 474.999 261.905 474.919 262.161C474.838 262.418 474.728 262.645 474.589 262.843C474.453 263.037 474.296 263.204 474.116 263.343C473.937 263.482 473.748 263.598 473.55 263.689C473.356 263.777 473.158 263.841 472.957 263.882C472.759 263.922 472.572 263.942 472.396 263.942L475.38 266.52H473.171L470.192 263.942H469.165L470.653 262.513H472.396C472.576 262.499 472.739 262.462 472.885 262.403C473.035 262.341 473.164 262.259 473.27 262.156C473.38 262.053 473.464 261.931 473.523 261.788C473.581 261.641 473.611 261.474 473.611 261.288V260.386C473.611 260.306 473.6 260.245 473.578 260.205C473.559 260.161 473.534 260.13 473.501 260.112C473.471 260.09 473.438 260.077 473.402 260.073C473.369 260.069 473.338 260.068 473.308 260.068H468.593V266.52H467.164V259.359C467.164 259.26 467.182 259.166 467.219 259.078C467.256 258.99 467.305 258.913 467.367 258.848C467.433 258.782 467.51 258.73 467.598 258.694C467.686 258.657 467.781 258.639 467.884 258.639H473.308C473.627 258.639 473.896 258.697 474.116 258.815C474.336 258.928 474.514 259.073 474.649 259.249C474.788 259.421 474.887 259.608 474.946 259.809C475.008 260.011 475.039 260.199 475.039 260.375V261.288Z" fill="white"/>
<path d="M465.51 265.854C465.51 265.957 465.491 266.052 465.455 266.14C465.418 266.228 465.367 266.305 465.301 266.371C465.239 266.433 465.164 266.483 465.076 266.519C464.988 266.556 464.892 266.574 464.79 266.574H459.635C459.503 266.574 459.36 266.56 459.206 266.53C459.056 266.497 458.906 266.448 458.756 266.382C458.609 266.316 458.468 266.232 458.332 266.129C458.197 266.023 458.076 265.896 457.97 265.75C457.867 265.6 457.785 265.427 457.722 265.233C457.66 265.035 457.629 264.814 457.629 264.568V260.699C457.629 260.567 457.644 260.426 457.673 260.276C457.706 260.122 457.755 259.972 457.821 259.825C457.887 259.675 457.973 259.532 458.08 259.397C458.186 259.261 458.312 259.142 458.459 259.04C458.609 258.933 458.781 258.849 458.975 258.787C459.17 258.725 459.389 258.693 459.635 258.693L465.232 258.693L463.723 260.122H459.635C459.448 260.122 459.305 260.172 459.206 260.271C459.107 260.37 459.058 260.516 459.058 260.71V264.568C459.058 264.752 459.107 264.894 459.206 264.997C459.309 265.096 459.452 265.145 459.635 265.145H464.081V263.354L460.318 263.389L461.878 261.914H464.79C464.892 261.914 464.988 261.934 465.076 261.974C465.164 262.011 465.239 262.062 465.301 262.128C465.367 262.194 465.418 262.271 465.455 262.359C465.491 262.443 465.51 262.535 465.51 262.634V265.854Z" fill="white"/>
<path d="M575.193 345.746C577.524 343.502 584.6 336.521 588.906 332.267C590.819 330.377 593.892 330.39 595.788 332.298L609.024 345.601C609.306 345.884 609.787 345.683 609.787 345.283V337.844C609.787 337.725 609.739 337.61 609.655 337.526L597.987 325.798C597.085 324.892 595.864 324.385 594.59 324.385H589.79C588.498 324.385 587.259 324.9 586.344 325.82L574.667 337.556C574.585 337.638 574.538 337.75 574.536 337.867L574.438 345.415C574.433 345.814 574.906 346.021 575.193 345.746Z" fill="white"/>
<path d="M424.241 357.408H418.026V348.994H396.179V357.408H389.964V340.27C389.964 337.768 390.394 335.465 391.255 333.361C392.115 331.258 393.31 329.449 394.84 327.935C396.37 326.422 398.179 325.242 400.266 324.398C402.354 323.553 404.633 323.131 407.103 323.131H421.11C421.54 323.131 421.947 323.211 422.329 323.37C422.712 323.529 423.046 323.752 423.333 324.039C423.62 324.326 423.843 324.661 424.002 325.043C424.162 325.426 424.241 325.832 424.241 326.262V357.408ZM396.179 342.779H418.026V329.346H407.103C406.911 329.346 406.505 329.378 405.884 329.441C405.278 329.489 404.569 329.625 403.756 329.848C402.959 330.071 402.115 330.413 401.222 330.876C400.33 331.338 399.509 331.975 398.76 332.788C398.011 333.601 397.39 334.62 396.896 335.847C396.418 337.059 396.179 338.533 396.179 340.27V342.779ZM465.068 354.277C465.068 354.723 464.988 355.137 464.829 355.52C464.67 355.902 464.447 356.237 464.16 356.524C463.873 356.795 463.538 357.01 463.156 357.169C462.773 357.329 462.367 357.408 461.937 357.408H447.929C446.607 357.408 445.268 357.265 443.914 356.978C442.559 356.691 441.245 356.253 439.97 355.663C438.711 355.058 437.524 354.293 436.408 353.369C435.293 352.444 434.313 351.353 433.468 350.094C432.639 348.819 431.986 347.369 431.508 345.743C431.03 344.102 430.791 342.277 430.791 340.27V323.131H437.006V340.27C437.006 342.022 437.245 343.504 437.723 344.716C438.217 345.927 438.838 346.939 439.587 347.751C440.336 348.564 441.157 349.201 442.049 349.664C442.942 350.126 443.786 350.468 444.583 350.691C445.396 350.914 446.105 351.058 446.71 351.122C447.332 351.169 447.738 351.193 447.929 351.193H458.853V323.131H465.068V354.277ZM503.29 329.346H489.593V357.408H483.378V329.346H469.658V323.131H503.29V329.346ZM543.375 343.544C543.375 345.632 543.017 347.552 542.3 349.305C541.583 351.058 540.587 352.572 539.312 353.847C538.037 355.121 536.523 356.117 534.77 356.835C533.033 357.536 531.137 357.886 529.081 357.886H520.667C518.612 357.886 516.707 357.536 514.954 356.835C513.201 356.117 511.688 355.121 510.413 353.847C509.138 352.572 508.134 351.058 507.401 349.305C506.684 347.552 506.325 345.632 506.325 343.544V336.995C506.325 334.923 506.684 333.011 507.401 331.258C508.134 329.489 509.138 327.975 510.413 326.716C511.688 325.442 513.201 324.446 514.954 323.728C516.707 323.011 518.612 322.653 520.667 322.653H529.081C531.137 322.653 533.033 323.011 534.77 323.728C536.523 324.446 538.037 325.442 539.312 326.716C540.587 327.975 541.583 329.489 542.3 331.258C543.017 333.011 543.375 334.923 543.375 336.995V343.544ZM537.16 336.995C537.16 335.768 536.961 334.66 536.563 333.672C536.18 332.668 535.631 331.816 534.914 331.115C534.212 330.397 533.36 329.848 532.356 329.465C531.368 329.067 530.276 328.868 529.081 328.868H520.667C519.456 328.868 518.349 329.067 517.345 329.465C516.357 329.848 515.504 330.397 514.787 331.115C514.07 331.816 513.512 332.668 513.114 333.672C512.731 334.66 512.54 335.768 512.54 336.995V343.544C512.54 344.771 512.731 345.887 513.114 346.891C513.512 347.879 514.07 348.731 514.787 349.448C515.504 350.15 516.357 350.699 517.345 351.098C518.349 351.48 519.456 351.671 520.667 351.671H529.033C530.244 351.671 531.344 351.48 532.332 351.098C533.336 350.699 534.196 350.15 534.914 349.448C535.631 348.731 536.18 347.879 536.563 346.891C536.961 345.887 537.16 344.771 537.16 343.544V336.995ZM421.301 401.408H398.88C398.306 401.408 397.685 401.344 397.015 401.217C396.362 401.074 395.709 400.858 395.055 400.572C394.418 400.285 393.804 399.918 393.215 399.472C392.625 399.01 392.099 398.46 391.637 397.823C391.191 397.169 390.832 396.42 390.562 395.576C390.291 394.715 390.155 393.751 390.155 392.684V375.856C390.155 375.282 390.219 374.668 390.346 374.015C390.49 373.346 390.705 372.692 390.992 372.055C391.279 371.402 391.653 370.78 392.115 370.191C392.577 369.601 393.127 369.083 393.765 368.637C394.418 368.175 395.167 367.808 396.012 367.537C396.856 367.266 397.812 367.131 398.88 367.131H421.301V373.346H398.88C398.067 373.346 397.446 373.561 397.015 373.991C396.585 374.421 396.37 375.059 396.37 375.903V392.684C396.37 393.48 396.585 394.102 397.015 394.548C397.462 394.978 398.083 395.193 398.88 395.193H421.301V401.408ZM455.363 387.401H435.739V381.138H455.363V387.401ZM458.16 401.408H435.739C434.878 401.408 433.938 401.257 432.918 400.954C431.898 400.651 430.95 400.157 430.074 399.472C429.213 398.771 428.488 397.871 427.899 396.771C427.325 395.655 427.038 394.293 427.038 392.684V370.262C427.038 369.832 427.118 369.426 427.277 369.043C427.436 368.661 427.652 368.326 427.922 368.039C428.209 367.752 428.544 367.529 428.926 367.37C429.309 367.211 429.723 367.131 430.169 367.131H458.16V373.346H433.253V392.684C433.253 393.496 433.468 394.118 433.898 394.548C434.329 394.978 434.958 395.193 435.787 395.193H458.16V401.408ZM498.437 398.755C498.437 399.201 498.349 399.615 498.174 399.998C498.015 400.38 497.792 400.715 497.505 401.002C497.234 401.273 496.907 401.488 496.525 401.647C496.142 401.807 495.736 401.886 495.306 401.886C494.923 401.886 494.533 401.815 494.135 401.671C493.752 401.528 493.409 401.297 493.107 400.978L470.399 377.266V401.408H464.184V369.784C464.184 369.147 464.359 368.573 464.71 368.063C465.076 367.537 465.538 367.147 466.096 366.892C466.686 366.653 467.291 366.597 467.913 366.725C468.534 366.836 469.068 367.123 469.514 367.585L492.222 391.273V367.131H498.437V398.755ZM536.658 373.346H522.962V401.408H516.747V373.346H503.027V367.131H536.658V373.346ZM569.43 387.401H549.805V381.138H569.43V387.401ZM572.227 401.408H549.805C548.945 401.408 548.005 401.257 546.985 400.954C545.965 400.651 545.017 400.157 544.14 399.472C543.28 398.771 542.555 397.871 541.965 396.771C541.391 395.655 541.105 394.293 541.105 392.684V370.262C541.105 369.832 541.184 369.426 541.344 369.043C541.503 368.661 541.718 368.326 541.989 368.039C542.276 367.752 542.61 367.529 542.993 367.37C543.375 367.211 543.79 367.131 544.236 367.131H572.227V373.346H547.319V392.684C547.319 393.496 547.534 394.118 547.965 394.548C548.395 394.978 549.024 395.193 549.853 395.193H572.227V401.408ZM612.504 378.652C612.504 380.071 612.328 381.337 611.978 382.453C611.627 383.568 611.149 384.556 610.544 385.417C609.954 386.261 609.269 386.987 608.488 387.592C607.707 388.198 606.886 388.7 606.026 389.098C605.181 389.48 604.321 389.759 603.444 389.935C602.584 390.11 601.771 390.198 601.006 390.198L613.986 401.408H604.377L591.421 390.198H586.951V383.983H601.006C601.787 383.919 602.496 383.76 603.134 383.505C603.787 383.234 604.345 382.875 604.807 382.429C605.285 381.983 605.651 381.449 605.906 380.827C606.161 380.19 606.289 379.465 606.289 378.652V374.732C606.289 374.382 606.241 374.119 606.145 373.943C606.066 373.752 605.954 373.617 605.811 373.537C605.683 373.441 605.54 373.386 605.38 373.37C605.237 373.354 605.102 373.346 604.974 373.346H584.465V401.408H578.25V370.262C578.25 369.832 578.33 369.426 578.489 369.043C578.649 368.661 578.864 368.326 579.135 368.039C579.421 367.752 579.756 367.529 580.139 367.37C580.521 367.211 580.935 367.131 581.382 367.131H604.974C606.36 367.131 607.532 367.386 608.488 367.896C609.444 368.39 610.217 369.019 610.807 369.784C611.412 370.533 611.842 371.346 612.097 372.222C612.368 373.099 612.504 373.919 612.504 374.684V378.652Z" fill="white"/>
<path d="M424.394 571.384C422.623 571.384 420.991 571.107 419.498 570.552C418.026 569.976 416.735 569.165 415.626 568.12C414.538 567.075 413.685 565.848 413.066 564.44C412.469 563.032 412.17 561.485 412.17 559.8C412.17 558.115 412.469 556.568 413.066 555.16C413.685 553.752 414.549 552.525 415.658 551.48C416.767 550.435 418.069 549.635 419.562 549.08C421.055 548.504 422.698 548.216 424.49 548.216C426.474 548.216 428.255 548.547 429.834 549.208C431.434 549.869 432.778 550.829 433.866 552.088L430.538 555.16C429.727 554.307 428.842 553.677 427.882 553.272C426.922 552.845 425.877 552.632 424.746 552.632C423.658 552.632 422.666 552.803 421.77 553.144C420.874 553.485 420.095 553.976 419.434 554.616C418.794 555.256 418.293 556.013 417.93 556.888C417.589 557.763 417.418 558.733 417.418 559.8C417.418 560.845 417.589 561.805 417.93 562.68C418.293 563.555 418.794 564.323 419.434 564.984C420.095 565.624 420.863 566.115 421.738 566.456C422.634 566.797 423.615 566.968 424.682 566.968C425.706 566.968 426.698 566.808 427.658 566.488C428.639 566.147 429.589 565.581 430.506 564.792L433.45 568.536C432.234 569.453 430.815 570.157 429.194 570.648C427.594 571.139 425.994 571.384 424.394 571.384ZM428.714 567.864V559.448H433.45V568.536L428.714 567.864ZM438.265 571V548.6H443.449V571H438.265ZM453.565 558.68H464.317V562.84H453.565V558.68ZM453.949 571H448.765V548.6H465.693V552.76H453.949V571ZM473.999 571V552.824H466.831V548.6H486.351V552.824H479.183V571H473.999ZM508.923 571.384C507.195 571.384 505.584 571.107 504.091 570.552C502.619 569.976 501.339 569.165 500.251 568.12C499.163 567.075 498.31 565.848 497.691 564.44C497.094 563.032 496.795 561.485 496.795 559.8C496.795 558.115 497.094 556.568 497.691 555.16C498.31 553.752 499.163 552.525 500.251 551.48C501.36 550.435 502.651 549.635 504.123 549.08C505.595 548.504 507.206 548.216 508.955 548.216C510.896 548.216 512.646 548.557 514.203 549.24C515.782 549.901 517.104 550.883 518.171 552.184L514.843 555.256C514.075 554.381 513.222 553.731 512.283 553.304C511.344 552.856 510.32 552.632 509.211 552.632C508.166 552.632 507.206 552.803 506.331 553.144C505.456 553.485 504.699 553.976 504.059 554.616C503.419 555.256 502.918 556.013 502.555 556.888C502.214 557.763 502.043 558.733 502.043 559.8C502.043 560.867 502.214 561.837 502.555 562.712C502.918 563.587 503.419 564.344 504.059 564.984C504.699 565.624 505.456 566.115 506.331 566.456C507.206 566.797 508.166 566.968 509.211 566.968C510.32 566.968 511.344 566.755 512.283 566.328C513.222 565.88 514.075 565.208 514.843 564.312L518.171 567.384C517.104 568.685 515.782 569.677 514.203 570.36C512.646 571.043 510.886 571.384 508.923 571.384ZM518.321 571L528.305 548.6H533.425L543.441 571H538.001L529.809 551.224H531.857L523.633 571H518.321ZM523.313 566.2L524.689 562.264H536.209L537.617 566.2H523.313ZM545.765 571V548.6H555.461C557.467 548.6 559.195 548.931 560.645 549.592C562.096 550.232 563.216 551.16 564.005 552.376C564.795 553.592 565.189 555.043 565.189 556.728C565.189 558.392 564.795 559.832 564.005 561.048C563.216 562.243 562.096 563.16 560.645 563.8C559.195 564.44 557.467 564.76 555.461 564.76H548.645L550.949 562.488V571H545.765ZM560.005 571L554.405 562.872H559.941L565.605 571H560.005ZM550.949 563.064L548.645 560.632H555.173C556.773 560.632 557.968 560.291 558.757 559.608C559.547 558.904 559.941 557.944 559.941 556.728C559.941 555.491 559.547 554.531 558.757 553.848C557.968 553.165 556.773 552.824 555.173 552.824H548.645L550.949 550.36V563.064ZM569.297 571V548.6H579.473C581.905 548.6 584.049 549.069 585.905 550.008C587.761 550.925 589.211 552.216 590.257 553.88C591.302 555.544 591.825 557.517 591.825 559.8C591.825 562.061 591.302 564.035 590.257 565.72C589.211 567.384 587.761 568.685 585.905 569.624C584.049 570.541 581.905 571 579.473 571H569.297ZM574.481 566.744H579.217C580.71 566.744 582.001 566.467 583.089 565.912C584.198 565.336 585.051 564.525 585.649 563.48C586.267 562.435 586.577 561.208 586.577 559.8C586.577 558.371 586.267 557.144 585.649 556.12C585.051 555.075 584.198 554.275 583.089 553.72C582.001 553.144 580.71 552.856 579.217 552.856H574.481V566.744Z" fill="white"/>
</g>
<defs>
<linearGradient id="paint0_linear_571_29425" x1="501.141" y1="176.062" x2="501.141" y2="300.031" gradientUnits="userSpaceOnUse">
<stop stop-color="#E20D01"/>
<stop offset="1" stop-color="#580702"/>
</linearGradient>
<clipPath id="clip0_571_29425">
<rect width="1004" height="650" fill="white"/>
</clipPath>
</defs>
</svg>
