<svg width="1004" height="650" viewBox="0 0 1004 650" fill="none" xmlns="http://www.w3.org/2000/svg">
<rect width="1004" height="650" fill="#B00B01"/>
<path d="M152.456 572.536C146.227 572.536 140.04 571.725 133.896 570.104C127.837 568.397 122.632 566.008 118.28 562.936L126.472 547.064C129.885 549.539 133.811 551.501 138.248 552.952C142.771 554.403 147.336 555.128 151.944 555.128C157.149 555.128 161.245 554.104 164.232 552.056C167.219 550.008 168.712 547.149 168.712 543.48C168.712 541.176 168.115 539.128 166.92 537.336C165.725 535.544 163.592 534.179 160.52 533.24C157.533 532.301 153.309 531.832 147.848 531.832H124.936L129.544 481.4H184.2V498.04H136.968L147.72 488.568L144.52 524.536L133.768 515.064H152.712C161.587 515.064 168.712 516.301 174.088 518.776C179.549 521.165 183.517 524.451 185.992 528.632C188.467 532.813 189.704 537.549 189.704 542.84C189.704 548.131 188.381 553.037 185.736 557.56C183.091 561.997 178.995 565.624 173.448 568.44C167.987 571.171 160.989 572.536 152.456 572.536ZM236.517 572.536C229.178 572.536 222.608 570.744 216.805 567.16C211.002 563.491 206.437 558.2 203.109 551.288C199.781 544.376 198.117 536.013 198.117 526.2C198.117 516.387 199.781 508.024 203.109 501.112C206.437 494.2 211.002 488.952 216.805 485.368C222.608 481.699 229.178 479.864 236.517 479.864C243.941 479.864 250.512 481.699 256.229 485.368C262.032 488.952 266.597 494.2 269.925 501.112C273.253 508.024 274.917 516.387 274.917 526.2C274.917 536.013 273.253 544.376 269.925 551.288C266.597 558.2 262.032 563.491 256.229 567.16C250.512 570.744 243.941 572.536 236.517 572.536ZM236.517 555C240.016 555 243.045 554.019 245.605 552.056C248.25 550.093 250.298 546.979 251.749 542.712C253.285 538.445 254.053 532.941 254.053 526.2C254.053 519.459 253.285 513.955 251.749 509.688C250.298 505.421 248.25 502.307 245.605 500.344C243.045 498.381 240.016 497.4 236.517 497.4C233.104 497.4 230.074 498.381 227.429 500.344C224.869 502.307 222.821 505.421 221.285 509.688C219.834 513.955 219.109 519.459 219.109 526.2C219.109 532.941 219.834 538.445 221.285 542.712C222.821 546.979 224.869 550.093 227.429 552.056C230.074 554.019 233.104 555 236.517 555ZM295.143 572.024C291.73 572.024 288.786 570.872 286.311 568.568C283.922 566.179 282.727 563.149 282.727 559.48C282.727 555.811 283.922 552.867 286.311 550.648C288.786 548.344 291.73 547.192 295.143 547.192C298.642 547.192 301.586 548.344 303.975 550.648C306.364 552.867 307.559 555.811 307.559 559.48C307.559 563.149 306.364 566.179 303.975 568.568C301.586 570.872 298.642 572.024 295.143 572.024ZM353.642 572.536C346.303 572.536 339.733 570.744 333.93 567.16C328.127 563.491 323.562 558.2 320.234 551.288C316.906 544.376 315.242 536.013 315.242 526.2C315.242 516.387 316.906 508.024 320.234 501.112C323.562 494.2 328.127 488.952 333.93 485.368C339.733 481.699 346.303 479.864 353.642 479.864C361.066 479.864 367.637 481.699 373.354 485.368C379.157 488.952 383.722 494.2 387.05 501.112C390.378 508.024 392.042 516.387 392.042 526.2C392.042 536.013 390.378 544.376 387.05 551.288C383.722 558.2 379.157 563.491 373.354 567.16C367.637 570.744 361.066 572.536 353.642 572.536ZM353.642 555C357.141 555 360.17 554.019 362.73 552.056C365.375 550.093 367.423 546.979 368.874 542.712C370.41 538.445 371.178 532.941 371.178 526.2C371.178 519.459 370.41 513.955 368.874 509.688C367.423 505.421 365.375 502.307 362.73 500.344C360.17 498.381 357.141 497.4 353.642 497.4C350.229 497.4 347.199 498.381 344.554 500.344C341.994 502.307 339.946 505.421 338.41 509.688C336.959 513.955 336.234 519.459 336.234 526.2C336.234 532.941 336.959 538.445 338.41 542.712C339.946 546.979 341.994 550.093 344.554 552.056C347.199 554.019 350.229 555 353.642 555ZM440.517 572.536C433.178 572.536 426.608 570.744 420.805 567.16C415.002 563.491 410.437 558.2 407.109 551.288C403.781 544.376 402.117 536.013 402.117 526.2C402.117 516.387 403.781 508.024 407.109 501.112C410.437 494.2 415.002 488.952 420.805 485.368C426.608 481.699 433.178 479.864 440.517 479.864C447.941 479.864 454.512 481.699 460.229 485.368C466.032 488.952 470.597 494.2 473.925 501.112C477.253 508.024 478.917 516.387 478.917 526.2C478.917 536.013 477.253 544.376 473.925 551.288C470.597 558.2 466.032 563.491 460.229 567.16C454.512 570.744 447.941 572.536 440.517 572.536ZM440.517 555C444.016 555 447.045 554.019 449.605 552.056C452.25 550.093 454.298 546.979 455.749 542.712C457.285 538.445 458.053 532.941 458.053 526.2C458.053 519.459 457.285 513.955 455.749 509.688C454.298 505.421 452.25 502.307 449.605 500.344C447.045 498.381 444.016 497.4 440.517 497.4C437.104 497.4 434.074 498.381 431.429 500.344C428.869 502.307 426.821 505.421 425.285 509.688C423.834 513.955 423.109 519.459 423.109 526.2C423.109 532.941 423.834 538.445 425.285 542.712C426.821 546.979 428.869 550.093 431.429 552.056C434.074 554.019 437.104 555 440.517 555ZM527.392 572.536C520.053 572.536 513.483 570.744 507.68 567.16C501.877 563.491 497.312 558.2 493.984 551.288C490.656 544.376 488.992 536.013 488.992 526.2C488.992 516.387 490.656 508.024 493.984 501.112C497.312 494.2 501.877 488.952 507.68 485.368C513.483 481.699 520.053 479.864 527.392 479.864C534.816 479.864 541.387 481.699 547.104 485.368C552.907 488.952 557.472 494.2 560.8 501.112C564.128 508.024 565.792 516.387 565.792 526.2C565.792 536.013 564.128 544.376 560.8 551.288C557.472 558.2 552.907 563.491 547.104 567.16C541.387 570.744 534.816 572.536 527.392 572.536ZM527.392 555C530.891 555 533.92 554.019 536.48 552.056C539.125 550.093 541.173 546.979 542.624 542.712C544.16 538.445 544.928 532.941 544.928 526.2C544.928 519.459 544.16 513.955 542.624 509.688C541.173 505.421 539.125 502.307 536.48 500.344C533.92 498.381 530.891 497.4 527.392 497.4C523.979 497.4 520.949 498.381 518.304 500.344C515.744 502.307 513.696 505.421 512.16 509.688C510.709 513.955 509.984 519.459 509.984 526.2C509.984 532.941 510.709 538.445 512.16 542.712C513.696 546.979 515.744 550.093 518.304 552.056C520.949 554.019 523.979 555 527.392 555ZM605.307 571V493.56L610.043 498.296H576.763V481.4H654.843V498.296H621.435L626.171 493.56V571H605.307ZM587.771 561.656V550.52L643.707 523.512V534.648L587.771 561.656ZM587.771 543.352V532.216L643.707 505.208V516.344L587.771 543.352Z" fill="url(#paint0_linear_571_29392)"/>
<circle cx="174.26" cy="157.631" r="57.2602" fill="#E7E7E7"/>
<circle cx="174.073" cy="157.446" r="51.2369" fill="url(#paint1_linear_571_29392)"/>
<path d="M185.052 126.647C185.037 126.631 185.025 126.617 185.011 126.599C184.743 126.238 181.391 121.928 174.233 121.928C169.634 121.928 165.075 122.931 161.962 125.842C161.946 125.856 157.488 130.356 157.472 130.372L153.209 134.752L145.781 142.817C145.433 143.195 145.888 143.766 146.333 143.512L155.637 138.211L167.715 131.328C167.928 131.207 168.2 131.279 168.324 131.49L173.991 141.1C174.122 141.322 174.412 141.389 174.626 141.247L181.223 136.88C181.329 136.81 181.46 136.788 181.583 136.82L190.437 139.095L197.602 140.935C198.04 141.047 198.351 140.515 198.038 140.189L185.052 126.647Z" fill="white"/>
<path d="M210.216 160.261H210.265C209.961 158.81 209.227 157.671 208.065 156.843C206.49 155.724 204.188 155.164 201.16 155.164H200.024C199.69 155.151 199.362 155.146 199.045 155.146H185.342C184.429 155.146 183.75 155.013 183.306 154.747C182.861 154.482 182.64 154.019 182.64 153.358C182.64 152.697 182.861 152.242 183.306 151.989C183.75 151.735 184.429 151.608 185.342 151.608H207.044C207.269 151.608 207.383 151.337 207.227 151.177L206.798 150.738L201.213 145.153C201.109 145.049 200.965 144.988 200.816 144.988H185.951C184.023 144.988 182.368 145.18 180.986 145.559C179.604 145.94 178.476 146.473 177.601 147.157C176.725 147.843 176.079 148.674 175.66 149.65C175.242 150.626 175.033 151.712 175.033 152.903C175.033 153.994 175.225 154.99 175.604 155.89C175.985 156.79 176.568 157.559 177.354 158.192C178.141 158.826 179.13 159.32 180.322 159.675C181.514 160.031 182.934 160.208 184.583 160.208H200.104C201.043 160.208 201.727 160.348 202.159 160.626C202.59 160.906 202.806 161.374 202.806 162.033C202.806 162.692 202.59 163.169 202.159 163.459C201.729 163.752 201.043 163.897 200.104 163.897H181.017C180.868 163.897 180.726 163.955 180.62 164.062L175.196 169.485C174.844 169.838 175.093 170.442 175.593 170.442H199.495C201.422 170.442 203.077 170.252 204.459 169.871C205.841 169.49 206.977 168.946 207.865 168.236C208.752 167.525 209.399 166.652 209.805 165.61C210.21 164.57 210.412 163.404 210.412 162.109C210.412 161.445 210.347 160.83 210.216 160.261Z" fill="white"/>
<path d="M170.996 151.626C170.99 151.704 153.552 151.522 153.552 151.522C152.475 151.522 151.481 151.68 150.56 151.984C150.542 151.99 150.524 151.997 150.507 152.002C149.61 152.3 148.604 152.844 147.946 153.389C147.282 153.937 146.765 154.582 146.389 155.319C146.015 156.059 145.827 156.876 145.827 157.776C145.827 158.676 146.01 159.493 146.371 160.23C146.391 160.269 146.41 160.306 146.43 160.342C146.786 161.031 147.282 161.632 147.911 162.126C148.099 162.275 148.301 162.415 148.508 162.544C149.027 162.872 149.614 163.136 150.253 163.343C151.152 163.632 152.138 163.777 153.216 163.777H166.492C166.57 163.777 166.632 163.715 166.632 163.637V160.328C166.632 160.25 166.57 160.188 166.492 160.188H154.087C153.962 160.188 153.9 160.034 153.99 159.947L159.139 154.989C159.165 154.964 159.199 154.95 159.236 154.95H168.884C171.199 154.95 173.076 156.428 173.076 158.742V163.774V163.809L166.129 170.179C166.102 170.204 166.066 170.218 166.031 170.218H153.216C151.036 170.218 149.025 169.895 147.179 169.242C145.328 168.591 143.735 167.702 142.399 166.563C141.061 165.427 140.012 164.075 139.254 162.512C138.49 160.955 138.109 159.266 138.109 157.438C138.109 155.781 138.423 154.259 139.05 152.86H139.009C139.091 152.673 139.176 152.489 139.268 152.307C140.046 150.762 141.118 149.433 142.486 148.32C143.854 147.208 145.482 146.352 147.378 145.751C149.268 145.145 151.325 144.846 153.554 144.846H167.082L170.996 151.623V151.626Z" fill="white"/>
<path d="M179.154 179.85H178.779L177.57 181.012H178.489L179.696 179.85H179.154Z" fill="white"/>
<path d="M145.049 174.514H144.674L143.465 175.677H144.384L145.591 174.514H145.049Z" fill="white"/>
<path d="M186.455 174.514H186.08L184.871 175.677H185.79L186.997 174.514H186.455Z" fill="white"/>
<path d="M201.705 174.514H201.33L200.121 175.677H201.04L202.247 174.514H201.705Z" fill="white"/>
<path d="M210.361 180.983H209.18V175.623L210.361 174.469V180.983Z" fill="white"/>
<path d="M210.361 173.913L209.18 175.068V174.281L210.361 173.127V173.913Z" fill="white"/>
<path d="M207.948 180.983H206.767V179.384H202.615V180.983H201.434V177.726C201.434 177.25 201.515 176.813 201.679 176.413C201.842 176.013 202.07 175.67 202.36 175.382C202.651 175.094 202.995 174.87 203.392 174.71C203.788 174.549 204.221 174.469 204.691 174.469H207.353C207.435 174.469 207.512 174.484 207.585 174.514C207.657 174.544 207.721 174.587 207.775 174.641C207.83 174.696 207.872 174.759 207.903 174.832C207.933 174.905 207.948 174.982 207.948 175.064V180.983ZM202.615 178.203H206.767V175.65H204.691C204.654 175.65 204.577 175.656 204.459 175.668C204.344 175.677 204.209 175.703 204.055 175.745C203.903 175.788 203.743 175.853 203.573 175.941C203.404 176.028 203.248 176.15 203.105 176.304C202.963 176.459 202.845 176.652 202.751 176.886C202.66 177.116 202.615 177.396 202.615 177.726V178.203Z" fill="white"/>
<path d="M199.706 175.65H198.308V180.983H197.127V175.65H194.52L195.778 174.469H200.911L199.706 175.65Z" fill="white"/>
<path d="M193.647 180.388C193.647 180.473 193.632 180.552 193.602 180.624C193.572 180.697 193.529 180.761 193.475 180.815C193.42 180.867 193.356 180.907 193.284 180.938C193.211 180.968 193.134 180.983 193.052 180.983H190.39C190.139 180.983 189.884 180.956 189.627 180.901C189.369 180.847 189.12 180.764 188.877 180.652C188.638 180.536 188.412 180.391 188.2 180.215C187.988 180.04 187.802 179.832 187.642 179.593C187.484 179.351 187.36 179.075 187.269 178.766C187.178 178.454 187.133 178.108 187.133 177.726V175.623L188.314 174.469V177.726C188.314 178.059 188.359 178.341 188.45 178.571C188.544 178.801 188.662 178.993 188.805 179.148C188.947 179.302 189.103 179.423 189.272 179.511C189.442 179.599 189.603 179.664 189.754 179.707C189.908 179.749 190.043 179.776 190.158 179.788C190.276 179.797 190.354 179.802 190.39 179.802H192.466V175.623L193.647 174.469V180.388Z" fill="white"/>
<path d="M186.297 179.111C186.297 179.344 186.267 179.555 186.207 179.742C186.149 179.927 186.072 180.091 185.975 180.233C185.878 180.375 185.764 180.497 185.634 180.597C185.504 180.696 185.369 180.778 185.23 180.842C185.091 180.905 184.948 180.952 184.803 180.983C184.686 180.983 184.538 180.983 184.411 180.983H178.863L180.065 179.847H184.398C184.626 179.847 184.801 179.78 184.925 179.647C185.053 179.514 185.116 179.335 185.116 179.111C185.116 179.002 185.1 178.902 185.066 178.811C185.033 178.72 184.985 178.642 184.921 178.575C184.86 178.508 184.785 178.457 184.694 178.421C184.606 178.384 184.508 178.366 184.398 178.366H181.682C181.491 178.366 181.285 178.333 181.064 178.266C180.843 178.196 180.637 178.086 180.446 177.934C180.258 177.783 180.101 177.585 179.974 177.339C179.85 177.094 179.788 176.794 179.788 176.44C179.788 176.085 179.85 175.787 179.974 175.545C180.101 175.3 180.258 175.101 180.446 174.95C180.637 174.795 180.843 174.685 181.064 174.618C181.285 174.549 181.491 174.514 181.682 174.514H185.656L184.411 175.695H181.682C181.458 175.695 181.282 175.763 181.155 175.899C181.031 176.036 180.969 176.216 180.969 176.44C180.969 176.667 181.031 176.847 181.155 176.98C181.282 177.111 181.458 177.176 181.682 177.176H184.398H184.408C184.535 177.179 184.67 177.197 184.812 177.23C184.954 177.261 185.095 177.309 185.234 177.376C185.377 177.442 185.511 177.527 185.639 177.63C185.766 177.73 185.878 177.851 185.975 177.993C186.075 178.136 186.154 178.299 186.211 178.484C186.269 178.669 186.297 178.878 186.297 179.111Z" fill="white"/>
<path d="M175.838 178.257C175.838 178.654 175.768 179.019 175.629 179.352C175.493 179.685 175.303 179.973 175.061 180.215C174.819 180.455 174.531 180.642 174.198 180.779C173.865 180.915 173.503 180.983 173.112 180.983H169.923C169.838 180.983 169.76 180.968 169.687 180.938C169.614 180.907 169.551 180.867 169.496 180.815C169.445 180.761 169.404 180.697 169.374 180.624C169.343 180.552 169.328 180.473 169.328 180.388V175.064C169.328 174.982 169.343 174.905 169.374 174.832C169.404 174.759 169.445 174.696 169.496 174.641C169.551 174.587 169.614 174.544 169.687 174.514C169.76 174.484 169.838 174.469 169.923 174.469H173.112C173.503 174.469 173.865 174.537 174.198 174.673C174.531 174.809 174.819 174.999 175.061 175.241C175.303 175.48 175.493 175.768 175.629 176.104C175.768 176.437 175.838 176.801 175.838 177.194V178.257ZM174.657 177.194C174.657 176.964 174.619 176.754 174.543 176.563C174.471 176.372 174.366 176.21 174.23 176.077C174.094 175.941 173.93 175.836 173.739 175.763C173.551 175.688 173.342 175.65 173.112 175.65H170.509V179.802H173.112C173.342 179.802 173.551 179.766 173.739 179.693C173.93 179.617 174.094 179.513 174.23 179.38C174.366 179.243 174.471 179.081 174.543 178.893C174.619 178.703 174.657 178.491 174.657 178.257V177.194Z" fill="white"/>
<path d="M167.958 180.483C167.958 180.567 167.941 180.645 167.908 180.718C167.878 180.79 167.836 180.853 167.782 180.907C167.731 180.959 167.669 180.999 167.597 181.029C167.524 181.059 167.448 181.074 167.366 181.074C167.294 181.074 167.221 181.061 167.145 181.034C167.073 181.007 167.008 180.963 166.951 180.903L162.662 176.424V180.984H161.488V175.01C161.488 174.89 161.521 174.782 161.588 174.685C161.657 174.586 161.744 174.512 161.849 174.464C161.961 174.419 162.075 174.408 162.193 174.432C162.31 174.454 162.411 174.508 162.495 174.595L166.784 179.07V175.621L167.958 174.509V180.483Z" fill="white"/>
<path d="M160.077 180.983H158.896V179.384H154.744V180.983H153.562V177.726C153.562 177.25 153.644 176.813 153.808 176.413C153.971 176.013 154.198 175.67 154.489 175.382C154.78 175.094 155.124 174.87 155.52 174.71C155.917 174.549 156.35 174.469 156.82 174.469H159.482C159.564 174.469 159.641 174.484 159.713 174.514C159.786 174.544 159.85 174.587 159.904 174.641C159.959 174.696 160.001 174.759 160.031 174.832C160.062 174.905 160.077 174.982 160.077 175.064V180.983ZM154.744 178.203H158.896V175.65H156.82C156.783 175.65 156.706 175.656 156.588 175.668C156.473 175.677 156.338 175.703 156.184 175.745C156.032 175.788 155.872 175.853 155.702 175.941C155.533 176.028 155.377 176.15 155.234 176.304C155.092 176.459 154.974 176.652 154.88 176.886C154.789 177.116 154.744 177.396 154.744 177.726V178.203Z" fill="white"/>
<path d="M152.498 176.658C152.498 176.928 152.465 177.169 152.398 177.381C152.332 177.593 152.241 177.78 152.126 177.944C152.014 178.105 151.883 178.242 151.735 178.357C151.587 178.473 151.431 178.568 151.267 178.644C151.107 178.716 150.943 178.769 150.776 178.803C150.613 178.836 150.458 178.853 150.313 178.853L152.78 180.983H150.954L148.491 178.853H147.642L148.873 177.671H150.313C150.461 177.659 150.596 177.629 150.717 177.581C150.842 177.529 150.948 177.461 151.035 177.376C151.126 177.291 151.196 177.19 151.244 177.072C151.293 176.951 151.317 176.813 151.317 176.658V175.913C151.317 175.847 151.308 175.797 151.29 175.763C151.275 175.727 151.253 175.701 151.226 175.686C151.202 175.668 151.175 175.657 151.144 175.654C151.117 175.651 151.091 175.65 151.067 175.65H147.169V180.983H145.988V175.064C145.988 174.982 146.003 174.905 146.034 174.832C146.064 174.759 146.105 174.696 146.156 174.641C146.211 174.587 146.274 174.544 146.347 174.514C146.42 174.484 146.499 174.469 146.583 174.469H151.067C151.331 174.469 151.553 174.517 151.735 174.614C151.917 174.708 152.064 174.828 152.176 174.973C152.291 175.115 152.372 175.27 152.421 175.436C152.472 175.603 152.498 175.759 152.498 175.904V176.658Z" fill="white"/>
<path d="M144.62 180.433C144.62 180.518 144.605 180.597 144.574 180.669C144.544 180.742 144.502 180.805 144.447 180.86C144.396 180.911 144.334 180.952 144.261 180.983C144.188 181.013 144.11 181.028 144.025 181.028H139.764C139.655 181.028 139.536 181.016 139.409 180.992C139.285 180.964 139.161 180.924 139.037 180.869C138.916 180.815 138.799 180.745 138.687 180.66C138.575 180.572 138.475 180.468 138.387 180.347C138.302 180.222 138.234 180.08 138.183 179.92C138.131 179.756 138.105 179.573 138.105 179.37V176.172C138.105 176.063 138.118 175.946 138.142 175.822C138.169 175.695 138.21 175.571 138.264 175.449C138.319 175.325 138.39 175.207 138.478 175.095C138.566 174.983 138.67 174.885 138.791 174.8C138.916 174.712 139.058 174.642 139.218 174.591C139.379 174.539 139.561 174.514 139.764 174.514L144.39 174.514L143.143 175.695H139.764C139.609 175.695 139.491 175.736 139.409 175.817C139.327 175.899 139.287 176.02 139.287 176.181V179.37C139.287 179.521 139.327 179.64 139.409 179.724C139.494 179.806 139.612 179.847 139.764 179.847H143.439V178.366L140.328 178.395L141.618 177.176H144.025C144.11 177.176 144.188 177.192 144.261 177.226C144.334 177.256 144.396 177.298 144.447 177.353C144.502 177.407 144.544 177.471 144.574 177.544C144.605 177.613 144.62 177.689 144.62 177.771V180.433Z" fill="white"/>
<path d="M371.282 121.927C372.949 120.323 378.006 115.333 381.085 112.292C382.452 110.942 384.648 110.951 386.004 112.315L395.465 121.824C395.667 122.026 396.01 121.883 396.01 121.596V116.279C396.01 116.194 395.976 116.112 395.916 116.052L387.575 107.669C386.931 107.021 386.058 106.658 385.147 106.658H381.716C380.793 106.658 379.907 107.027 379.253 107.684L370.906 116.073C370.848 116.132 370.814 116.212 370.813 116.296L370.742 121.691C370.739 121.976 371.077 122.124 371.282 121.927Z" fill="white"/>
<path d="M264.409 147.785H259.67V141.369H243.011V147.785H238.272V134.717C238.272 132.809 238.6 131.053 239.256 129.449C239.912 127.845 240.824 126.466 241.99 125.312C243.156 124.158 244.536 123.258 246.127 122.614C247.719 121.97 249.457 121.648 251.34 121.648H262.021C262.349 121.648 262.659 121.709 262.95 121.831C263.242 121.952 263.497 122.122 263.716 122.341C263.935 122.56 264.105 122.815 264.226 123.107C264.348 123.398 264.409 123.708 264.409 124.036V147.785ZM243.011 136.631H259.67V126.387H251.34C251.194 126.387 250.885 126.412 250.411 126.46C249.949 126.497 249.408 126.6 248.788 126.77C248.181 126.94 247.537 127.201 246.856 127.554C246.176 127.906 245.55 128.392 244.979 129.012C244.408 129.632 243.934 130.409 243.557 131.345C243.193 132.268 243.011 133.392 243.011 134.717V136.631ZM295.539 145.397C295.539 145.738 295.479 146.054 295.357 146.345C295.236 146.637 295.065 146.892 294.847 147.111C294.628 147.317 294.373 147.481 294.081 147.603C293.79 147.724 293.48 147.785 293.152 147.785H282.471C281.462 147.785 280.442 147.676 279.409 147.457C278.376 147.238 277.374 146.904 276.402 146.455C275.442 145.993 274.536 145.41 273.686 144.705C272.835 144 272.088 143.168 271.444 142.208C270.812 141.236 270.314 140.13 269.949 138.891C269.585 137.639 269.403 136.248 269.403 134.717V121.648H274.141V134.717C274.141 136.053 274.324 137.183 274.688 138.107C275.065 139.03 275.539 139.802 276.11 140.422C276.681 141.041 277.307 141.527 277.987 141.88C278.668 142.232 279.312 142.493 279.919 142.664C280.539 142.834 281.08 142.943 281.541 142.992C282.015 143.028 282.325 143.046 282.471 143.046H290.8V121.648H295.539V145.397ZM324.683 126.387H314.24V147.785H309.501V126.387H299.039V121.648H324.683V126.387ZM355.249 137.214C355.249 138.806 354.976 140.27 354.429 141.606C353.882 142.943 353.123 144.097 352.151 145.069C351.179 146.041 350.024 146.801 348.688 147.348C347.363 147.882 345.917 148.15 344.35 148.15H337.934C336.367 148.15 334.915 147.882 333.578 147.348C332.241 146.801 331.087 146.041 330.115 145.069C329.143 144.097 328.377 142.943 327.818 141.606C327.272 140.27 326.998 138.806 326.998 137.214V132.22C326.998 130.64 327.272 129.182 327.818 127.845C328.377 126.497 329.143 125.342 330.115 124.382C331.087 123.41 332.241 122.651 333.578 122.104C334.915 121.557 336.367 121.284 337.934 121.284H344.35C345.917 121.284 347.363 121.557 348.688 122.104C350.024 122.651 351.179 123.41 352.151 124.382C353.123 125.342 353.882 126.497 354.429 127.845C354.976 129.182 355.249 130.64 355.249 132.22V137.214ZM350.51 132.22C350.51 131.284 350.358 130.44 350.055 129.686C349.763 128.921 349.344 128.271 348.797 127.736C348.262 127.189 347.612 126.77 346.847 126.478C346.093 126.175 345.261 126.023 344.35 126.023H337.934C337.011 126.023 336.166 126.175 335.401 126.478C334.647 126.77 333.997 127.189 333.45 127.736C332.904 128.271 332.478 128.921 332.175 129.686C331.883 130.44 331.737 131.284 331.737 132.22V137.214C331.737 138.149 331.883 139 332.175 139.766C332.478 140.519 332.904 141.169 333.45 141.716C333.997 142.25 334.647 142.67 335.401 142.973C336.166 143.265 337.011 143.411 337.934 143.411H344.313C345.237 143.411 346.075 143.265 346.829 142.973C347.594 142.67 348.25 142.25 348.797 141.716C349.344 141.169 349.763 140.519 350.055 139.766C350.358 139 350.51 138.149 350.51 137.214V132.22ZM262.167 180.785H245.07C244.633 180.785 244.159 180.737 243.649 180.639C243.15 180.53 242.652 180.366 242.154 180.147C241.668 179.929 241.2 179.649 240.751 179.309C240.301 178.956 239.9 178.537 239.548 178.051C239.207 177.553 238.934 176.982 238.727 176.338C238.521 175.682 238.418 174.947 238.418 174.132V161.301C238.418 160.864 238.466 160.396 238.563 159.898C238.673 159.387 238.837 158.889 239.056 158.403C239.274 157.905 239.56 157.431 239.912 156.981C240.265 156.532 240.684 156.137 241.17 155.797C241.668 155.444 242.239 155.165 242.883 154.958C243.527 154.752 244.256 154.648 245.07 154.648H262.167V159.387H245.07C244.451 159.387 243.977 159.551 243.649 159.879C243.321 160.207 243.156 160.694 243.156 161.338V174.132C243.156 174.74 243.321 175.214 243.649 175.554C243.989 175.882 244.463 176.046 245.07 176.046H262.167V180.785ZM288.139 170.104H273.175V165.329H288.139V170.104ZM290.272 180.785H273.175C272.519 180.785 271.802 180.67 271.025 180.439C270.247 180.208 269.524 179.831 268.856 179.309C268.2 178.774 267.647 178.088 267.197 177.249C266.76 176.399 266.541 175.36 266.541 174.132V157.036C266.541 156.708 266.602 156.398 266.723 156.107C266.845 155.815 267.009 155.56 267.215 155.341C267.434 155.122 267.689 154.952 267.981 154.831C268.273 154.709 268.588 154.648 268.929 154.648H290.272V159.387H271.28V174.132C271.28 174.752 271.444 175.226 271.772 175.554C272.1 175.882 272.58 176.046 273.212 176.046H290.272V180.785ZM320.983 178.762C320.983 179.102 320.917 179.418 320.783 179.71C320.661 180.001 320.491 180.257 320.273 180.475C320.066 180.682 319.817 180.846 319.525 180.967C319.234 181.089 318.924 181.15 318.596 181.15C318.304 181.15 318.006 181.095 317.703 180.986C317.411 180.876 317.15 180.7 316.919 180.457L299.604 162.376V180.785H294.865V156.672C294.865 156.186 294.999 155.748 295.266 155.359C295.545 154.958 295.898 154.661 296.323 154.466C296.773 154.284 297.234 154.241 297.708 154.339C298.182 154.424 298.589 154.642 298.929 154.995L316.245 173.057V154.648H320.983V178.762ZM350.128 159.387H339.684V180.785H334.945V159.387H324.483V154.648H350.128V159.387ZM375.116 170.104H360.152V165.329H375.116V170.104ZM377.249 180.785H360.152C359.496 180.785 358.779 180.67 358.001 180.439C357.224 180.208 356.501 179.831 355.832 179.309C355.176 178.774 354.623 178.088 354.174 177.249C353.736 176.399 353.518 175.36 353.518 174.132V157.036C353.518 156.708 353.578 156.398 353.7 156.107C353.821 155.815 353.986 155.56 354.192 155.341C354.411 155.122 354.666 154.952 354.958 154.831C355.249 154.709 355.565 154.648 355.905 154.648H377.249V159.387H358.257V174.132C358.257 174.752 358.421 175.226 358.749 175.554C359.077 175.882 359.557 176.046 360.189 176.046H377.249V180.785ZM407.96 163.434C407.96 164.515 407.826 165.481 407.559 166.332C407.292 167.182 406.927 167.936 406.466 168.592C406.016 169.236 405.493 169.789 404.898 170.25C404.303 170.712 403.677 171.095 403.021 171.399C402.377 171.69 401.721 171.903 401.052 172.036C400.396 172.17 399.776 172.237 399.193 172.237L409.09 180.785H401.763L391.884 172.237H388.476V167.498H399.193C399.789 167.449 400.329 167.328 400.815 167.134C401.314 166.927 401.739 166.654 402.091 166.313C402.456 165.973 402.735 165.566 402.93 165.092C403.124 164.606 403.221 164.053 403.221 163.434V160.444C403.221 160.177 403.185 159.977 403.112 159.843C403.051 159.697 402.966 159.594 402.857 159.533C402.76 159.46 402.65 159.418 402.529 159.406C402.419 159.393 402.316 159.387 402.219 159.387H386.581V180.785H381.842V157.036C381.842 156.708 381.902 156.398 382.024 156.107C382.145 155.815 382.309 155.56 382.516 155.341C382.735 155.122 382.99 154.952 383.282 154.831C383.573 154.709 383.889 154.648 384.229 154.648H402.219C403.276 154.648 404.169 154.843 404.898 155.232C405.627 155.608 406.216 156.088 406.666 156.672C407.128 157.243 407.456 157.862 407.65 158.531C407.857 159.199 407.96 159.825 407.96 160.408V163.434Z" fill="white"/>
<g opacity="0.3">
<path d="M794.27 497.64C799.121 502.7 814.211 518.057 823.407 527.404C827.492 531.556 827.464 538.224 823.339 542.341L794.584 571.069C793.971 571.681 794.406 572.723 795.271 572.723L811.351 572.723C811.608 572.723 811.857 572.62 812.039 572.438L837.39 547.112C839.348 545.155 840.445 542.504 840.445 539.74L840.445 529.322C840.445 526.518 839.331 523.828 837.343 521.842L811.975 496.498C811.796 496.32 811.554 496.217 811.301 496.214L794.986 496C794.124 495.989 793.675 497.018 794.27 497.64Z" fill="white"/>
<path d="M824.442 497.64C829.293 502.7 844.383 518.057 853.579 527.404C857.664 531.556 857.635 538.224 853.511 542.341L824.756 571.069C824.143 571.681 824.577 572.723 825.443 572.723L841.523 572.723C841.78 572.723 842.029 572.62 842.211 572.438L867.561 547.112C869.52 545.155 870.617 542.504 870.617 539.74L870.617 529.322C870.617 526.518 869.502 523.828 867.515 521.842L842.146 496.498C841.968 496.32 841.726 496.217 841.473 496.214L825.158 496C824.296 495.989 823.847 497.018 824.442 497.64Z" fill="white"/>
<path d="M854.825 497.64C859.676 502.7 874.766 518.057 883.962 527.404C888.047 531.556 888.018 538.224 883.894 542.341L855.138 571.069C854.526 571.681 854.96 572.723 855.826 572.723L871.906 572.723C872.162 572.723 872.412 572.62 872.593 572.438L897.944 547.112C899.903 545.155 901 542.504 901 539.74L901 529.322C901 526.518 899.885 523.828 897.898 521.842L872.529 496.498C872.351 496.32 872.109 496.217 871.856 496.214L855.541 496C854.679 495.989 854.23 497.018 854.825 497.64Z" fill="white"/>
</g>
<path d="M732.394 122.384C730.623 122.384 728.991 122.107 727.498 121.552C726.026 120.976 724.735 120.165 723.626 119.12C722.538 118.075 721.685 116.848 721.066 115.44C720.469 114.032 720.17 112.485 720.17 110.8C720.17 109.115 720.469 107.568 721.066 106.16C721.685 104.752 722.549 103.525 723.658 102.48C724.767 101.435 726.069 100.635 727.562 100.08C729.055 99.504 730.698 99.216 732.49 99.216C734.474 99.216 736.255 99.5467 737.834 100.208C739.434 100.869 740.778 101.829 741.866 103.088L738.538 106.16C737.727 105.307 736.842 104.677 735.882 104.272C734.922 103.845 733.877 103.632 732.746 103.632C731.658 103.632 730.666 103.803 729.77 104.144C728.874 104.485 728.095 104.976 727.434 105.616C726.794 106.256 726.293 107.013 725.93 107.888C725.589 108.763 725.418 109.733 725.418 110.8C725.418 111.845 725.589 112.805 725.93 113.68C726.293 114.555 726.794 115.323 727.434 115.984C728.095 116.624 728.863 117.115 729.738 117.456C730.634 117.797 731.615 117.968 732.682 117.968C733.706 117.968 734.698 117.808 735.658 117.488C736.639 117.147 737.589 116.581 738.506 115.792L741.45 119.536C740.234 120.453 738.815 121.157 737.194 121.648C735.594 122.139 733.994 122.384 732.394 122.384ZM736.714 118.864V110.448H741.45V119.536L736.714 118.864ZM746.265 122V99.6H751.449V122H746.265ZM761.565 109.68H772.317V113.84H761.565V109.68ZM761.949 122H756.765V99.6H773.693V103.76H761.949V122ZM781.999 122V103.824H774.831V99.6H794.351V103.824H787.183V122H781.999ZM816.923 122.384C815.195 122.384 813.584 122.107 812.091 121.552C810.619 120.976 809.339 120.165 808.251 119.12C807.163 118.075 806.31 116.848 805.691 115.44C805.094 114.032 804.795 112.485 804.795 110.8C804.795 109.115 805.094 107.568 805.691 106.16C806.31 104.752 807.163 103.525 808.251 102.48C809.36 101.435 810.651 100.635 812.123 100.08C813.595 99.504 815.206 99.216 816.955 99.216C818.896 99.216 820.646 99.5573 822.203 100.24C823.782 100.901 825.104 101.883 826.171 103.184L822.843 106.256C822.075 105.381 821.222 104.731 820.283 104.304C819.344 103.856 818.32 103.632 817.211 103.632C816.166 103.632 815.206 103.803 814.331 104.144C813.456 104.485 812.699 104.976 812.059 105.616C811.419 106.256 810.918 107.013 810.555 107.888C810.214 108.763 810.043 109.733 810.043 110.8C810.043 111.867 810.214 112.837 810.555 113.712C810.918 114.587 811.419 115.344 812.059 115.984C812.699 116.624 813.456 117.115 814.331 117.456C815.206 117.797 816.166 117.968 817.211 117.968C818.32 117.968 819.344 117.755 820.283 117.328C821.222 116.88 822.075 116.208 822.843 115.312L826.171 118.384C825.104 119.685 823.782 120.677 822.203 121.36C820.646 122.043 818.886 122.384 816.923 122.384ZM826.321 122L836.305 99.6H841.425L851.441 122H846.001L837.809 102.224H839.857L831.633 122H826.321ZM831.313 117.2L832.689 113.264H844.209L845.617 117.2H831.313ZM853.765 122V99.6H863.461C865.467 99.6 867.195 99.9307 868.645 100.592C870.096 101.232 871.216 102.16 872.005 103.376C872.795 104.592 873.189 106.043 873.189 107.728C873.189 109.392 872.795 110.832 872.005 112.048C871.216 113.243 870.096 114.16 868.645 114.8C867.195 115.44 865.467 115.76 863.461 115.76H856.645L858.949 113.488V122H853.765ZM868.005 122L862.405 113.872H867.941L873.605 122H868.005ZM858.949 114.064L856.645 111.632H863.173C864.773 111.632 865.968 111.291 866.757 110.608C867.547 109.904 867.941 108.944 867.941 107.728C867.941 106.491 867.547 105.531 866.757 104.848C865.968 104.165 864.773 103.824 863.173 103.824H856.645L858.949 101.36V114.064ZM877.297 122V99.6H887.473C889.905 99.6 892.049 100.069 893.905 101.008C895.761 101.925 897.211 103.216 898.257 104.88C899.302 106.544 899.825 108.517 899.825 110.8C899.825 113.061 899.302 115.035 898.257 116.72C897.211 118.384 895.761 119.685 893.905 120.624C892.049 121.541 889.905 122 887.473 122H877.297ZM882.481 117.744H887.217C888.71 117.744 890.001 117.467 891.089 116.912C892.198 116.336 893.051 115.525 893.649 114.48C894.267 113.435 894.577 112.208 894.577 110.8C894.577 109.371 894.267 108.144 893.649 107.12C893.051 106.075 892.198 105.275 891.089 104.72C890.001 104.144 888.71 103.856 887.217 103.856H882.481V117.744Z" fill="white"/>
<defs>
<linearGradient id="paint0_linear_571_29392" x1="117" y1="525.5" x2="722" y2="525.5" gradientUnits="userSpaceOnUse">
<stop stop-color="white"/>
<stop offset="1" stop-color="white" stop-opacity="0.2"/>
</linearGradient>
<linearGradient id="paint1_linear_571_29392" x1="174.073" y1="106.209" x2="174.073" y2="208.683" gradientUnits="userSpaceOnUse">
<stop stop-color="#E20D01"/>
<stop offset="1" stop-color="#580702"/>
</linearGradient>
</defs>
</svg>
