<svg width="1595" height="1014" viewBox="0 0 1595 1014" fill="none" xmlns="http://www.w3.org/2000/svg">
<rect width="1595" height="1014" fill="#1A1A1A"/>
<circle cx="797.995" cy="384.288" r="73.2881" fill="#E7E7E7"/>
<circle cx="797.759" cy="384.052" r="65.5788" fill="url(#paint0_linear_571_29457)"/>
<path d="M811.807 344.63C811.788 344.61 811.772 344.591 811.755 344.569C811.412 344.107 807.121 338.59 797.96 338.59C792.073 338.59 786.238 339.873 782.254 343.599C782.234 343.617 776.528 349.377 776.507 349.398L771.051 355.004L761.543 365.327C761.099 365.809 761.68 366.54 762.251 366.215L774.158 359.43L789.617 350.622C789.89 350.466 790.237 350.559 790.397 350.829L797.65 363.129C797.818 363.413 798.188 363.498 798.463 363.316L806.907 357.728C807.042 357.638 807.21 357.61 807.367 357.65L818.699 360.562L827.87 362.917C828.43 363.061 828.828 362.38 828.428 361.963L811.807 344.63Z" fill="white"/>
<path d="M844.014 387.653H844.077C843.687 385.796 842.748 384.338 841.26 383.279C839.244 381.846 836.299 381.129 832.423 381.129H830.969C830.541 381.113 830.121 381.106 829.715 381.106H812.177C811.009 381.106 810.14 380.936 809.571 380.596C809.002 380.256 808.718 379.664 808.718 378.818C808.718 377.972 809.002 377.39 809.571 377.065C810.14 376.741 811.009 376.578 812.177 376.578H839.954C840.242 376.578 840.387 376.231 840.188 376.027L839.639 375.464L832.491 368.316C832.357 368.183 832.174 368.105 831.983 368.105H812.957C810.49 368.105 808.371 368.35 806.603 368.836C804.834 369.323 803.389 370.006 802.269 370.881C801.149 371.759 800.321 372.822 799.786 374.072C799.251 375.321 798.983 376.712 798.983 378.235C798.983 379.632 799.228 380.907 799.713 382.059C800.201 383.211 800.947 384.195 801.954 385.005C802.961 385.817 804.226 386.449 805.752 386.903C807.278 387.359 809.095 387.585 811.206 387.585H831.072C832.273 387.585 833.149 387.765 833.702 388.121C834.253 388.479 834.53 389.078 834.53 389.921C834.53 390.765 834.253 391.375 833.702 391.747C833.151 392.121 832.273 392.307 831.072 392.307H806.641C806.451 392.307 806.269 392.382 806.133 392.518L799.192 399.459C798.74 399.911 799.06 400.684 799.7 400.684H830.291C832.759 400.684 834.877 400.441 836.646 399.954C838.414 399.466 839.868 398.77 841.004 397.86C842.14 396.951 842.968 395.833 843.487 394.5C844.007 393.169 844.265 391.676 844.265 390.019C844.265 389.168 844.181 388.381 844.014 387.653Z" fill="white"/>
<path d="M793.818 376.604C793.811 376.704 771.492 376.471 771.492 376.471C770.113 376.471 768.841 376.672 767.662 377.063C767.639 377.069 767.617 377.078 767.594 377.085C766.446 377.466 765.158 378.162 764.317 378.861C763.467 379.562 762.804 380.387 762.324 381.33C761.845 382.278 761.605 383.324 761.605 384.476C761.605 385.628 761.838 386.673 762.301 387.617C762.326 387.666 762.351 387.714 762.376 387.759C762.832 388.642 763.467 389.41 764.272 390.043C764.512 390.234 764.771 390.413 765.036 390.578C765.7 390.998 766.451 391.336 767.27 391.601C768.419 391.971 769.683 392.157 771.061 392.157H788.054C788.153 392.157 788.233 392.077 788.233 391.977V387.741C788.233 387.642 788.153 387.562 788.054 387.562H772.177C772.016 387.562 771.937 387.365 772.052 387.254L778.642 380.909C778.676 380.877 778.719 380.859 778.767 380.859H791.115C794.079 380.859 796.48 382.75 796.48 385.712V392.152V392.197L787.589 400.35C787.555 400.382 787.509 400.4 787.464 400.4H771.061C768.272 400.4 765.698 399.987 763.335 399.15C760.965 398.318 758.927 397.18 757.217 395.721C755.505 394.268 754.162 392.538 753.192 390.537C752.214 388.544 751.727 386.383 751.727 384.043C751.727 381.922 752.128 379.974 752.931 378.183H752.879C752.983 377.945 753.092 377.709 753.21 377.475C754.205 375.498 755.577 373.797 757.328 372.373C759.079 370.949 761.163 369.853 763.589 369.085C766.009 368.309 768.642 367.926 771.494 367.926H788.809L793.818 376.6V376.604Z" fill="white"/>
<path d="M804.262 412.727H803.781L802.234 414.215H803.41L804.955 412.727H804.262Z" fill="white"/>
<path d="M760.609 405.893H760.129L758.582 407.381H759.758L761.303 405.893H760.609Z" fill="white"/>
<path d="M813.605 405.893H813.125L811.578 407.381H812.754L814.299 405.893H813.605Z" fill="white"/>
<path d="M833.125 405.893H832.645L831.098 407.381H832.274L833.818 405.893H833.125Z" fill="white"/>
<path d="M844.203 414.174H842.691V407.313L844.203 405.836V414.174Z" fill="white"/>
<path d="M844.203 405.125L842.691 406.603V405.596L844.203 404.119V405.125Z" fill="white"/>
<path d="M841.115 414.174H839.603V412.127H834.289V414.174H832.777V410.005C832.777 409.396 832.882 408.836 833.091 408.325C833.301 407.813 833.591 407.373 833.963 407.005C834.336 406.636 834.776 406.35 835.283 406.144C835.791 405.939 836.345 405.836 836.946 405.836H840.354C840.458 405.836 840.557 405.855 840.65 405.894C840.743 405.933 840.825 405.987 840.894 406.057C840.964 406.127 841.018 406.208 841.057 406.301C841.096 406.394 841.115 406.493 841.115 406.598V414.174ZM834.289 410.615H839.603V407.348H836.946C836.9 407.348 836.801 407.355 836.65 407.371C836.502 407.383 836.33 407.416 836.132 407.47C835.938 407.524 835.733 407.607 835.516 407.72C835.299 407.832 835.099 407.987 834.917 408.185C834.735 408.383 834.584 408.631 834.464 408.929C834.347 409.224 834.289 409.582 834.289 410.005V410.615Z" fill="white"/>
<path d="M830.567 407.348H828.779V414.174H827.267V407.348H823.93L825.54 405.836H832.111L830.567 407.348Z" fill="white"/>
<path d="M822.811 413.412C822.811 413.521 822.791 413.621 822.752 413.714C822.714 413.808 822.659 413.889 822.59 413.959C822.52 414.025 822.438 414.077 822.345 414.116C822.252 414.154 822.154 414.174 822.049 414.174H818.642C818.32 414.174 817.994 414.139 817.665 414.069C817.335 413.999 817.016 413.893 816.705 413.749C816.399 413.602 816.11 413.416 815.839 413.191C815.568 412.966 815.329 412.701 815.124 412.395C814.922 412.085 814.763 411.732 814.647 411.336C814.531 410.937 814.473 410.493 814.473 410.005V407.313L815.984 405.836V410.005C815.984 410.431 816.043 410.792 816.159 411.086C816.279 411.381 816.43 411.627 816.612 411.825C816.795 412.022 816.994 412.178 817.211 412.29C817.428 412.402 817.634 412.486 817.828 412.54C818.025 412.594 818.198 412.629 818.345 412.645C818.496 412.656 818.595 412.662 818.642 412.662H821.299V407.313L822.811 405.836V413.412Z" fill="white"/>
<path d="M813.406 411.777C813.406 412.075 813.367 412.345 813.289 412.585C813.216 412.821 813.117 413.031 812.993 413.213C812.869 413.395 812.723 413.55 812.557 413.678C812.39 413.806 812.218 413.911 812.039 413.992C811.861 414.073 811.679 414.134 811.493 414.172C811.343 414.172 811.154 414.172 810.991 414.172H803.891L805.428 412.719H810.975C811.266 412.719 811.491 412.633 811.65 412.463C811.812 412.292 811.894 412.064 811.894 411.777C811.894 411.637 811.873 411.509 811.83 411.393C811.787 411.277 811.725 411.176 811.644 411.091C811.566 411.005 811.469 410.94 811.353 410.893C811.241 410.846 811.115 410.823 810.975 410.823H807.498C807.254 410.823 806.99 410.781 806.707 410.695C806.424 410.606 806.161 410.465 805.917 410.271C805.676 410.077 805.475 409.823 805.312 409.509C805.153 409.195 805.074 408.811 805.074 408.358C805.074 407.904 805.153 407.523 805.312 407.212C805.475 406.898 805.676 406.645 805.917 406.451C806.161 406.253 806.424 406.112 806.707 406.026C806.99 405.937 807.254 405.893 807.498 405.893H812.585L810.991 407.404H807.498C807.211 407.404 806.987 407.492 806.824 407.666C806.665 407.84 806.585 408.071 806.585 408.358C806.585 408.649 806.665 408.879 806.824 409.05C806.987 409.216 807.211 409.3 807.498 409.3H810.975H810.987C811.15 409.304 811.322 409.327 811.504 409.37C811.687 409.408 811.867 409.47 812.045 409.556C812.227 409.641 812.4 409.749 812.563 409.881C812.725 410.009 812.869 410.164 812.993 410.346C813.121 410.529 813.222 410.738 813.295 410.974C813.369 411.211 813.406 411.478 813.406 411.777Z" fill="white"/>
<path d="M800.02 410.685C800.02 411.193 799.93 411.66 799.752 412.086C799.578 412.513 799.335 412.881 799.025 413.191C798.715 413.497 798.347 413.738 797.921 413.912C797.494 414.087 797.031 414.174 796.531 414.174H792.449C792.341 414.174 792.24 414.154 792.147 414.116C792.054 414.077 791.972 414.025 791.903 413.959C791.837 413.889 791.784 413.808 791.746 413.714C791.707 413.621 791.688 413.521 791.688 413.412V406.598C791.688 406.493 791.707 406.394 791.746 406.301C791.784 406.208 791.837 406.127 791.903 406.057C791.972 405.987 792.054 405.933 792.147 405.894C792.24 405.855 792.341 405.836 792.449 405.836H796.531C797.031 405.836 797.494 405.923 797.921 406.098C798.347 406.272 798.715 406.514 799.025 406.824C799.335 407.131 799.578 407.499 799.752 407.929C799.93 408.356 800.02 408.821 800.02 409.325V410.685ZM798.508 409.325C798.508 409.03 798.459 408.761 798.362 408.516C798.269 408.272 798.136 408.065 797.961 407.894C797.787 407.72 797.578 407.586 797.333 407.493C797.093 407.396 796.826 407.348 796.531 407.348H793.199V412.662H796.531C796.826 412.662 797.093 412.616 797.333 412.523C797.578 412.426 797.787 412.292 797.961 412.121C798.136 411.947 798.269 411.74 798.362 411.499C798.459 411.255 798.508 410.984 798.508 410.685V409.325Z" fill="white"/>
<path d="M789.933 413.535C789.933 413.643 789.912 413.744 789.869 413.836C789.831 413.928 789.777 414.009 789.708 414.079C789.642 414.144 789.563 414.196 789.471 414.235C789.378 414.273 789.28 414.293 789.176 414.293C789.083 414.293 788.989 414.275 788.893 414.241C788.8 414.206 788.717 414.15 788.644 414.073L783.155 408.34V414.177H781.652V406.531C781.652 406.377 781.695 406.238 781.779 406.115C781.868 405.988 781.98 405.894 782.115 405.832C782.257 405.774 782.404 405.761 782.554 405.791C782.704 405.818 782.833 405.888 782.941 406L788.431 411.727V407.313L789.933 405.89V413.535Z" fill="white"/>
<path d="M779.842 414.174H778.33V412.127H773.016V414.174H771.504V410.005C771.504 409.396 771.609 408.836 771.818 408.325C772.027 407.813 772.318 407.373 772.69 407.005C773.062 406.636 773.502 406.35 774.01 406.144C774.518 405.939 775.072 405.836 775.673 405.836H779.08C779.185 405.836 779.284 405.855 779.377 405.894C779.47 405.933 779.551 405.987 779.621 406.057C779.691 406.127 779.745 406.208 779.784 406.301C779.822 406.394 779.842 406.493 779.842 406.598V414.174ZM773.016 410.615H778.33V407.348H775.673C775.626 407.348 775.527 407.355 775.376 407.371C775.229 407.383 775.057 407.416 774.859 407.47C774.665 407.524 774.46 407.607 774.243 407.72C774.025 407.832 773.826 407.987 773.644 408.185C773.461 408.383 773.31 408.631 773.19 408.929C773.074 409.224 773.016 409.582 773.016 410.005V410.615Z" fill="white"/>
<path d="M770.145 408.638C770.145 408.983 770.102 409.292 770.017 409.563C769.931 409.834 769.815 410.075 769.668 410.284C769.524 410.489 769.358 410.666 769.168 410.813C768.978 410.96 768.778 411.082 768.569 411.179C768.363 411.272 768.154 411.34 767.941 411.383C767.732 411.426 767.534 411.447 767.348 411.447L770.505 414.174H768.168L765.016 411.447H763.929L765.504 409.935H767.348C767.538 409.92 767.71 409.881 767.865 409.819C768.024 409.753 768.16 409.666 768.272 409.557C768.389 409.449 768.478 409.319 768.54 409.168C768.602 409.013 768.633 408.836 768.633 408.638V407.685C768.633 407.6 768.621 407.536 768.598 407.493C768.579 407.447 768.551 407.414 768.517 407.394C768.486 407.371 768.451 407.357 768.412 407.354C768.377 407.35 768.344 407.348 768.313 407.348H763.324V414.174H761.812V406.598C761.812 406.493 761.832 406.394 761.871 406.301C761.909 406.208 761.962 406.127 762.028 406.057C762.097 405.987 762.179 405.933 762.272 405.894C762.365 405.855 762.466 405.836 762.574 405.836H768.313C768.65 405.836 768.935 405.898 769.168 406.022C769.4 406.142 769.588 406.295 769.732 406.481C769.879 406.664 769.984 406.861 770.046 407.074C770.112 407.288 770.145 407.487 770.145 407.673V408.638Z" fill="white"/>
<path d="M760.061 413.469C760.061 413.577 760.041 413.678 760.002 413.771C759.964 413.864 759.909 413.946 759.84 414.015C759.774 414.081 759.694 414.134 759.601 414.172C759.508 414.211 759.407 414.23 759.299 414.23H753.845C753.705 414.23 753.554 414.215 753.391 414.184C753.232 414.149 753.074 414.097 752.915 414.027C752.76 413.957 752.61 413.868 752.467 413.76C752.323 413.647 752.196 413.513 752.083 413.358C751.975 413.199 751.887 413.017 751.822 412.812C751.756 412.602 751.723 412.368 751.723 412.108V408.015C751.723 407.875 751.738 407.726 751.769 407.567C751.804 407.404 751.856 407.245 751.926 407.09C751.996 406.931 752.087 406.78 752.199 406.637C752.312 406.493 752.446 406.367 752.601 406.259C752.76 406.146 752.942 406.057 753.147 405.991C753.353 405.926 753.585 405.893 753.845 405.893L759.767 405.893L758.17 407.404H753.845C753.647 407.404 753.496 407.457 753.391 407.561C753.287 407.666 753.234 407.821 753.234 408.026V412.108C753.234 412.302 753.287 412.453 753.391 412.562C753.5 412.666 753.651 412.719 753.845 412.719H758.549V410.823L754.568 410.861L756.218 409.3H759.299C759.407 409.3 759.508 409.321 759.601 409.364C759.694 409.403 759.774 409.457 759.84 409.527C759.909 409.596 759.964 409.678 760.002 409.771C760.041 409.86 760.061 409.957 760.061 410.062V413.469Z" fill="white"/>
<path d="M876.108 497.995C878.575 495.62 886.06 488.235 890.616 483.734C892.641 481.734 895.891 481.748 897.897 483.767L911.901 497.841C912.199 498.141 912.708 497.928 912.708 497.505V489.634C912.708 489.509 912.657 489.387 912.569 489.298L900.223 476.89C899.269 475.931 897.977 475.395 896.63 475.395H891.551C890.185 475.395 888.873 475.94 887.906 476.913L875.551 489.329C875.465 489.416 875.414 489.535 875.413 489.659L875.309 497.644C875.303 498.066 875.805 498.286 876.108 497.995Z" fill="white"/>
<path d="M716.401 511.072H709.826V502.17H686.711V511.072H680.136V492.94C680.136 490.293 680.591 487.857 681.502 485.631C682.412 483.406 683.676 481.492 685.295 479.89C686.913 478.289 688.827 477.041 691.036 476.148C693.244 475.254 695.655 474.807 698.268 474.807H713.088C713.543 474.807 713.973 474.892 714.378 475.06C714.782 475.229 715.136 475.465 715.44 475.768C715.743 476.072 715.979 476.426 716.148 476.83C716.317 477.235 716.401 477.665 716.401 478.12V511.072ZM686.711 495.595H709.826V481.383H698.268C698.066 481.383 697.636 481.416 696.979 481.484C696.338 481.534 695.588 481.678 694.728 481.914C693.885 482.15 692.991 482.512 692.047 483.001C691.103 483.49 690.235 484.164 689.442 485.024C688.65 485.884 687.992 486.963 687.47 488.261C686.964 489.543 686.711 491.102 686.711 492.94V495.595ZM759.595 507.759C759.595 508.231 759.511 508.67 759.342 509.074C759.174 509.479 758.938 509.833 758.634 510.137C758.331 510.423 757.977 510.651 757.572 510.819C757.167 510.988 756.737 511.072 756.282 511.072H741.463C740.063 511.072 738.647 510.921 737.214 510.617C735.781 510.314 734.39 509.85 733.041 509.226C731.709 508.585 730.453 507.776 729.273 506.798C728.093 505.821 727.056 504.666 726.163 503.334C725.286 501.985 724.595 500.451 724.089 498.731C723.583 496.994 723.33 495.064 723.33 492.94V474.807H729.905V492.94C729.905 494.794 730.158 496.362 730.664 497.644C731.187 498.925 731.844 499.996 732.637 500.855C733.429 501.715 734.297 502.39 735.241 502.879C736.186 503.367 737.079 503.73 737.922 503.966C738.782 504.202 739.532 504.354 740.173 504.421C740.83 504.472 741.26 504.497 741.463 504.497H753.02V474.807H759.595V507.759ZM800.033 481.383H785.542V511.072H778.967V481.383H764.451V474.807H800.033V481.383ZM842.443 496.404C842.443 498.613 842.064 500.645 841.305 502.499C840.547 504.354 839.493 505.955 838.144 507.304C836.795 508.653 835.194 509.707 833.339 510.465C831.501 511.207 829.495 511.578 827.32 511.578H818.418C816.243 511.578 814.229 511.207 812.374 510.465C810.52 509.707 808.918 508.653 807.569 507.304C806.22 505.955 805.158 504.354 804.383 502.499C803.624 500.645 803.245 498.613 803.245 496.404V489.475C803.245 487.283 803.624 485.26 804.383 483.406C805.158 481.534 806.22 479.933 807.569 478.601C808.918 477.252 810.52 476.198 812.374 475.44C814.229 474.681 816.243 474.301 818.418 474.301H827.32C829.495 474.301 831.501 474.681 833.339 475.44C835.194 476.198 836.795 477.252 838.144 478.601C839.493 479.933 840.547 481.534 841.305 483.406C842.064 485.26 842.443 487.283 842.443 489.475V496.404ZM835.868 489.475C835.868 488.177 835.657 487.005 835.236 485.96C834.831 484.898 834.249 483.996 833.491 483.254C832.749 482.495 831.847 481.914 830.785 481.509C829.74 481.087 828.585 480.877 827.32 480.877H818.418C817.137 480.877 815.965 481.087 814.903 481.509C813.858 481.914 812.956 482.495 812.197 483.254C811.438 483.996 810.848 484.898 810.427 485.96C810.022 487.005 809.82 488.177 809.82 489.475V496.404C809.82 497.703 810.022 498.883 810.427 499.945C810.848 500.99 811.438 501.892 812.197 502.651C812.956 503.393 813.858 503.974 814.903 504.396C815.965 504.8 817.137 505.003 818.418 505.003H827.27C828.551 505.003 829.714 504.8 830.76 504.396C831.822 503.974 832.732 503.393 833.491 502.651C834.249 501.892 834.831 500.99 835.236 499.945C835.657 498.883 835.868 497.703 835.868 496.404V489.475ZM713.29 557.072H689.569C688.962 557.072 688.304 557.005 687.596 556.87C686.905 556.718 686.214 556.491 685.523 556.187C684.848 555.884 684.199 555.496 683.575 555.024C682.951 554.535 682.395 553.953 681.906 553.279C681.434 552.588 681.055 551.795 680.768 550.902C680.482 549.991 680.338 548.971 680.338 547.842V530.038C680.338 529.431 680.406 528.782 680.541 528.091C680.692 527.383 680.92 526.691 681.223 526.017C681.527 525.326 681.923 524.668 682.412 524.044C682.901 523.421 683.483 522.873 684.157 522.4C684.848 521.912 685.641 521.524 686.534 521.237C687.428 520.951 688.439 520.807 689.569 520.807H713.29V527.383H689.569C688.709 527.383 688.051 527.61 687.596 528.065C687.141 528.521 686.913 529.195 686.913 530.088V547.842C686.913 548.685 687.141 549.342 687.596 549.814C688.068 550.269 688.726 550.497 689.569 550.497H713.29V557.072ZM749.328 542.253H728.565V535.627H749.328V542.253ZM752.287 557.072H728.565C727.655 557.072 726.66 556.912 725.581 556.592C724.502 556.271 723.499 555.749 722.571 555.024C721.661 554.282 720.894 553.329 720.27 552.166C719.663 550.986 719.36 549.544 719.36 547.842V524.12C719.36 523.665 719.444 523.235 719.613 522.83C719.781 522.426 720.009 522.072 720.295 521.768C720.599 521.465 720.953 521.229 721.358 521.06C721.762 520.892 722.201 520.807 722.673 520.807H752.287V527.383H725.935V547.842C725.935 548.701 726.163 549.359 726.618 549.814C727.073 550.269 727.739 550.497 728.616 550.497H752.287V557.072ZM794.899 554.265C794.899 554.737 794.806 555.176 794.621 555.58C794.452 555.985 794.216 556.339 793.913 556.642C793.626 556.929 793.281 557.157 792.876 557.325C792.471 557.494 792.041 557.578 791.586 557.578C791.182 557.578 790.769 557.502 790.347 557.35C789.942 557.199 789.58 556.954 789.26 556.617L765.235 531.53V557.072H758.659V523.614C758.659 522.94 758.845 522.333 759.216 521.794C759.604 521.237 760.093 520.824 760.683 520.554C761.306 520.301 761.947 520.242 762.605 520.377C763.262 520.495 763.827 520.799 764.299 521.288L788.324 546.35V520.807H794.899V554.265ZM835.337 527.383H820.846V557.072H814.271V527.383H799.755V520.807H835.337V527.383ZM870.009 542.253H849.246V535.627H870.009V542.253ZM872.968 557.072H849.246C848.336 557.072 847.341 556.912 846.262 556.592C845.183 556.271 844.18 555.749 843.253 555.024C842.342 554.282 841.575 553.329 840.951 552.166C840.344 550.986 840.041 549.544 840.041 547.842V524.12C840.041 523.665 840.125 523.235 840.294 522.83C840.462 522.426 840.69 522.072 840.976 521.768C841.28 521.465 841.634 521.229 842.039 521.06C842.443 520.892 842.882 520.807 843.354 520.807H872.968V527.383H846.616V547.842C846.616 548.701 846.844 549.359 847.299 549.814C847.754 550.269 848.42 550.497 849.297 550.497H872.968V557.072ZM915.58 532.997C915.58 534.497 915.395 535.838 915.024 537.018C914.653 538.198 914.147 539.243 913.506 540.154C912.883 541.047 912.158 541.814 911.332 542.455C910.505 543.096 909.637 543.627 908.727 544.048C907.833 544.453 906.923 544.748 905.996 544.933C905.085 545.119 904.225 545.212 903.416 545.212L917.148 557.072H906.982L893.275 545.212H888.546V538.636H903.416C904.242 538.569 904.992 538.4 905.667 538.131C906.358 537.844 906.948 537.465 907.437 536.992C907.943 536.52 908.331 535.956 908.6 535.298C908.87 534.624 909.005 533.857 909.005 532.997V528.849C909.005 528.478 908.954 528.2 908.853 528.015C908.769 527.812 908.651 527.669 908.499 527.585C908.364 527.484 908.213 527.425 908.044 527.408C907.892 527.391 907.749 527.383 907.614 527.383H885.916V557.072H879.34V524.12C879.34 523.665 879.425 523.235 879.593 522.83C879.762 522.426 879.99 522.072 880.276 521.768C880.58 521.465 880.934 521.229 881.338 521.06C881.743 520.892 882.181 520.807 882.653 520.807H907.614C909.081 520.807 910.32 521.077 911.332 521.617C912.343 522.139 913.161 522.805 913.785 523.614C914.425 524.407 914.881 525.267 915.15 526.194C915.437 527.121 915.58 527.989 915.58 528.799V532.997Z" fill="white"/>
<path d="M519.442 810V793.2H531.418V794.28H520.666V800.328H526.354C528.322 800.328 529.818 800.728 530.842 801.528C531.866 802.328 532.378 803.504 532.378 805.056C532.378 806.672 531.834 807.904 530.746 808.752C529.674 809.584 528.098 810 526.018 810H519.442ZM520.666 808.968H526.042C527.722 808.968 528.994 808.648 529.858 808.008C530.722 807.352 531.154 806.384 531.154 805.104C531.154 802.592 529.45 801.336 526.042 801.336H520.666V808.968ZM536.786 810V793.2H538.01V807.936L549.458 793.2H550.538V810H549.314V795.288L537.866 810H536.786ZM567.422 809.4V794.304H558.83L558.686 798.816C558.638 800.144 558.558 801.416 558.446 802.632C558.334 803.848 558.166 804.944 557.942 805.92C557.718 806.88 557.406 807.656 557.006 808.248C556.622 808.84 556.134 809.16 555.542 809.208L554.126 808.896C554.798 808.944 555.342 808.712 555.758 808.2C556.19 807.688 556.526 806.96 556.766 806.016C557.022 805.072 557.206 803.976 557.318 802.728C557.43 801.48 557.51 800.144 557.558 798.72L557.726 793.2H568.646V809.4H567.422ZM553.502 813.84L553.526 808.896H571.238V813.84H570.062V810H554.702L554.678 813.84H553.502ZM584.581 810V793.92L584.941 794.304H578.533V793.2H591.853V794.304H585.445L585.805 793.92V810H584.581ZM591.71 810L599.438 793.2H600.662L608.39 810H607.07L599.774 793.968H600.302L593.03 810H591.71ZM594.542 805.272L594.95 804.24H605.006L605.414 805.272H594.542ZM624.335 793.2H625.559V810H624.335V793.2ZM613.103 810H611.879V793.2H613.103V810ZM624.479 802.008H612.959V800.928H624.479V802.008ZM638.358 799.344C640.326 799.344 641.83 799.784 642.87 800.664C643.91 801.544 644.43 802.848 644.43 804.576C644.43 806.352 643.878 807.704 642.774 808.632C641.686 809.544 640.11 810 638.046 810H631.614V793.2H632.838V799.344H638.358ZM638.07 808.968C639.75 808.968 641.022 808.6 641.886 807.864C642.75 807.128 643.182 806.04 643.182 804.6C643.182 803.176 642.75 802.12 641.886 801.432C641.038 800.728 639.766 800.376 638.07 800.376H632.838V808.968H638.07ZM647.526 810V793.2H648.75V810H647.526ZM654.794 810V793.2H665.186V794.304H655.658L656.018 793.92V810H654.794ZM672.03 810L679.758 793.2H680.982L688.71 810H687.39L680.094 793.968H680.622L673.35 810H672.03ZM674.862 805.272L675.27 804.24H685.326L685.734 805.272H674.862ZM692.2 810V793.2H693.424V800.904H697.744V802.032H693.424V810H692.2ZM705.448 810.12C704.264 810.12 703.168 809.912 702.16 809.496C701.152 809.064 700.272 808.464 699.52 807.696C698.784 806.928 698.208 806.032 697.792 805.008C697.376 803.968 697.168 802.832 697.168 801.6C697.168 800.368 697.376 799.24 697.792 798.216C698.208 797.176 698.784 796.272 699.52 795.504C700.272 794.736 701.152 794.144 702.16 793.728C703.168 793.296 704.264 793.08 705.448 793.08C706.616 793.08 707.704 793.296 708.712 793.728C709.736 794.144 710.616 794.736 711.352 795.504C712.104 796.272 712.688 797.176 713.104 798.216C713.52 799.24 713.728 800.368 713.728 801.6C713.728 802.832 713.52 803.968 713.104 805.008C712.688 806.032 712.104 806.928 711.352 807.696C710.616 808.464 709.736 809.064 708.712 809.496C707.704 809.912 706.616 810.12 705.448 810.12ZM705.448 808.992C706.44 808.992 707.36 808.808 708.208 808.44C709.072 808.072 709.824 807.56 710.464 806.904C711.104 806.232 711.6 805.448 711.952 804.552C712.304 803.656 712.48 802.672 712.48 801.6C712.48 800.528 712.304 799.544 711.952 798.648C711.6 797.752 711.104 796.976 710.464 796.32C709.824 795.648 709.072 795.128 708.208 794.76C707.36 794.392 706.44 794.208 705.448 794.208C704.456 794.208 703.528 794.392 702.664 794.76C701.816 795.128 701.072 795.648 700.432 796.32C699.808 796.976 699.312 797.752 698.944 798.648C698.592 799.544 698.416 800.528 698.416 801.6C698.416 802.672 698.592 803.656 698.944 804.552C699.312 805.448 699.808 806.232 700.432 806.904C701.072 807.56 701.816 808.072 702.664 808.44C703.528 808.808 704.456 808.992 705.448 808.992ZM717.172 808.752C717.956 809.056 718.716 809.128 719.452 808.968C720.188 808.792 720.884 808.192 721.54 807.168L722.356 805.896L722.5 805.704L729.124 793.2H730.396L722.644 807.456C722.164 808.368 721.596 809.04 720.94 809.472C720.3 809.904 719.62 810.128 718.9 810.144C718.196 810.176 717.492 810.048 716.788 809.76L717.172 808.752ZM722.428 806.88L715.228 793.2H716.572L723.124 805.8L722.428 806.88ZM731.678 810.12C731.486 810.12 731.294 810.104 731.102 810.072C730.926 810.056 730.718 810.024 730.478 809.976L730.622 808.848C730.894 808.912 731.158 808.944 731.414 808.944C732.15 808.944 732.742 808.656 733.19 808.08C733.654 807.504 734.006 806.6 734.246 805.368C734.486 804.12 734.646 802.496 734.726 800.496L734.966 793.2H745.982V810H744.758V793.92L745.118 794.304H735.734L736.094 793.92L735.854 800.472C735.79 802.168 735.67 803.624 735.494 804.84C735.318 806.04 735.062 807.032 734.726 807.816C734.406 808.6 733.99 809.184 733.478 809.568C732.982 809.936 732.382 810.12 731.678 810.12ZM752.036 810V793.2H762.428V794.304H752.9L753.26 793.92V810H752.036ZM769.708 810V803.904L769.996 804.696L762.94 793.2H764.284L770.692 803.64H770.02L776.428 793.2H777.7L770.644 804.696L770.932 803.904V810H769.708ZM780.606 810V793.2H781.83V807.936L793.278 793.2H794.358V810H793.134V795.288L781.686 810H780.606ZM787.422 791.928C786.318 791.928 785.422 791.672 784.734 791.16C784.062 790.632 783.71 789.912 783.678 789H784.662C784.694 789.656 784.958 790.184 785.454 790.584C785.966 790.968 786.622 791.16 787.422 791.16C788.206 791.16 788.854 790.968 789.366 790.584C789.878 790.184 790.142 789.656 790.158 789H791.142C791.126 789.912 790.774 790.632 790.086 791.16C789.398 791.672 788.51 791.928 787.422 791.928ZM804.439 807.84L804.943 806.976C805.695 807.664 806.543 808.176 807.487 808.512C808.431 808.848 809.383 809.024 810.343 809.04C811.303 809.04 812.183 808.896 812.983 808.608C813.799 808.304 814.455 807.864 814.951 807.288C815.447 806.696 815.695 805.984 815.695 805.152C815.695 804.064 815.279 803.232 814.447 802.656C813.615 802.08 812.447 801.792 810.943 801.792H807.487V800.736H810.895C812.175 800.736 813.175 800.464 813.895 799.92C814.615 799.36 814.975 798.592 814.975 797.616C814.975 796.912 814.775 796.312 814.375 795.816C813.991 795.32 813.463 794.936 812.791 794.664C812.135 794.376 811.391 794.216 810.559 794.184C809.727 794.152 808.863 794.256 807.967 794.496C807.087 794.736 806.239 795.12 805.423 795.648L804.967 794.616C805.943 794.024 806.951 793.608 807.991 793.368C809.031 793.112 810.039 793.024 811.015 793.104C812.007 793.184 812.887 793.408 813.655 793.776C814.439 794.144 815.063 794.64 815.527 795.264C815.991 795.888 816.223 796.624 816.223 797.472C816.223 798.288 816.023 799 815.623 799.608C815.223 800.2 814.655 800.664 813.919 801C813.183 801.32 812.319 801.48 811.327 801.48L811.423 801.024C812.559 801.024 813.535 801.2 814.351 801.552C815.183 801.904 815.823 802.4 816.271 803.04C816.719 803.68 816.943 804.432 816.943 805.296C816.943 806.128 816.735 806.864 816.319 807.504C815.919 808.128 815.367 808.648 814.663 809.064C813.975 809.464 813.191 809.76 812.311 809.952C811.447 810.128 810.551 810.168 809.623 810.072C808.695 809.992 807.783 809.768 806.887 809.4C805.991 809.032 805.175 808.512 804.439 807.84ZM828.915 810.12C827.667 810.12 826.507 809.912 825.435 809.496C824.379 809.064 823.451 808.464 822.651 807.696C821.867 806.912 821.259 806.008 820.827 804.984C820.395 803.944 820.179 802.816 820.179 801.6C820.179 800.384 820.395 799.264 820.827 798.24C821.259 797.2 821.867 796.296 822.651 795.528C823.451 794.744 824.379 794.144 825.435 793.728C826.507 793.296 827.667 793.08 828.915 793.08C830.163 793.08 831.315 793.296 832.371 793.728C833.443 794.144 834.371 794.736 835.155 795.504C835.939 796.272 836.547 797.176 836.979 798.216C837.427 799.24 837.651 800.368 837.651 801.6C837.651 802.832 837.427 803.968 836.979 805.008C836.547 806.032 835.939 806.928 835.155 807.696C834.371 808.464 833.443 809.064 832.371 809.496C831.315 809.912 830.163 810.12 828.915 810.12ZM828.915 808.992C829.987 808.992 830.979 808.808 831.891 808.44C832.803 808.072 833.595 807.552 834.267 806.88C834.939 806.208 835.459 805.424 835.827 804.528C836.211 803.632 836.403 802.656 836.403 801.6C836.403 800.528 836.211 799.552 835.827 798.672C835.459 797.776 834.939 796.992 834.267 796.32C833.595 795.648 832.803 795.128 831.891 794.76C830.979 794.392 829.987 794.208 828.915 794.208C827.843 794.208 826.851 794.392 825.939 794.76C825.027 795.128 824.227 795.648 823.539 796.32C822.867 796.992 822.339 797.776 821.955 798.672C821.587 799.552 821.403 800.528 821.403 801.6C821.403 802.656 821.587 803.632 821.955 804.528C822.339 805.424 822.867 806.208 823.539 806.88C824.227 807.552 825.027 808.072 825.939 808.44C826.851 808.808 827.843 808.992 828.915 808.992ZM842.176 810V793.2H848.2C849.608 793.2 850.816 793.424 851.824 793.872C852.832 794.32 853.608 794.968 854.152 795.816C854.696 796.648 854.968 797.664 854.968 798.864C854.968 800.032 854.696 801.04 854.152 801.888C853.608 802.736 852.832 803.384 851.824 803.832C850.816 804.28 849.608 804.504 848.2 804.504H842.848L843.4 803.928V810H842.176ZM843.4 804L842.848 803.4H848.2C850.008 803.4 851.376 803.008 852.304 802.224C853.248 801.424 853.72 800.304 853.72 798.864C853.72 797.408 853.248 796.288 852.304 795.504C851.376 794.704 850.008 794.304 848.2 794.304H842.848L843.4 793.704V804ZM869.116 802.68C868.108 803.128 867.1 803.472 866.092 803.712C865.1 803.952 864.148 804.072 863.236 804.072C861.332 804.072 859.844 803.616 858.772 802.704C857.716 801.776 857.188 800.48 857.188 798.816V793.2H858.412V798.696C858.412 800.04 858.844 801.088 859.708 801.84C860.588 802.592 861.796 802.968 863.332 802.968C864.228 802.968 865.164 802.848 866.14 802.608C867.132 802.352 868.124 801.992 869.116 801.528V802.68ZM868.828 810V793.2H870.052V810H868.828ZM876.09 810V793.2H877.314V807.936L888.762 793.2H889.842V810H888.618V795.288L877.17 810H876.09ZM893.951 793.2H895.391L900.455 800.28L905.543 793.2H907.007L901.223 801.288L907.463 810H905.999L900.455 802.32L894.959 810H893.519L899.711 801.312L893.951 793.2ZM917.72 810.12C916.472 810.12 915.312 809.912 914.24 809.496C913.184 809.064 912.256 808.464 911.456 807.696C910.672 806.912 910.064 806.008 909.632 804.984C909.2 803.944 908.984 802.816 908.984 801.6C908.984 800.384 909.2 799.264 909.632 798.24C910.064 797.2 910.672 796.296 911.456 795.528C912.256 794.744 913.184 794.144 914.24 793.728C915.312 793.296 916.472 793.08 917.72 793.08C918.968 793.08 920.12 793.296 921.176 793.728C922.248 794.144 923.176 794.736 923.96 795.504C924.744 796.272 925.352 797.176 925.784 798.216C926.232 799.24 926.456 800.368 926.456 801.6C926.456 802.832 926.232 803.968 925.784 805.008C925.352 806.032 924.744 806.928 923.96 807.696C923.176 808.464 922.248 809.064 921.176 809.496C920.12 809.912 918.968 810.12 917.72 810.12ZM917.72 808.992C918.792 808.992 919.784 808.808 920.696 808.44C921.608 808.072 922.4 807.552 923.072 806.88C923.744 806.208 924.264 805.424 924.632 804.528C925.016 803.632 925.208 802.656 925.208 801.6C925.208 800.528 925.016 799.552 924.632 798.672C924.264 797.776 923.744 796.992 923.072 796.32C922.4 795.648 921.608 795.128 920.696 794.76C919.784 794.392 918.792 794.208 917.72 794.208C916.648 794.208 915.656 794.392 914.744 794.76C913.832 795.128 913.032 795.648 912.344 796.32C911.672 796.992 911.144 797.776 910.76 798.672C910.392 799.552 910.208 800.528 910.208 801.6C910.208 802.656 910.392 803.632 910.76 804.528C911.144 805.424 911.672 806.208 912.344 806.88C913.032 807.552 913.832 808.072 914.744 808.44C915.656 808.808 916.648 808.992 917.72 808.992ZM941.648 809.4V794.304H933.056L932.912 798.816C932.864 800.144 932.784 801.416 932.672 802.632C932.56 803.848 932.392 804.944 932.168 805.92C931.944 806.88 931.632 807.656 931.232 808.248C930.848 808.84 930.36 809.16 929.768 809.208L928.352 808.896C929.024 808.944 929.568 808.712 929.984 808.2C930.416 807.688 930.752 806.96 930.992 806.016C931.248 805.072 931.432 803.976 931.544 802.728C931.656 801.48 931.736 800.144 931.784 798.72L931.952 793.2H942.872V809.4H941.648ZM927.728 813.84L927.752 808.896H945.464V813.84H944.288V810H928.928L928.904 813.84H927.728ZM958.808 810V793.92L959.168 794.304H952.76V793.2H966.08V794.304H959.672L960.032 793.92V810H958.808ZM968.118 808.752C968.902 809.056 969.662 809.128 970.398 808.968C971.134 808.792 971.83 808.192 972.486 807.168L973.302 805.896L973.446 805.704L980.07 793.2H981.342L973.59 807.456C973.11 808.368 972.542 809.04 971.886 809.472C971.246 809.904 970.566 810.128 969.846 810.144C969.142 810.176 968.438 810.048 967.734 809.76L968.118 808.752ZM973.374 806.88L966.174 793.2H967.518L974.07 805.8L973.374 806.88ZM991.431 810.12C990.183 810.12 989.023 809.912 987.951 809.496C986.895 809.064 985.975 808.464 985.191 807.696C984.407 806.928 983.799 806.032 983.367 805.008C982.935 803.968 982.719 802.832 982.719 801.6C982.719 800.368 982.935 799.24 983.367 798.216C983.799 797.176 984.407 796.272 985.191 795.504C985.991 794.736 986.919 794.144 987.975 793.728C989.031 793.296 990.183 793.08 991.431 793.08C992.615 793.08 993.719 793.272 994.743 793.656C995.783 794.04 996.671 794.624 997.407 795.408L996.639 796.2C995.919 795.496 995.119 794.992 994.239 794.688C993.375 794.368 992.455 794.208 991.479 794.208C990.407 794.208 989.407 794.392 988.479 794.76C987.567 795.128 986.767 795.648 986.079 796.32C985.407 796.992 984.879 797.776 984.495 798.672C984.127 799.568 983.943 800.544 983.943 801.6C983.943 802.656 984.127 803.632 984.495 804.528C984.879 805.424 985.407 806.208 986.079 806.88C986.767 807.552 987.567 808.072 988.479 808.44C989.407 808.808 990.407 808.992 991.479 808.992C992.455 808.992 993.375 808.84 994.239 808.536C995.119 808.216 995.919 807.696 996.639 806.976L997.407 807.768C996.671 808.552 995.783 809.144 994.743 809.544C993.719 809.928 992.615 810.12 991.431 810.12ZM998.351 810L1006.08 793.2H1007.3L1015.03 810H1013.71L1006.41 793.968H1006.94L999.671 810H998.351ZM1001.18 805.272L1001.59 804.24H1011.65L1012.05 805.272H1001.18ZM1016.91 810.12C1016.72 810.12 1016.53 810.104 1016.34 810.072C1016.16 810.056 1015.95 810.024 1015.71 809.976L1015.86 808.848C1016.13 808.912 1016.39 808.944 1016.65 808.944C1017.38 808.944 1017.98 808.656 1018.42 808.08C1018.89 807.504 1019.24 806.6 1019.48 805.368C1019.72 804.12 1019.88 802.496 1019.96 800.496L1020.2 793.2H1031.22V810H1029.99V793.92L1030.35 794.304H1020.97L1021.33 793.92L1021.09 800.472C1021.02 802.168 1020.9 803.624 1020.73 804.84C1020.55 806.04 1020.3 807.032 1019.96 807.816C1019.64 808.6 1019.22 809.184 1018.71 809.568C1018.22 809.936 1017.62 810.12 1016.91 810.12ZM1049.73 793.2H1050.95V810H1049.73V793.2ZM1038.49 810H1037.27V793.2H1038.49V810ZM1049.87 802.008H1038.35V800.928H1049.87V802.008ZM1054.44 810L1062.16 793.2H1063.39L1071.12 810H1069.8L1062.5 793.968H1063.03L1055.76 810H1054.44ZM1057.27 805.272L1057.68 804.24H1067.73L1068.14 805.272H1057.27Z" fill="white"/>
<g opacity="0.1">
<path d="M867.854 868.52C858.149 877.852 828.693 906.881 810.764 924.571C802.8 932.429 790.01 932.375 782.114 924.441L727.01 869.123C725.836 867.944 723.837 868.78 723.837 870.445L723.837 901.379C723.837 901.872 724.034 902.352 724.383 902.701L772.961 951.469C776.715 955.237 781.8 957.348 787.102 957.348L807.086 957.348C812.463 957.348 817.623 955.203 821.431 951.38L870.044 902.578C870.386 902.235 870.584 901.77 870.59 901.283L871 869.897C871.02 868.239 869.048 867.376 867.854 868.52Z" fill="white"/>
</g>
<path d="M640.288 760.768C636.746 760.768 633.482 760.213 630.496 759.104C627.552 757.952 624.97 756.331 622.752 754.24C620.576 752.149 618.869 749.696 617.632 746.88C616.437 744.064 615.84 740.971 615.84 737.6C615.84 734.229 616.437 731.136 617.632 728.32C618.869 725.504 620.597 723.051 622.816 720.96C625.034 718.869 627.637 717.269 630.624 716.16C633.61 715.008 636.896 714.432 640.48 714.432C644.448 714.432 648.01 715.093 651.168 716.416C654.368 717.739 657.056 719.659 659.232 722.176L652.576 728.32C650.954 726.613 649.184 725.355 647.264 724.544C645.344 723.691 643.253 723.264 640.992 723.264C638.816 723.264 636.832 723.605 635.04 724.288C633.248 724.971 631.69 725.952 630.368 727.232C629.088 728.512 628.085 730.027 627.36 731.776C626.677 733.525 626.336 735.467 626.336 737.6C626.336 739.691 626.677 741.611 627.36 743.36C628.085 745.109 629.088 746.645 630.368 747.968C631.69 749.248 633.226 750.229 634.976 750.912C636.768 751.595 638.73 751.936 640.864 751.936C642.912 751.936 644.896 751.616 646.816 750.976C648.778 750.293 650.677 749.163 652.512 747.584L658.4 755.072C655.968 756.907 653.13 758.315 649.888 759.296C646.688 760.277 643.488 760.768 640.288 760.768ZM648.928 753.728V736.896H658.4V755.072L648.928 753.728ZM668.031 760V715.2H678.399V760H668.031ZM698.631 735.36H720.135V743.68H698.631V735.36ZM699.399 760H689.031V715.2H722.887V723.52H699.399V760ZM739.498 760V723.648H725.162V715.2H764.202V723.648H749.866V760H739.498ZM809.346 760.768C805.89 760.768 802.668 760.213 799.682 759.104C796.738 757.952 794.178 756.331 792.002 754.24C789.826 752.149 788.119 749.696 786.882 746.88C785.687 744.064 785.09 740.971 785.09 737.6C785.09 734.229 785.687 731.136 786.882 728.32C788.119 725.504 789.826 723.051 792.002 720.96C794.22 718.869 796.802 717.269 799.746 716.16C802.69 715.008 805.911 714.432 809.41 714.432C813.292 714.432 816.791 715.115 819.906 716.48C823.063 717.803 825.708 719.765 827.842 722.368L821.186 728.512C819.65 726.763 817.943 725.461 816.066 724.608C814.188 723.712 812.14 723.264 809.922 723.264C807.831 723.264 805.911 723.605 804.162 724.288C802.412 724.971 800.898 725.952 799.618 727.232C798.338 728.512 797.335 730.027 796.61 731.776C795.927 733.525 795.586 735.467 795.586 737.6C795.586 739.733 795.927 741.675 796.61 743.424C797.335 745.173 798.338 746.688 799.618 747.968C800.898 749.248 802.412 750.229 804.162 750.912C805.911 751.595 807.831 751.936 809.922 751.936C812.14 751.936 814.188 751.509 816.066 750.656C817.943 749.76 819.65 748.416 821.186 746.624L827.842 752.768C825.708 755.371 823.063 757.355 819.906 758.72C816.791 760.085 813.271 760.768 809.346 760.768ZM828.143 760L848.111 715.2H858.351L878.383 760H867.503L851.119 720.448H855.215L838.767 760H828.143ZM838.127 750.4L840.879 742.528H863.919L866.735 750.4H838.127ZM883.031 760V715.2H902.423C906.433 715.2 909.889 715.861 912.791 717.184C915.692 718.464 917.932 720.32 919.511 722.752C921.089 725.184 921.879 728.085 921.879 731.456C921.879 734.784 921.089 737.664 919.511 740.096C917.932 742.485 915.692 744.32 912.791 745.6C909.889 746.88 906.433 747.52 902.423 747.52H888.791L893.399 742.976V760H883.031ZM911.511 760L900.311 743.744H911.383L922.711 760H911.511ZM893.399 744.128L888.791 739.264H901.847C905.047 739.264 907.436 738.581 909.015 737.216C910.593 735.808 911.383 733.888 911.383 731.456C911.383 728.981 910.593 727.061 909.015 725.696C907.436 724.331 905.047 723.648 901.847 723.648H888.791L893.399 718.72V744.128ZM930.093 760V715.2H950.445C955.309 715.2 959.597 716.139 963.309 718.016C967.021 719.851 969.923 722.432 972.013 725.76C974.104 729.088 975.149 733.035 975.149 737.6C975.149 742.123 974.104 746.069 972.013 749.44C969.923 752.768 967.021 755.371 963.309 757.248C959.597 759.083 955.309 760 950.445 760H930.093ZM940.461 751.488H949.933C952.92 751.488 955.501 750.933 957.677 749.824C959.896 748.672 961.603 747.051 962.797 744.96C964.035 742.869 964.653 740.416 964.653 737.6C964.653 734.741 964.035 732.288 962.797 730.24C961.603 728.149 959.896 726.549 957.677 725.44C955.501 724.288 952.92 723.712 949.933 723.712H940.461V751.488Z" fill="white"/>
<path d="M1069.5 738L990 738" stroke="url(#paint1_linear_571_29457)"/>
<path d="M522 738L601.5 738" stroke="url(#paint2_linear_571_29457)"/>
<defs>
<linearGradient id="paint0_linear_571_29457" x1="797.759" y1="318.473" x2="797.759" y2="449.63" gradientUnits="userSpaceOnUse">
<stop stop-color="#E20D01"/>
<stop offset="1" stop-color="#580702"/>
</linearGradient>
<linearGradient id="paint1_linear_571_29457" x1="1069.5" y1="738.5" x2="990" y2="738.5" gradientUnits="userSpaceOnUse">
<stop stop-color="white" stop-opacity="0"/>
<stop offset="1" stop-color="white"/>
</linearGradient>
<linearGradient id="paint2_linear_571_29457" x1="522" y1="738.5" x2="601.5" y2="738.5" gradientUnits="userSpaceOnUse">
<stop stop-color="white" stop-opacity="0"/>
<stop offset="1" stop-color="white"/>
</linearGradient>
</defs>
</svg>
